<svg width="20" height="16" viewBox="0 0 20 16" fill="none" xmlns="http://www.w3.org/2000/svg">
<path d="M17.5585 0.389832H2.44569C1.09663 0.389832 0 1.48646 0 2.83552V13.1645C0 14.5136 1.09663 15.6102 2.44569 15.6102H17.5543C18.9034 15.6102 20 14.5136 20 13.1645V2.83966C20.0041 1.4906 18.9075 0.389832 17.5585 0.389832ZM18.8868 13.1645C18.8868 13.897 18.2909 14.4929 17.5585 14.4929H2.44569C1.71322 14.4929 1.11732 13.897 1.11732 13.1645V2.83966C1.11732 2.10719 1.71322 1.51129 2.44569 1.51129H17.5543C18.2868 1.51129 18.8827 2.10719 18.8827 2.83966V13.1645H18.8868Z" fill="white"/>
<path d="M12.6133 7.87175L17.5046 3.48524C17.7322 3.27833 17.7529 2.92658 17.546 2.69484C17.3391 2.46724 16.9874 2.44655 16.7556 2.65346L10.0103 8.70767L8.69437 7.53242C8.69023 7.52828 8.68609 7.52414 8.68609 7.52C8.65712 7.49104 8.62816 7.46621 8.59505 7.44138L3.2402 2.64932C3.00846 2.44241 2.65671 2.4631 2.4498 2.69484C2.24289 2.92658 2.26358 3.27833 2.49532 3.48524L7.44463 7.909L2.51601 12.5231C2.29255 12.7342 2.28013 13.0859 2.49118 13.3135C2.60291 13.4294 2.75189 13.4914 2.90086 13.4914C3.03743 13.4914 3.17399 13.4418 3.28158 13.3425L8.28468 8.66215L9.64202 9.87465C9.74961 9.96983 9.88204 10.0153 10.0145 10.0153C10.1469 10.0153 10.2834 9.96569 10.3869 9.87051L11.7815 8.62077L16.7556 13.3466C16.8632 13.4501 17.0039 13.4997 17.1405 13.4997C17.2894 13.4997 17.4343 13.4418 17.546 13.3259C17.7571 13.1025 17.7488 12.7466 17.5253 12.5355L12.6133 7.87175Z" fill="white"/>
</svg>
