<svg width="47" height="58" viewBox="0 0 47 58" fill="none" xmlns="http://www.w3.org/2000/svg">
<path d="M14.9665 7.86145C14.9665 11.9669 11.5531 15.2862 7.43948 15.1988C3.32588 15.1115 0 11.7922 0 7.5994C0 3.49398 3.41341 0.262054 7.527 0.262054C11.6406 0.349404 14.9665 3.75603 14.9665 7.86145Z" fill="#FFD336"/>
<path d="M14.879 8.21083C14.6164 11.7048 11.378 14.5 7.43948 14.4126C3.50093 14.4126 0.26257 11.5301 0 8.03613C0.175047 11.9669 3.41341 15.1114 7.43948 15.1988C11.4655 15.2861 14.7039 12.2289 14.879 8.21083Z" fill="#F5D5A4"/>
<path d="M7.527 0.8735C11.5531 0.96085 14.7914 4.19278 14.9665 8.1235C14.9665 8.03615 14.9665 7.9488 14.9665 7.86145C14.9665 3.75603 11.6406 0.349404 7.527 0.262054C3.41341 0.262054 0 3.49398 0 7.5994C0 7.68675 0 7.86145 0 7.9488C0.175047 3.93073 3.50093 0.786151 7.527 0.8735Z" fill="#FFB82B"/>
<path d="M6.82676 12.667C6.38914 12.667 6.03905 12.5797 5.68895 12.4923C5.33886 12.405 5.16381 12.3176 4.98877 12.1429L5.42638 10.658C5.60143 10.7453 5.77648 10.8327 5.95152 10.92C6.21409 11.0074 6.47666 11.0947 6.73923 11.0947V8.12484C6.56419 8.03749 6.30162 7.95014 6.12657 7.77544C5.864 7.60074 5.68895 7.42604 5.51391 7.16399C5.33886 6.90194 5.16382 6.72725 5.07629 6.37785C4.98877 6.1158 4.90125 5.7664 4.90125 5.32965C4.90125 4.63086 5.07629 4.10676 5.42638 3.67002C5.77648 3.23327 6.21409 2.97122 6.82676 2.88387V1.66098H8.13961V2.88387C8.4897 2.88387 8.75227 2.97122 9.01484 3.05857C9.27741 3.14592 9.45246 3.23327 9.71503 3.32062L9.27741 4.71821C9.18989 4.63086 9.01484 4.54351 8.83979 4.54351C8.57722 4.45616 8.31465 4.36881 8.13961 4.36881V7.07664C8.31465 7.16399 8.57722 7.33869 8.75227 7.51339C9.01484 7.68809 9.18989 7.86279 9.36493 8.12484C9.53998 8.29953 9.71502 8.64893 9.80255 8.91098C9.89007 9.17303 9.97759 9.52243 9.97759 9.95917C9.97759 10.7453 9.80255 11.3568 9.45246 11.7935C9.10236 12.2303 8.66475 12.5797 8.05208 12.667V13.8899H6.73923L6.82676 12.667ZM7.3519 4.28146C7.08933 4.36881 6.82676 4.45616 6.73923 4.63086C6.56419 4.80556 6.56419 5.06761 6.56419 5.24231C6.56419 5.50435 6.65171 5.7664 6.82676 5.9411C7.0018 6.1158 7.17685 6.2905 7.43942 6.4652L7.3519 4.28146ZM7.52694 11.1821C7.78951 11.0947 8.05208 11.0074 8.13961 10.8327C8.31465 10.658 8.31465 10.3959 8.40218 10.0465C8.40218 9.78447 8.31465 9.52243 8.13961 9.26038C7.96456 9.08568 7.78951 8.82363 7.52694 8.73628V11.1821Z" fill="url(#paint0_linear)"/>
<path d="M9.89007 8.8223C9.80255 8.56025 9.6275 8.2982 9.45246 8.03615C9.18989 7.86145 9.01484 7.68675 8.75227 7.51206C8.57722 7.33736 8.31465 7.16266 8.13961 6.98796V4.28013C8.31465 4.36748 8.57722 4.45483 8.75227 4.45483C8.92732 4.54218 9.10236 4.62953 9.18989 4.62953L9.6275 3.23193C9.45246 3.14459 9.18989 3.05724 8.92732 2.96989C8.66475 2.88254 8.40218 2.79519 8.05208 2.79519V1.5723H6.73923V2.79519C6.21409 2.96989 5.77648 3.23193 5.42638 3.66868C5.07629 4.10543 4.90125 4.62953 4.90125 5.32832C4.90125 5.76507 4.98877 6.11446 5.07629 6.37651C5.16382 6.63856 5.33886 6.90061 5.51391 7.16266C5.68895 7.42471 5.864 7.5994 6.12657 7.7741C6.38914 7.9488 6.56419 8.1235 6.82676 8.21085V11.1807C6.47666 11.1807 6.21409 11.0934 6.03905 11.006C5.77648 10.9187 5.60143 10.8313 5.51391 10.744L5.07629 12.2289C5.25134 12.3163 5.51391 12.491 5.77648 12.5783C6.12657 12.6657 6.47666 12.753 6.91428 12.753V13.8886H8.22713V12.6657C8.83979 12.5783 9.27741 12.2289 9.6275 11.7922C9.9776 11.3554 10.1526 10.744 10.1526 9.95784C10.0651 9.52109 9.9776 9.17169 9.89007 8.8223ZM9.27741 11.1807C8.92732 11.6175 8.4897 11.8795 7.96456 11.9669L7.70199 12.0542V13.2771H7.08933V12.1416H6.73923C6.30162 12.1416 5.95152 12.0542 5.68895 11.9669C5.60143 11.9669 5.51391 11.8795 5.42638 11.8795L5.51391 11.5301C5.60143 11.6175 5.77648 11.6175 5.864 11.7048C6.12657 11.7922 6.38914 11.8795 6.73923 11.8795L7.08933 11.9669V7.86145C7.08933 7.86145 6.38914 7.42471 6.21409 7.25001C6.03905 6.98796 5.864 6.81326 5.68895 6.63856C5.51391 6.46386 5.42638 6.28916 5.33886 6.02712C5.25134 5.85242 5.25134 5.59037 5.25134 5.32832C5.25134 4.80422 5.33886 4.54218 5.60143 4.19278C5.95152 3.84338 6.30162 3.58133 6.82676 3.49398L7.08933 3.40663V2.27109H7.70199V3.40663H8.05208C8.31465 3.40663 8.57722 3.49398 8.83979 3.58133C8.92732 3.58133 9.01484 3.66868 9.10236 3.66868L9.01484 3.93073C8.92732 3.93073 8.83979 3.84338 8.75227 3.84338C8.57722 3.75603 8.40218 3.75603 8.13961 3.66868H7.78951V7.51206L8.05208 7.5994C8.22713 7.68675 8.4897 7.86145 8.66475 8.03615C8.92732 8.21085 9.10236 8.38555 9.18989 8.56025C9.36493 8.73495 9.45246 8.99699 9.53998 9.17169C9.6275 9.34639 9.6275 9.52109 9.6275 9.78314C9.71503 10.3946 9.53998 10.8313 9.27741 11.1807Z" fill="#F5D5A4"/>
<path d="M47 7.59937C47 11.7048 43.5866 15.0241 39.473 14.9367C35.3594 14.8494 31.946 11.4427 32.0335 7.33732C32.0335 3.2319 35.4469 -0.087373 39.5605 -2.36251e-05C43.6741 0.0873258 47 3.49395 47 7.59937Z" fill="#FFD336"/>
<path d="M46.9125 7.94882C46.65 11.4428 43.4116 14.238 39.3855 14.1506C35.3595 14.0633 32.2086 11.2681 31.946 7.68677C32.1211 11.6175 35.3595 14.8494 39.3855 14.8494C43.4991 15.0241 46.7375 11.9669 46.9125 7.94882Z" fill="#F5D5A4"/>
<path d="M39.473 0.611422C43.4991 0.698772 46.7375 3.9307 46.9125 7.86142C46.9125 7.77407 46.9125 7.68672 46.9125 7.59937C46.9125 3.49395 43.5866 0.0873258 39.473 -2.36247e-05C35.3595 -0.087373 31.946 3.2319 31.946 7.33733C31.946 7.42468 31.946 7.51203 31.946 7.59937C32.2086 3.66865 35.447 0.524073 39.473 0.611422Z" fill="#FFB82B"/>
<path d="M41.4861 3.66867V1.74698C38.2478 1.74698 36.1472 3.14457 35.7096 5.76505H34.7468V6.63855H35.6221C35.6221 6.72589 35.6221 6.90059 35.6221 6.98794C35.6221 7.16264 35.6221 7.33734 35.6221 7.51204H34.7468V8.82228H35.8846C36.5848 11.006 38.6854 12.2289 41.4861 12.2289V10.3072C39.8232 10.3072 38.7729 9.87047 38.3353 8.82228H41.136V7.59939H38.0727C38.0727 7.42469 38.0727 7.24999 38.0727 7.07529C38.0727 6.98794 38.0727 6.81324 38.0727 6.72589H41.2235V5.8524H38.1602C38.3353 4.28011 39.3856 3.66867 41.4861 3.66867Z" fill="url(#paint1_linear)"/>
<path d="M41.4861 3.66867V1.74698C38.2478 1.74698 36.1472 3.14457 35.7096 5.76505H34.7468V6.63855H35.6221C35.6221 6.72589 35.6221 6.90059 35.6221 6.98794C35.6221 7.16264 35.6221 7.33734 35.6221 7.51204H34.7468V8.82228H35.8846C36.5848 11.006 38.6854 12.2289 41.4861 12.2289V10.3072C39.8232 10.3072 38.7729 9.87047 38.3353 8.82228H41.136V7.59939H38.0727C38.0727 7.42469 38.0727 7.24999 38.0727 7.07529C38.0727 6.98794 38.0727 6.81324 38.0727 6.72589H41.2235V5.8524H38.1602C38.3353 4.28011 39.3856 3.66867 41.4861 3.66867ZM37.6351 5.76505L37.5476 6.28915C37.5476 6.28915 37.5476 6.90059 37.5476 7.07529C37.5476 7.24999 37.5476 7.42469 37.5476 7.59939V8.03614L37.9852 8.12349H40.6109V8.56023H37.5476L37.8977 9.17168C38.4228 10.2199 39.3856 10.744 41.0485 10.8313V11.8795C38.5979 11.7922 36.9349 10.6566 36.3222 8.82228L36.2347 8.47288H35.1844V8.03614H36.1472V7.51204C36.1472 7.33734 36.1472 7.16264 36.1472 6.98794V6.28915H35.8846H36.1472L36.2347 5.93975C36.7599 3.14457 39.0355 2.35842 41.136 2.27108V3.31927C38.9479 3.31927 37.8977 4.10541 37.6351 5.76505Z" fill="#F5D5A4"/>
<path d="M26.257 10.0452L29.7579 5.93977L26.257 1.83435V4.10544H18.6425V7.77411H26.257V10.0452Z" fill="url(#paint2_linear)"/>
<path d="M25.7318 7.25003H18.6425V7.77413H25.7318V7.25003Z" fill="url(#paint3_linear)"/>
<path d="M26.257 1.83435V1.9217L29.2328 5.41568L26.257 8.8223V10.0452L29.7579 5.93977L26.257 1.83435Z" fill="url(#paint4_linear)"/>
<path d="M39.3854 55.4669C39.3854 56.8645 38.3352 58 37.1098 58H9.27744C7.96459 58 7.00183 56.8645 7.00183 55.4669V15.2862C7.00183 13.8886 8.05211 12.753 9.27744 12.753H37.1098C38.4227 12.753 39.3854 13.8886 39.3854 15.2862V55.4669Z" fill="url(#paint5_linear)"/>
<path d="M37.0223 56.5151H9.27744C7.96459 56.5151 7.00183 55.3795 7.00183 53.9819V55.4669C7.00183 56.8645 8.05211 58 9.27744 58H37.1098C38.4227 58 39.3854 56.8645 39.3854 55.4669V53.9819C39.3854 55.3795 38.3352 56.5151 37.0223 56.5151Z" fill="#9FCBD6"/>
<path d="M37.0223 12.8417H9.27744C7.96459 12.8417 7.00183 13.9772 7.00183 15.3748V25.5947H39.3854V15.3748C39.3854 13.9772 38.3352 12.8417 37.0223 12.8417Z" fill="url(#paint6_linear)"/>
<path opacity="0.3" d="M37.0223 12.8417H9.27744C7.96459 12.8417 7.00183 13.9772 7.00183 15.3748V16.0736C7.00183 14.676 8.05211 13.5405 9.27744 13.5405H37.1098C38.4227 13.5405 39.3854 14.676 39.3854 16.0736V15.3748C39.3854 13.9772 38.3352 12.8417 37.0223 12.8417Z" fill="white"/>
<path opacity="0.2" d="M36.1471 15.1988H10.1527V23.1476H36.1471V15.1988Z" fill="#FF832B"/>
<path d="M35.3594 16.0723H10.9404V22.3615H35.3594V16.0723Z" fill="url(#paint7_linear)"/>
<path d="M10.9404 16.0723V22.3615H35.3594V16.0723H10.9404ZM35.0093 21.9247H11.378V16.509H35.0093V21.9247Z" fill="#C0DDE4"/>
<path d="M15.4041 35.6386C15.4041 35.988 15.1415 36.25 14.7914 36.25H10.6778C10.3278 36.25 10.0652 35.988 10.0652 35.6386V31.5331C10.0652 31.1837 10.3278 30.9217 10.6778 30.9217H14.7914C15.1415 30.9217 15.4041 31.1837 15.4041 31.5331V35.6386Z" fill="#9FCBD6"/>
<path d="M22.581 35.6386C22.581 35.988 22.3184 36.25 21.9683 36.25H17.8547C17.5046 36.25 17.2421 35.988 17.2421 35.6386V31.5331C17.2421 31.1837 17.5046 30.9217 17.8547 30.9217H21.9683C22.3184 30.9217 22.581 31.1837 22.581 31.5331V35.6386Z" fill="#9FCBD6"/>
<path d="M29.7579 35.6386C29.7579 35.988 29.4953 36.25 29.1452 36.25H25.0316C24.6815 36.25 24.4189 35.988 24.4189 35.6386V31.5331C24.4189 31.1837 24.6815 30.9217 25.0316 30.9217H29.1452C29.4953 30.9217 29.7579 31.1837 29.7579 31.5331V35.6386Z" fill="#9FCBD6"/>
<path d="M36.9348 35.6386C36.9348 35.988 36.6722 36.25 36.3221 36.25H32.2085C31.8584 36.25 31.5958 35.988 31.5958 35.6386V31.5331C31.5958 31.1837 31.8584 30.9217 32.2085 30.9217H36.3221C36.6722 30.9217 36.9348 31.1837 36.9348 31.5331V35.6386Z" fill="#9FCBD6"/>
<path d="M15.4041 44.2861C15.4041 44.6355 15.1415 44.8976 14.7914 44.8976H10.6778C10.3278 44.8976 10.0652 44.6355 10.0652 44.2861V40.1807C10.0652 39.8313 10.3278 39.5693 10.6778 39.5693H14.7914C15.1415 39.5693 15.4041 39.8313 15.4041 40.1807V44.2861Z" fill="#9FCBD6"/>
<path d="M22.581 44.2861C22.581 44.6355 22.3184 44.8976 21.9683 44.8976H17.8547C17.5046 44.8976 17.2421 44.6355 17.2421 44.2861V40.1807C17.2421 39.8313 17.5046 39.5693 17.8547 39.5693H21.9683C22.3184 39.5693 22.581 39.8313 22.581 40.1807V44.2861Z" fill="#9FCBD6"/>
<path d="M29.7579 44.2861C29.7579 44.6355 29.4953 44.8976 29.1452 44.8976H25.0316C24.6815 44.8976 24.4189 44.6355 24.4189 44.2861V40.1807C24.4189 39.8313 24.6815 39.5693 25.0316 39.5693H29.1452C29.4953 39.5693 29.7579 39.8313 29.7579 40.1807V44.2861Z" fill="#9FCBD6"/>
<path d="M15.4041 52.8464C15.4041 53.1958 15.1415 53.4578 14.7914 53.4578H10.6778C10.3278 53.4578 10.0652 53.1958 10.0652 52.8464V48.741C10.0652 48.3916 10.3278 48.1295 10.6778 48.1295H14.7914C15.1415 48.1295 15.4041 48.3916 15.4041 48.741V52.8464Z" fill="#9FCBD6"/>
<path d="M22.581 52.8464C22.581 53.1958 22.3184 53.4578 21.9683 53.4578H17.8547C17.5046 53.4578 17.2421 53.1958 17.2421 52.8464V48.741C17.2421 48.3916 17.5046 48.1295 17.8547 48.1295H21.9683C22.3184 48.1295 22.581 48.3916 22.581 48.741V52.8464Z" fill="#9FCBD6"/>
<path d="M29.7579 52.8464C29.7579 53.1958 29.4953 53.4578 29.1452 53.4578H25.0316C24.6815 53.4578 24.4189 53.1958 24.4189 52.8464V48.741C24.4189 48.3916 24.6815 48.1295 25.0316 48.1295H29.1452C29.4953 48.1295 29.7579 48.3916 29.7579 48.741V52.8464Z" fill="#9FCBD6"/>
<path d="M36.3221 39.5693H32.2085C31.8584 39.5693 31.5958 39.8313 31.5958 40.1807V42.2771V44.3735V48.8283V50.9247V53.0211C31.5958 53.3705 31.8584 53.6325 32.2085 53.6325H36.3221C36.6722 53.6325 36.9348 53.3705 36.9348 53.0211V50.9247V48.8283V44.3735V42.2771V40.1807C36.9348 39.8313 36.6722 39.5693 36.3221 39.5693Z" fill="#9FCBD6"/>
<path d="M15.054 35.2018C15.054 35.5512 14.7914 35.8133 14.4413 35.8133H10.3278C9.97766 35.8133 9.71509 35.5512 9.71509 35.2018V31.0964C9.71509 30.747 9.97766 30.485 10.3278 30.485H14.4413C14.7914 30.485 15.054 30.747 15.054 31.0964V35.2018Z" fill="url(#paint8_linear)"/>
<path d="M22.2309 35.2018C22.2309 35.5512 21.9683 35.8133 21.6182 35.8133H17.5046C17.1545 35.8133 16.892 35.5512 16.892 35.2018V31.0964C16.892 30.747 17.1545 30.485 17.5046 30.485H21.6182C21.9683 30.485 22.2309 30.747 22.2309 31.0964V35.2018Z" fill="url(#paint9_linear)"/>
<path d="M29.4078 35.2018C29.4078 35.5512 29.1452 35.8133 28.7951 35.8133H24.6815C24.3314 35.8133 24.0688 35.5512 24.0688 35.2018V31.0964C24.0688 30.747 24.3314 30.485 24.6815 30.485H28.7951C29.1452 30.485 29.4078 30.747 29.4078 31.0964V35.2018Z" fill="url(#paint10_linear)"/>
<path d="M36.5848 35.2018C36.5848 35.5512 36.3222 35.8133 35.9721 35.8133H31.8585C31.5084 35.8133 31.2458 35.5512 31.2458 35.2018V31.0964C31.2458 30.747 31.5084 30.485 31.8585 30.485H35.9721C36.3222 30.485 36.5848 30.747 36.5848 31.0964V35.2018Z" fill="url(#paint11_linear)"/>
<path d="M15.054 43.7621C15.054 44.1115 14.7914 44.3735 14.4413 44.3735H10.3278C9.97766 44.3735 9.71509 44.1115 9.71509 43.7621V39.6566C9.71509 39.3072 9.97766 39.0452 10.3278 39.0452H14.4413C14.7914 39.0452 15.054 39.3072 15.054 39.6566V43.7621Z" fill="url(#paint12_linear)"/>
<path d="M22.2309 43.7621C22.2309 44.1115 21.9683 44.3735 21.6182 44.3735H17.5046C17.1545 44.3735 16.892 44.1115 16.892 43.7621V39.6566C16.892 39.3072 17.1545 39.0452 17.5046 39.0452H21.6182C21.9683 39.0452 22.2309 39.3072 22.2309 39.6566V43.7621Z" fill="url(#paint13_linear)"/>
<path d="M29.4078 43.7621C29.4078 44.1115 29.1452 44.3735 28.7951 44.3735H24.6815C24.3314 44.3735 24.0688 44.1115 24.0688 43.7621V39.6566C24.0688 39.3072 24.3314 39.0452 24.6815 39.0452H28.7951C29.1452 39.0452 29.4078 39.3072 29.4078 39.6566V43.7621Z" fill="url(#paint14_linear)"/>
<path d="M15.054 52.4096C15.054 52.759 14.7914 53.0211 14.4413 53.0211H10.3278C9.97766 53.0211 9.71509 52.759 9.71509 52.4096V48.3042C9.71509 47.9548 9.97766 47.6928 10.3278 47.6928H14.4413C14.7914 47.6928 15.054 47.9548 15.054 48.3042V52.4096Z" fill="url(#paint15_linear)"/>
<path d="M22.2309 52.4096C22.2309 52.759 21.9683 53.0211 21.6182 53.0211H17.5046C17.1545 53.0211 16.892 52.759 16.892 52.4096V48.3042C16.892 47.9548 17.1545 47.6928 17.5046 47.6928H21.6182C21.9683 47.6928 22.2309 47.9548 22.2309 48.3042V52.4096Z" fill="url(#paint16_linear)"/>
<path d="M29.4078 52.4096C29.4078 52.759 29.1452 53.0211 28.7951 53.0211H24.6815C24.3314 53.0211 24.0688 52.759 24.0688 52.4096V48.3042C24.0688 47.9548 24.3314 47.6928 24.6815 47.6928H28.7951C29.1452 47.6928 29.4078 47.9548 29.4078 48.3042V52.4096Z" fill="url(#paint17_linear)"/>
<path d="M35.9721 39.0452H31.8585C31.5084 39.0452 31.2458 39.3072 31.2458 39.6566V41.753V43.8494V48.3042V50.4006V52.4097C31.2458 52.7591 31.5084 53.0211 31.8585 53.0211H35.9721C36.3222 53.0211 36.5848 52.7591 36.5848 52.4097V50.3133V48.2169V43.7621V41.6657V39.5693C36.5848 39.3072 36.3222 39.0452 35.9721 39.0452Z" fill="url(#paint18_linear)"/>
<path opacity="0.5" d="M39.2979 25.5934H6.91431V26.2922H39.2979V25.5934Z" fill="#45778A"/>
<path d="M39.2979 24.8072H6.91431V25.506H39.2979V24.8072Z" fill="#C0DDE4"/>
<path d="M24.8566 20.0917H25.5568V18.0827L25.6443 17.7333L25.3817 17.9953L24.9441 18.3447L24.6815 17.9953L25.8193 17.0345H26.2569V20.0917H26.9571V20.7032H24.8566V20.0917Z" fill="url(#paint19_linear)"/>
<path d="M27.4823 20.3524C27.4823 20.2651 27.4823 20.1777 27.5698 20.0904C27.6573 20.003 27.7449 20.003 27.8324 20.003C28.0074 20.003 28.095 20.0904 28.1825 20.1777C28.27 20.2651 28.27 20.4398 28.27 20.5271C28.27 20.7018 28.27 20.7892 28.1825 20.9639C28.095 21.0512 28.095 21.1386 28.0074 21.2259C27.9199 21.3133 27.8324 21.4006 27.7449 21.4006C27.6573 21.4006 27.5698 21.488 27.4823 21.488L27.3073 21.2259C27.3948 21.2259 27.4823 21.1386 27.5698 21.0512C27.6573 20.9639 27.6573 20.8765 27.6573 20.7892C27.5698 20.7892 27.4823 20.7892 27.3948 20.7018C27.5698 20.5271 27.4823 20.4398 27.4823 20.3524Z" fill="url(#paint20_linear)"/>
<path d="M28.9702 20.0917H29.6704V18.0827L29.7579 17.7333L29.4954 17.9953L29.0577 18.3447L28.7952 17.9953L29.933 17.0345H30.2831V20.0917H30.9832V20.7032H28.8827V20.0917H28.9702Z" fill="url(#paint21_linear)"/>
<path d="M33.8714 17.9066C33.8714 18.0813 33.8714 18.256 33.7839 18.4307C33.6964 18.6054 33.6089 18.7801 33.5213 18.9548C33.4338 19.1295 33.3463 19.3042 33.1712 19.4789C33.0837 19.6536 32.9087 19.8283 32.8212 19.9157L32.5586 20.0904L32.9087 20.003H33.8714V20.6145H31.6833V20.2651C31.7709 20.1777 31.8584 20.0904 31.9459 20.003C32.0334 19.9157 32.121 19.741 32.296 19.6536C32.3835 19.5663 32.4711 19.3916 32.6461 19.2169C32.7336 19.0422 32.8212 18.9548 32.9087 18.7801C32.9962 18.6054 33.0837 18.5181 33.0837 18.3434C33.1712 18.256 33.1712 18.0813 33.1712 17.994C33.1712 17.8193 33.1712 17.7319 33.0837 17.6446C32.9962 17.5572 32.9087 17.4699 32.7336 17.4699C32.6461 17.4699 32.4711 17.4699 32.3835 17.5572C32.296 17.6446 32.2085 17.6446 32.121 17.7319L31.8584 17.2952C32.0334 17.2078 32.121 17.1205 32.296 17.0332C32.4711 16.9458 32.6461 16.9458 32.9087 16.9458C33.0837 16.9458 33.1712 16.9458 33.3463 17.0332C33.4338 17.0332 33.6089 17.1205 33.6964 17.2078C33.7839 17.2952 33.8714 17.3825 33.8714 17.4699C33.8714 17.6446 33.8714 17.7319 33.8714 17.9066Z" fill="url(#paint22_linear)"/>
<defs>
<linearGradient id="paint0_linear" x1="7.48047" y1="13.8361" x2="7.48047" y2="1.64552" gradientUnits="userSpaceOnUse">
<stop stop-color="#FF7B00"/>
<stop offset="0.0241918" stop-color="#FF7D01"/>
<stop offset="0.6742" stop-color="#FFAB0F"/>
<stop offset="1" stop-color="#FFBD14"/>
</linearGradient>
<linearGradient id="paint1_linear" x1="36.4964" y1="3.74055" x2="43.2573" y2="10.5149" gradientUnits="userSpaceOnUse">
<stop stop-color="#FFBD14"/>
<stop offset="0.0523943" stop-color="#FFB612"/>
<stop offset="0.2728" stop-color="#FF9C0A"/>
<stop offset="0.5004" stop-color="#FF8A04"/>
<stop offset="0.7377" stop-color="#FF7F01"/>
<stop offset="1" stop-color="#FF7B00"/>
</linearGradient>
<linearGradient id="paint2_linear" x1="24.2126" y1="10.0507" x2="24.2126" y2="1.83182" gradientUnits="userSpaceOnUse">
<stop stop-color="#81B510"/>
<stop offset="0.0278556" stop-color="#7FB410"/>
<stop offset="0.3315" stop-color="#6DAD12"/>
<stop offset="0.649" stop-color="#62A914"/>
<stop offset="1" stop-color="#5EA814"/>
</linearGradient>
<linearGradient id="paint3_linear" x1="25.7366" y1="7.50666" x2="18.6851" y2="7.50666" gradientUnits="userSpaceOnUse">
<stop stop-color="#B0CCD6"/>
<stop offset="0.0437067" stop-color="#B4D0D9"/>
<stop offset="0.2378" stop-color="#C1DBE3"/>
<stop offset="0.4888" stop-color="#C9E1E9"/>
<stop offset="1" stop-color="#CBE3EB"/>
</linearGradient>
<linearGradient id="paint4_linear" x1="29.74" y1="5.94126" x2="26.2818" y2="5.94126" gradientUnits="userSpaceOnUse">
<stop stop-color="#B0CCD6"/>
<stop offset="0.0437067" stop-color="#B4D0D9"/>
<stop offset="0.2378" stop-color="#C1DBE3"/>
<stop offset="0.4888" stop-color="#C9E1E9"/>
<stop offset="1" stop-color="#CBE3EB"/>
</linearGradient>
<linearGradient id="paint5_linear" x1="23.1578" y1="58.0412" x2="23.1578" y2="12.8025" gradientUnits="userSpaceOnUse">
<stop stop-color="#062A54"/>
<stop offset="0.2719" stop-color="#072C58"/>
<stop offset="0.5179" stop-color="#083263"/>
<stop offset="0.7539" stop-color="#0B3C75"/>
<stop offset="0.9825" stop-color="#104B8F"/>
<stop offset="1" stop-color="#104C91"/>
</linearGradient>
<linearGradient id="paint6_linear" x1="23.1578" y1="25.571" x2="23.1578" y2="12.8039" gradientUnits="userSpaceOnUse">
<stop stop-color="#9DDEF2"/>
<stop offset="1" stop-color="#DDF1F8"/>
</linearGradient>
<linearGradient id="paint7_linear" x1="15.478" y1="11.5207" x2="30.8089" y2="26.882" gradientUnits="userSpaceOnUse">
<stop stop-color="#FAFAFA"/>
<stop offset="1" stop-color="#CDEFFA"/>
</linearGradient>
<linearGradient id="paint8_linear" x1="9.90186" y1="30.6132" x2="14.8982" y2="35.6193" gradientUnits="userSpaceOnUse">
<stop stop-color="#FAFAFA"/>
<stop offset="1" stop-color="#CDEFFA"/>
</linearGradient>
<linearGradient id="paint9_linear" x1="17.0801" y1="30.6132" x2="22.0764" y2="35.6194" gradientUnits="userSpaceOnUse">
<stop stop-color="#FAFAFA"/>
<stop offset="1" stop-color="#CDEFFA"/>
</linearGradient>
<linearGradient id="paint10_linear" x1="24.258" y1="30.6132" x2="29.2543" y2="35.6194" gradientUnits="userSpaceOnUse">
<stop stop-color="#FAFAFA"/>
<stop offset="1" stop-color="#CDEFFA"/>
</linearGradient>
<linearGradient id="paint11_linear" x1="31.4366" y1="30.6132" x2="36.4328" y2="35.6193" gradientUnits="userSpaceOnUse">
<stop stop-color="#FAFAFA"/>
<stop offset="1" stop-color="#CDEFFA"/>
</linearGradient>
<linearGradient id="paint12_linear" x1="9.90186" y1="39.2161" x2="14.8982" y2="44.2225" gradientUnits="userSpaceOnUse">
<stop stop-color="#FAFAFA"/>
<stop offset="1" stop-color="#CDEFFA"/>
</linearGradient>
<linearGradient id="paint13_linear" x1="17.0801" y1="39.2161" x2="22.0765" y2="44.2225" gradientUnits="userSpaceOnUse">
<stop stop-color="#FAFAFA"/>
<stop offset="1" stop-color="#CDEFFA"/>
</linearGradient>
<linearGradient id="paint14_linear" x1="24.258" y1="39.2161" x2="29.2544" y2="44.2225" gradientUnits="userSpaceOnUse">
<stop stop-color="#FAFAFA"/>
<stop offset="1" stop-color="#CDEFFA"/>
</linearGradient>
<linearGradient id="paint15_linear" x1="9.90169" y1="47.8189" x2="14.8982" y2="52.8254" gradientUnits="userSpaceOnUse">
<stop stop-color="#FAFAFA"/>
<stop offset="1" stop-color="#CDEFFA"/>
</linearGradient>
<linearGradient id="paint16_linear" x1="17.08" y1="47.8188" x2="22.0766" y2="52.8254" gradientUnits="userSpaceOnUse">
<stop stop-color="#FAFAFA"/>
<stop offset="1" stop-color="#CDEFFA"/>
</linearGradient>
<linearGradient id="paint17_linear" x1="24.2578" y1="47.8188" x2="29.2545" y2="52.8254" gradientUnits="userSpaceOnUse">
<stop stop-color="#FAFAFA"/>
<stop offset="1" stop-color="#CDEFFA"/>
</linearGradient>
<linearGradient id="paint18_linear" x1="29.2815" y1="41.3669" x2="38.5793" y2="50.6832" gradientUnits="userSpaceOnUse">
<stop stop-color="#FAFAFA"/>
<stop offset="1" stop-color="#CDEFFA"/>
</linearGradient>
<linearGradient id="paint19_linear" x1="25.8023" y1="20.6577" x2="25.8023" y2="16.9777" gradientUnits="userSpaceOnUse">
<stop stop-color="#062A54"/>
<stop offset="0.2719" stop-color="#072C58"/>
<stop offset="0.5179" stop-color="#083263"/>
<stop offset="0.7539" stop-color="#0B3C75"/>
<stop offset="0.9825" stop-color="#104B8F"/>
<stop offset="1" stop-color="#104C91"/>
</linearGradient>
<linearGradient id="paint20_linear" x1="27.9199" y1="21.4206" x2="27.9199" y2="19.9415" gradientUnits="userSpaceOnUse">
<stop stop-color="#062A54"/>
<stop offset="0.2719" stop-color="#072C58"/>
<stop offset="0.5179" stop-color="#083263"/>
<stop offset="0.7539" stop-color="#0B3C75"/>
<stop offset="0.9825" stop-color="#104B8F"/>
<stop offset="1" stop-color="#104C91"/>
</linearGradient>
<linearGradient id="paint21_linear" x1="29.92" y1="20.6577" x2="29.92" y2="16.9777" gradientUnits="userSpaceOnUse">
<stop stop-color="#062A54"/>
<stop offset="0.2719" stop-color="#072C58"/>
<stop offset="0.5179" stop-color="#083263"/>
<stop offset="0.7539" stop-color="#0B3C75"/>
<stop offset="0.9825" stop-color="#104B8F"/>
<stop offset="1" stop-color="#104C91"/>
</linearGradient>
<linearGradient id="paint22_linear" x1="32.8448" y1="20.6563" x2="32.8448" y2="16.9653" gradientUnits="userSpaceOnUse">
<stop stop-color="#062A54"/>
<stop offset="0.2719" stop-color="#072C58"/>
<stop offset="0.5179" stop-color="#083263"/>
<stop offset="0.7539" stop-color="#0B3C75"/>
<stop offset="0.9825" stop-color="#104B8F"/>
<stop offset="1" stop-color="#104C91"/>
</linearGradient>
</defs>
</svg>
