<svg width="40" height="31" viewBox="0 0 40 31" fill="none" xmlns="http://www.w3.org/2000/svg">
<path d="M40.0001 17.4094L26.2241 25.2156L21.9088 17.6902L35.6847 9.82788L40.0001 17.4094Z" fill="url(#paint0_linear)"/>
<path d="M23.0706 17.9148L26.6114 24.0924L38.8382 17.1286L35.2974 10.951L23.0706 17.9148ZM37.3444 16.1739C36.9571 16.3985 36.8465 16.9039 37.0678 17.2971C37.0678 17.3532 37.1231 17.3532 37.1231 17.4094L27.6625 22.7445C27.6625 22.6884 27.6072 22.6884 27.6072 22.6322C27.3859 22.2391 26.888 22.1268 26.5007 22.3514C26.4454 22.3514 26.4454 22.4076 26.3901 22.4076L24.4537 18.9818C24.509 18.9818 24.509 18.9257 24.5643 18.9257C24.9516 18.701 25.0623 18.1956 24.841 17.8025C24.841 17.7463 24.7856 17.7463 24.7856 17.6902L34.3015 12.355C34.3015 12.4112 34.3569 12.4112 34.3569 12.4674C34.5782 12.8605 35.0761 12.9728 35.4634 12.7482C35.5187 12.7482 35.5187 12.692 35.574 12.692L37.5104 16.1177C37.3997 16.1177 37.3997 16.1177 37.3444 16.1739Z" fill="#81BC00"/>
<path d="M31.5906 17.8024C31.48 17.8024 31.3693 17.8024 31.2034 17.8024L31.646 18.5887C31.7566 18.4763 31.8119 18.4202 31.8673 18.3079C31.8673 18.1955 31.8673 18.0832 31.8119 17.9709C31.7566 17.9147 31.7013 17.8586 31.5906 17.8024Z" fill="#81BC00"/>
<path d="M30.1522 16.96C30.2075 17.0724 30.2628 17.1285 30.3735 17.1285C30.4841 17.1285 30.5948 17.1285 30.7054 17.1285L30.3182 16.3984C30.2075 16.5108 30.0969 16.5669 30.0969 16.6792C30.0969 16.7916 30.0969 16.9039 30.1522 16.96Z" fill="#81BC00"/>
<path d="M29.7096 15.2753C28.4924 16.0053 28.0498 17.5778 28.7137 18.8133C29.4329 20.0488 30.982 20.4981 32.2545 19.768C33.4717 19.038 33.9143 17.4655 33.2504 16.23C32.5311 14.9945 30.982 14.5452 29.7096 15.2753ZM32.5311 18.364C32.4758 18.5887 32.3652 18.8133 32.1439 18.9818L32.3652 19.3749L31.9226 19.6557L31.7013 19.2626C31.5353 19.3749 31.3693 19.4311 31.2587 19.4311C31.0927 19.4872 30.982 19.4872 30.9267 19.4872L30.8161 18.8695C30.8714 18.8695 30.982 18.8695 31.0927 18.8133C31.2033 18.8133 31.314 18.7572 31.48 18.701L30.982 17.8024C30.8714 17.8024 30.7607 17.8024 30.6501 17.8024C30.5394 17.8024 30.4288 17.8024 30.3181 17.7463C30.2075 17.6901 30.0968 17.6901 29.9862 17.5778C29.8755 17.5216 29.8202 17.4093 29.7096 17.2409C29.5436 17.0162 29.5436 16.7354 29.5989 16.5669C29.6542 16.3423 29.7649 16.1738 29.9862 16.0053L29.7649 15.6122L30.2075 15.3314L30.4288 15.7245C30.5394 15.6684 30.7054 15.6122 30.8161 15.6122C30.9267 15.5561 31.0374 15.5561 31.148 15.5561L31.2587 16.1177C31.2033 16.1177 31.0927 16.1177 31.0374 16.1738C30.9267 16.1738 30.8714 16.23 30.7607 16.2861L31.2033 17.1285C31.314 17.1285 31.4246 17.1285 31.5353 17.1285C31.6459 17.1285 31.7566 17.1285 31.8672 17.1847C31.9779 17.2409 32.0885 17.2409 32.1992 17.3532C32.3098 17.4093 32.3652 17.5216 32.4758 17.634C32.5311 17.8586 32.5865 18.1394 32.5311 18.364Z" fill="#81BC00"/>
<path opacity="0.3636" d="M29.599 13.4221L21.9088 17.6902L25.6156 24.1486L29.599 13.4221Z" fill="#8CD4D4"/>
<path opacity="0.3636" d="M29.599 13.4221L21.9088 17.6902L25.6156 24.1486L29.599 13.4221Z" fill="#81BC00"/>
<path d="M33.7483 6.40217L25.7262 20.0489L18.202 15.6123L26.2241 1.96558L33.7483 6.40217Z" fill="url(#paint1_linear)"/>
<path d="M19.3638 15.2753L25.5048 18.8695L32.6418 6.7391L26.5007 3.1449L19.3638 15.2753ZM30.8161 6.62678C30.5948 7.0199 30.7054 7.52533 31.0927 7.74997C31.148 7.74997 31.148 7.80613 31.2033 7.80613L25.6708 17.1848C25.6155 17.1848 25.6155 17.1286 25.5602 17.1286C25.1729 16.904 24.675 17.0163 24.4537 17.4094C24.4537 17.4656 24.3983 17.4656 24.3983 17.5217L21.0235 15.5561C21.0235 15.5 21.0788 15.5 21.0788 15.4438C21.3001 15.0507 21.1895 14.5453 20.8022 14.3206C20.7469 14.3206 20.7469 14.2645 20.6916 14.2645L26.2241 4.88584C26.2794 4.88584 26.2794 4.942 26.3347 4.942C26.722 5.16664 27.2199 5.05432 27.4412 4.6612C27.4412 4.60504 27.4965 4.60504 27.4965 4.54888L30.8714 6.51446C30.8714 6.57062 30.8161 6.57062 30.8161 6.62678Z" fill="#81BC00"/>
<path d="M26.6666 10.9511C26.556 11.0072 26.4453 11.0634 26.3347 11.1196L27.1092 11.5688C27.1646 11.4565 27.1646 11.288 27.1646 11.2319C27.1092 11.1196 27.0539 11.0634 26.9433 11.0072C26.8326 10.8949 26.7773 10.8949 26.6666 10.9511Z" fill="#81BC00"/>
<path d="M25.0069 10.8949C25.1175 10.9511 25.1729 10.9511 25.2835 10.8949C25.3942 10.8387 25.5048 10.7826 25.6155 10.7264L24.8962 10.3895C24.8409 10.5018 24.7856 10.6703 24.8409 10.7264C24.8409 10.7826 24.8962 10.8387 25.0069 10.8949Z" fill="#81BC00"/>
<path d="M23.7898 9.65939C23.0705 10.8949 23.4578 12.4674 24.7303 13.1974C25.9474 13.9275 27.5519 13.5344 28.2711 12.2989C28.9903 11.0634 28.603 9.49092 27.3306 8.76084C26.0581 8.03077 24.509 8.42389 23.7898 9.65939ZM27.7178 10.9511C27.7732 11.1757 27.7732 11.4003 27.6625 11.6811L28.0498 11.9058L27.8285 12.355L27.4412 12.1304C27.3306 12.2989 27.2199 12.4112 27.1093 12.5235C26.9986 12.6358 26.888 12.692 26.8326 12.7482L26.4454 12.2989C26.5007 12.2427 26.556 12.1866 26.6667 12.1304C26.7773 12.0742 26.8326 11.9619 26.9433 11.8496L26.0581 11.3442C25.9474 11.4003 25.8921 11.4565 25.7815 11.5127C25.6708 11.5688 25.5602 11.625 25.4495 11.625C25.3389 11.6811 25.2282 11.6811 25.1176 11.625C25.0069 11.625 24.8409 11.5688 24.7303 11.4565C24.4537 11.288 24.343 11.1195 24.2877 10.8949C24.2324 10.6703 24.2324 10.4456 24.343 10.221L23.9557 9.99635L24.2324 9.54707L24.6196 9.77171C24.7303 9.65939 24.7856 9.54707 24.8963 9.49092C24.9516 9.43476 25.0622 9.32244 25.1176 9.26628L25.5048 9.71555C25.4495 9.77171 25.3942 9.82787 25.3389 9.88403C25.2835 9.94019 25.2282 9.99635 25.1176 10.1087L25.9474 10.6141C26.0581 10.5579 26.1134 10.5018 26.2241 10.4456C26.3347 10.3895 26.4454 10.3333 26.556 10.3333C26.6667 10.2771 26.7773 10.2771 26.888 10.2771C26.9986 10.2771 27.1093 10.3333 27.2752 10.3895C27.4965 10.5018 27.6625 10.7264 27.7178 10.9511Z" fill="#81BC00"/>
<path opacity="0.3636" d="M23.0153 7.46918L24.6197 19.4311L18.202 15.9492L23.0153 7.46918Z" fill="#81BC00"/>
<path d="M23.0706 0.0561594L22.9599 15.9493L14.2186 15.837L14.3292 0L23.0706 0.0561594Z" fill="url(#paint2_linear)"/>
<path d="M15.0484 14.9945L22.1854 15.0507L22.296 0.954658L15.1591 0.898499L15.0484 14.9945ZM20.6363 1.74089C20.6363 2.19017 20.9682 2.52712 21.4108 2.52712C21.4661 2.52712 21.4661 2.52712 21.5215 2.52712L21.4661 13.422C21.4108 13.422 21.4108 13.422 21.3555 13.422C20.9129 13.422 20.5256 13.759 20.5256 14.2083C20.5256 14.2644 20.5256 14.2644 20.5256 14.3206L16.5975 14.2644C16.5975 14.2083 16.5975 14.2083 16.5975 14.1521C16.5975 13.7028 16.2656 13.3659 15.823 13.3659C15.7677 13.3659 15.7677 13.3659 15.7123 13.3659L15.7677 2.47096C15.823 2.47096 15.823 2.47096 15.8783 2.47096C16.3209 2.47096 16.7082 2.13401 16.7082 1.68473C16.7082 1.62857 16.7082 1.62857 16.7082 1.57241L20.6363 1.62857C20.6363 1.62857 20.6363 1.68473 20.6363 1.74089Z" fill="#81BC00"/>
<path d="M19.1979 7.58156C19.1425 7.69387 19.0872 7.75003 19.0319 7.91851H19.9171C19.9171 7.75003 19.8618 7.63771 19.8064 7.58156C19.7511 7.5254 19.6405 7.46924 19.5298 7.46924C19.3638 7.41308 19.2532 7.46924 19.1979 7.58156Z" fill="#81BC00"/>
<path d="M17.7594 8.36779C17.8701 8.36779 17.9254 8.31163 18.036 8.25547C18.0914 8.19931 18.1467 8.08699 18.202 7.97467H17.3721C17.3721 8.14315 17.4275 8.25547 17.4828 8.31163C17.5934 8.36779 17.6488 8.36779 17.7594 8.36779Z" fill="#81BC00"/>
<path d="M16.0443 7.86239C16.0443 9.26637 17.2061 10.4457 18.5892 10.4457C20.0277 10.4457 21.1895 9.32253 21.1895 7.86239C21.1895 6.4584 20.0277 5.27905 18.6446 5.27905C17.2614 5.33521 16.0996 6.4584 16.0443 7.86239ZM20.1383 7.01999C20.3043 7.18847 20.415 7.41311 20.4703 7.69391H20.9129V8.19934H20.4703C20.4703 8.36782 20.415 8.5363 20.415 8.70478C20.3596 8.87326 20.3596 8.98557 20.3043 9.04173L19.7511 8.8171C19.8064 8.76094 19.8064 8.64862 19.8617 8.5363C19.917 8.42398 19.917 8.31166 19.917 8.14318H18.8659C18.8105 8.2555 18.7552 8.36782 18.6999 8.48014C18.6446 8.59246 18.5892 8.64862 18.4786 8.76094C18.4233 8.8171 18.3126 8.92941 18.202 8.92941C18.0913 8.98557 17.9807 8.98557 17.8147 8.98557C17.5381 8.98557 17.3168 8.92942 17.1508 8.76094C16.9848 8.59246 16.8742 8.42398 16.8188 8.14318H16.3762V7.63775H16.8188C16.8188 7.46927 16.8742 7.35695 16.8742 7.24463C16.9295 7.13231 16.9295 7.01999 16.9848 6.96384L17.5381 7.13231C17.5381 7.18847 17.4827 7.24463 17.4827 7.35695C17.4827 7.46927 17.4274 7.52543 17.4274 7.63775H18.3679C18.4233 7.52543 18.4786 7.41311 18.5339 7.30079C18.5892 7.18847 18.6446 7.07615 18.7552 7.01999C18.8105 6.96384 18.9212 6.85152 19.0318 6.79536C19.1425 6.7392 19.2531 6.7392 19.4191 6.7392C19.6957 6.79536 19.9724 6.85152 20.1383 7.01999Z" fill="#81BC00"/>
<path d="M11.6182 24.4294C11.6182 24.8787 11.2863 25.2156 10.899 25.2156H4.59197C4.20469 25.2156 3.87274 24.8787 3.87274 24.4294L5.03457 20.2174C5.25587 19.5997 5.36652 19.4312 5.75379 19.4312H9.7372C10.1245 19.4312 10.3458 19.8243 10.4564 20.2174L11.6182 24.4294Z" fill="url(#paint3_linear)"/>
<path d="M10.899 24.5979H4.59197C4.31534 24.5979 4.09404 24.4294 3.98339 24.1486L3.87274 24.4294C3.87274 24.8787 4.20469 25.2156 4.59197 25.2156H10.9543C11.3416 25.2156 11.6736 24.8787 11.6736 24.4294L11.5629 24.1486C11.4523 24.3733 11.1756 24.5979 10.899 24.5979Z" fill="#F5D5A4"/>
<path d="M19.3084 24.4294C19.3084 24.8787 18.9764 25.2156 18.5892 25.2156H12.2268C11.8395 25.2156 11.5076 24.8787 11.5076 24.4294L12.7247 20.2174C12.946 19.5997 13.0567 19.4312 13.4439 19.4312H17.4273C17.8146 19.4312 18.0359 19.8243 18.1466 20.2174L19.3084 24.4294Z" fill="url(#paint4_linear)"/>
<path d="M18.5891 24.5979H12.2267C11.9501 24.5979 11.7288 24.4294 11.6182 24.1486L11.5628 24.4294C11.5628 24.8787 11.8948 25.2156 12.2821 25.2156H18.6444C19.0317 25.2156 19.3637 24.8787 19.3637 24.4294L19.253 24.1486C19.1424 24.3733 18.8657 24.5979 18.5891 24.5979Z" fill="#F5D5A4"/>
<path d="M26.9986 24.4294C26.9986 24.8787 26.6667 25.2156 26.2794 25.2156H19.917C19.5297 25.2156 19.1978 24.8787 19.1978 24.4294L20.3596 20.2174C20.5809 19.5997 20.6916 19.4312 21.0788 19.4312H25.0622C25.4495 19.4312 25.6708 19.8243 25.7815 20.2174L26.9986 24.4294Z" fill="url(#paint5_linear)"/>
<path d="M26.2793 24.5979H19.917C19.6403 24.5979 19.419 24.4294 19.3084 24.1486L19.2531 24.4294C19.2531 24.8787 19.585 25.2156 19.9723 25.2156H26.3347C26.7219 25.2156 27.0539 24.8787 27.0539 24.4294L26.9432 24.1486C26.7773 24.3733 26.556 24.5979 26.2793 24.5979Z" fill="#F5D5A4"/>
<path d="M15.491 18.5888C15.491 19.0381 15.1591 19.3751 14.7718 19.3751H8.40944C8.02217 19.3751 7.69022 19.0381 7.69022 18.5888L8.85204 14.3769C9.07334 13.7591 9.18399 13.5906 9.57127 13.5906H13.5547C13.9419 13.5906 14.1632 13.9838 14.2739 14.3769L15.491 18.5888Z" fill="url(#paint6_linear)"/>
<path d="M14.7718 18.7573H8.40938C8.13276 18.7573 7.91146 18.5888 7.80081 18.308L7.74548 18.5888C7.74548 19.0381 8.07743 19.3751 8.46471 19.3751H14.8271C15.2144 19.3751 15.5463 19.0381 15.5463 18.5888L15.491 18.308C15.2697 18.5888 15.0484 18.7573 14.7718 18.7573Z" fill="#F5D5A4"/>
<path d="M23.1258 18.5888C23.1258 19.0381 22.7939 19.3751 22.4066 19.3751H16.0996C15.7123 19.3751 15.3803 19.0381 15.3803 18.5888L16.5422 14.3769C16.7635 13.7591 16.8741 13.5906 17.2614 13.5906H21.2448C21.6321 13.5906 21.8534 13.9838 21.964 14.3769L23.1258 18.5888Z" fill="url(#paint7_linear)"/>
<path d="M22.4619 18.7573H16.0995C15.8229 18.7573 15.6016 18.5888 15.4909 18.308L15.4356 18.5888C15.4356 19.0381 15.7676 19.3751 16.1548 19.3751H22.5172C22.9045 19.3751 23.2364 19.0381 23.2364 18.5888L23.1811 18.308C22.9598 18.5888 22.7385 18.7573 22.4619 18.7573Z" fill="#F5D5A4"/>
<path d="M19.2531 12.8044C19.2531 13.2537 18.9211 13.5906 18.5338 13.5906H12.2268C11.8395 13.5906 11.5076 13.2537 11.5076 12.8044L12.6694 8.59245C12.8907 7.97469 13.0013 7.80621 13.3886 7.80621H17.372C17.7593 7.80621 17.9806 8.19933 18.0912 8.59245L19.2531 12.8044Z" fill="url(#paint8_linear)"/>
<path d="M18.5891 12.9729H12.2267C11.9501 12.9729 11.7288 12.8044 11.6182 12.5236L11.5628 12.8044C11.5628 13.2537 11.8948 13.5907 12.2821 13.5907H18.6444C19.0317 13.5907 19.3637 13.2537 19.3637 12.8044L19.3083 12.5236C19.087 12.7483 18.8657 12.9729 18.5891 12.9729Z" fill="#F5D5A4"/>
<path d="M7.7455 30.2138C7.7455 30.6631 7.41355 31.0001 7.02628 31.0001H0.719225C0.33195 31.0001 0 30.6631 0 30.2138L1.16183 26.0019C1.38313 25.3841 1.49378 25.2156 1.88105 25.2156H5.86445C6.25173 25.2156 6.47303 25.6088 6.58368 26.0019L7.7455 30.2138Z" fill="url(#paint9_linear)"/>
<path d="M7.0816 30.3823H0.719225C0.4426 30.3823 0.2213 30.2138 0.11065 29.933L0 30.2138C0 30.6631 0.33195 31.0001 0.719225 31.0001H7.0816C7.46888 31.0001 7.80083 30.6631 7.80083 30.2138L7.7455 29.933C7.57953 30.2138 7.35823 30.3823 7.0816 30.3823Z" fill="#F5D5A4"/>
<path d="M15.4357 30.2138C15.4357 30.6631 15.1038 31.0001 14.7165 31.0001H8.40944C8.02217 31.0001 7.69022 30.6631 7.69022 30.2138L8.85204 26.0019C9.07334 25.3841 9.18399 25.2156 9.57127 25.2156H13.5547C13.9419 25.2156 14.1632 25.6088 14.2739 26.0019L15.4357 30.2138Z" fill="url(#paint10_linear)"/>
<path d="M14.7164 30.3823H8.40938C8.13276 30.3823 7.91146 30.2138 7.80081 29.933L7.74548 30.2138C7.74548 30.6631 8.07743 31.0001 8.46471 31.0001H14.8271C15.2144 31.0001 15.5463 30.6631 15.5463 30.2138L15.491 29.933C15.2697 30.2138 14.9931 30.3823 14.7164 30.3823Z" fill="#F5D5A4"/>
<path d="M23.1258 30.2138C23.1258 30.6631 22.7939 31.0001 22.4066 31.0001H16.0996C15.7123 31.0001 15.3803 30.6631 15.3803 30.2138L16.5422 26.0019C16.7635 25.3841 16.8741 25.2156 17.2614 25.2156H21.2448C21.6321 25.2156 21.8534 25.6088 21.964 26.0019L23.1258 30.2138Z" fill="url(#paint11_linear)"/>
<path d="M22.4066 30.3823H16.0995C15.8229 30.3823 15.6016 30.2138 15.4909 29.933L15.4356 30.2138C15.4356 30.6631 15.7676 31.0001 16.1548 31.0001H22.5172C22.9045 31.0001 23.2364 30.6631 23.2364 30.2138L23.1811 29.933C22.9598 30.2138 22.6832 30.3823 22.4066 30.3823Z" fill="#F5D5A4"/>
<path d="M30.8714 30.2138C30.8714 30.6631 30.5394 31.0001 30.1522 31.0001H23.7898C23.4025 31.0001 23.0706 30.6631 23.0706 30.2138L24.2324 26.0019C24.4537 25.3841 24.5643 25.2156 24.9516 25.2156H28.935C29.3223 25.2156 29.5436 25.6088 29.6542 26.0019L30.8714 30.2138Z" fill="url(#paint12_linear)"/>
<path d="M30.1521 30.3823H23.7898C23.5131 30.3823 23.2918 30.2138 23.1812 29.933L23.1259 30.2138C23.1259 30.6631 23.4578 31.0001 23.8451 31.0001H30.2075C30.5947 31.0001 30.9267 30.6631 30.9267 30.2138L30.8714 29.933C30.6501 30.2138 30.4288 30.3823 30.1521 30.3823Z" fill="#F5D5A4"/>
<defs>
<linearGradient id="paint0_linear" x1="24.377" y1="21.3966" x2="37.3299" y2="14.028" gradientUnits="userSpaceOnUse">
<stop stop-color="#5EA814"/>
<stop offset="0.351" stop-color="#62A914"/>
<stop offset="0.6685" stop-color="#6DAD12"/>
<stop offset="0.9721" stop-color="#7FB410"/>
<stop offset="1" stop-color="#81B510"/>
</linearGradient>
<linearGradient id="paint1_linear" x1="22.205" y1="17.6437" x2="29.7408" y2="4.78377" gradientUnits="userSpaceOnUse">
<stop stop-color="#5EA814"/>
<stop offset="0.351" stop-color="#62A914"/>
<stop offset="0.6685" stop-color="#6DAD12"/>
<stop offset="0.9721" stop-color="#7FB410"/>
<stop offset="1" stop-color="#81B510"/>
</linearGradient>
<linearGradient id="paint2_linear" x1="18.653" y1="15.6235" x2="18.6525" y2="0.663903" gradientUnits="userSpaceOnUse">
<stop stop-color="#5EA814"/>
<stop offset="0.351" stop-color="#62A914"/>
<stop offset="0.6685" stop-color="#6DAD12"/>
<stop offset="0.9721" stop-color="#7FB410"/>
<stop offset="1" stop-color="#81B510"/>
</linearGradient>
<linearGradient id="paint3_linear" x1="7.74466" y1="25.2076" x2="7.74466" y2="19.3986" gradientUnits="userSpaceOnUse">
<stop stop-color="#FF7B00"/>
<stop offset="0.0992453" stop-color="#FF8B05"/>
<stop offset="0.277" stop-color="#FFA10C"/>
<stop offset="0.4713" stop-color="#FFB110"/>
<stop offset="0.6927" stop-color="#FFBA13"/>
<stop offset="1" stop-color="#FFBD14"/>
</linearGradient>
<linearGradient id="paint4_linear" x1="15.4288" y1="25.2076" x2="15.4288" y2="19.3986" gradientUnits="userSpaceOnUse">
<stop stop-color="#FF7B00"/>
<stop offset="0.0992453" stop-color="#FF8B05"/>
<stop offset="0.277" stop-color="#FFA10C"/>
<stop offset="0.4713" stop-color="#FFB110"/>
<stop offset="0.6927" stop-color="#FFBA13"/>
<stop offset="1" stop-color="#FFBD14"/>
</linearGradient>
<linearGradient id="paint5_linear" x1="23.1127" y1="25.2076" x2="23.1127" y2="19.3986" gradientUnits="userSpaceOnUse">
<stop stop-color="#FF7B00"/>
<stop offset="0.0992453" stop-color="#FF8B05"/>
<stop offset="0.277" stop-color="#FFA10C"/>
<stop offset="0.4713" stop-color="#FFB110"/>
<stop offset="0.6927" stop-color="#FFBA13"/>
<stop offset="1" stop-color="#FFBD14"/>
</linearGradient>
<linearGradient id="paint6_linear" x1="11.5867" y1="19.3986" x2="11.5867" y2="13.5902" gradientUnits="userSpaceOnUse">
<stop stop-color="#FF7B00"/>
<stop offset="0.0992453" stop-color="#FF8B05"/>
<stop offset="0.277" stop-color="#FFA10C"/>
<stop offset="0.4713" stop-color="#FFB110"/>
<stop offset="0.6927" stop-color="#FFBA13"/>
<stop offset="1" stop-color="#FFBD14"/>
</linearGradient>
<linearGradient id="paint7_linear" x1="19.2707" y1="19.3986" x2="19.2707" y2="13.5902" gradientUnits="userSpaceOnUse">
<stop stop-color="#FF7B00"/>
<stop offset="0.0992453" stop-color="#FF8B05"/>
<stop offset="0.277" stop-color="#FFA10C"/>
<stop offset="0.4713" stop-color="#FFB110"/>
<stop offset="0.6927" stop-color="#FFBA13"/>
<stop offset="1" stop-color="#FFBD14"/>
</linearGradient>
<linearGradient id="paint8_linear" x1="15.388" y1="13.5902" x2="15.388" y2="7.78173" gradientUnits="userSpaceOnUse">
<stop stop-color="#FF7B00"/>
<stop offset="0.0992453" stop-color="#FF8B05"/>
<stop offset="0.277" stop-color="#FFA10C"/>
<stop offset="0.4713" stop-color="#FFB110"/>
<stop offset="0.6927" stop-color="#FFBA13"/>
<stop offset="1" stop-color="#FFBD14"/>
</linearGradient>
<linearGradient id="paint9_linear" x1="3.88249" y1="31.0168" x2="3.88249" y2="25.2076" gradientUnits="userSpaceOnUse">
<stop stop-color="#FF7B00"/>
<stop offset="0.0992453" stop-color="#FF8B05"/>
<stop offset="0.277" stop-color="#FFA10C"/>
<stop offset="0.4713" stop-color="#FFB110"/>
<stop offset="0.6927" stop-color="#FFBA13"/>
<stop offset="1" stop-color="#FFBD14"/>
</linearGradient>
<linearGradient id="paint10_linear" x1="11.5668" y1="31.0168" x2="11.5668" y2="25.2076" gradientUnits="userSpaceOnUse">
<stop stop-color="#FF7B00"/>
<stop offset="0.0992453" stop-color="#FF8B05"/>
<stop offset="0.277" stop-color="#FFA10C"/>
<stop offset="0.4713" stop-color="#FFB110"/>
<stop offset="0.6927" stop-color="#FFBA13"/>
<stop offset="1" stop-color="#FFBD14"/>
</linearGradient>
<linearGradient id="paint11_linear" x1="19.2502" y1="31.0168" x2="19.2502" y2="25.2076" gradientUnits="userSpaceOnUse">
<stop stop-color="#FF7B00"/>
<stop offset="0.0992453" stop-color="#FF8B05"/>
<stop offset="0.277" stop-color="#FFA10C"/>
<stop offset="0.4713" stop-color="#FFB110"/>
<stop offset="0.6927" stop-color="#FFBA13"/>
<stop offset="1" stop-color="#FFBD14"/>
</linearGradient>
<linearGradient id="paint12_linear" x1="26.9753" y1="31.0168" x2="26.9753" y2="25.2076" gradientUnits="userSpaceOnUse">
<stop stop-color="#FF7B00"/>
<stop offset="0.0992453" stop-color="#FF8B05"/>
<stop offset="0.277" stop-color="#FFA10C"/>
<stop offset="0.4713" stop-color="#FFB110"/>
<stop offset="0.6927" stop-color="#FFBA13"/>
<stop offset="1" stop-color="#FFBD14"/>
</linearGradient>
</defs>
</svg>
