<svg width="25" height="22" viewBox="0 0 25 22" fill="none" xmlns="http://www.w3.org/2000/svg">
<g clip-path="url(#clip0)">
<path d="M11.2658 15.2254H0.506348V0.558716H21.3924V4.74919" stroke="url(#paint0_linear)" stroke-width="1.5" stroke-miterlimit="10" stroke-linecap="round" stroke-linejoin="round"/>
<path d="M13.2912 20.4634L12.5317 20.6729C12.2785 20.3936 12.2152 20.3237 11.962 20.0444L12.1519 19.2063C12.3418 18.019 12.9114 16.9713 13.6709 16.1333L21.5823 7.40309C22.2785 6.63484 23.3544 6.63484 24.0506 7.40309C24.3671 7.7523 24.557 8.24119 24.557 8.73008C24.557 9.21897 24.3671 9.70786 24.0506 10.0571L16.076 18.7872C15.3165 19.6253 14.3038 20.2539 13.2912 20.4634Z" stroke="url(#paint1_linear)" stroke-width="1.5" stroke-miterlimit="10" stroke-linecap="round" stroke-linejoin="round"/>
<path d="M21.0127 7.89209L23.481 10.6159" stroke="url(#paint2_linear)" stroke-width="1.5" stroke-miterlimit="10" stroke-linecap="round" stroke-linejoin="round"/>
<path d="M16.7089 12.6412L19.1772 15.365" stroke="url(#paint3_linear)" stroke-width="1.5" stroke-miterlimit="10" stroke-linecap="round" stroke-linejoin="round"/>
<path d="M22.0253 12.2921L23.0379 11.1746C23.3544 10.8254 23.924 10.8254 24.3038 11.1746C24.6202 11.5238 24.6202 12.1524 24.3038 12.5715L20.5696 16.6921" stroke="url(#paint4_linear)" stroke-width="1.5" stroke-miterlimit="10" stroke-linecap="round" stroke-linejoin="round"/>
<path d="M12.2152 20.3239L11.2025 21.5112" stroke="url(#paint5_linear)" stroke-width="1.5" stroke-miterlimit="10" stroke-linecap="round" stroke-linejoin="round"/>
<path d="M6.83543 4.05078H3.98733C3.481 4.05078 3.03796 4.53967 3.03796 5.0984C3.03796 5.65713 3.481 6.14602 3.98733 6.14602H5.88607C6.39239 6.14602 6.83543 6.63491 6.83543 7.19364C6.83543 7.75237 6.39239 8.24126 5.88607 8.24126H3.03796" stroke="url(#paint6_linear)" stroke-width="1.5" stroke-miterlimit="10" stroke-linecap="round" stroke-linejoin="round"/>
<path d="M4.93677 9.63804V8.24121" stroke="url(#paint7_linear)" stroke-width="1.5" stroke-miterlimit="10" stroke-linecap="round" stroke-linejoin="round"/>
<path d="M4.93677 4.05088V2.65405" stroke="url(#paint8_linear)" stroke-width="1.5" stroke-miterlimit="10" stroke-linecap="round" stroke-linejoin="round"/>
<path d="M9.36707 6.84448H18.8607" stroke="url(#paint9_linear)" stroke-width="1.5" stroke-miterlimit="10" stroke-linecap="round" stroke-linejoin="round"/>
<path d="M9.36707 4.05078H15.0633" stroke="url(#paint10_linear)" stroke-width="1.5" stroke-miterlimit="10" stroke-linecap="round" stroke-linejoin="round"/>
<path d="M9.36707 9.63806H15.6962" stroke="url(#paint11_linear)" stroke-width="1.5" stroke-miterlimit="10" stroke-linecap="round" stroke-linejoin="round"/>
</g>
<defs>
<linearGradient id="paint0_linear" x1="0.506348" y1="7.83607" x2="21.3924" y2="7.83607" gradientUnits="userSpaceOnUse">
<stop stop-color="#3E9D4A"/>
<stop offset="1" stop-color="#7CCB44"/>
</linearGradient>
<linearGradient id="paint1_linear" x1="11.962" y1="13.6971" x2="24.557" y2="13.6971" gradientUnits="userSpaceOnUse">
<stop stop-color="#3E9D4A"/>
<stop offset="1" stop-color="#7CCB44"/>
</linearGradient>
<linearGradient id="paint2_linear" x1="21.0127" y1="9.2436" x2="23.481" y2="9.2436" gradientUnits="userSpaceOnUse">
<stop stop-color="#3E9D4A"/>
<stop offset="1" stop-color="#7CCB44"/>
</linearGradient>
<linearGradient id="paint3_linear" x1="16.7089" y1="13.9927" x2="19.1772" y2="13.9927" gradientUnits="userSpaceOnUse">
<stop stop-color="#3E9D4A"/>
<stop offset="1" stop-color="#7CCB44"/>
</linearGradient>
<linearGradient id="paint4_linear" x1="20.5696" y1="13.7803" x2="24.5411" y2="13.7803" gradientUnits="userSpaceOnUse">
<stop stop-color="#3E9D4A"/>
<stop offset="1" stop-color="#7CCB44"/>
</linearGradient>
<linearGradient id="paint5_linear" x1="11.2025" y1="20.913" x2="12.2152" y2="20.913" gradientUnits="userSpaceOnUse">
<stop stop-color="#3E9D4A"/>
<stop offset="1" stop-color="#7CCB44"/>
</linearGradient>
<linearGradient id="paint6_linear" x1="3.03796" y1="6.13003" x2="6.83543" y2="6.13003" gradientUnits="userSpaceOnUse">
<stop stop-color="#3E9D4A"/>
<stop offset="1" stop-color="#7CCB44"/>
</linearGradient>
<linearGradient id="paint7_linear" x1="4.93677" y1="8.93429" x2="5.93677" y2="8.93429" gradientUnits="userSpaceOnUse">
<stop stop-color="#3E9D4A"/>
<stop offset="1" stop-color="#7CCB44"/>
</linearGradient>
<linearGradient id="paint8_linear" x1="4.93677" y1="3.34713" x2="5.93677" y2="3.34713" gradientUnits="userSpaceOnUse">
<stop stop-color="#3E9D4A"/>
<stop offset="1" stop-color="#7CCB44"/>
</linearGradient>
<linearGradient id="paint9_linear" x1="9.36707" y1="7.34067" x2="18.8607" y2="7.34066" gradientUnits="userSpaceOnUse">
<stop stop-color="#3E9D4A"/>
<stop offset="1" stop-color="#7CCB44"/>
</linearGradient>
<linearGradient id="paint10_linear" x1="9.36707" y1="4.54696" x2="15.0633" y2="4.54696" gradientUnits="userSpaceOnUse">
<stop stop-color="#3E9D4A"/>
<stop offset="1" stop-color="#7CCB44"/>
</linearGradient>
<linearGradient id="paint11_linear" x1="9.36707" y1="10.1342" x2="15.6962" y2="10.1342" gradientUnits="userSpaceOnUse">
<stop stop-color="#3E9D4A"/>
<stop offset="1" stop-color="#7CCB44"/>
</linearGradient>
<clipPath id="clip0">
<rect width="25" height="22" fill="white"/>
</clipPath>
</defs>
</svg>
