<svg width="20" height="20" viewBox="0 0 20 20" fill="none" xmlns="http://www.w3.org/2000/svg">
<path d="M8.29834 14.3284C8.29834 12.4776 10.0297 11.1642 11.8207 11.1642C12.5968 11.1642 13.0745 11.2836 13.6118 11.7612V8.65672C13.6118 7.40299 14.6267 6.38806 15.8804 6.38806H15.9998V12.6567V14.1493C15.9998 15.403 15.6416 16.597 15.0446 17.5522" stroke="url(#paint0_linear)" stroke-width="1.5" stroke-miterlimit="10" stroke-linecap="round"/>
<path d="M4.53731 17.373C4.1791 16.7163 4 15.9402 4 15.1044V11.2238" stroke="url(#paint1_linear)" stroke-width="1.5" stroke-miterlimit="10" stroke-linecap="round"/>
<path d="M15.9999 19.5821V17.791H4.05957V19.5821" stroke="url(#paint2_linear)" stroke-width="1.5" stroke-miterlimit="10" stroke-linecap="round"/>
<path d="M13.6119 11.2238H0.477539V0.477539H19.582V11.2238H15.9999" stroke="url(#paint3_linear)" stroke-width="1.5" stroke-miterlimit="10" stroke-linecap="round" stroke-linejoin="round"/>
<path d="M9.73121 9.43277C11.5447 9.43277 13.0148 7.96266 13.0148 6.14918C13.0148 4.33571 11.5447 2.8656 9.73121 2.8656C7.91774 2.8656 6.44763 4.33571 6.44763 6.14918C6.44763 7.96266 7.91774 9.43277 9.73121 9.43277Z" stroke="url(#paint4_linear)" stroke-width="1.5" stroke-miterlimit="10" stroke-linecap="round" stroke-linejoin="round"/>
<path d="M18.2686 3.52239C17.194 3.52239 16.3582 2.68657 16.3582 1.61194" stroke="url(#paint5_linear)" stroke-width="1.5" stroke-miterlimit="10" stroke-linecap="round" stroke-linejoin="round"/>
<path d="M1.67151 8.05969C2.74614 8.05969 3.64166 8.89551 3.64166 9.97014" stroke="url(#paint6_linear)" stroke-width="1.5" stroke-miterlimit="10" stroke-linecap="round" stroke-linejoin="round"/>
<path d="M1.67151 3.52226C2.68643 3.52226 3.58196 2.68643 3.58196 1.67151" stroke="url(#paint7_linear)" stroke-width="1.5" stroke-miterlimit="10" stroke-linecap="round" stroke-linejoin="round"/>
<path d="M18.2686 8.05969C17.194 8.05969 16.2985 8.89551 16.2985 9.97014" stroke="url(#paint8_linear)" stroke-width="1.5" stroke-miterlimit="10" stroke-linecap="round" stroke-linejoin="round"/>
<defs>
<linearGradient id="paint0_linear" x1="8.29834" y1="11.9275" x2="15.9998" y2="11.9275" gradientUnits="userSpaceOnUse">
<stop stop-color="#3E9D4A"/>
<stop offset="1" stop-color="#7CCB44"/>
</linearGradient>
<linearGradient id="paint1_linear" x1="4" y1="14.2749" x2="4.53731" y2="14.2749" gradientUnits="userSpaceOnUse">
<stop stop-color="#3E9D4A"/>
<stop offset="1" stop-color="#7CCB44"/>
</linearGradient>
<linearGradient id="paint2_linear" x1="4.05957" y1="18.6797" x2="15.9999" y2="18.6797" gradientUnits="userSpaceOnUse">
<stop stop-color="#3E9D4A"/>
<stop offset="1" stop-color="#7CCB44"/>
</linearGradient>
<linearGradient id="paint3_linear" x1="0.477539" y1="5.80966" x2="19.582" y2="5.80966" gradientUnits="userSpaceOnUse">
<stop stop-color="#3E9D4A"/>
<stop offset="1" stop-color="#7CCB44"/>
</linearGradient>
<linearGradient id="paint4_linear" x1="6.44763" y1="6.12412" x2="13.0148" y2="6.12412" gradientUnits="userSpaceOnUse">
<stop stop-color="#3E9D4A"/>
<stop offset="1" stop-color="#7CCB44"/>
</linearGradient>
<linearGradient id="paint5_linear" x1="16.3582" y1="2.55987" x2="18.2686" y2="2.55987" gradientUnits="userSpaceOnUse">
<stop stop-color="#3E9D4A"/>
<stop offset="1" stop-color="#7CCB44"/>
</linearGradient>
<linearGradient id="paint6_linear" x1="1.67151" y1="9.00763" x2="3.64166" y2="9.00762" gradientUnits="userSpaceOnUse">
<stop stop-color="#3E9D4A"/>
<stop offset="1" stop-color="#7CCB44"/>
</linearGradient>
<linearGradient id="paint7_linear" x1="1.67151" y1="2.58982" x2="3.58196" y2="2.58982" gradientUnits="userSpaceOnUse">
<stop stop-color="#3E9D4A"/>
<stop offset="1" stop-color="#7CCB44"/>
</linearGradient>
<linearGradient id="paint8_linear" x1="16.2985" y1="9.00763" x2="18.2686" y2="9.00762" gradientUnits="userSpaceOnUse">
<stop stop-color="#3E9D4A"/>
<stop offset="1" stop-color="#7CCB44"/>
</linearGradient>
</defs>
</svg>
