<svg width="28" height="20" viewBox="0 0 28 20" fill="none" xmlns="http://www.w3.org/2000/svg">
<path d="M23.6876 11.9999C23.0722 12.8253 22.2107 13.4602 21.2261 13.8411" stroke="url(#paint0_linear)" stroke-width="1.5" stroke-miterlimit="10" stroke-linecap="round" stroke-linejoin="round"/>
<path d="M12.8595 4.06344L12.5518 3.80947C11.6287 3.17455 10.5825 2.79359 9.53638 2.7301" stroke="url(#paint1_linear)" stroke-width="1.5" stroke-miterlimit="10" stroke-linecap="round" stroke-linejoin="round"/>
<path d="M20.6795 14.0953C21.0487 14.0953 21.3564 13.9048 21.541 13.5873V13.5238C21.9102 12.9524 21.7871 12.1905 21.2333 11.8731L18.6487 9.33337" stroke="url(#paint2_linear)" stroke-width="1.5" stroke-miterlimit="10" stroke-linecap="round" stroke-linejoin="round"/>
<path d="M3.75317 11.619C4.06087 12.2539 4.49164 12.8889 5.04548 13.3968" stroke="url(#paint3_linear)" stroke-width="1.5" stroke-miterlimit="10" stroke-linecap="round" stroke-linejoin="round"/>
<path d="M15.0804 10.5397L20.3727 14.2222C20.9266 14.6032 21.0496 15.3651 20.6804 15.873V15.9365C20.3112 16.5079 19.5727 16.6349 19.0804 16.254L13.7266 12.5714" stroke="url(#paint4_linear)" stroke-width="1.5" stroke-miterlimit="10" stroke-linecap="round" stroke-linejoin="round"/>
<path d="M13.6652 12.5714L18.5883 16C19.1421 16.3809 19.2652 17.1428 18.896 17.6508V17.7143C18.5268 18.2857 17.7883 18.4127 17.296 18.0317L12.9268 14.9841" stroke="url(#paint5_linear)" stroke-width="1.5" stroke-miterlimit="10" stroke-linecap="round" stroke-linejoin="round"/>
<path d="M13.5422 18.4127L14.4652 19.0476C15.0191 19.4286 15.7575 19.3016 16.0652 18.7302V18.6667C16.4345 18.0952 16.3114 17.3333 15.7575 17.0159L12.8652 14.9841" stroke="url(#paint6_linear)" stroke-width="1.5" stroke-miterlimit="10" stroke-linecap="round" stroke-linejoin="round"/>
<path d="M19.6901 2.03178C18.7055 1.90479 17.6594 2.03178 16.6132 2.47622L15.6286 2.85717L9.84399 5.26987C10.3363 6.53971 11.7517 7.17463 12.9825 6.6667L14.8901 5.90479L15.9978 7.74606C16.9209 9.33336 18.9517 9.77781 20.4286 8.82543" stroke="url(#paint7_linear)" stroke-width="1.5" stroke-miterlimit="10" stroke-linecap="round" stroke-linejoin="round"/>
<path d="M7.13996 14.6667L8.73996 12.381C9.10919 11.8096 8.98611 11.0476 8.4938 10.6667C7.93996 10.2857 7.2015 10.4127 6.83227 10.9207L5.23227 13.2064C4.86303 13.7778 4.98611 14.5397 5.47842 14.9207C5.97073 15.3016 6.70919 15.2381 7.13996 14.6667Z" stroke="url(#paint8_linear)" stroke-width="1.5" stroke-miterlimit="10" stroke-linecap="round" stroke-linejoin="round"/>
<path d="M9.04743 16.1269L11.3244 12.8888C11.6936 12.3174 11.5705 11.5555 11.0782 11.1745C10.5244 10.7936 9.78589 10.9205 9.41666 11.4285L7.13974 14.6666C6.77051 15.238 6.89358 15.9999 7.38589 16.3809C7.93974 16.7618 8.6782 16.6348 9.04743 16.1269Z" stroke="url(#paint9_linear)" stroke-width="1.5" stroke-miterlimit="10" stroke-linecap="round" stroke-linejoin="round"/>
<path d="M11.0162 17.5872L12.6162 15.3015C12.9854 14.7301 12.8623 13.9682 12.37 13.5872C11.8162 13.2063 11.0777 13.3333 10.7085 13.8412L9.10849 16.1269C8.73926 16.6983 8.86233 17.4602 9.35464 17.8412C9.84695 18.2221 10.5854 18.0952 11.0162 17.5872Z" stroke="url(#paint10_linear)" stroke-width="1.5" stroke-miterlimit="10" stroke-linecap="round" stroke-linejoin="round"/>
<path d="M12.9234 19.0476L13.908 17.6508C14.2773 17.0793 14.1542 16.3174 13.6619 15.9365C13.108 15.5555 12.3696 15.6825 12.0003 16.1904L11.0157 17.5873C10.6465 18.1587 10.7696 18.9206 11.2619 19.3015C11.8157 19.6825 12.5542 19.5555 12.9234 19.0476Z" stroke="url(#paint11_linear)" stroke-width="1.5" stroke-miterlimit="10" stroke-linecap="round" stroke-linejoin="round"/>
<path d="M6.64628 0.507935L9.60012 2.60317L3.56935 11.873L0.492432 9.39682" stroke="url(#paint12_linear)" stroke-width="1.5" stroke-miterlimit="10" stroke-linecap="round" stroke-linejoin="round"/>
<path d="M23.2572 0.507935L19.7495 1.84127L23.7495 12.1905L27.5649 10.6667" stroke="url(#paint13_linear)" stroke-width="1.5" stroke-miterlimit="10" stroke-linecap="round" stroke-linejoin="round"/>
<defs>
<linearGradient id="paint0_linear" x1="21.2261" y1="12.9135" x2="23.6876" y2="12.9135" gradientUnits="userSpaceOnUse">
<stop stop-color="#3E9D4A"/>
<stop offset="1" stop-color="#7CCB44"/>
</linearGradient>
<linearGradient id="paint1_linear" x1="9.53638" y1="3.39168" x2="12.8595" y2="3.39168" gradientUnits="userSpaceOnUse">
<stop stop-color="#3E9D4A"/>
<stop offset="1" stop-color="#7CCB44"/>
</linearGradient>
<linearGradient id="paint2_linear" x1="18.6487" y1="11.6962" x2="21.752" y2="11.6962" gradientUnits="userSpaceOnUse">
<stop stop-color="#3E9D4A"/>
<stop offset="1" stop-color="#7CCB44"/>
</linearGradient>
<linearGradient id="paint3_linear" x1="3.75317" y1="12.5011" x2="5.04548" y2="12.5011" gradientUnits="userSpaceOnUse">
<stop stop-color="#3E9D4A"/>
<stop offset="1" stop-color="#7CCB44"/>
</linearGradient>
<linearGradient id="paint4_linear" x1="13.7266" y1="13.4831" x2="20.8915" y2="13.4831" gradientUnits="userSpaceOnUse">
<stop stop-color="#3E9D4A"/>
<stop offset="1" stop-color="#7CCB44"/>
</linearGradient>
<linearGradient id="paint5_linear" x1="12.9268" y1="15.3888" x2="19.107" y2="15.3888" gradientUnits="userSpaceOnUse">
<stop stop-color="#3E9D4A"/>
<stop offset="1" stop-color="#7CCB44"/>
</linearGradient>
<linearGradient id="paint6_linear" x1="12.8652" y1="17.1084" x2="16.2763" y2="17.1084" gradientUnits="userSpaceOnUse">
<stop stop-color="#3E9D4A"/>
<stop offset="1" stop-color="#7CCB44"/>
</linearGradient>
<linearGradient id="paint7_linear" x1="9.84399" y1="5.62605" x2="20.4286" y2="5.62605" gradientUnits="userSpaceOnUse">
<stop stop-color="#3E9D4A"/>
<stop offset="1" stop-color="#7CCB44"/>
</linearGradient>
<linearGradient id="paint8_linear" x1="5.01758" y1="12.785" x2="8.95465" y2="12.785" gradientUnits="userSpaceOnUse">
<stop stop-color="#3E9D4A"/>
<stop offset="1" stop-color="#7CCB44"/>
</linearGradient>
<linearGradient id="paint9_linear" x1="6.92505" y1="13.7561" x2="11.539" y2="13.7561" gradientUnits="userSpaceOnUse">
<stop stop-color="#3E9D4A"/>
<stop offset="1" stop-color="#7CCB44"/>
</linearGradient>
<linearGradient id="paint10_linear" x1="8.8938" y1="15.6963" x2="12.8309" y2="15.6963" gradientUnits="userSpaceOnUse">
<stop stop-color="#3E9D4A"/>
<stop offset="1" stop-color="#7CCB44"/>
</linearGradient>
<linearGradient id="paint11_linear" x1="10.801" y1="17.6045" x2="14.1227" y2="17.6045" gradientUnits="userSpaceOnUse">
<stop stop-color="#3E9D4A"/>
<stop offset="1" stop-color="#7CCB44"/>
</linearGradient>
<linearGradient id="paint12_linear" x1="0.492432" y1="6.1471" x2="9.60012" y2="6.1471" gradientUnits="userSpaceOnUse">
<stop stop-color="#3E9D4A"/>
<stop offset="1" stop-color="#7CCB44"/>
</linearGradient>
<linearGradient id="paint13_linear" x1="19.7495" y1="6.30461" x2="27.5649" y2="6.30461" gradientUnits="userSpaceOnUse">
<stop stop-color="#3E9D4A"/>
<stop offset="1" stop-color="#7CCB44"/>
</linearGradient>
</defs>
</svg>
