<svg width="64" height="47" viewBox="0 0 64 47" fill="none" xmlns="http://www.w3.org/2000/svg">
<path d="M2.38879 42.4484C2.38879 43.9326 3.5832 45.2189 4.97666 45.2189H59.0233C60.4168 45.2189 61.6112 44.0316 61.6112 42.4484V2.77053C61.6112 1.28632 60.4168 0 59.0233 0H4.97666C3.48366 0 2.38879 1.18737 2.38879 2.77053V42.4484Z" fill="url(#paint0_linear)"/>
<path d="M59.0233 0H4.97666C3.48366 0 2.38879 1.18737 2.38879 2.77053V42.1516V3.26526C2.38879 1.78105 3.5832 0.494737 4.97666 0.494737H59.0233C60.4168 0.494737 61.6112 1.68211 61.6112 3.26526V2.77053C61.6112 1.18737 60.4168 0 59.0233 0Z" fill="#004C69"/>
<path d="M59.0233 38.6884C59.3219 38.6884 59.4215 38.4905 59.4215 38.4905V4.35368C59.4215 4.25474 59.3219 4.15579 59.0233 4.15579H4.97669C4.67809 4.15579 4.57855 4.35368 4.57855 4.35368V38.4905C4.57855 38.5895 4.67809 38.6884 4.97669 38.6884H59.0233Z" fill="url(#paint1_linear)"/>
<path d="M2.38879 42.4484C2.38879 43.9326 3.5832 45.2189 4.97666 45.2189H59.0233C60.4168 45.2189 61.6112 44.0316 61.6112 42.4484V2.77053C61.6112 1.28632 60.4168 0 59.0233 0H4.97666C3.48366 0 2.38879 1.18737 2.38879 2.77053V42.4484Z" fill="url(#paint2_linear)"/>
<path d="M59.0233 38.6884C59.3219 38.6884 59.4215 38.4905 59.4215 38.4905V4.35368C59.4215 4.25474 59.3219 4.15579 59.0233 4.15579H4.97669C4.67809 4.15579 4.57855 4.35368 4.57855 4.35368V38.4905C4.57855 38.5895 4.67809 38.6884 4.97669 38.6884H59.0233Z" fill="url(#paint3_linear)"/>
<path d="M59.0233 38.6884C59.3219 38.6884 59.4215 38.4905 59.4215 38.4905V4.35368C59.4215 4.25474 59.3219 4.15579 59.0233 4.15579H4.97669C4.67809 4.15579 4.57855 4.35368 4.57855 4.35368V38.4905C4.57855 38.5895 4.67809 38.6884 4.97669 38.6884H59.0233Z" fill="url(#paint4_linear)"/>
<path d="M0 44.5263C0 45.9116 1.29393 47 2.88647 47H61.014C62.6065 47 63.9005 45.9116 63.9005 44.5263C63.9005 43.1411 62.6065 42.0526 61.014 42.0526H2.88647C1.29393 42.0526 0 43.1411 0 44.5263Z" fill="url(#paint5_linear)"/>
<path d="M2.88647 42.7453H61.014C62.507 42.7453 63.7014 43.6358 63.9005 44.8232C63.9005 44.7242 63.9005 44.6253 63.9005 44.4274C63.9005 43.0421 62.6065 41.9537 61.014 41.9537H2.88647C1.29393 42.0526 0 43.1411 0 44.5263C0 44.6253 0 44.7242 0 44.9221C0.199067 43.6358 1.493 42.7453 2.88647 42.7453Z" fill="#92D3EB"/>
<path d="M61.014 46.0105H2.88647C1.493 46.0105 0.2986 45.12 0 44.0316C0 44.2295 0 44.3284 0 44.5263C0 45.9116 1.29393 47 2.88647 47H61.014C62.6065 47 63.9005 45.9116 63.9005 44.5263C63.9005 44.3284 63.9005 44.2295 63.8009 44.0316C63.7014 45.12 62.507 46.0105 61.014 46.0105Z" fill="url(#paint6_linear)"/>
<path d="M59.0233 4.05684H4.97669C4.67809 4.05684 4.57855 4.25474 4.57855 4.25474V8.11368H59.4215V4.35369C59.4215 4.25474 59.3219 4.05684 59.0233 4.05684Z" fill="url(#paint7_linear)"/>
<path d="M8.06222 5.93684C8.06222 6.43158 7.66408 6.82737 7.16641 6.82737C6.76828 6.82737 6.37015 6.43158 6.37015 5.93684C6.37015 5.44211 6.76828 5.04632 7.26595 5.04632C7.66408 5.14527 8.06222 5.54105 8.06222 5.93684Z" fill="url(#paint8_linear)"/>
<path d="M10.3515 5.93684C10.3515 6.43158 9.95334 6.82737 9.45568 6.82737C8.95801 6.82737 8.55988 6.43158 8.55988 5.93684C8.55988 5.44211 8.95801 5.04632 9.45568 5.04632C9.95334 5.14527 10.3515 5.54105 10.3515 5.93684Z" fill="url(#paint9_linear)"/>
<path d="M12.5412 5.93684C12.5412 6.43158 12.1431 6.82737 11.6454 6.82737C11.1477 6.82737 10.7496 6.43158 10.7496 5.93684C10.7496 5.44211 11.1477 5.04632 11.6454 5.04632C12.1431 5.14527 12.5412 5.54105 12.5412 5.93684Z" fill="url(#paint10_linear)"/>
<path d="M6.46968 6.13474C6.46968 5.64 6.86781 5.24421 7.36548 5.24421C7.56455 5.24421 7.76362 5.34316 7.96268 5.44211C7.76362 5.24421 7.56455 5.14526 7.26595 5.14526C6.76828 5.14526 6.37015 5.54105 6.37015 5.93684C6.37015 6.23369 6.46968 6.43158 6.66875 6.62947C6.56921 6.53053 6.46968 6.33263 6.46968 6.13474Z" fill="#AB4700"/>
<path d="M8.75894 6.13474C8.75894 5.64 9.15708 5.24421 9.65474 5.24421C9.85381 5.24421 10.0529 5.34316 10.2519 5.44211C9.95334 5.24421 9.75428 5.14526 9.45568 5.14526C8.95801 5.14526 8.55988 5.54105 8.55988 5.93684C8.55988 6.23369 8.65941 6.43158 8.85847 6.62947C8.75894 6.53053 8.75894 6.33263 8.75894 6.13474Z" fill="#004C69"/>
<path d="M10.9487 6.13474C10.9487 5.64 11.3468 5.24421 11.8445 5.24421C12.0436 5.24421 12.2426 5.34316 12.4417 5.44211C12.2426 5.24421 12.0436 5.04632 11.745 5.04632C11.2473 5.04632 10.8492 5.44211 10.8492 5.93684C10.8492 6.23369 10.9487 6.43158 11.1478 6.62948C11.0482 6.53053 10.9487 6.33263 10.9487 6.13474Z" fill="#92D3EB"/>
<path d="M59.0233 4.05684H4.97669C4.67809 4.05684 4.57855 4.25474 4.57855 4.25474V38.3916C4.57855 38.4905 4.67809 38.5895 4.97669 38.5895H59.0233C59.3219 38.5895 59.4215 38.3916 59.4215 38.3916V4.35369C59.4215 4.25474 59.3219 4.05684 59.0233 4.05684ZM58.9238 38.1937H5.07622V4.55158H59.0233V38.1937H58.9238Z" fill="#9FCBD6"/>
<path d="M25.5801 22.4611C25.5801 26.32 22.395 29.3874 18.5132 29.2884C14.6314 29.1895 11.4463 26.0232 11.5459 22.1642C11.5459 18.3053 14.731 15.2379 18.6128 15.3368C22.4946 15.4358 25.5801 18.6021 25.5801 22.4611Z" fill="#FFD336"/>
<path d="M25.5801 22.7579C25.381 26.0232 22.2955 28.5958 18.5132 28.5958C14.731 28.4968 11.745 25.9242 11.5459 22.56C11.745 26.2211 14.731 29.1895 18.5132 29.2884C22.2955 29.3874 25.381 26.5179 25.5801 22.7579Z" fill="url(#paint11_linear)"/>
<path d="M18.6128 15.9305C22.395 16.0295 25.4806 18.9979 25.5801 22.7579C25.5801 22.6589 25.5801 22.56 25.5801 22.4611C25.5801 18.6021 22.4946 15.4358 18.6128 15.3368C14.731 15.2379 11.5459 18.3053 11.5459 22.1642C11.5459 22.2632 11.5459 22.3621 11.5459 22.4611C11.745 18.8 14.8305 15.8316 18.6128 15.9305Z" fill="#FFB82B"/>
<path d="M17.9165 26.9137C17.5183 26.9137 17.1202 26.8147 16.9211 26.7158C16.6225 26.6168 16.4235 26.5179 16.2244 26.4189L16.6225 25.0337C16.7221 25.1326 16.9211 25.2316 17.1202 25.3305C17.3193 25.4295 17.6179 25.4295 17.9165 25.5284V22.7579C17.7174 22.6589 17.5183 22.4611 17.3193 22.3621C17.1202 22.1642 16.9211 22.0653 16.7221 21.7684C16.523 21.5705 16.4235 21.2737 16.3239 21.0758C16.2244 20.7789 16.1249 20.4821 16.1249 20.0863C16.1249 19.3937 16.3239 18.8989 16.6225 18.5032C16.9211 18.1074 17.4188 17.9095 17.9165 17.8105V16.6232H19.1109V17.7116C19.4095 17.7116 19.7081 17.8105 19.9071 17.9095C20.1062 18.0084 20.4048 18.0084 20.6039 18.1074L20.2057 19.3937C20.1062 19.2947 19.9071 19.2947 19.8076 19.1958C19.6085 19.0968 19.4095 19.0968 19.2104 19.0968V21.5705C19.4095 21.6695 19.6085 21.8674 19.9071 22.0653C20.1062 22.2632 20.3053 22.3621 20.5043 22.6589C20.7034 22.8568 20.8029 23.1537 20.9025 23.3516C21.002 23.6484 21.1015 23.9453 21.1015 24.3411C21.1015 25.0337 20.9025 25.6274 20.6039 26.0232C20.3053 26.4189 19.8076 26.7158 19.2104 26.8147V28.0021H18.016L17.9165 26.9137ZM18.5137 19.0968C18.2151 19.0968 18.016 19.1958 17.9165 19.3937C17.8169 19.5916 17.7174 19.7895 17.7174 19.9874C17.7174 20.2842 17.8169 20.4821 17.9165 20.68C18.1155 20.8779 18.2151 20.9768 18.5137 21.1747V19.0968ZM18.6132 25.5284C18.9118 25.4295 19.1109 25.3305 19.2104 25.1326C19.3099 24.9347 19.4095 24.7368 19.4095 24.44C19.4095 24.1432 19.3099 23.9453 19.2104 23.7474C19.0113 23.5495 18.9118 23.3516 18.6132 23.2526V25.5284Z" fill="url(#paint12_linear)"/>
<path d="M20.8025 23.3516C20.7029 23.0547 20.5039 22.8568 20.4043 22.6589C20.2053 22.4611 20.0062 22.2632 19.8071 22.0653C19.6081 21.8674 19.409 21.7684 19.1104 21.5705V19.0968C19.3095 19.0968 19.5085 19.1958 19.7076 19.1958C19.9067 19.2947 20.0062 19.2947 20.1057 19.3937L20.5039 18.1074C20.3048 18.0084 20.1057 17.9095 19.8071 17.9095C19.6081 17.8105 19.3095 17.8105 19.0109 17.7116V16.6232H17.8165V17.8105C17.3188 17.9095 16.8211 18.2063 16.5225 18.5032C16.2239 18.8989 16.0249 19.3937 16.0249 20.0863C16.0249 20.4821 16.0249 20.7789 16.2239 21.0758C16.3235 21.3726 16.423 21.5705 16.6221 21.7684C16.8211 21.9663 17.0202 22.1642 17.2193 22.3621C17.4183 22.4611 17.6174 22.6589 17.8165 22.7579V25.5284C17.5179 25.5284 17.2193 25.4295 17.0202 25.3305C16.8211 25.2316 16.6221 25.1326 16.5225 25.0337L16.1244 26.4189C16.3235 26.5179 16.5225 26.6168 16.8211 26.7158C17.1197 26.8147 17.4183 26.8147 17.8165 26.9137V28.0021H19.0109V26.8147C19.6081 26.7158 20.0062 26.4189 20.4043 26.0232C20.7029 25.6274 20.902 25.0337 20.902 24.3411C21.0015 23.9453 20.902 23.6484 20.8025 23.3516ZM20.3048 25.5284C20.0062 25.9242 19.6081 26.1221 19.1104 26.2211L18.8118 26.32V27.4084H18.2146V26.32H17.916C17.5179 26.32 17.2193 26.2211 16.9207 26.1221C16.8211 26.1221 16.7216 26.1221 16.6221 26.0232L16.7216 25.7263C16.8211 25.8253 16.9207 25.8253 17.0202 25.8253C17.2193 25.9242 17.5179 25.9242 17.8165 26.0232H18.1151V22.1642C18.1151 22.1642 17.5179 21.7684 17.3188 21.6695C17.1197 21.4716 16.9207 21.3726 16.8211 21.1747C16.7216 20.9768 16.6221 20.7789 16.5225 20.5811C16.423 20.3832 16.423 20.1853 16.423 19.8884C16.423 19.3937 16.5225 19.0968 16.7216 18.8C17.0202 18.5032 17.4183 18.2063 17.916 18.1074L18.2146 18.0084V16.92H18.8118V18.0084H19.1104C19.409 18.0084 19.6081 18.1074 19.9067 18.1074C20.0062 18.1074 20.0062 18.1074 20.1057 18.2063L20.0062 18.8C19.9067 18.8 19.8071 18.7011 19.7076 18.7011C19.5085 18.6021 19.3095 18.6021 19.1104 18.6021L18.8118 18.5032V22.0653L19.0109 22.1642C19.2099 22.2632 19.409 22.4611 19.6081 22.56C19.8071 22.7579 20.0062 22.8568 20.1057 23.0547C20.2053 23.2526 20.4043 23.4505 20.5039 23.6484C20.6034 23.8463 20.6034 24.0442 20.6034 24.2421C20.7029 24.8358 20.5039 25.2316 20.3048 25.5284Z" fill="url(#paint13_linear)"/>
<path d="M54.0471 22.4611C54.0471 26.32 50.862 29.3874 46.9802 29.2884C43.0984 29.1895 39.9134 26.0232 40.0129 22.1642C40.0129 18.3053 43.198 15.2379 47.0798 15.3368C50.862 15.4358 54.0471 18.6021 54.0471 22.4611Z" fill="#FFD336"/>
<path d="M53.9471 22.7579C53.748 26.0232 50.6625 28.5958 46.8802 28.5958C43.098 28.4968 40.112 25.9242 39.9129 22.56C40.112 26.2211 43.098 29.1895 46.8802 29.2884C50.762 29.3874 53.748 26.5179 53.9471 22.7579Z" fill="url(#paint14_linear)"/>
<path d="M46.9798 15.9305C50.762 16.0295 53.8476 18.9979 53.9471 22.7579C53.9471 22.6589 53.9471 22.56 53.9471 22.4611C53.9471 18.6021 50.8616 15.4358 46.9798 15.3368C43.098 15.2379 39.9129 18.3053 39.9129 22.1642C39.9129 22.2632 39.9129 22.3621 39.9129 22.4611C40.112 18.8 43.1975 15.8316 46.9798 15.9305Z" fill="#FFB82B"/>
<path d="M48.8709 18.8V17.0189C45.8849 17.0189 43.8942 18.3053 43.3966 20.7789H42.5008V21.5705H43.297C43.297 21.6695 43.297 21.7684 43.297 21.8674C43.297 22.0653 43.297 22.1642 43.297 22.3621H42.4012V23.6484H43.4961C44.1928 25.7263 46.084 26.8147 48.7714 26.8147V25.0337C47.1789 25.0337 46.2831 24.6379 45.7854 23.6484H48.3733V22.3621H45.4868C45.4868 22.1642 45.4868 22.0653 45.4868 21.8674C45.4868 21.7684 45.4868 21.6695 45.4868 21.5705H48.3733V20.7789H45.5863C45.8849 19.3937 46.8802 18.8 48.8709 18.8Z" fill="url(#paint15_linear)"/>
<path d="M48.8709 18.8V17.0189C45.8849 17.0189 43.8942 18.3053 43.3966 20.7789H42.5008V21.5705H43.297C43.297 21.6695 43.297 21.7684 43.297 21.8674C43.297 22.0653 43.297 22.1642 43.297 22.3621H42.4012V23.6484H43.4961C44.1928 25.7263 46.084 26.8147 48.7714 26.8147V25.0337C47.1789 25.0337 46.2831 24.6379 45.7854 23.6484H48.3733V22.3621H45.4868C45.4868 22.1642 45.4868 22.0653 45.4868 21.8674C45.4868 21.7684 45.4868 21.6695 45.4868 21.5705H48.3733V20.7789H45.5863C45.8849 19.3937 46.8802 18.8 48.8709 18.8ZM45.1882 20.68L45.0886 21.1747C45.0886 21.1747 45.0886 21.7684 45.0886 21.8674C45.0886 22.0653 45.0886 22.1642 45.0886 22.3621V22.7579L45.4868 22.8568H47.9751V23.2526H45.0886L45.3872 23.8463C45.8849 24.8358 46.7807 25.3305 48.2737 25.4295V26.4189C45.9845 26.32 44.3919 25.3305 43.7947 23.5495L43.6952 23.2526H42.6998V22.8568H43.7947V22.3621C43.7947 22.1642 43.7947 22.0653 43.7947 21.8674V21.1747H43.5956H43.7947L43.8942 20.7789C44.3919 18.1074 46.5817 17.4147 48.4728 17.3158V18.3053C46.4821 18.5032 45.4868 19.1958 45.1882 20.68Z" fill="url(#paint16_linear)"/>
<path d="M34.2395 21.0758L36.2302 18.7011L34.2395 16.2274V17.6126H29.6609V19.7895H34.2395V21.0758Z" fill="url(#paint17_linear)"/>
<path d="M33.8414 19.3937H29.6609V19.6905H33.8414V19.3937Z" fill="url(#paint18_linear)"/>
<path d="M34.2395 16.2274V16.3263L35.9316 18.3053L34.2395 20.3832V21.0758L36.2302 18.7011L34.2395 16.2274Z" fill="url(#paint19_linear)"/>
<path d="M30.6563 28.1011L28.5661 25.6274L30.6563 23.2526V24.5389H35.2348V26.7158H30.6563V28.1011Z" fill="url(#paint20_linear)"/>
<path d="M35.1353 26.4189H30.9549V26.7158H35.1353V26.4189Z" fill="url(#paint21_linear)"/>
<path d="M30.6563 23.2526L28.9642 25.3305L30.6563 27.4084V28.1011L28.5661 25.6274L30.6563 23.2526Z" fill="url(#paint22_linear)"/>
<path opacity="0.7" d="M2.38879 2.77053V42.0526H18.7123L51.5583 0H4.97666C3.48366 0 2.38879 1.18737 2.38879 2.77053Z" fill="url(#paint23_linear)" fill-opacity="0.2"/>
<path d="M49.3686 35.1263L48.9705 27.4084L56.6345 27.9032L54.6439 29.8821L57.8289 33.0484L54.5443 36.3137L51.3593 33.1474L49.3686 35.1263Z" fill="white"/>
<path d="M51.9565 32.8505L55.042 35.8189L54.5443 36.3137L51.5583 33.2463L51.9565 32.8505Z" fill="url(#paint24_linear)"/>
<path d="M56.6345 27.9032V28.0021L50.0653 27.6063L50.4635 34.1368L49.3686 35.1263L48.9705 27.4084L56.6345 27.9032Z" fill="url(#paint25_linear)"/>
<defs>
<linearGradient id="paint0_linear" x1="6.58662" y1="-2.63833" x2="57.0892" y2="48.1633" gradientUnits="userSpaceOnUse">
<stop stop-color="#104C91"/>
<stop offset="0.3485" stop-color="#0D427F"/>
<stop offset="1" stop-color="#062A54"/>
</linearGradient>
<linearGradient id="paint1_linear" x1="4.548" y1="21.3809" x2="59.4323" y2="21.3809" gradientUnits="userSpaceOnUse">
<stop stop-color="#FAFAFA"/>
<stop offset="1" stop-color="#CDEFFA"/>
</linearGradient>
<linearGradient id="paint2_linear" x1="6.58662" y1="-2.63833" x2="57.0892" y2="48.1633" gradientUnits="userSpaceOnUse">
<stop stop-color="#104C91"/>
<stop offset="0.3485" stop-color="#0D427F"/>
<stop offset="1" stop-color="#062A54"/>
</linearGradient>
<linearGradient id="paint3_linear" x1="31.9902" y1="38.6755" x2="31.9902" y2="4.08643" gradientUnits="userSpaceOnUse">
<stop stop-color="#062A54"/>
<stop offset="0.6515" stop-color="#0D427F"/>
<stop offset="1" stop-color="#104C91"/>
</linearGradient>
<linearGradient id="paint4_linear" x1="31.9902" y1="38.6755" x2="31.9902" y2="4.08643" gradientUnits="userSpaceOnUse">
<stop stop-color="#093D7A"/>
<stop offset="0.2605" stop-color="#0A3F7E"/>
<stop offset="0.4961" stop-color="#0C4589"/>
<stop offset="0.7222" stop-color="#0F509B"/>
<stop offset="0.9411" stop-color="#145EB5"/>
<stop offset="1" stop-color="#1563BD"/>
</linearGradient>
<linearGradient id="paint5_linear" x1="15.5355" y1="28.1543" x2="48.2479" y2="61.0605" gradientUnits="userSpaceOnUse">
<stop stop-color="#FAFAFA"/>
<stop offset="1" stop-color="#CDEFFA"/>
</linearGradient>
<linearGradient id="paint6_linear" x1="15.6582" y1="28.5207" x2="48.1264" y2="61.1812" gradientUnits="userSpaceOnUse">
<stop stop-color="#B0CCD6"/>
<stop offset="0.0437067" stop-color="#B4D0D9"/>
<stop offset="0.2378" stop-color="#C1DBE3"/>
<stop offset="0.4888" stop-color="#C9E1E9"/>
<stop offset="1" stop-color="#CBE3EB"/>
</linearGradient>
<linearGradient id="paint7_linear" x1="17.275" y1="-8.37718" x2="46.5311" y2="21.0522" gradientUnits="userSpaceOnUse">
<stop stop-color="#81B510"/>
<stop offset="0.0278556" stop-color="#7FB410"/>
<stop offset="0.3315" stop-color="#6DAD12"/>
<stop offset="0.649" stop-color="#62A914"/>
<stop offset="1" stop-color="#5EA814"/>
</linearGradient>
<linearGradient id="paint8_linear" x1="6.36179" y1="5.98365" x2="8.0861" y2="5.98365" gradientUnits="userSpaceOnUse">
<stop stop-color="#FFBD14"/>
<stop offset="0.0523943" stop-color="#FFB612"/>
<stop offset="0.2728" stop-color="#FF9C0A"/>
<stop offset="0.5004" stop-color="#FF8A04"/>
<stop offset="0.7377" stop-color="#FF7F01"/>
<stop offset="1" stop-color="#FF7B00"/>
</linearGradient>
<linearGradient id="paint9_linear" x1="9.44104" y1="6.85775" x2="9.44104" y2="5.10964" gradientUnits="userSpaceOnUse">
<stop stop-color="#062A54"/>
<stop offset="0.2719" stop-color="#072C58"/>
<stop offset="0.5179" stop-color="#083263"/>
<stop offset="0.7539" stop-color="#0B3C75"/>
<stop offset="0.9825" stop-color="#104B8F"/>
<stop offset="1" stop-color="#104C91"/>
</linearGradient>
<linearGradient id="paint10_linear" x1="10.7951" y1="5.98365" x2="12.5204" y2="5.98365" gradientUnits="userSpaceOnUse">
<stop stop-color="#FAFAFA"/>
<stop offset="1" stop-color="#CDEFFA"/>
</linearGradient>
<linearGradient id="paint11_linear" x1="18.5785" y1="29.2655" x2="18.5785" y2="22.5412" gradientUnits="userSpaceOnUse">
<stop stop-color="#FF7B00"/>
<stop offset="0.0241918" stop-color="#FF7D01"/>
<stop offset="0.6742" stop-color="#FFAB0F"/>
<stop offset="1" stop-color="#FFBD14"/>
</linearGradient>
<linearGradient id="paint12_linear" x1="18.5716" y1="28.0376" x2="18.5716" y2="16.6133" gradientUnits="userSpaceOnUse">
<stop stop-color="#FF7B00"/>
<stop offset="0.0241918" stop-color="#FF7D01"/>
<stop offset="0.213585" stop-color="#FFAB0F"/>
<stop offset="1" stop-color="#FFBD14"/>
</linearGradient>
<linearGradient id="paint13_linear" x1="18.4895" y1="27.9592" x2="18.4895" y2="16.5914" gradientUnits="userSpaceOnUse">
<stop stop-color="#FF7B00"/>
<stop offset="0.0241918" stop-color="#FF7D01"/>
<stop offset="0.6742" stop-color="#FFAB0F"/>
<stop offset="1" stop-color="#FFBD14"/>
</linearGradient>
<linearGradient id="paint14_linear" x1="46.9455" y1="29.2655" x2="46.9455" y2="22.5412" gradientUnits="userSpaceOnUse">
<stop stop-color="#FF7B00"/>
<stop offset="0.0241918" stop-color="#FF7D01"/>
<stop offset="0.6742" stop-color="#FFAB0F"/>
<stop offset="1" stop-color="#FFBD14"/>
</linearGradient>
<linearGradient id="paint15_linear" x1="44.1776" y1="18.8454" x2="50.4951" y2="25.2003" gradientUnits="userSpaceOnUse">
<stop stop-color="#FFBD14"/>
<stop offset="0.0523943" stop-color="#FFB612"/>
<stop offset="0.589879" stop-color="#FF9C0A"/>
<stop offset="0.717294" stop-color="#FF8A04"/>
<stop offset="0.87494" stop-color="#FF7F01"/>
<stop offset="1" stop-color="#FF7B00"/>
</linearGradient>
<linearGradient id="paint16_linear" x1="45.6432" y1="26.7778" x2="45.6432" y2="16.9916" gradientUnits="userSpaceOnUse">
<stop stop-color="#FF7B00"/>
<stop offset="0.0241918" stop-color="#FF7D01"/>
<stop offset="0.6742" stop-color="#FFAB0F"/>
<stop offset="1" stop-color="#FFBD14"/>
</linearGradient>
<linearGradient id="paint17_linear" x1="32.9573" y1="21.1181" x2="32.9573" y2="16.2171" gradientUnits="userSpaceOnUse">
<stop stop-color="#FAFAFA"/>
<stop offset="1" stop-color="#CDEFFA"/>
</linearGradient>
<linearGradient id="paint18_linear" x1="29.6481" y1="19.6015" x2="33.8695" y2="19.6015" gradientUnits="userSpaceOnUse">
<stop stop-color="#B0CCD6"/>
<stop offset="0.0437067" stop-color="#B4D0D9"/>
<stop offset="0.2378" stop-color="#C1DBE3"/>
<stop offset="0.4888" stop-color="#C9E1E9"/>
<stop offset="1" stop-color="#CBE3EB"/>
</linearGradient>
<linearGradient id="paint19_linear" x1="34.1971" y1="18.6676" x2="36.2665" y2="18.6676" gradientUnits="userSpaceOnUse">
<stop stop-color="#B0CCD6"/>
<stop offset="0.0437067" stop-color="#B4D0D9"/>
<stop offset="0.2378" stop-color="#C1DBE3"/>
<stop offset="0.4888" stop-color="#C9E1E9"/>
<stop offset="1" stop-color="#CBE3EB"/>
</linearGradient>
<linearGradient id="paint20_linear" x1="31.8988" y1="28.1149" x2="31.8988" y2="23.213" gradientUnits="userSpaceOnUse">
<stop stop-color="#FAFAFA"/>
<stop offset="1" stop-color="#CDEFFA"/>
</linearGradient>
<linearGradient id="paint21_linear" x1="30.9865" y1="26.5974" x2="35.208" y2="26.5974" gradientUnits="userSpaceOnUse">
<stop stop-color="#B0CCD6"/>
<stop offset="0.0437067" stop-color="#B4D0D9"/>
<stop offset="0.2378" stop-color="#C1DBE3"/>
<stop offset="0.4888" stop-color="#C9E1E9"/>
<stop offset="1" stop-color="#CBE3EB"/>
</linearGradient>
<linearGradient id="paint22_linear" x1="28.5896" y1="25.664" x2="30.66" y2="25.664" gradientUnits="userSpaceOnUse">
<stop stop-color="#B0CCD6"/>
<stop offset="0.0437067" stop-color="#B4D0D9"/>
<stop offset="0.2378" stop-color="#C1DBE3"/>
<stop offset="0.4888" stop-color="#C9E1E9"/>
<stop offset="1" stop-color="#CBE3EB"/>
</linearGradient>
<linearGradient id="paint23_linear" x1="26.9996" y1="-0.327813" x2="25.8142" y2="45.8713" gradientUnits="userSpaceOnUse">
<stop stop-color="#306173"/>
<stop offset="0.0684708" stop-color="#2B5768"/>
<stop offset="0.3641" stop-color="#19323B"/>
<stop offset="0.6284" stop-color="#0B171B"/>
<stop offset="0.8494" stop-color="#030607"/>
<stop offset="1"/>
</linearGradient>
<linearGradient id="paint24_linear" x1="51.7605" y1="33.0418" x2="54.8101" y2="36.1094" gradientUnits="userSpaceOnUse">
<stop stop-color="#FAFAFA"/>
<stop offset="1" stop-color="#CDEFFA"/>
</linearGradient>
<linearGradient id="paint25_linear" x1="48.9266" y1="27.4553" x2="52.9975" y2="31.5503" gradientUnits="userSpaceOnUse">
<stop stop-color="#FAFAFA"/>
<stop offset="1" stop-color="#CDEFFA"/>
</linearGradient>
</defs>
</svg>
