<svg width="62" height="57" viewBox="0 0 62 57" fill="none" xmlns="http://www.w3.org/2000/svg">
<path d="M17.008 39.8111C17.008 40.305 16.6125 40.799 16.0192 40.799H2.47211C1.97769 40.799 1.48328 40.4038 1.48328 39.8111V36.3536C1.48328 35.8596 1.87881 35.3657 2.47211 35.3657H16.118C16.6125 35.3657 17.1069 35.7608 17.1069 36.3536V39.8111H17.008Z" fill="url(#paint0_linear)"/>
<path d="M17.008 32.6984C17.008 33.1924 16.6125 33.6863 16.0192 33.6863H2.47211C1.97769 33.6863 1.48328 33.2912 1.48328 32.6984V29.2409C1.48328 28.747 1.87881 28.253 2.47211 28.253H16.118C16.6125 28.253 17.1069 28.6482 17.1069 29.2409V32.6984H17.008Z" fill="url(#paint1_linear)"/>
<path d="M17.008 25.5858C17.008 26.0797 16.6125 26.5737 16.0192 26.5737H2.47211C1.97769 26.5737 1.48328 26.1785 1.48328 25.5858V22.1282C1.48328 21.6343 1.87881 21.1404 2.47211 21.1404H16.118C16.6125 21.1404 17.1069 21.5355 17.1069 22.1282V25.5858H17.008Z" fill="url(#paint2_linear)"/>
<path d="M17.008 18.5719C17.008 19.0659 16.6125 19.5598 16.0192 19.5598H2.47211C1.97769 19.5598 1.48328 19.1646 1.48328 18.5719V15.1144C1.48328 14.6204 1.87881 14.1265 2.47211 14.1265H16.118C16.6125 14.1265 17.1069 14.5217 17.1069 15.1144V18.5719H17.008Z" fill="url(#paint3_linear)"/>
<path d="M17.008 11.4593C17.008 11.9532 16.6125 12.4471 16.0192 12.4471H2.47211C1.97769 12.4471 1.48328 12.052 1.48328 11.4593V8.00173C1.48328 7.5078 1.87881 7.01386 2.47211 7.01386H16.118C16.6125 7.01386 17.1069 7.40901 17.1069 8.00173V11.4593H17.008Z" fill="url(#paint4_linear)"/>
<path d="M38.4657 39.8111C38.4657 40.305 38.0702 40.799 37.4769 40.799H23.9298C23.4354 40.799 22.941 40.4038 22.941 39.8111V36.3536C22.941 35.8596 23.3365 35.3657 23.9298 35.3657H37.5757C38.0702 35.3657 38.5646 35.7608 38.5646 36.3536V39.8111H38.4657Z" fill="url(#paint5_linear)"/>
<path d="M38.4657 32.6984C38.4657 33.1924 38.0702 33.6863 37.4769 33.6863H23.9298C23.4354 33.6863 22.941 33.2912 22.941 32.6984V29.2409C22.941 28.747 23.3365 28.253 23.9298 28.253H37.5757C38.0702 28.253 38.5646 28.6482 38.5646 29.2409V32.6984H38.4657Z" fill="url(#paint6_linear)"/>
<path d="M38.4657 25.5858C38.4657 26.0797 38.0702 26.5737 37.4769 26.5737H23.9298C23.4354 26.5737 22.941 26.1785 22.941 25.5858V22.1282C22.941 21.6343 23.3365 21.1404 23.9298 21.1404H37.5757C38.0702 21.1404 38.5646 21.5355 38.5646 22.1282V25.5858H38.4657Z" fill="url(#paint7_linear)"/>
<path d="M38.4657 18.078C38.4657 18.5719 38.0702 19.0659 37.4769 19.0659H23.9298C23.4354 19.0659 22.941 18.6707 22.941 18.078V14.6205C22.941 14.1265 23.3365 13.6326 23.9298 13.6326H37.5757C38.0702 13.6326 38.5646 14.0277 38.5646 14.6205V18.078H38.4657Z" fill="url(#paint8_linear)"/>
<path d="M60.5167 39.8111C60.5167 40.305 60.1212 40.799 59.5279 40.799H45.882C45.3875 40.799 44.8931 40.4038 44.8931 39.8111V36.3536C44.8931 35.8596 45.2887 35.3657 45.882 35.3657H59.5279C60.0223 35.3657 60.5167 35.7608 60.5167 36.3536V39.8111Z" fill="url(#paint9_linear)"/>
<path d="M60.5167 32.6984C60.5167 33.1924 60.1212 33.6863 59.5279 33.6863H45.882C45.3875 33.6863 44.8931 33.2912 44.8931 32.6984V29.2409C44.8931 28.747 45.2887 28.253 45.882 28.253H59.5279C60.0223 28.253 60.5167 28.6482 60.5167 29.2409V32.6984Z" fill="url(#paint10_linear)"/>
<path d="M60.5167 25.5858C60.5167 26.0797 60.1212 26.5737 59.5279 26.5737H45.882C45.3875 26.5737 44.8931 26.1785 44.8931 25.5858V22.1282C44.8931 21.6343 45.2887 21.1404 45.882 21.1404H59.5279C60.0223 21.1404 60.5167 21.5355 60.5167 22.1282V25.5858Z" fill="url(#paint11_linear)"/>
<path d="M60.5167 18.5719C60.5167 19.0659 60.1212 19.5598 59.5279 19.5598H45.882C45.3875 19.5598 44.8931 19.1646 44.8931 18.5719V15.1144C44.8931 14.6204 45.2887 14.1265 45.882 14.1265H59.5279C60.0223 14.1265 60.5167 14.5217 60.5167 15.1144V18.5719Z" fill="url(#paint12_linear)"/>
<path d="M60.5167 11.4593C60.5167 11.9532 60.1212 12.4471 59.5279 12.4471H45.882C45.3875 12.4471 44.8931 12.052 44.8931 11.4593V8.00173C44.8931 7.5078 45.2887 7.01386 45.882 7.01386H59.5279C60.0223 7.01386 60.5167 7.40901 60.5167 8.00173V11.4593Z" fill="url(#paint13_linear)"/>
<path d="M60.4178 4.34662C60.4178 4.84055 60.0223 5.33449 59.429 5.33449H45.882C45.3875 5.33449 44.8931 4.93934 44.8931 4.34662V0.987868C44.8931 0.493934 45.2887 0 45.882 0H59.5279C60.0223 0 60.5167 0.395147 60.5167 0.987868V4.34662H60.4178Z" fill="url(#paint14_linear)"/>
<path d="M18.4912 47.9116C18.4912 53.0485 14.3381 57.0988 9.19617 57C4.15311 56.9012 0 52.6534 0 47.6153C0 42.4783 4.15311 38.4281 9.29506 38.5269C14.437 38.5269 18.5901 42.7747 18.4912 47.9116Z" fill="#FFD336"/>
<path d="M18.4912 48.3068C18.1946 52.6534 14.1404 56.1109 9.19617 56.0121C4.25199 55.9133 0.296651 52.4558 0 48.0104C0.296651 52.851 4.25199 56.8024 9.19617 56.9012C14.1404 57 18.1946 53.2461 18.4912 48.3068Z" fill="url(#paint15_linear)"/>
<path d="M9.29506 39.2184C14.2392 39.3172 18.2935 43.2686 18.4912 48.208C18.4912 48.1092 18.4912 48.0104 18.4912 47.9116C18.4912 42.7747 14.3381 38.6256 9.29506 38.5269C4.15311 38.4281 0 42.4783 0 47.6153C0 47.714 0 47.9116 0 48.0104C0.197767 42.9723 4.35088 39.1196 9.29506 39.2184Z" fill="#FFB82B"/>
<path d="M8.40513 53.8388C7.91071 53.8388 7.41629 53.74 7.02076 53.6412C6.62522 53.5425 6.32857 53.4437 6.1308 53.2461L6.72411 51.3691C6.92187 51.4679 7.11964 51.6655 7.41629 51.7643C7.71294 51.8631 8.00959 51.9619 8.40513 51.9619V48.3068C8.10848 48.1092 7.81183 47.9116 7.51517 47.714C7.21852 47.5165 7.02076 47.2201 6.72411 47.0225C6.52634 46.7262 6.32857 46.4298 6.22969 46.0347C6.13081 45.6395 6.03192 45.2444 6.03192 44.7504C6.03192 43.8614 6.22969 43.1698 6.62522 42.6759C7.02076 42.182 7.61406 41.8856 8.30624 41.688V40.1075H9.88838V41.5893C10.2839 41.5893 10.5806 41.688 10.8772 41.7868C11.1739 41.8856 11.4705 41.9844 11.7672 42.0832L11.1739 43.8614C10.9761 43.7626 10.7783 43.6638 10.5806 43.565C10.3828 43.4662 10.0861 43.4662 9.7895 43.3674V46.7262C10.0861 46.9237 10.3828 47.1213 10.6794 47.3189C10.9761 47.5165 11.1739 47.714 11.4705 48.1092C11.6683 48.4055 11.8661 48.7019 12.0638 49.0971C12.1627 49.4922 12.2616 49.8873 12.2616 50.3813C12.2616 51.3691 12.0638 52.0607 11.5694 52.6534C11.1739 53.2461 10.5806 53.5425 9.7895 53.74V55.3206H8.20736L8.40513 53.8388ZM9.1962 43.4662C8.80066 43.4662 8.50401 43.6638 8.40513 43.8614C8.20736 44.0589 8.20736 44.3553 8.20736 44.6516C8.20736 45.0468 8.30624 45.3432 8.50401 45.5407C8.70178 45.7383 8.99843 46.0347 9.29508 46.2322L9.1962 43.4662ZM9.29508 51.9619C9.69061 51.8631 9.88838 51.7643 10.0861 51.4679C10.2839 51.1716 10.3828 50.8752 10.3828 50.4801C10.3828 50.0849 10.2839 49.7886 10.0861 49.4922C9.88838 49.1958 9.59173 48.9983 9.29508 48.8007V51.9619Z" fill="url(#paint16_linear)"/>
<path d="M12.2616 49.0971C12.1627 48.7019 11.9649 48.4055 11.6683 48.1092C11.4705 47.8128 11.1739 47.6153 10.8772 47.3189C10.5806 47.1213 10.2839 46.9237 9.98725 46.7262V43.3674C10.2839 43.3674 10.4817 43.4662 10.7783 43.565C10.9761 43.6638 11.1739 43.7626 11.3716 43.8614L11.9649 42.0832C11.6683 41.9844 11.3716 41.8856 11.075 41.7868C10.7783 41.688 10.3828 41.5893 10.0861 41.5893V40.1075H8.504V41.688C7.81181 41.7868 7.21851 42.182 6.82298 42.6759C6.42744 43.1698 6.22968 43.8614 6.22968 44.7504C6.22968 45.2444 6.32856 45.7383 6.42744 46.0347C6.52633 46.4298 6.72409 46.7262 6.92186 47.0225C7.11963 47.3189 7.41628 47.5165 7.71293 47.714C8.00958 47.9116 8.30623 48.1092 8.60288 48.3068V51.9619C8.20735 51.8631 7.9107 51.8631 7.61405 51.7643C7.31739 51.6655 7.11963 51.5667 6.92186 51.3691L6.32856 53.1473C6.52633 53.2461 6.82298 53.4437 7.21851 53.5425C7.61405 53.6412 8.00958 53.74 8.60288 53.74V55.2218H10.185V53.6412C10.9761 53.4437 11.5694 53.1473 11.9649 52.5546C12.3605 52.0607 12.6571 51.2704 12.6571 50.2825C12.4593 49.8873 12.3605 49.4922 12.2616 49.0971ZM11.5694 51.9619C11.1739 52.4558 10.6794 52.7522 9.98725 52.9497L9.59172 53.0485V54.5303H8.80065V53.0485H8.40511C7.9107 53.0485 7.41628 52.9497 7.11963 52.851C7.02074 52.851 6.92186 52.7522 6.82298 52.7522V52.357C6.92186 52.4558 7.11963 52.4558 7.21851 52.5546C7.51516 52.6534 7.9107 52.7522 8.30623 52.7522L8.70176 52.851V47.8128C8.70176 47.8128 7.9107 47.3189 7.61405 47.1213C7.31739 46.9237 7.11963 46.7262 6.92186 46.4298C6.72409 46.2322 6.62521 45.9359 6.52633 45.6395C6.42744 45.4419 6.42744 45.1456 6.42744 44.7504C6.42744 44.1577 6.52633 43.7626 6.92186 43.3674C7.31739 42.9723 7.81181 42.6759 8.504 42.4783L8.89953 42.3796V40.8977H9.6906V42.3796H10.0861C10.4817 42.3796 10.7783 42.4783 11.075 42.5771C11.1739 42.5771 11.2727 42.6759 11.3716 42.6759L11.2727 42.9723C11.1739 42.9723 11.075 42.8735 10.9761 42.8735C10.7783 42.7747 10.4817 42.7747 10.185 42.6759L9.78948 42.5771V47.3189L10.0861 47.5165C10.3828 47.714 10.6794 47.9116 10.8772 48.1092C11.1739 48.3068 11.3716 48.5043 11.5694 48.8007C11.7672 48.9983 11.866 49.2946 12.0638 49.591C12.1627 49.7886 12.1627 50.0849 12.1627 50.3813C12.0638 51.0728 11.866 51.5667 11.5694 51.9619Z" fill="url(#paint17_linear)"/>
<path d="M62 47.8128C62 52.9497 57.8469 57 52.705 56.9012C47.563 56.8024 43.4099 52.6534 43.4099 47.5165C43.4099 42.3796 47.6619 38.3293 52.705 38.4281C57.8469 38.5269 62 42.6759 62 47.8128Z" fill="#FFD336"/>
<path d="M62 48.3068C61.7034 52.6534 57.6491 56.1109 52.705 56.0121C47.7608 55.9133 43.8054 52.4558 43.5088 48.0104C43.8054 52.9497 47.7608 56.8024 52.705 56.9012C57.6491 57 61.7034 53.2461 62 48.3068Z" fill="url(#paint18_linear)"/>
<path d="M52.705 39.1196C57.748 39.2184 61.7034 43.1698 61.9011 48.208C61.9011 48.1092 61.9011 48.0104 61.9011 47.9116C61.9011 42.7747 57.748 38.6256 52.6061 38.5269C47.4641 38.4281 43.311 42.4783 43.311 47.6153C43.311 47.714 43.311 47.9116 43.311 48.0104C43.6077 42.9723 47.7608 39.0208 52.705 39.1196Z" fill="#FFB82B"/>
<path d="M55.1771 42.9723V40.6014C51.2217 40.6014 48.5519 42.2808 47.9586 45.6395H46.772V46.7262H47.8597C47.8597 46.9237 47.8597 47.0225 47.8597 47.2201C47.8597 47.4177 47.8597 47.714 47.8597 47.9116H46.772V49.591H48.2552C49.1452 52.357 51.7162 53.74 55.1771 53.74V51.3692C53.1005 51.3692 51.815 50.7764 51.2217 49.591H54.6827V47.9116H50.8262C50.8262 47.714 50.8262 47.5165 50.8262 47.2201C50.8262 47.0225 50.8262 46.9237 50.8262 46.7262H54.6827V45.6395H50.9251C51.3206 43.7626 52.5072 42.9723 55.1771 42.9723Z" fill="url(#paint19_linear)"/>
<path d="M55.1771 42.9723V40.6014C51.2217 40.6014 48.5519 42.2808 47.9586 45.6395H46.772V46.7262H47.8597C47.8597 46.9237 47.8597 47.0225 47.8597 47.2201C47.8597 47.4177 47.8597 47.714 47.8597 47.9116H46.772V49.591H48.2552C49.1452 52.357 51.7162 53.74 55.1771 53.74V51.3692C53.1005 51.3692 51.815 50.7764 51.2217 49.591H54.6827V47.9116H50.8262C50.8262 47.714 50.8262 47.5165 50.8262 47.2201C50.8262 47.0225 50.8262 46.9237 50.8262 46.7262H54.6827V45.6395H50.9251C51.3206 43.7626 52.5072 42.9723 55.1771 42.9723ZM50.4307 45.5407L50.3318 46.2322C50.3318 46.2322 50.3318 47.0225 50.3318 47.2201C50.3318 47.4177 50.3318 47.6153 50.3318 47.8128V48.3068L50.8262 48.4055H54.0894V48.8995H50.3318L50.7273 49.6898C51.4195 50.974 52.6061 51.6655 54.5838 51.7643V53.0485C51.5184 52.9497 49.4418 51.5667 48.7496 49.2946L48.6508 48.8995H47.3653V48.4055H48.5519V47.8128C48.5519 47.6153 48.5519 47.4177 48.5519 47.2201V46.331L48.2552 46.2322H48.453L48.5519 45.7383C49.1452 42.182 52.1117 41.2929 54.5838 41.1941V42.4783C52.1117 42.5771 50.8262 43.4662 50.4307 45.5407Z" fill="url(#paint20_linear)"/>
<path d="M40.2456 47.9116C40.2456 53.0485 36.0925 57.0988 30.9506 57C25.8086 56.9012 21.7544 52.7522 21.7544 47.6153C21.7544 42.4783 25.9075 38.4281 31.0495 38.5269C36.0925 38.5269 40.2456 42.7747 40.2456 47.9116Z" fill="#FFD336"/>
<path d="M40.2456 48.3068C39.949 52.6534 35.8947 56.1109 30.9506 56.0121C26.0064 55.9133 22.051 52.4558 21.7544 48.0104C22.051 52.851 26.0064 56.8024 30.9506 56.9012C35.8947 57 39.949 53.2461 40.2456 48.3068Z" fill="url(#paint21_linear)"/>
<path d="M31.0495 39.2184C35.9936 39.3172 40.0479 43.2686 40.2456 48.208C40.2456 48.1092 40.2456 48.0104 40.2456 47.9116C40.2456 42.7747 36.0925 38.6256 31.0495 38.5269C25.9075 38.4281 21.7544 42.4783 21.7544 47.6153C21.7544 47.714 21.7544 47.9116 21.7544 48.0104C21.9522 42.9723 26.0064 39.1196 31.0495 39.2184Z" fill="#FFB82B"/>
<path d="M31.8405 47.3189L35.5981 41.4905H33.8182L30.9506 45.9359L28.1818 41.4905H26.4019L30.1595 47.3189V47.6153H27.5885V48.8995H30.1595V49.6898H27.5885V50.974H30.1595V54.9255H31.8405V50.974H34.4115V49.6898H31.8405V48.8995H34.4115V47.6153H31.8405V47.3189Z" fill="url(#paint22_linear)"/>
<path d="M31.8405 47.3189L35.5981 41.4905H33.8182L31.0494 45.9359L28.1818 41.4905H26.4019L30.1595 47.3189V47.6153H27.6874V48.8995H30.1595V49.591H27.6874V50.8752H30.1595V54.8267H31.9394V50.8752H34.4115V49.591H31.9394V48.8995H34.4115V47.6153H31.9394V47.3189H31.8405ZM34.016 48.0104V48.5043H31.5439V49.9861H34.016V50.4801H31.5439V54.4315H30.555V50.4801H28.0829V49.9861H30.555V48.5043H28.0829V48.0104H30.555V47.2201L27.193 41.8856H28.0829L31.1483 46.6274L34.2137 41.8856H35.1037L31.7416 47.2201V48.0104H34.016Z" fill="url(#paint23_linear)"/>
<defs>
<linearGradient id="paint0_linear" x1="9.27807" y1="40.7553" x2="9.25221" y2="35.3772" gradientUnits="userSpaceOnUse">
<stop stop-color="#5EA814"/>
<stop offset="0.351" stop-color="#62A914"/>
<stop offset="0.6685" stop-color="#6DAD12"/>
<stop offset="0.9721" stop-color="#7FB410"/>
<stop offset="1" stop-color="#81B510"/>
</linearGradient>
<linearGradient id="paint1_linear" x1="9.27431" y1="33.6743" x2="9.24836" y2="28.2941" gradientUnits="userSpaceOnUse">
<stop stop-color="#5EA814"/>
<stop offset="0.351" stop-color="#62A914"/>
<stop offset="0.6685" stop-color="#6DAD12"/>
<stop offset="0.9721" stop-color="#7FB410"/>
<stop offset="1" stop-color="#81B510"/>
</linearGradient>
<linearGradient id="paint2_linear" x1="9.26986" y1="26.5914" x2="9.24401" y2="21.2132" gradientUnits="userSpaceOnUse">
<stop stop-color="#5EA814"/>
<stop offset="0.351" stop-color="#62A914"/>
<stop offset="0.6685" stop-color="#6DAD12"/>
<stop offset="0.9721" stop-color="#7FB410"/>
<stop offset="1" stop-color="#81B510"/>
</linearGradient>
<linearGradient id="paint3_linear" x1="9.26551" y1="19.5094" x2="9.23966" y2="14.1304" gradientUnits="userSpaceOnUse">
<stop stop-color="#5EA814"/>
<stop offset="0.351" stop-color="#62A914"/>
<stop offset="0.6685" stop-color="#6DAD12"/>
<stop offset="0.9721" stop-color="#7FB410"/>
<stop offset="1" stop-color="#81B510"/>
</linearGradient>
<linearGradient id="paint4_linear" x1="9.26116" y1="12.4285" x2="9.2353" y2="7.04933" gradientUnits="userSpaceOnUse">
<stop stop-color="#5EA814"/>
<stop offset="0.351" stop-color="#62A914"/>
<stop offset="0.6685" stop-color="#6DAD12"/>
<stop offset="0.9721" stop-color="#7FB410"/>
<stop offset="1" stop-color="#81B510"/>
</linearGradient>
<linearGradient id="paint5_linear" x1="30.7307" y1="40.7553" x2="30.7048" y2="35.3771" gradientUnits="userSpaceOnUse">
<stop stop-color="#FF7B00"/>
<stop offset="0.4179" stop-color="#FF9E0B"/>
<stop offset="0.7747" stop-color="#FFB511"/>
<stop offset="1" stop-color="#FFBD14"/>
</linearGradient>
<linearGradient id="paint6_linear" x1="30.7269" y1="33.6743" x2="30.7009" y2="28.2941" gradientUnits="userSpaceOnUse">
<stop stop-color="#FF7B00"/>
<stop offset="0.4179" stop-color="#FF9E0B"/>
<stop offset="0.7747" stop-color="#FFB511"/>
<stop offset="1" stop-color="#FFBD14"/>
</linearGradient>
<linearGradient id="paint7_linear" x1="30.7225" y1="26.5913" x2="30.6966" y2="21.2133" gradientUnits="userSpaceOnUse">
<stop stop-color="#FF7B00"/>
<stop offset="0.4179" stop-color="#FF9E0B"/>
<stop offset="0.7747" stop-color="#FFB511"/>
<stop offset="1" stop-color="#FFBD14"/>
</linearGradient>
<linearGradient id="paint8_linear" x1="30.7225" y1="19.0328" x2="30.6967" y2="13.6547" gradientUnits="userSpaceOnUse">
<stop stop-color="#FF7B00"/>
<stop offset="0.4179" stop-color="#FF9E0B"/>
<stop offset="0.7747" stop-color="#FFB511"/>
<stop offset="1" stop-color="#FFBD14"/>
</linearGradient>
<linearGradient id="paint9_linear" x1="52.7342" y1="40.7554" x2="52.7083" y2="35.3772" gradientUnits="userSpaceOnUse">
<stop stop-color="#062A54"/>
<stop offset="0.2719" stop-color="#072C58"/>
<stop offset="0.5179" stop-color="#083263"/>
<stop offset="0.7539" stop-color="#0B3C75"/>
<stop offset="0.9825" stop-color="#104B8F"/>
<stop offset="1" stop-color="#104C91"/>
</linearGradient>
<linearGradient id="paint10_linear" x1="52.7304" y1="33.6744" x2="52.7045" y2="28.2941" gradientUnits="userSpaceOnUse">
<stop stop-color="#062A54"/>
<stop offset="0.2719" stop-color="#072C58"/>
<stop offset="0.5179" stop-color="#083263"/>
<stop offset="0.7539" stop-color="#0B3C75"/>
<stop offset="0.9825" stop-color="#104B8F"/>
<stop offset="1" stop-color="#104C91"/>
</linearGradient>
<linearGradient id="paint11_linear" x1="52.726" y1="26.5913" x2="52.7001" y2="21.2133" gradientUnits="userSpaceOnUse">
<stop stop-color="#062A54"/>
<stop offset="0.2719" stop-color="#072C58"/>
<stop offset="0.5179" stop-color="#083263"/>
<stop offset="0.7539" stop-color="#0B3C75"/>
<stop offset="0.9825" stop-color="#104B8F"/>
<stop offset="1" stop-color="#104C91"/>
</linearGradient>
<linearGradient id="paint12_linear" x1="52.7216" y1="19.5095" x2="52.6958" y2="14.1304" gradientUnits="userSpaceOnUse">
<stop stop-color="#062A54"/>
<stop offset="0.2719" stop-color="#072C58"/>
<stop offset="0.5179" stop-color="#083263"/>
<stop offset="0.7539" stop-color="#0B3C75"/>
<stop offset="0.9825" stop-color="#104B8F"/>
<stop offset="1" stop-color="#104C91"/>
</linearGradient>
<linearGradient id="paint13_linear" x1="52.7173" y1="12.4285" x2="52.6914" y2="7.04933" gradientUnits="userSpaceOnUse">
<stop stop-color="#062A54"/>
<stop offset="0.2719" stop-color="#072C58"/>
<stop offset="0.5179" stop-color="#083263"/>
<stop offset="0.7539" stop-color="#0B3C75"/>
<stop offset="0.9825" stop-color="#104B8F"/>
<stop offset="1" stop-color="#104C91"/>
</linearGradient>
<linearGradient id="paint14_linear" x1="52.7134" y1="5.34634" x2="52.6876" y2="-0.032747" gradientUnits="userSpaceOnUse">
<stop stop-color="#062A54"/>
<stop offset="0.2719" stop-color="#072C58"/>
<stop offset="0.5179" stop-color="#083263"/>
<stop offset="0.7539" stop-color="#0B3C75"/>
<stop offset="0.9825" stop-color="#104B8F"/>
<stop offset="1" stop-color="#104C91"/>
</linearGradient>
<linearGradient id="paint15_linear" x1="9.26601" y1="56.8696" x2="9.26601" y2="47.9856" gradientUnits="userSpaceOnUse">
<stop stop-color="#FF7B00"/>
<stop offset="0.0241918" stop-color="#FF7D01"/>
<stop offset="0.6742" stop-color="#FFAB0F"/>
<stop offset="1" stop-color="#FFBD14"/>
</linearGradient>
<linearGradient id="paint16_linear" x1="9.26522" y1="55.2695" x2="9.26522" y2="40.1572" gradientUnits="userSpaceOnUse">
<stop stop-color="#FF7B00"/>
<stop offset="0.0241918" stop-color="#FF7D01"/>
<stop offset="0.239977" stop-color="#FFAB0F"/>
<stop offset="1" stop-color="#FFBD14"/>
</linearGradient>
<linearGradient id="paint17_linear" x1="9.45048" y1="55.1649" x2="9.45048" y2="40.0653" gradientUnits="userSpaceOnUse">
<stop stop-color="#FF7B00"/>
<stop offset="0.0241918" stop-color="#FF7D01"/>
<stop offset="0.6742" stop-color="#FFAB0F"/>
<stop offset="1" stop-color="#FFBD14"/>
</linearGradient>
<linearGradient id="paint18_linear" x1="52.7748" y1="56.8696" x2="52.7748" y2="47.9856" gradientUnits="userSpaceOnUse">
<stop stop-color="#FF7B00"/>
<stop offset="0.0241918" stop-color="#FF7D01"/>
<stop offset="0.6742" stop-color="#FFAB0F"/>
<stop offset="1" stop-color="#FFBD14"/>
</linearGradient>
<linearGradient id="paint19_linear" x1="49.0092" y1="43.0643" x2="57.3911" y2="51.4543" gradientUnits="userSpaceOnUse">
<stop stop-color="#FFBD14"/>
<stop offset="0.0523943" stop-color="#FFB612"/>
<stop offset="0.570362" stop-color="#FF9C0A"/>
<stop offset="0.681491" stop-color="#FF8A04"/>
<stop offset="0.7377" stop-color="#FF7F01"/>
<stop offset="1" stop-color="#FF7B00"/>
</linearGradient>
<linearGradient id="paint20_linear" x1="50.9838" y1="53.6905" x2="50.9838" y2="40.5647" gradientUnits="userSpaceOnUse">
<stop stop-color="#FF7B00"/>
<stop offset="0.0241918" stop-color="#FF7D01"/>
<stop offset="0.6742" stop-color="#FFAB0F"/>
<stop offset="1" stop-color="#FFBD14"/>
</linearGradient>
<linearGradient id="paint21_linear" x1="31.0204" y1="56.8696" x2="31.0204" y2="47.9856" gradientUnits="userSpaceOnUse">
<stop stop-color="#FF7B00"/>
<stop offset="0.0241918" stop-color="#FF7D01"/>
<stop offset="0.6742" stop-color="#FFAB0F"/>
<stop offset="1" stop-color="#FFBD14"/>
</linearGradient>
<linearGradient id="paint22_linear" x1="30.9862" y1="54.9444" x2="30.9862" y2="41.4693" gradientUnits="userSpaceOnUse">
<stop stop-color="#FF7B00"/>
<stop offset="0.0241918" stop-color="#FF7D01"/>
<stop offset="0.2172" stop-color="#FFAB0F"/>
<stop offset="1" stop-color="#FFBD14"/>
</linearGradient>
<linearGradient id="paint23_linear" x1="31.0101" y1="54.7764" x2="31.0101" y2="41.4532" gradientUnits="userSpaceOnUse">
<stop stop-color="#FF7B00"/>
<stop offset="0.0241918" stop-color="#FF7D01"/>
<stop offset="0.6742" stop-color="#FFAB0F"/>
<stop offset="1" stop-color="#FFBD14"/>
</linearGradient>
</defs>
</svg>
