<svg width="46" height="67" viewBox="0 0 46 67" fill="none" xmlns="http://www.w3.org/2000/svg">
<path d="M40.9111 60.6568C40.9111 64.1257 38.1171 66.9009 34.6247 66.9009H11.3753C7.88286 66.9009 5.08894 64.0266 5.08894 60.6568V6.24408C5.08894 2.87426 7.98264 0 11.3753 0H34.5249C38.0173 0 40.9111 2.87426 40.9111 6.24408V60.6568Z" fill="url(#paint0_linear)"/>
<path d="M34.6247 0H11.3753C7.98264 0 5.08894 2.87426 5.08894 6.24408V7.03698C5.08894 3.56805 7.88286 0.792899 11.3753 0.792899H34.5249C38.0173 0.792899 40.8113 3.66716 40.8113 7.03698V6.24408C40.9111 2.87426 38.0174 0 34.6247 0Z" fill="url(#paint1_linear)"/>
<path d="M34.4252 65.7115H11.2755C7.78308 65.7115 5.08894 62.6391 5.08894 59.6657V60.7559C5.08894 64.2249 7.88286 67 11.3753 67H34.5249C38.0173 67 40.8113 64.1257 40.8113 60.7559V59.6657C40.9111 62.6391 37.9176 65.7115 34.4252 65.7115Z" fill="#ACBEED"/>
<path d="M38.4165 7.63166H7.48373V55.1065H38.4165V7.63166Z" fill="url(#paint2_linear)"/>
<path d="M37.2191 8.92012H8.78091V53.9172H37.2191V8.92012Z" fill="url(#paint3_linear)"/>
<path d="M8.78091 8.92012V53.9172H37.2191V8.92012H8.78091ZM36.1215 52.8269H9.87852V9.91124H36.2213V52.8269H36.1215Z" fill="url(#paint4_linear)"/>
<path opacity="0.6" d="M18.4599 6.24408C17.462 6.24408 16.7636 5.45118 16.7636 4.55917C16.7636 3.56805 17.5618 2.87426 18.4599 2.87426H27.5401C28.538 2.87426 29.2364 3.66716 29.2364 4.55917C29.2364 5.5503 28.4382 6.24408 27.5401 6.24408H18.4599Z" fill="url(#paint5_linear)"/>
<path d="M28.4382 4.55917C28.4382 5.05473 28.039 5.45118 27.5401 5.45118H18.4599C17.961 5.45118 17.5618 5.05473 17.5618 4.55917C17.5618 4.06361 17.961 3.66716 18.4599 3.66716H27.5401C28.039 3.66716 28.4382 4.06361 28.4382 4.55917Z" fill="white"/>
<path d="M27.5401 3.66716H18.4599C17.961 3.66716 17.5618 4.06361 17.5618 4.55917C17.5618 5.05473 17.961 5.45118 18.4599 5.45118H27.5401C28.039 5.45118 28.4382 5.05473 28.4382 4.55917C28.4382 4.06361 28.039 3.66716 27.5401 3.66716ZM27.5401 4.95562H18.4599C18.1605 4.95562 17.961 4.7574 17.961 4.55917C17.961 4.26183 18.1605 4.06361 18.4599 4.06361H27.5401C27.8395 4.06361 28.039 4.26183 28.039 4.55917C28.039 4.7574 27.8395 4.95562 27.5401 4.95562Z" fill="url(#paint6_linear)"/>
<path d="M23.0499 64.8195C20.5553 64.8195 18.4599 62.7382 18.4599 60.2604C18.4599 57.7825 20.5553 55.7012 23.0499 55.7012C25.5445 55.7012 27.6399 57.7825 27.6399 60.2604C27.6399 62.7382 25.5445 64.8195 23.0499 64.8195Z" fill="#C9D8FF"/>
<path d="M23.0499 63.6302C21.154 63.6302 19.5575 62.1435 19.5575 60.1612C19.5575 58.2781 21.0542 56.6923 23.0499 56.6923C24.9458 56.6923 26.4425 58.179 26.4425 60.1612C26.4425 62.1435 24.9458 63.6302 23.0499 63.6302ZM23.0499 57.9808C21.7527 57.9808 20.7549 58.9719 20.7549 60.2604C20.7549 61.5488 21.7527 62.5399 23.0499 62.5399C24.3471 62.5399 25.3449 61.5488 25.3449 60.2604C25.3449 58.9719 24.2473 57.9808 23.0499 57.9808Z" fill="white"/>
<path d="M14.8681 43.1139L24.6469 53.9172H36.7206V35.3831L32.1306 31.8151L14.8681 43.1139Z" fill="url(#paint7_linear)"/>
<path d="M31.9306 31.5178C32.2299 31.716 32.3297 32.1124 32.1302 32.4098L24.5466 47.1775C24.3471 47.574 23.9479 47.7722 23.6486 47.574L14.9675 43.213C14.6681 43.0148 14.5683 42.6183 14.7679 42.321L22.3514 27.5533C22.551 27.1568 22.9501 27.0577 23.2495 27.1568L31.9306 31.5178Z" fill="url(#paint8_linear)"/>
<path d="M17.6616 44.6006L25.9436 28.5444L24.4469 27.7515L16.1649 43.8077L17.6616 44.6006Z" fill="url(#paint9_linear)"/>
<path d="M23.0877 36.5636L19.1755 44.1497L19.8859 44.5112L23.7982 36.9251L23.0877 36.5636Z" fill="#104C91"/>
<path d="M26.585 29.7848L23.3111 36.1366L24.0216 36.4979L27.2955 30.1461L26.585 29.7848Z" fill="#104C91"/>
<path d="M24.8036 36.2164L20.39 44.7727L21.1004 45.1343L25.514 36.5779L24.8036 36.2164Z" fill="#104C91"/>
<path d="M26.9414 39.1494L23.2495 46.2855L22.551 45.8891L26.243 38.753L26.9414 39.1494Z" fill="#104C91"/>
<path d="M29.9142 31.4753L27.8666 35.4448L28.5771 35.8063L30.6246 31.8369L29.9142 31.4753Z" fill="#104C91"/>
<path d="M28.8724 30.969L26.8253 34.9384L27.5357 35.2999L29.5828 31.3304L28.8724 30.969Z" fill="#104C91"/>
<path d="M17.961 47.6731L23.5488 53.9172H36.7202V48.8624L29.3362 42.1228L17.961 47.6731Z" fill="url(#paint10_linear)"/>
<path d="M26.243 40.8343C24.5466 40.8343 23.0499 41.5281 23.0499 42.4201V43.5104V44.105V44.6006C22.4512 44.2041 21.5531 43.9068 20.5553 43.9068C19.4577 43.9068 18.5597 44.3033 18.0607 44.6997L23.5488 47.4749C23.8482 47.6731 24.2473 47.4749 24.4469 47.0784L27.6399 40.8343C27.2408 40.9334 26.8416 40.8343 26.243 40.8343Z" fill="#CBE3EB"/>
<path d="M23.2497 45.9882V45.3935V44.3033V43.7086V42.6183C23.2497 41.7263 24.6466 40.9334 26.4427 41.0325C28.139 41.0325 29.6358 41.8254 29.6358 42.7174V43.8077V44.6006V45.1953V46.0873V47.1775C29.6358 48.0695 28.2388 48.5651 26.4427 48.5651C24.7464 48.5651 23.2497 48.0695 23.2497 47.0784V45.9882Z" fill="url(#paint11_linear)"/>
<path d="M29.5358 42.7174C29.5358 43.6095 28.1388 44.4024 26.3427 44.3033C24.6464 44.3033 23.1497 43.5104 23.1497 42.6183C23.1497 41.7263 24.5466 40.9334 26.3427 41.0325C28.1388 41.0325 29.5358 41.8254 29.5358 42.7174Z" fill="#FFB82B"/>
<path d="M26.3429 44.2041C24.6466 44.2041 23.2497 43.5104 23.2497 42.6183C23.2497 43.5104 24.6466 44.3033 26.3429 44.2041C28.0393 44.3033 29.536 43.6095 29.536 42.6183C29.536 43.5104 28.139 44.2041 26.3429 44.2041Z" fill="#F5D5A4"/>
<path d="M26.4427 41.1325C28.139 41.1325 29.536 41.8263 29.536 42.7183C29.536 41.8263 28.139 41.0334 26.4427 41.1325C24.7464 41.0334 23.2497 41.7272 23.2497 42.6192C23.2497 42.6192 23.2497 42.6192 23.2497 42.7183C23.3495 41.8263 24.7464 41.1325 26.4427 41.1325Z" fill="#FFB82B"/>
<path d="M28.9371 42.7175C28.9371 43.4112 27.8395 44.0059 26.4425 44.0059C25.0456 44.0059 23.9479 43.4112 23.9479 42.7175C23.9479 42.0237 25.0456 41.429 26.4425 41.429C27.8395 41.3299 28.9371 41.9246 28.9371 42.7175Z" fill="url(#paint12_linear)"/>
<path d="M26.4425 41.429C27.8395 41.429 28.9371 42.0237 28.9371 42.7175C28.9371 41.9246 27.8395 41.3299 26.4425 41.429C25.0456 41.3299 23.9479 41.9246 23.9479 42.6183C23.9479 41.9246 25.0456 41.429 26.4425 41.429Z" fill="#F5D5A4"/>
<path d="M26.3427 43.9068C24.9458 43.9068 23.8482 43.3121 23.8482 42.6183C23.8482 43.4112 25.0456 43.9068 26.3427 43.9068C27.7397 44.0059 28.8373 43.4112 28.8373 42.7175C28.8373 43.3121 27.7397 43.9068 26.3427 43.9068Z" fill="#F5D5A4"/>
<path d="M26.3427 43.6095C25.6443 43.6095 25.0456 43.4112 24.7462 43.1139C24.6464 43.0148 24.5466 42.8166 24.5466 42.6183C24.5466 42.1228 25.3449 41.6272 26.3427 41.6272C27.4403 41.6272 28.2386 42.1228 28.1388 42.6183C28.2386 43.213 27.4403 43.6095 26.3427 43.6095Z" fill="#F5D5A4"/>
<path d="M28.139 42.7175C28.139 43.213 27.3408 43.6095 26.343 43.6095C25.3451 43.6095 24.6466 43.213 24.6466 42.7175C24.6466 42.2219 25.4449 41.8254 26.4427 41.8254C27.3408 41.7263 28.139 42.2219 28.139 42.7175Z" fill="#FFD336"/>
<path d="M28.1388 42.7174C28.039 43.1139 27.3406 43.5104 26.4425 43.5104C25.5445 43.5104 24.7462 43.1139 24.7462 42.7174C24.7462 43.213 25.5445 43.6095 26.4425 43.6095C27.3406 43.6095 28.039 43.213 28.1388 42.7174Z" fill="#F5D5A4"/>
<path d="M26.4425 41.8254C27.3406 41.8254 28.1388 42.2219 28.1388 42.7175C28.1388 42.2219 27.3406 41.7263 26.4425 41.8254C25.4447 41.7263 24.7462 42.1228 24.6464 42.6183C24.7462 42.2219 25.4447 41.8254 26.4425 41.8254Z" fill="#FFB82B"/>
<path d="M26.243 43.213C26.1432 43.213 26.0434 43.213 25.9436 43.213C25.8438 43.213 25.8438 43.213 25.744 43.213L25.8438 43.0148H25.9436C26.0434 43.0148 26.0434 43.0148 26.1432 43.0148V42.6183C26.0434 42.6183 26.0434 42.6183 25.9436 42.5192C26.0434 42.6183 25.9436 42.6183 25.9436 42.6183L25.8438 42.5192V42.4201C25.8438 42.321 25.8438 42.2219 25.9436 42.2219C26.0434 42.1228 26.1432 42.1228 26.243 42.1228V41.9246H26.5423V42.0237C26.6421 42.0237 26.6421 42.0237 26.7419 42.0237C26.8417 42.0237 26.8417 42.0237 26.9414 42.0237L26.8417 42.2219H26.7419H26.6421V42.5192C26.7419 42.5192 26.7419 42.5192 26.8417 42.6183C26.9414 42.6183 26.9414 42.6183 26.9414 42.7175L27.0412 42.8166V42.9157C27.0412 43.0148 27.0412 43.1139 26.9414 43.1139C26.8417 43.213 26.7419 43.213 26.6421 43.213V43.4112H26.3427V43.213H26.243ZM26.3427 42.2219C26.243 42.2219 26.243 42.2219 26.1432 42.2219V42.321C26.1432 42.321 26.1432 42.4201 26.243 42.4201C26.243 42.4201 26.3427 42.4201 26.3427 42.5192V42.2219ZM26.4425 43.1139C26.5423 43.1139 26.5423 43.1139 26.6421 43.1139L26.7419 43.0148C26.7419 43.0148 26.7419 42.9157 26.6421 42.9157L26.5423 42.8166L26.4425 43.1139Z" fill="url(#paint13_linear)"/>
<path d="M26.9414 42.8166L26.8417 42.7175L26.7419 42.6183C26.6421 42.6183 26.6421 42.6183 26.5423 42.5192V42.2219C26.6421 42.2219 26.6421 42.2219 26.6421 42.2219H26.7419L26.8417 42.0237C26.7419 42.0237 26.7419 42.0237 26.6421 42.0237C26.5423 42.0237 26.5423 42.0237 26.4425 42.0237V41.9246H26.1432V42.1228C26.0434 42.1228 25.9436 42.1228 25.8438 42.2219C25.744 42.321 25.744 42.321 25.744 42.4201C25.744 42.5192 25.744 42.5192 25.744 42.5192L25.8438 42.6183L25.9436 42.7175C26.0434 42.7175 26.0434 42.7175 26.1432 42.8166V43.213C26.0434 43.213 26.0434 43.213 25.9436 43.213C25.8438 43.213 25.8438 43.213 25.8438 43.213L25.744 43.4112C25.744 43.4112 25.8438 43.4112 25.9436 43.4112C26.0434 43.4112 26.1432 43.4112 26.243 43.4112V43.5104H26.5423V43.3121C26.6421 43.3121 26.8417 43.213 26.8417 43.213C26.9414 43.1139 26.9414 43.1139 26.9414 43.0148C27.0412 42.9157 26.9414 42.8166 26.9414 42.8166ZM26.8417 43.1139C26.7419 43.1139 26.6421 43.213 26.5423 43.213H26.4425V43.3121H26.3427V43.213H26.243C26.1432 43.213 26.0434 43.213 25.9436 43.213C25.9436 43.213 25.9436 43.213 25.8438 43.213H25.9436C26.0434 43.213 26.0434 43.213 26.1432 43.213H26.243V42.7175L26.0434 42.6183C25.9436 42.6183 25.9436 42.6183 25.9436 42.5192C25.9436 42.5192 25.8438 42.5192 25.8438 42.4201C25.8438 42.4201 25.8438 42.4201 25.8438 42.321C25.8438 42.2219 25.8438 42.2219 25.9436 42.2219C26.0434 42.2219 26.1432 42.1228 26.243 42.1228H26.3427V42.0237H26.4425V42.1228H26.5423C26.6421 42.1228 26.6421 42.1228 26.7419 42.1228C26.7419 42.1228 26.7419 42.1228 26.8417 42.1228C26.8417 42.1228 26.8417 42.1228 26.7419 42.1228H26.6421H26.5423V42.6183H26.6421C26.7419 42.6183 26.7419 42.6183 26.8417 42.7175C26.9414 42.7175 26.9414 42.7175 26.9414 42.8166C26.9414 42.8166 27.0412 42.8166 27.0412 42.9157C27.0412 42.9157 27.0412 42.9157 27.0412 43.0148C26.9414 43.0148 26.8417 43.0148 26.8417 43.1139Z" fill="#F5D5A4"/>
<path d="M26.3427 47.6731C24.6464 47.6731 23.1497 46.8802 23.1497 45.9882V47.0784C23.1497 47.9704 24.5466 48.466 26.3427 48.5651C28.039 48.5651 29.5358 48.0695 29.5358 47.1775V46.0873C29.5358 46.9793 28.1388 47.6731 26.3427 47.6731Z" fill="url(#paint14_linear)"/>
<path d="M29.5358 47.0784C29.5358 47.9704 28.1388 48.5651 26.3427 48.466C24.6464 48.466 23.1497 47.8713 23.1497 46.9793V47.0784C23.1497 47.9704 24.5466 48.466 26.3427 48.5651C28.039 48.5651 29.5358 48.0695 29.5358 47.1775V46.0873V47.0784Z" fill="#F5D5A4"/>
<path d="M26.3427 46.7811C24.6464 46.7811 23.1497 45.9882 23.1497 45.0961V45.9882C23.1497 46.8802 24.5466 47.6731 26.3427 47.6731C28.039 47.6731 29.5358 46.9793 29.5358 46.0873V46.2855V45.1953C29.5358 46.0873 28.1388 46.7811 26.3427 46.7811Z" fill="#E66409"/>
<path d="M26.3427 45.9882C24.6464 45.9882 23.1497 45.1953 23.1497 44.3033V45.3935V45.0962C23.1497 45.9882 24.5466 46.7811 26.3427 46.7811C28.039 46.7811 29.5358 46.0873 29.5358 45.1953V45.4926V44.4024C29.5358 45.2944 28.1388 45.9882 26.3427 45.9882Z" fill="url(#paint15_linear)"/>
<path d="M26.3427 45.0962C24.6464 45.0962 23.1497 44.3033 23.1497 43.4112V44.2041C23.1497 45.0961 24.5466 45.889 26.3427 45.889C28.039 45.889 29.5358 45.1953 29.5358 44.3033V44.6006V43.5104C29.5358 44.4024 28.1388 45.1953 26.3427 45.0962Z" fill="#FF700A"/>
<path d="M26.3427 44.3033C24.6464 44.3033 23.1497 43.5104 23.1497 42.6183V43.4112C23.1497 44.3032 24.5466 45.0961 26.3427 45.0961C28.039 45.0961 29.5358 44.4024 29.5358 43.5104V43.8077V42.7175C29.5358 43.6095 28.1388 44.3033 26.3427 44.3033Z" fill="url(#paint16_linear)"/>
<path d="M29.5358 45.9882C29.5358 46.8802 28.1388 47.574 26.3427 47.574C24.6464 47.574 23.1497 46.7811 23.1497 45.889V45.0961V45.9882C23.1497 46.8802 24.5466 47.6731 26.3427 47.6731C28.1388 47.6731 29.5358 46.9793 29.5358 45.9882V46.2855V45.9882Z" fill="#F5D5A4"/>
<path d="M26.3427 46.6819C24.6464 46.6819 23.1497 45.8891 23.1497 44.997V45.0962C23.2495 46.0873 24.6464 46.7811 26.3427 46.6819C28.039 46.7811 29.5358 46.0873 29.5358 45.1953V45.4926V45.1953C29.5358 45.9882 28.1388 46.6819 26.3427 46.6819Z" fill="#F5D5A4"/>
<path d="M26.3427 45.889C24.6464 45.889 23.1497 45.0961 23.1497 44.2041V43.5104V44.3033C23.2495 45.1953 24.6464 45.9882 26.3427 45.889C28.039 45.9882 29.5358 45.2944 29.5358 44.4024V44.6997V44.3033C29.5358 45.1953 28.1388 45.889 26.3427 45.889Z" fill="#F5D5A4"/>
<path d="M26.3427 45.0961C24.6464 45.0961 23.1497 44.3032 23.1497 43.4112V42.7174V43.5104C23.2495 44.4024 24.6464 45.0961 26.3427 45.0961C28.039 45.1953 29.5358 44.5015 29.5358 43.6095V43.9068V43.5104C29.5358 44.3033 28.1388 45.0961 26.3427 45.0961Z" fill="#F5D5A4"/>
<path d="M20.7551 44.105C19.0588 44.105 17.6618 44.7988 17.562 45.7899V46.6819C17.562 47.6731 18.959 48.466 20.6553 48.466C22.3516 48.466 23.8484 47.6731 23.8484 46.7811V47.0784V45.8891C23.8484 44.997 22.4514 44.2041 20.7551 44.105Z" fill="url(#paint17_linear)"/>
<path d="M23.8482 45.8891C23.8482 46.8802 22.4512 47.6731 20.6551 47.574C18.9588 47.574 17.462 46.7811 17.462 45.7899C17.462 44.7988 18.859 44.0059 20.6551 44.105C22.4512 44.2041 23.8482 44.997 23.8482 45.8891Z" fill="#FFB82B"/>
<path d="M20.7553 47.574C19.059 47.574 17.662 46.7811 17.662 45.7899C17.5622 46.8802 18.9592 47.6731 20.7553 47.574C22.4516 47.6731 23.9484 46.8802 23.9484 45.8891C23.8486 46.8802 22.4516 47.574 20.7553 47.574Z" fill="#F5D5A4"/>
<path d="M20.7549 44.3033C22.4512 44.3033 23.8482 45.0962 23.8482 45.9882C23.8482 44.997 22.4512 44.2041 20.6551 44.2041C18.9588 44.2041 17.462 44.997 17.462 45.889C17.462 45.889 17.462 45.8891 17.462 45.9882C17.6616 44.997 19.0586 44.2041 20.7549 44.3033Z" fill="#FFB82B"/>
<path d="M23.2495 45.8891C23.2495 46.682 22.1518 47.2766 20.7549 47.2766C19.3579 47.2766 18.2603 46.682 18.2603 45.8891C18.2603 45.0962 19.3579 44.5015 20.7549 44.5015C22.1518 44.5015 23.2495 45.1953 23.2495 45.8891Z" fill="url(#paint18_linear)"/>
<path d="M20.7549 47.1775C19.3579 47.1775 18.2603 46.5828 18.2603 45.7899C18.2603 46.682 19.3579 47.2766 20.7549 47.1775C22.1518 47.2766 23.2495 46.6819 23.2495 45.8891C23.1497 46.6819 22.0521 47.2766 20.7549 47.1775Z" fill="#F5D5A4"/>
<path d="M20.7549 46.9793C20.0564 46.9793 19.4577 46.7811 19.1584 46.3846C19.0586 46.1864 18.9588 46.0873 18.9588 45.8891C18.9588 45.2944 19.757 44.8979 20.7549 44.8979C21.8525 44.8979 22.551 45.3935 22.551 45.9882C22.551 46.4837 21.7527 46.9793 20.7549 46.9793Z" fill="#F5D5A4"/>
<path d="M22.4512 45.8891C22.4512 46.3846 21.6529 46.8802 20.6551 46.8802C19.6573 46.8802 18.9588 46.4837 18.9588 45.8891C18.9588 45.3935 19.7571 44.8979 20.7549 44.8979C21.6529 44.997 22.4512 45.3935 22.4512 45.8891Z" fill="#FFD336"/>
<path d="M22.4512 45.9882C22.3514 46.4837 21.6529 46.7811 20.7549 46.7811C19.8568 46.7811 19.0586 46.3846 19.0586 45.9882C19.0586 46.4837 19.8568 46.8802 20.7549 46.8802C21.6529 46.8802 22.4512 46.4837 22.4512 45.9882Z" fill="#F5D5A4"/>
<path d="M20.7549 44.997C21.6529 44.997 22.4512 45.3935 22.4512 45.9882C22.4512 45.3935 21.6529 44.997 20.7549 44.997C19.7571 44.8979 19.0586 45.2944 18.9588 45.889C19.0586 45.3935 19.7571 44.997 20.7549 44.997Z" fill="#FFB82B"/>
<path d="M20.5553 46.5828C20.4555 46.5828 20.3557 46.5828 20.256 46.5828C20.1562 46.5828 20.1562 46.5828 20.0564 46.5828L20.1562 46.3846H20.256C20.3557 46.3846 20.3557 46.3846 20.4555 46.3846V45.9882C20.3557 45.9882 20.3557 45.9882 20.256 45.889C20.1562 45.889 20.1562 45.8891 20.1562 45.7899L20.0564 45.6908V45.5917C20.0564 45.4926 20.0564 45.3935 20.1562 45.3935C20.256 45.2944 20.3557 45.2944 20.4555 45.2944V45.0961H20.7549V45.2944C20.8547 45.2944 20.8547 45.2944 20.9544 45.2944C21.0542 45.2944 21.0542 45.2944 21.154 45.2944L21.0542 45.4926H20.9544H20.8547V45.7899C20.9544 45.7899 20.9544 45.7899 21.0542 45.889C21.154 45.889 21.154 45.8891 21.154 45.9882L21.2538 46.0873V46.1864C21.2538 46.2855 21.2538 46.3846 21.154 46.3846C21.0542 46.4837 20.9544 46.4837 20.8547 46.4837V46.6819H20.5553V46.5828ZM20.7549 45.4926C20.6551 45.4926 20.6551 45.4926 20.5553 45.4926V45.5917C20.5553 45.5917 20.5553 45.6908 20.6551 45.6908C20.6551 45.6908 20.7549 45.6908 20.7549 45.7899V45.4926ZM20.7549 46.3846C20.8547 46.3846 20.8547 46.3846 20.9544 46.2855C20.9544 46.2855 20.9544 46.1864 21.0542 46.1864C21.0542 46.1864 21.0542 46.0873 20.9544 46.0873L20.8547 45.9882L20.7549 46.3846Z" fill="url(#paint19_linear)"/>
<path d="M21.2538 46.0873L21.154 45.9882L21.0542 45.889C20.9544 45.889 20.9544 45.8891 20.8547 45.7899V45.4926C20.9544 45.4926 20.9544 45.4926 20.9544 45.4926H21.0542L21.154 45.2944C21.0542 45.2944 21.0542 45.2944 20.9544 45.2944C20.8547 45.2944 20.8547 45.2944 20.7549 45.2944V45.0961H20.4555V45.2944C20.3557 45.2944 20.256 45.2944 20.1562 45.3935C20.0564 45.4926 20.0564 45.4926 20.0564 45.5917C20.0564 45.6908 20.0564 45.6908 20.0564 45.6908L20.1562 45.7899L20.256 45.889C20.3557 45.889 20.3557 45.8891 20.4555 45.9882V46.3846C20.3557 46.3846 20.3557 46.3846 20.256 46.3846C20.1562 46.3846 20.1562 46.3846 20.1562 46.3846L20.0564 46.5828C20.0564 46.5828 20.1562 46.5828 20.256 46.5828C20.3557 46.5828 20.4555 46.5828 20.5553 46.5828V46.7811H20.8547V46.5828C20.9544 46.5828 21.154 46.4837 21.154 46.4837C21.2538 46.3846 21.2538 46.3846 21.2538 46.2855C21.3536 46.0873 21.3536 46.0873 21.2538 46.0873ZM21.154 46.3846C21.0542 46.4837 20.9544 46.4837 20.8547 46.4837H20.7549V46.6819H20.6551V46.4837H20.5553C20.4555 46.4837 20.3557 46.4837 20.256 46.4837C20.256 46.4837 20.256 46.4837 20.1562 46.4837H20.256C20.3557 46.4837 20.3557 46.4837 20.4555 46.4837H20.5553V45.9882L20.3557 45.889C20.256 45.889 20.256 45.8891 20.256 45.7899C20.256 45.7899 20.1562 45.7899 20.1562 45.6908V45.5917C20.1562 45.4926 20.1562 45.4926 20.256 45.4926C20.3557 45.4926 20.4555 45.3935 20.5553 45.3935H20.6551V45.1953H20.7549V45.3935H20.8547C20.9544 45.3935 20.9544 45.3935 21.0542 45.3935C21.0542 45.3935 21.0542 45.3935 21.154 45.3935C21.154 45.3935 21.154 45.3935 21.0542 45.3935H20.9544H20.8547V45.889H20.9544C21.0542 45.889 21.0542 45.8891 21.154 45.9882C21.2538 45.9882 21.2538 45.9882 21.2538 46.0873L21.3536 46.1864C21.3536 46.1864 21.3536 46.1864 21.3536 46.2855C21.2538 46.2855 21.2538 46.2855 21.154 46.3846Z" fill="#F5D5A4"/>
<path d="M20.7551 47.6731C19.0588 47.6731 17.562 46.8802 17.562 45.889V46.7811C17.562 47.7722 18.959 48.5651 20.6553 48.5651C22.3516 48.5651 23.8484 47.7722 23.8484 46.8802V47.1775V45.9882C23.8484 46.8802 22.4514 47.6731 20.7551 47.6731Z" fill="url(#paint20_linear)"/>
<path d="M20.7551 48.466C19.0588 48.466 17.562 47.6731 17.562 46.6819V45.889V46.7811C17.562 47.7722 18.959 48.5651 20.6553 48.5651C22.3516 48.5651 23.8484 47.7722 23.8484 46.8802V47.1775V46.7811C23.8484 47.6731 22.4514 48.466 20.7551 48.466Z" fill="#F5D5A4"/>
<path opacity="0.7" d="M11.3753 0C7.98265 0 5.08894 2.87426 5.08894 6.24408V7.03698V55.1065L34.6247 0H11.3753Z" fill="url(#paint21_linear)"/>
<path d="M9.18004 20.4172H0L8.78091 8.92012H14.4685L9.18004 20.4172Z" fill="url(#paint22_linear)"/>
<path d="M18.3601 20.4172H9.18005L14.4686 8.92012H20.1562L18.3601 20.4172Z" fill="url(#paint23_linear)"/>
<path d="M27.6399 20.4172H18.3601L20.1562 8.92012H25.8438L27.6399 20.4172Z" fill="url(#paint24_linear)"/>
<path d="M36.82 20.4172H27.6399L25.8438 8.92012H31.5315L36.82 20.4172Z" fill="url(#paint25_linear)"/>
<path d="M46 20.4172H36.82L31.5315 8.92012H37.2191L46 20.4172Z" fill="url(#paint26_linear)"/>
<path d="M4.59002 24.9763C7.0846 24.9763 9.18004 22.895 9.18004 20.4172H0C0 22.895 2.09544 24.9763 4.59002 24.9763Z" fill="url(#paint27_linear)"/>
<path d="M13.7701 24.9763C16.2646 24.9763 18.3601 22.895 18.3601 20.4172H9.18005C9.18005 22.895 11.2755 24.9763 13.7701 24.9763Z" fill="url(#paint28_linear)"/>
<path d="M23.0499 24.9763C25.5445 24.9763 27.6399 22.895 27.6399 20.4172H18.4599C18.3601 22.895 20.4555 24.9763 23.0499 24.9763Z" fill="url(#paint29_linear)"/>
<path d="M32.2299 24.9763C34.7245 24.9763 36.82 22.895 36.82 20.4172H27.6399C27.6399 22.895 29.6356 24.9763 32.2299 24.9763Z" fill="url(#paint30_linear)"/>
<path d="M41.41 24.9763C43.9046 24.9763 46 22.895 46 20.4172H36.82C36.82 22.895 38.8156 24.9763 41.41 24.9763Z" fill="url(#paint31_linear)"/>
<defs>
<linearGradient id="paint0_linear" x1="23.0022" y1="66.9648" x2="23.0022" y2="0" gradientUnits="userSpaceOnUse">
<stop stop-color="#062A54"/>
<stop offset="0.2719" stop-color="#072C58"/>
<stop offset="0.5179" stop-color="#083263"/>
<stop offset="0.7539" stop-color="#0B3C75"/>
<stop offset="0.9825" stop-color="#104B8F"/>
<stop offset="1" stop-color="#104C91"/>
</linearGradient>
<linearGradient id="paint1_linear" x1="23.0022" y1="7.06374" x2="23.0022" y2="0" gradientUnits="userSpaceOnUse">
<stop stop-color="#062A54"/>
<stop offset="0.2719" stop-color="#072C58"/>
<stop offset="0.5179" stop-color="#083263"/>
<stop offset="0.7539" stop-color="#0B3C75"/>
<stop offset="0.9825" stop-color="#104B8F"/>
<stop offset="1" stop-color="#104C91"/>
</linearGradient>
<linearGradient id="paint2_linear" x1="23.0018" y1="55.141" x2="23.0018" y2="7.64058" gradientUnits="userSpaceOnUse">
<stop stop-color="#B0CCD6"/>
<stop offset="0.0437067" stop-color="#B4D0D9"/>
<stop offset="0.2378" stop-color="#C1DBE3"/>
<stop offset="0.4888" stop-color="#C9E1E9"/>
<stop offset="1" stop-color="#CBE3EB"/>
</linearGradient>
<linearGradient id="paint3_linear" x1="23.0028" y1="53.8846" x2="23.0028" y2="8.89495" gradientUnits="userSpaceOnUse">
<stop offset="0.4182" stop-color="#FAFAFA"/>
<stop offset="0.6494" stop-color="#E7F5FA"/>
<stop offset="1" stop-color="#CDEFFA"/>
</linearGradient>
<linearGradient id="paint4_linear" x1="23.0028" y1="53.8846" x2="23.0028" y2="8.89495" gradientUnits="userSpaceOnUse">
<stop stop-color="#B0CCD6"/>
<stop offset="0.0437067" stop-color="#B4D0D9"/>
<stop offset="0.2378" stop-color="#C1DBE3"/>
<stop offset="0.4888" stop-color="#C9E1E9"/>
<stop offset="1" stop-color="#CBE3EB"/>
</linearGradient>
<linearGradient id="paint5_linear" x1="23.003" y1="6.24587" x2="23.003" y2="2.82827" gradientUnits="userSpaceOnUse">
<stop stop-color="#B0CCD6"/>
<stop offset="0.0437067" stop-color="#B4D0D9"/>
<stop offset="0.2378" stop-color="#C1DBE3"/>
<stop offset="0.4888" stop-color="#C9E1E9"/>
<stop offset="1" stop-color="#CBE3EB"/>
</linearGradient>
<linearGradient id="paint6_linear" x1="23.0028" y1="5.40767" x2="23.0028" y2="3.66548" gradientUnits="userSpaceOnUse">
<stop stop-color="#B0CCD6"/>
<stop offset="0.0437067" stop-color="#B4D0D9"/>
<stop offset="0.2378" stop-color="#C1DBE3"/>
<stop offset="0.4888" stop-color="#C9E1E9"/>
<stop offset="1" stop-color="#CBE3EB"/>
</linearGradient>
<linearGradient id="paint7_linear" x1="23.665" y1="37.648" x2="39.2775" y2="53.3661" gradientUnits="userSpaceOnUse">
<stop stop-color="#CCE3EB"/>
<stop offset="0.0276976" stop-color="#D1E6ED"/>
<stop offset="0.1703" stop-color="#E3F0F5"/>
<stop offset="0.339" stop-color="#F0F7FB"/>
<stop offset="0.5569" stop-color="#F8FCFE"/>
<stop offset="1" stop-color="#FAFDFF"/>
</linearGradient>
<linearGradient id="paint8_linear" x1="23.4298" y1="47.5049" x2="23.4297" y2="25.5232" gradientUnits="userSpaceOnUse">
<stop stop-color="#062A54"/>
<stop offset="0.2719" stop-color="#072C58"/>
<stop offset="0.5179" stop-color="#083263"/>
<stop offset="0.7539" stop-color="#0B3C75"/>
<stop offset="0.9825" stop-color="#104B8F"/>
<stop offset="1" stop-color="#104C91"/>
</linearGradient>
<linearGradient id="paint9_linear" x1="16.1865" y1="36.1586" x2="25.9743" y2="36.1586" gradientUnits="userSpaceOnUse">
<stop stop-color="#FF7B00"/>
<stop offset="0.0241918" stop-color="#FF7D01"/>
<stop offset="0.6742" stop-color="#FFAB0F"/>
<stop offset="1" stop-color="#FFBD14"/>
</linearGradient>
<linearGradient id="paint10_linear" x1="23.9611" y1="44.9922" x2="34.989" y2="56.4774" gradientUnits="userSpaceOnUse">
<stop stop-color="#CCE3EB"/>
<stop offset="0.0276976" stop-color="#D1E6ED"/>
<stop offset="0.1703" stop-color="#E3F0F5"/>
<stop offset="0.339" stop-color="#F0F7FB"/>
<stop offset="0.5569" stop-color="#F8FCFE"/>
<stop offset="1" stop-color="#FAFDFF"/>
</linearGradient>
<linearGradient id="paint11_linear" x1="26.3799" y1="48.5452" x2="26.3799" y2="41.0162" gradientUnits="userSpaceOnUse">
<stop stop-color="#FF7B00"/>
<stop offset="1" stop-color="#FFBD14"/>
</linearGradient>
<linearGradient id="paint12_linear" x1="26.3986" y1="43.9687" x2="26.3986" y2="41.3581" gradientUnits="userSpaceOnUse">
<stop stop-color="#FF7B00"/>
<stop offset="0.0241918" stop-color="#FF7D01"/>
<stop offset="0.6742" stop-color="#FFAB0F"/>
<stop offset="1" stop-color="#FFBD14"/>
</linearGradient>
<linearGradient id="paint13_linear" x1="26.4001" y1="43.4043" x2="26.4001" y2="41.9205" gradientUnits="userSpaceOnUse">
<stop stop-color="#FF7B00"/>
<stop offset="0.0241918" stop-color="#FF7D01"/>
<stop offset="0.6742" stop-color="#FFAB0F"/>
<stop offset="1" stop-color="#FFBD14"/>
</linearGradient>
<linearGradient id="paint14_linear" x1="26.366" y1="48.5452" x2="26.366" y2="46.0011" gradientUnits="userSpaceOnUse">
<stop stop-color="#FF7B00"/>
<stop offset="1" stop-color="#FFBD14"/>
</linearGradient>
<linearGradient id="paint15_linear" x1="26.38" y1="46.8115" x2="26.38" y2="44.3035" gradientUnits="userSpaceOnUse">
<stop stop-color="#FF7B00"/>
<stop offset="1" stop-color="#FFBD14"/>
</linearGradient>
<linearGradient id="paint16_linear" x1="26.396" y1="45.1448" x2="26.396" y2="42.6368" gradientUnits="userSpaceOnUse">
<stop stop-color="#FF7B00"/>
<stop offset="1" stop-color="#FFBD14"/>
</linearGradient>
<linearGradient id="paint17_linear" x1="17.5606" y1="46.35" x2="23.8843" y2="46.35" gradientUnits="userSpaceOnUse">
<stop stop-color="#DD3F18"/>
<stop offset="0.4157" stop-color="#E74A1B"/>
<stop offset="1" stop-color="#FD6120"/>
</linearGradient>
<linearGradient id="paint18_linear" x1="20.7247" y1="47.2955" x2="20.7247" y2="44.5201" gradientUnits="userSpaceOnUse">
<stop stop-color="#FF7B00"/>
<stop offset="0.0241918" stop-color="#FF7D01"/>
<stop offset="0.6742" stop-color="#FFAB0F"/>
<stop offset="1" stop-color="#FFBD14"/>
</linearGradient>
<linearGradient id="paint19_linear" x1="20.7259" y1="46.6951" x2="20.7259" y2="45.1175" gradientUnits="userSpaceOnUse">
<stop stop-color="#FF7B00"/>
<stop offset="0.0241918" stop-color="#FF7D01"/>
<stop offset="0.6742" stop-color="#FFAB0F"/>
<stop offset="1" stop-color="#FFBD14"/>
</linearGradient>
<linearGradient id="paint20_linear" x1="20.7225" y1="48.5461" x2="20.7225" y2="45.8802" gradientUnits="userSpaceOnUse">
<stop stop-color="#FF7B00"/>
<stop offset="1" stop-color="#FFBD14"/>
</linearGradient>
<linearGradient id="paint21_linear" x1="19.9223" y1="0.0135838" x2="18.3932" y2="59.658" gradientUnits="userSpaceOnUse">
<stop stop-color="#306173"/>
<stop offset="0.1717" stop-color="#2E5D6E"/>
<stop offset="0.363" stop-color="#285261"/>
<stop offset="0.5639" stop-color="#1F3F4B"/>
<stop offset="0.7712" stop-color="#12252C"/>
<stop offset="0.9816" stop-color="#020304"/>
<stop offset="1"/>
</linearGradient>
<linearGradient id="paint22_linear" x1="7.22938" y1="20.4207" x2="7.22938" y2="8.89495" gradientUnits="userSpaceOnUse">
<stop stop-color="#5EA814"/>
<stop offset="0.351" stop-color="#62A914"/>
<stop offset="0.6685" stop-color="#6DAD12"/>
<stop offset="0.9721" stop-color="#7FB410"/>
<stop offset="1" stop-color="#81B510"/>
</linearGradient>
<linearGradient id="paint23_linear" x1="14.6764" y1="20.4207" x2="14.6764" y2="8.89495" gradientUnits="userSpaceOnUse">
<stop stop-color="#FF7B00"/>
<stop offset="0.0241918" stop-color="#FF7D01"/>
<stop offset="0.6742" stop-color="#FFAB0F"/>
<stop offset="1" stop-color="#FFBD14"/>
</linearGradient>
<linearGradient id="paint24_linear" x1="23.0002" y1="20.4207" x2="23.0002" y2="8.89495" gradientUnits="userSpaceOnUse">
<stop stop-color="#5EA814"/>
<stop offset="0.351" stop-color="#62A914"/>
<stop offset="0.6685" stop-color="#6DAD12"/>
<stop offset="0.9721" stop-color="#7FB410"/>
<stop offset="1" stop-color="#81B510"/>
</linearGradient>
<linearGradient id="paint25_linear" x1="31.3243" y1="20.4207" x2="31.3243" y2="8.89495" gradientUnits="userSpaceOnUse">
<stop stop-color="#FF7B00"/>
<stop offset="0.0241918" stop-color="#FF7D01"/>
<stop offset="0.6742" stop-color="#FFAB0F"/>
<stop offset="1" stop-color="#FFBD14"/>
</linearGradient>
<linearGradient id="paint26_linear" x1="38.7712" y1="20.4207" x2="38.7712" y2="8.89495" gradientUnits="userSpaceOnUse">
<stop stop-color="#5EA814"/>
<stop offset="0.351" stop-color="#62A914"/>
<stop offset="0.6685" stop-color="#6DAD12"/>
<stop offset="0.9721" stop-color="#7FB410"/>
<stop offset="1" stop-color="#81B510"/>
</linearGradient>
<linearGradient id="paint27_linear" x1="4.6001" y1="24.9891" x2="4.6001" y2="20.4207" gradientUnits="userSpaceOnUse">
<stop stop-color="#69AC13"/>
<stop offset="1" stop-color="#569912"/>
</linearGradient>
<linearGradient id="paint28_linear" x1="13.8005" y1="24.9891" x2="13.8005" y2="20.4207" gradientUnits="userSpaceOnUse">
<stop stop-color="#FF9207"/>
<stop offset="1" stop-color="#FF6F00"/>
</linearGradient>
<linearGradient id="paint29_linear" x1="23.0012" y1="24.9891" x2="23.0012" y2="20.4207" gradientUnits="userSpaceOnUse">
<stop stop-color="#69AC13"/>
<stop offset="1" stop-color="#569912"/>
</linearGradient>
<linearGradient id="paint30_linear" x1="32.2015" y1="24.9891" x2="32.2015" y2="20.4207" gradientUnits="userSpaceOnUse">
<stop stop-color="#FF9207"/>
<stop offset="1" stop-color="#FF6F00"/>
</linearGradient>
<linearGradient id="paint31_linear" x1="41.4019" y1="24.9891" x2="41.4019" y2="20.4207" gradientUnits="userSpaceOnUse">
<stop stop-color="#69AC13"/>
<stop offset="1" stop-color="#569912"/>
</linearGradient>
</defs>
</svg>
