<svg width="39" height="38" viewBox="0 0 39 38" fill="none" xmlns="http://www.w3.org/2000/svg">
<g clip-path="url(#clip0)">
<path d="M31 20.4893C30.9317 18.4536 30.6585 16.35 29.7023 14.3821C28.7461 12.4821 27.5166 10.7857 25.9457 9.29286C24.648 8.00357 23.0088 6.91786 21.3695 6.10357L21.7793 4L14.9492 6.10357L20.2084 10.9214L20.6865 9.02143C21.9842 9.56429 23.2137 10.2429 24.3065 11.125C25.7408 12.2786 27.0385 13.7036 28.1314 15.2643C29.1559 16.7571 29.7706 18.6571 30.1121 20.5571C30.4536 22.4571 30.5219 24.4929 30.3853 26.4607C30.7951 24.5607 31 22.525 31 20.4893Z" fill="url(#paint0_linear)"/>
<path d="M21.3695 5.76429L21.7793 4L21.3695 5.76429Z" fill="#9FCBD6"/>
<path d="M30.8634 23.475C30.7268 24.3571 30.5902 25.3071 30.3853 26.1893C30.5902 24.2214 30.4536 22.1857 30.1121 20.2857C29.7706 18.3857 29.1559 16.4857 28.1314 14.9928C27.1068 13.4321 25.8091 12.0071 24.3748 10.8536C23.282 9.97142 22.0525 9.29285 20.7548 8.74999L20.345 10.7178L15.2224 6.03571L14.9492 6.10356L20.2084 10.9214L20.6865 9.02142C21.9842 9.56428 23.2137 10.2428 24.3065 11.125C25.7408 12.2786 27.0385 13.7036 28.1314 15.2643C29.1559 16.7571 29.7706 18.6571 30.1121 20.5571C30.4536 22.4571 30.5219 24.4928 30.3853 26.4607C30.5902 25.5107 30.7268 24.4928 30.8634 23.475Z" fill="#9FCBD6"/>
<path d="M21.3695 6.51066C23.0771 7.32494 24.648 8.41066 25.9457 9.69994C27.5166 11.1928 28.7461 12.8892 29.7023 14.7892C30.3853 16.2142 30.7268 17.7071 30.9317 19.1999C30.7951 17.5714 30.4536 15.8749 29.7023 14.3142C28.7461 12.4142 27.5166 10.7178 25.9457 9.22494C24.648 7.93566 23.1454 6.9178 21.4378 6.10352L21.3695 6.51066Z" fill="#284080"/>
<path d="M30.3853 26.0536C30.4536 24.8321 30.3853 23.5428 30.2487 22.3214C30.3853 23.6786 30.3853 25.1036 30.2487 26.4607C30.3853 26.325 30.3853 26.1893 30.3853 26.0536Z" fill="#284080"/>
<path d="M21.711 4.475L21.7793 4L14.9492 6.10357L15.2907 6.44286L21.711 4.475Z" fill="#284080"/>
<path d="M17.1436 36.2357L12.0893 31.1465L11.5429 33.1143C10.2452 32.5715 9.01577 31.8929 7.78635 31.0786C6.28372 30.0607 4.9177 28.7715 3.68827 27.3465C2.52715 25.9215 1.63924 24.225 1.02453 22.4607C0.409815 20.6286 0.0683084 18.7286 0.0683084 16.7607C-0.204897 18.6607 -0.136595 20.6965 0.13661 22.6643C0.478116 24.6322 1.09283 26.6 2.18565 28.3643C3.41507 30.1286 4.78109 31.6215 6.35202 32.9786C7.71805 34.1322 9.22067 35.15 10.7916 35.8965L10.1769 38L17.1436 36.2357Z" fill="url(#paint1_linear)"/>
<path d="M10.3135 37.7285L10.1769 38L17.1436 36.2357L16.9387 36.0321L10.3135 37.7285Z" fill="#9FCBD6"/>
<path d="M10.8599 35.625C9.28899 34.8107 7.78636 33.8607 6.42034 32.7071C4.84941 31.35 3.48339 29.8571 2.39057 28.0928C1.29775 26.3286 0.683037 24.3607 0.34153 22.3928C0.0683255 20.6286 2.4259e-05 18.7964 0.204928 17.0321C0.204928 16.9643 0.204928 16.8964 0.204928 16.8286C-0.068277 18.7286 2.4259e-05 20.7643 0.273229 22.7321C0.614735 24.7 1.22945 26.6678 2.32227 28.4321C3.41509 30.1286 4.78111 31.6214 6.35204 32.9786C7.64976 34.1321 9.15239 35.0821 10.7916 35.8964L10.8599 35.625Z" fill="#9FCBD6"/>
<path d="M0.204904 17.2357C0.204904 19.2036 0.54641 21.1036 1.16112 22.9357C1.77583 24.7678 2.66375 26.3964 3.82487 27.8214C4.98599 29.2464 6.35201 30.5357 7.85464 31.5536C9.01576 32.3678 10.3135 33.0464 11.6112 33.5893L12.1576 31.6214L16.8704 36.3714L17.2119 36.3036L12.1576 31.2143L11.6112 33.1821C10.3135 32.6393 9.08406 31.9607 7.85464 31.1464C6.35201 30.1286 4.98599 28.8393 3.75657 27.4143C2.59545 25.9893 1.70753 24.2928 1.09282 22.5286C0.478109 20.6964 0.136602 18.7964 0.136602 16.8286C0 17.8464 0 18.9321 0 20.0178C0 19.0678 0.0683012 18.1857 0.204904 17.2357Z" fill="#284080"/>
</g>
<defs>
<linearGradient id="paint0_linear" x1="22.9597" y1="26.4863" x2="22.9597" y2="4" gradientUnits="userSpaceOnUse">
<stop stop-color="#062A54"/>
<stop offset="0.2719" stop-color="#072C58"/>
<stop offset="0.5179" stop-color="#083263"/>
<stop offset="0.7539" stop-color="#0B3C75"/>
<stop offset="0.9825" stop-color="#104B8F"/>
<stop offset="1" stop-color="#104C91"/>
</linearGradient>
<linearGradient id="paint1_linear" x1="7.90934" y1="37.8842" x2="9.22133" y2="17.3896" gradientUnits="userSpaceOnUse">
<stop stop-color="#062A54"/>
<stop offset="0.2719" stop-color="#072C58"/>
<stop offset="0.5179" stop-color="#083263"/>
<stop offset="0.7539" stop-color="#0B3C75"/>
<stop offset="0.9825" stop-color="#104B8F"/>
<stop offset="1" stop-color="#104C91"/>
</linearGradient>
<clipPath id="clip0">
<rect width="39" height="38" fill="white"/>
</clipPath>
</defs>
</svg>
