<svg width="47" height="51" viewBox="0 0 47 51" fill="none" xmlns="http://www.w3.org/2000/svg">
<path d="M40.5056 36.4672C40.2565 35.5338 39.9985 34.5185 39.7405 33.3887C38.1658 26.593 36.7335 26.4702 35.9773 26.0936C35.2211 25.717 27.0808 21.8688 27.0808 21.8688L23.5222 23.6373V36.4672H40.5056Z" fill="url(#paint0_linear)"/>
<path d="M23.5044 36.4672V23.6373L19.9458 21.8688C19.9458 21.8688 11.8056 25.7088 11.0494 26.0936C10.2932 26.4784 8.86082 26.593 7.28615 33.3887C7.01926 34.5185 6.77016 35.5338 6.52106 36.4672H23.5044Z" fill="url(#paint1_linear)"/>
<path d="M20.2038 17.8979L23.4688 17.4885L26.7427 17.8979C26.7427 17.8979 26.5025 20.6162 27.0808 21.8688C27.0808 21.8688 25.3015 23.7602 23.4688 23.6373C21.6273 23.7602 19.8569 21.8688 19.8569 21.8688C20.4618 20.6162 20.2038 17.8979 20.2038 17.8979Z" fill="#F4C297"/>
<path d="M16.4407 11.2496H16.583C16.5207 10.8075 16.4584 10.3736 16.4051 9.95601C16.1026 7.82725 15.4176 1.6375 23.5044 1.6375C31.5913 1.6375 30.8974 7.86819 30.6216 9.99694C30.5682 10.4145 30.506 10.8157 30.4526 11.2906H30.586C31.8137 10.4718 31.9205 12.6333 31.4045 13.3866C31.0853 13.7963 30.8446 14.2532 30.6928 14.7375C30.506 15.237 30.1857 15.3025 29.9277 15.2451C29.9277 15.5481 29.8654 15.8019 29.8476 16.0148C29.732 17.161 26.725 19.4617 26.0488 20.1822C25.3727 20.9027 24.3496 20.5916 24.0115 20.5834H23.5044H22.9884C22.6504 20.5834 21.5917 20.8618 20.9512 20.1822C20.3106 19.5026 17.268 17.161 17.1524 16.0148C17.1524 15.8019 17.1079 15.5481 17.0723 15.2451C16.8143 15.3025 16.494 15.2451 16.3072 14.7375C16.1623 14.2487 15.9276 13.7862 15.6133 13.3702C15.124 12.5924 15.2129 10.4063 16.4407 11.2496Z" fill="url(#paint2_linear)"/>
<path d="M16.7164 10.5373C16.7164 10.914 17.4548 13.8942 17.6061 14.844C17.8476 16.0642 18.5818 17.1552 19.6611 17.8979C20.3714 18.3602 21.1629 18.7064 22.0009 18.9213C23.0138 19.1097 24.0573 19.1097 25.0702 18.9213C25.9082 18.7064 26.6997 18.3602 27.4099 17.8979C28.4907 17.1577 29.2228 16.065 29.4561 14.844C29.5807 13.8942 30.3458 10.914 30.3458 10.5373C30.3458 10.2917 30.4792 10.3818 30.5593 10.6683C30.6394 10.9549 30.5059 11.0531 30.4881 11.2496C30.4881 11.2496 30.0611 15.2452 29.9899 15.2206C29.9899 15.5235 29.9276 15.7773 29.9099 15.9902C29.8894 16.1005 29.8535 16.2078 29.8031 16.3095C29.6519 16.5306 29.4205 16.8908 29.1181 17.3166C28.1484 18.4137 26.5826 19.6664 26.1111 20.1577C25.4705 20.8372 24.4118 20.567 24.0738 20.5588H23.5667H23.0507C22.7126 20.5588 21.6539 20.8372 21.0134 20.1577C20.5419 19.6664 18.9761 18.4137 18.0064 17.3166C17.7039 16.8908 17.4726 16.4978 17.3125 16.3095C17.2646 16.2076 17.2317 16.1002 17.2146 15.9902C17.2146 15.7773 17.1701 15.5235 17.1345 15.2206C17.0634 15.2206 16.6452 11.2496 16.6452 11.2496C16.6452 11.0531 16.5919 10.8648 16.5652 10.6683C16.5385 10.4718 16.7164 10.2917 16.7164 10.5373Z" fill="#582D11"/>
<path d="M21.3515 16.9072C21.9715 16.4298 22.7118 16.1033 23.5045 15.9575C24.2941 16.1042 25.0313 16.4308 25.6485 16.9072C26.5382 17.6605 25.6485 19.0196 25.6485 19.0196L25.4439 18.7822C26.4225 16.9645 23.5045 16.8581 23.5045 16.8581C23.5045 16.8581 20.5775 16.9645 21.5561 18.7822L21.3515 19.0196C21.3515 19.0196 20.4619 17.6605 21.3515 16.9072Z" fill="#582D11"/>
<path d="M22.8372 18.9213C23.0208 18.7728 23.2604 18.6963 23.5045 18.7085C23.6227 18.7024 23.741 18.7181 23.8525 18.7546C23.964 18.7912 24.0665 18.8479 24.1539 18.9213C24.4386 19.1751 25.0436 18.9868 25.0436 18.9868L23.8336 19.9038L23.5045 19.6009L23.1664 19.9038L21.9565 18.9868C21.9565 18.9868 22.5614 19.1751 22.8372 18.9213Z" fill="#582D11"/>
<path d="M17.7395 0C17.7395 0 17.4103 0.818751 24.3051 0.818751H24.7677C31.36 1.08075 30.9952 6.86113 30.9952 6.86113C30.9739 8.32801 30.78 9.78845 30.4169 11.2169L30.2479 10.5373C30.1848 10.0079 30.0595 9.48629 29.8743 8.9817L29.8209 8.8507C29.7279 8.60285 29.621 8.35962 29.5006 8.12201C27.7213 4.84701 23.4688 5.90319 23.4688 5.90319C23.4688 5.90319 19.2163 4.83882 17.4281 8.1302C17.3079 8.35951 17.201 8.59455 17.1078 8.83432L17.0545 8.98989C16.8741 9.49292 16.7489 10.0113 16.6808 10.5373L16.5474 11.2496C16.3516 10.3408 16.1559 9.43201 16.0403 8.51501C15.615 5.58274 16.2098 2.60184 17.7395 0V0Z" fill="#582D11"/>
<path d="M23.5045 23.6373L26.0488 26.3065L28.4687 22.5238L27.0808 21.8688C26.0058 22.64 24.7966 23.238 23.5045 23.6373Z" fill="url(#paint3_linear)"/>
<path d="M23.5044 23.6373L20.9511 26.3065L18.5313 22.5238L19.9103 21.8688C20.9913 22.6407 22.2065 23.2387 23.5044 23.6373Z" fill="url(#paint4_linear)"/>
<path d="M23.9404 26.3065L24.7589 24.9555L23.4956 23.6373L22.2412 24.9555L23.0596 26.3065L21.9565 32.922L23.4956 35.1817L25.0436 32.922L23.9404 26.3065Z" fill="url(#paint5_linear)"/>
<path d="M34.625 37.9082C34.5253 37.9179 34.4269 37.9371 34.3315 37.9655H34.2247C32.1073 38.6041 23.549 42.616 23.549 42.616V34.887L30.4793 23.4245H30.7373C32.7568 24.407 35.488 25.7333 36.1552 26.0854C36.9195 26.6083 37.5534 27.2755 38.0146 28.0422C38.6107 28.861 39.3669 29.9417 40.4878 31.4155C42.4208 34.0493 44.1882 36.783 45.7812 39.603C45.7812 39.603 48.6281 43.3529 45.7812 45.0968C44.2389 45.9904 42.634 46.7891 40.9771 47.4876C38.1036 48.7239 35.1499 49.8538 34.7496 49.9438L34.5005 48.5519L34.0379 45.9565L33.5397 43.1482L34.0379 43.0581C34.4026 42.9844 34.9275 42.8862 35.4435 42.747C36.609 42.4686 37.8456 42.0592 37.7121 41.6499C37.463 40.9376 35.5859 37.9082 34.625 37.9082Z" fill="url(#paint6_linear)"/>
<path d="M12.384 37.9082C12.481 37.9173 12.5765 37.9365 12.6687 37.9655H12.7844C14.8928 38.6041 23.5046 42.616 23.5046 42.616V34.887L16.5654 23.4245H16.3074C14.2879 24.407 11.5566 25.7333 10.8894 26.0854C10.1252 26.6083 9.49123 27.2755 9.03005 28.0422C8.43399 28.861 7.67779 29.9417 6.55684 31.4155C4.62381 34.0493 2.85645 36.783 1.26344 39.603C1.26344 39.603 -1.58342 43.3529 1.26344 45.0968C2.79136 45.9888 4.38132 46.7875 6.02305 47.4876C8.89661 48.7239 11.8502 49.8538 12.2506 49.9438L12.4997 48.5519L12.9623 45.9565L13.4694 43.14L12.9623 43.0499C12.6064 42.9762 12.0726 42.878 11.5566 42.7388C10.3912 42.4604 9.1546 42.0511 9.28805 41.6417C9.53715 40.9376 11.4321 37.9082 12.384 37.9082Z" fill="url(#paint7_linear)"/>
<path d="M35.2922 50.0175C35.2922 50.2781 35.1797 50.528 34.9795 50.7122C34.7793 50.8965 34.5077 51 34.2246 51H12.8731C12.5891 51 12.3167 50.8968 12.1151 50.7127C11.9134 50.5287 11.799 50.2788 11.7966 50.0175C11.7966 49.7548 11.91 49.5028 12.1119 49.317C12.3138 49.1312 12.5876 49.0268 12.8731 49.0268H34.2246C34.5086 49.029 34.7801 49.1343 34.98 49.3199C35.18 49.5054 35.2922 49.7562 35.2922 50.0175Z" fill="url(#paint8_linear)"/>
<path d="M34.2691 34.977H12.7841C12.2191 34.977 11.761 35.3986 11.761 35.9186V48.4291C11.761 48.9491 12.2191 49.3707 12.7841 49.3707H34.2691C34.8341 49.3707 35.2922 48.9491 35.2922 48.4291V35.9186C35.2922 35.3986 34.8341 34.977 34.2691 34.977Z" fill="url(#paint9_linear)"/>
<path d="M24.4474 43.7213C24.9011 43.009 25.2481 42.8371 25.2659 42.0838C25.2703 42.0567 25.2703 42.0291 25.2659 42.0019C25.1887 41.6272 24.9718 41.2891 24.6527 41.0458C24.3335 40.8026 23.9321 40.6694 23.5177 40.6694C23.1034 40.6694 22.702 40.8026 22.3828 41.0458C22.0637 41.2891 21.8468 41.6272 21.7696 42.0019V42.0838C21.7696 42.8207 22.1432 42.9926 22.597 43.7213C22.6819 43.8562 22.7306 44.0078 22.7393 44.1634H22.5614V44.5728H22.7482C22.7482 44.5728 22.7482 44.6219 22.7482 44.6547C22.7504 44.7128 22.7757 44.7682 22.8194 44.8102C22.7973 44.8291 22.7796 44.8519 22.7674 44.8772C22.7551 44.9025 22.7486 44.9299 22.7482 44.9576C22.7479 44.9866 22.7541 45.0154 22.7663 45.0422C22.7786 45.0689 22.7966 45.0931 22.8194 45.1132C22.7986 45.1295 22.7816 45.1496 22.7694 45.1721C22.7572 45.1946 22.75 45.2191 22.7482 45.2442C22.7482 45.3424 22.8372 45.4243 22.9795 45.4489C23.0309 45.5418 23.1092 45.6198 23.2057 45.6743C23.3023 45.7288 23.4134 45.7577 23.5266 45.7577C23.6399 45.7577 23.751 45.7288 23.8476 45.6743C23.9441 45.6198 24.0224 45.5418 24.0738 45.4489C24.2161 45.4489 24.314 45.3424 24.314 45.2442C24.3072 45.1925 24.2784 45.1454 24.2339 45.1132C24.2583 45.0938 24.278 45.07 24.2918 45.0432C24.3056 45.0164 24.3131 44.9873 24.314 44.9576C24.3119 44.9294 24.3038 44.9018 24.2901 44.8765C24.2763 44.8512 24.2572 44.8287 24.2339 44.8102C24.2795 44.7686 24.3078 44.7135 24.314 44.6547C24.319 44.6276 24.319 44.5999 24.314 44.5728H24.5008V44.1634H24.3229C24.3302 44.0097 24.3727 43.859 24.4474 43.7213Z" fill="white"/>
<path d="M23.7269 40.0124C23.7345 40.0676 23.7183 40.1235 23.6817 40.1679C23.6451 40.2123 23.5911 40.2417 23.5312 40.2498C23.5007 40.2468 23.4712 40.2382 23.4444 40.2246C23.4176 40.2109 23.3939 40.1925 23.3749 40.1705C23.3559 40.1484 23.3418 40.123 23.3335 40.0959C23.3252 40.0687 23.3228 40.0403 23.3265 40.0124V39.1936C23.3228 39.1656 23.3252 39.1372 23.3335 39.1101C23.3418 39.083 23.3559 39.0576 23.3749 39.0355C23.3939 39.0134 23.4176 38.995 23.4444 38.9814C23.4712 38.9678 23.5007 38.9592 23.5312 38.9562C23.5911 38.9643 23.6451 38.9937 23.6817 39.0381C23.7183 39.0825 23.7345 39.1383 23.7269 39.1936V40.0124Z" fill="white"/>
<path d="M22.5258 40.1188C22.5622 40.1648 22.5779 40.222 22.5696 40.2785C22.5613 40.3349 22.5297 40.3862 22.4813 40.4217C22.3923 40.4709 22.2589 40.4217 22.1788 40.3071L21.7518 39.6194C21.7154 39.5733 21.6997 39.5161 21.708 39.4597C21.7163 39.4032 21.7479 39.3519 21.7963 39.3164C21.8542 39.2974 21.9179 39.2995 21.9741 39.3223C22.0304 39.3452 22.075 39.387 22.0988 39.4392L22.5258 40.1188Z" fill="white"/>
<path d="M21.565 40.8311C21.593 40.8419 21.6185 40.8576 21.6399 40.8774C21.6613 40.8972 21.6783 40.9207 21.6899 40.9466C21.7014 40.9724 21.7074 41.0001 21.7073 41.0281C21.7072 41.056 21.7012 41.0837 21.6895 41.1095C21.6688 41.1293 21.6439 41.1451 21.6164 41.1558C21.5889 41.1666 21.5593 41.1721 21.5294 41.1721C21.4995 41.1721 21.4699 41.1666 21.4424 41.1558C21.4149 41.1451 21.39 41.1293 21.3692 41.1095L20.6219 40.7165C20.5675 40.6948 20.5242 40.6546 20.501 40.6043C20.4778 40.554 20.4765 40.4974 20.4974 40.4463C20.5405 40.4083 20.5978 40.387 20.6575 40.387C20.7172 40.387 20.7746 40.4083 20.8177 40.4463L21.565 40.8311Z" fill="white"/>
<path d="M21.1023 41.8627C21.1624 41.8557 21.223 41.8706 21.2713 41.9043C21.3195 41.938 21.3515 41.9877 21.3603 42.0429C21.3515 42.098 21.3195 42.1477 21.2713 42.1814C21.223 42.2151 21.1624 42.23 21.1023 42.223H20.2126C20.0614 42.223 19.9547 42.1411 19.9547 42.0429C19.9547 41.9446 20.0614 41.8627 20.2126 41.8627H21.1023Z" fill="white"/>
<path d="M21.2625 42.968C21.3056 42.93 21.363 42.9088 21.4226 42.9088C21.4823 42.9088 21.5397 42.93 21.5828 42.968C21.6451 43.0581 21.5828 43.1809 21.4582 43.2464L20.7109 43.6394C20.6669 43.6757 20.6099 43.6957 20.5508 43.6957C20.4917 43.6957 20.4347 43.6757 20.3907 43.6394C20.379 43.6136 20.3729 43.5859 20.3729 43.558C20.3728 43.53 20.3787 43.5023 20.3903 43.4765C20.4019 43.4506 20.4188 43.4271 20.4403 43.4073C20.4617 43.3875 20.4872 43.3718 20.5152 43.361L21.2625 42.968Z" fill="white"/>
<path d="M21.8675 43.8114C21.8937 43.7682 21.9374 43.7363 21.989 43.7225C22.0406 43.7087 22.096 43.7142 22.1433 43.7377C22.1886 43.7632 22.2214 43.8039 22.2347 43.8513C22.248 43.8987 22.2407 43.949 22.2144 43.9915L21.8586 44.5564C21.8465 44.5786 21.8296 44.5983 21.8089 44.6141C21.7881 44.63 21.7641 44.6418 21.7382 44.6487C21.7123 44.6556 21.6851 44.6575 21.6584 44.6543C21.6316 44.6511 21.6059 44.6429 21.5828 44.6301C21.5602 44.6176 21.5405 44.601 21.525 44.5812C21.5096 44.5615 21.4986 44.5392 21.4928 44.5154C21.487 44.4917 21.4864 44.4672 21.4912 44.4433C21.496 44.4193 21.5059 44.3966 21.5205 44.3763L21.8675 43.8114Z" fill="white"/>
<path d="M24.5275 40.1188C24.4911 40.1648 24.4754 40.222 24.4837 40.2785C24.492 40.3349 24.5236 40.3862 24.572 40.4217C24.6609 40.4709 24.7944 40.4217 24.8745 40.3071L25.3015 39.6194C25.3415 39.5775 25.3636 39.5237 25.3636 39.4679C25.3636 39.4121 25.3415 39.3583 25.3015 39.3164C25.2436 39.2974 25.1799 39.2995 25.1236 39.3223C25.0674 39.3452 25.0228 39.387 24.999 39.4392L24.5275 40.1188Z" fill="white"/>
<path d="M25.4884 40.8311C25.4603 40.8419 25.4348 40.8576 25.4134 40.8774C25.392 40.8972 25.375 40.9207 25.3634 40.9466C25.3519 40.9724 25.3459 41.0001 25.346 41.0281C25.3461 41.056 25.3521 41.0837 25.3638 41.1095C25.3845 41.1293 25.4094 41.1451 25.4369 41.1558C25.4645 41.1666 25.494 41.1721 25.5239 41.1721C25.5538 41.1721 25.5834 41.1666 25.6109 41.1558C25.6385 41.1451 25.6633 41.1293 25.6841 41.1095L26.4314 40.7165C26.4858 40.6948 26.5292 40.6546 26.5523 40.6043C26.5755 40.554 26.5768 40.4974 26.5559 40.4463C26.5129 40.4083 26.4555 40.387 26.3958 40.387C26.3361 40.387 26.2787 40.4083 26.2357 40.4463L25.4884 40.8311Z" fill="white"/>
<path d="M25.9509 41.8627C25.8909 41.8557 25.8302 41.8706 25.782 41.9043C25.7337 41.938 25.7018 41.9877 25.6929 42.0429C25.7018 42.098 25.7337 42.1477 25.782 42.1814C25.8302 42.2151 25.8909 42.23 25.9509 42.223H26.8406C26.9006 42.23 26.9613 42.2151 27.0095 42.1814C27.0578 42.1477 27.0897 42.098 27.0986 42.0429C27.0897 41.9877 27.0578 41.938 27.0095 41.9043C26.9613 41.8706 26.9006 41.8557 26.8406 41.8627H25.9509Z" fill="white"/>
<path d="M25.7997 42.968C25.7567 42.93 25.6993 42.9088 25.6396 42.9088C25.5799 42.9088 25.5225 42.93 25.4795 42.968C25.4678 42.9939 25.4617 43.0215 25.4617 43.0495C25.4616 43.0774 25.4675 43.1051 25.4791 43.131C25.4907 43.1568 25.5076 43.1803 25.5291 43.2001C25.5505 43.2199 25.576 43.2357 25.604 43.2464L26.3513 43.6394C26.3954 43.6757 26.4524 43.6957 26.5114 43.6957C26.5705 43.6957 26.6275 43.6757 26.6716 43.6394C26.6833 43.6136 26.6893 43.5859 26.6894 43.558C26.6894 43.53 26.6835 43.5023 26.672 43.4765C26.6604 43.4506 26.6434 43.4271 26.622 43.4073C26.6005 43.3875 26.5751 43.3718 26.547 43.361L25.7997 42.968Z" fill="white"/>
<path d="M25.1859 43.8114C25.1596 43.7682 25.116 43.7363 25.0644 43.7225C25.0128 43.7087 24.9573 43.7142 24.9101 43.7377C24.8647 43.7632 24.8319 43.8039 24.8186 43.8513C24.8053 43.8987 24.8126 43.949 24.8389 43.9915L25.1948 44.5564C25.2077 44.5789 25.2255 44.5987 25.2471 44.6146C25.2686 44.6306 25.2934 44.6424 25.32 44.6492C25.3466 44.6561 25.3744 44.658 25.4019 44.6547C25.4293 44.6514 25.4557 44.643 25.4794 44.6301C25.5233 44.6033 25.5543 44.562 25.5659 44.5147C25.5775 44.4674 25.5688 44.4179 25.5417 44.3763L25.1859 43.8114Z" fill="white"/>
<defs>
<linearGradient id="paint0_linear" x1="32.0005" y1="36.4672" x2="32.0005" y2="21.8688" gradientUnits="userSpaceOnUse">
<stop stop-color="#9DDEF2"/>
<stop offset="0.19" stop-color="#A2DFF2"/>
<stop offset="0.41" stop-color="#B0E4F4"/>
<stop offset="0.64" stop-color="#C8EBF6"/>
<stop offset="0.89" stop-color="#E9F5F9"/>
<stop offset="1" stop-color="#FAFAFA"/>
</linearGradient>
<linearGradient id="paint1_linear" x1="292.86" y1="672.079" x2="292.86" y2="411.79" gradientUnits="userSpaceOnUse">
<stop stop-color="#9DDEF2"/>
<stop offset="0.19" stop-color="#A2DFF2"/>
<stop offset="0.41" stop-color="#B0E4F4"/>
<stop offset="0.64" stop-color="#C8EBF6"/>
<stop offset="0.89" stop-color="#E9F5F9"/>
<stop offset="1" stop-color="#FAFAFA"/>
</linearGradient>
<linearGradient id="paint2_linear" x1="23.4955" y1="20.6161" x2="23.4955" y2="1.59656" gradientUnits="userSpaceOnUse">
<stop offset="0.02" stop-color="#F7BB7C"/>
<stop offset="1" stop-color="#FFD1A1"/>
</linearGradient>
<linearGradient id="paint3_linear" x1="168.509" y1="164.45" x2="168.509" y2="140.398" gradientUnits="userSpaceOnUse">
<stop stop-color="#9DDEF2"/>
<stop offset="0.19" stop-color="#A2DFF2"/>
<stop offset="0.41" stop-color="#B0E4F4"/>
<stop offset="0.64" stop-color="#C8EBF6"/>
<stop offset="0.89" stop-color="#E9F5F9"/>
<stop offset="1" stop-color="#FAFAFA"/>
</linearGradient>
<linearGradient id="paint4_linear" x1="135.996" y1="164.45" x2="135.996" y2="140.398" gradientUnits="userSpaceOnUse">
<stop stop-color="#9DDEF2"/>
<stop offset="0.19" stop-color="#A2DFF2"/>
<stop offset="0.41" stop-color="#B0E4F4"/>
<stop offset="0.64" stop-color="#C8EBF6"/>
<stop offset="0.89" stop-color="#E9F5F9"/>
<stop offset="1" stop-color="#FAFAFA"/>
</linearGradient>
<linearGradient id="paint5_linear" x1="23.5045" y1="35.1817" x2="23.5045" y2="23.6373" gradientUnits="userSpaceOnUse">
<stop stop-color="#5EA814"/>
<stop offset="0.35" stop-color="#62A914"/>
<stop offset="0.67" stop-color="#6DAD12"/>
<stop offset="0.97" stop-color="#7FB410"/>
<stop offset="1" stop-color="#81B510"/>
</linearGradient>
<linearGradient id="paint6_linear" x1="35.2478" y1="49.9684" x2="35.2478" y2="23.4327" gradientUnits="userSpaceOnUse">
<stop stop-color="#062A54"/>
<stop offset="0.27" stop-color="#072C58"/>
<stop offset="0.52" stop-color="#083263"/>
<stop offset="0.75" stop-color="#0B3C75"/>
<stop offset="0.98" stop-color="#104B8F"/>
<stop offset="1" stop-color="#104C91"/>
</linearGradient>
<linearGradient id="paint7_linear" x1="310.518" y1="1641.9" x2="310.518" y2="782.408" gradientUnits="userSpaceOnUse">
<stop stop-color="#062A54"/>
<stop offset="0.27" stop-color="#072C58"/>
<stop offset="0.52" stop-color="#083263"/>
<stop offset="0.75" stop-color="#0B3C75"/>
<stop offset="0.98" stop-color="#104B8F"/>
<stop offset="1" stop-color="#104C91"/>
</linearGradient>
<linearGradient id="paint8_linear" x1="11.761" y1="50.0175" x2="35.2922" y2="50.0175" gradientUnits="userSpaceOnUse">
<stop stop-color="#FF7B00"/>
<stop offset="0.02" stop-color="#FF7D01"/>
<stop offset="0.67" stop-color="#FFAB0F"/>
<stop offset="1" stop-color="#FFBD14"/>
</linearGradient>
<linearGradient id="paint9_linear" x1="23.5311" y1="49.3707" x2="23.5311" y2="34.977" gradientUnits="userSpaceOnUse">
<stop stop-color="#9DDEF2"/>
<stop offset="0.17" stop-color="#A4E0F3"/>
<stop offset="0.43" stop-color="#B8E6F4"/>
<stop offset="0.73" stop-color="#D8F0F7"/>
<stop offset="1" stop-color="#FAFAFA"/>
</linearGradient>
</defs>
</svg>
