<svg width="91" height="97" viewBox="0 0 91 97" fill="none" xmlns="http://www.w3.org/2000/svg">
<path d="M0 1.96843C0 3.06201 0.871856 3.93687 1.96168 3.93687C3.0515 3.93687 3.92335 3.06201 3.92335 1.96843C3.92335 0.874859 3.0515 0 1.96168 0C0.871856 0 0 0.874859 0 1.96843Z" fill="#D9D9D9"/>
<path d="M21.7964 1.96843C21.7964 3.06201 22.6683 3.93687 23.7581 3.93687C24.8479 3.93687 25.7198 3.06201 25.7198 1.96843C25.7198 0.874859 24.8479 0 23.7581 0C22.6683 0 21.7964 0.874859 21.7964 1.96843Z" fill="#D9D9D9"/>
<path d="M43.4838 1.96843C43.4838 3.06201 44.3557 3.93687 45.4455 3.93687C46.5353 3.93687 47.4072 3.06201 47.4072 1.96843C47.4072 0.874859 46.5353 0 45.4455 0C44.3557 0 43.4838 0.874859 43.4838 1.96843Z" fill="#D9D9D9"/>
<path d="M65.2802 1.96843C65.2802 3.06201 66.1521 3.93687 67.2419 3.93687C68.3317 3.93687 69.2036 3.06201 69.2036 1.96843C69.2036 0.874859 68.3317 0 67.2419 0C66.1521 0 65.2802 0.874859 65.2802 1.96843Z" fill="#D9D9D9"/>
<path d="M86.9677 1.96843C86.9677 3.06201 87.8395 3.93687 88.9294 3.93687C90.0192 3.93687 90.891 3.06201 90.891 1.96843C90.891 0.874859 90.0192 0 88.9294 0C87.8395 0 86.9677 0.874859 86.9677 1.96843Z" fill="#D9D9D9"/>
<path d="M0 20.5592C0 21.6528 0.871856 22.5276 1.96168 22.5276C3.0515 22.5276 3.92335 21.6528 3.92335 20.5592C3.92335 19.4656 3.0515 18.5908 1.96168 18.5908C0.871856 18.5908 0 19.4656 0 20.5592Z" fill="#D9D9D9"/>
<path d="M21.7964 20.5592C21.7964 21.6528 22.6683 22.5276 23.7581 22.5276C24.8479 22.5276 25.7198 21.6528 25.7198 20.5592C25.7198 19.4656 24.8479 18.5908 23.7581 18.5908C22.6683 18.5908 21.7964 19.4656 21.7964 20.5592Z" fill="#D9D9D9"/>
<path d="M43.4838 20.5592C43.4838 21.6528 44.3557 22.5276 45.4455 22.5276C46.5353 22.5276 47.4072 21.6528 47.4072 20.5592C47.4072 19.4656 46.5353 18.5908 45.4455 18.5908C44.3557 18.5908 43.4838 19.4656 43.4838 20.5592Z" fill="#D9D9D9"/>
<path d="M65.2802 20.5592C65.2802 21.6528 66.1521 22.5276 67.2419 22.5276C68.3317 22.5276 69.2036 21.6528 69.2036 20.5592C69.2036 19.4656 68.3317 18.5908 67.2419 18.5908C66.1521 18.5908 65.2802 19.4656 65.2802 20.5592Z" fill="#D9D9D9"/>
<path d="M86.9677 20.5592C86.9677 21.6528 87.8395 22.5276 88.9294 22.5276C90.0192 22.5276 90.891 21.6528 90.891 20.5592C90.891 19.4656 90.0192 18.5908 88.9294 18.5908C87.8395 18.5908 86.9677 19.4656 86.9677 20.5592Z" fill="#D9D9D9"/>
<path d="M0 39.1499C0 40.2435 0.871856 41.1184 1.96168 41.1184C3.0515 41.1184 3.92335 40.2435 3.92335 39.1499C3.92335 38.0564 3.0515 37.1815 1.96168 37.1815C0.871856 37.1815 0 38.0564 0 39.1499Z" fill="#D9D9D9"/>
<path d="M21.7964 39.1499C21.7964 40.2435 22.6683 41.1184 23.7581 41.1184C24.8479 41.1184 25.7198 40.2435 25.7198 39.1499C25.7198 38.0564 24.8479 37.1815 23.7581 37.1815C22.6683 37.1815 21.7964 38.0564 21.7964 39.1499Z" fill="#D9D9D9"/>
<path d="M43.4838 39.1499C43.4838 40.2435 44.3557 41.1184 45.4455 41.1184C46.5353 41.1184 47.4072 40.2435 47.4072 39.1499C47.4072 38.0564 46.5353 37.1815 45.4455 37.1815C44.3557 37.1815 43.4838 38.0564 43.4838 39.1499Z" fill="#D9D9D9"/>
<path d="M65.2802 39.1499C65.2802 40.2435 66.1521 41.1184 67.2419 41.1184C68.3317 41.1184 69.2036 40.2435 69.2036 39.1499C69.2036 38.0564 68.3317 37.1815 67.2419 37.1815C66.1521 37.1815 65.2802 38.0564 65.2802 39.1499Z" fill="#D9D9D9"/>
<path d="M86.9677 39.1499C86.9677 40.2435 87.8395 41.1184 88.9294 41.1184C90.0192 41.1184 90.891 40.2435 90.891 39.1499C90.891 38.0564 90.0192 37.1815 88.9294 37.1815C87.8395 37.1815 86.9677 38.0564 86.9677 39.1499Z" fill="#D9D9D9"/>
<path d="M0 57.7407C0 58.8343 0.871856 59.7091 1.96168 59.7091C3.0515 59.7091 3.92335 58.8343 3.92335 57.7407C3.92335 56.6471 3.0515 55.7723 1.96168 55.7723C0.871856 55.7723 0 56.6471 0 57.7407Z" fill="#D9D9D9"/>
<path d="M21.7964 57.7407C21.7964 58.8343 22.6683 59.7091 23.7581 59.7091C24.8479 59.7091 25.7198 58.8343 25.7198 57.7407C25.7198 56.6471 24.8479 55.7723 23.7581 55.7723C22.6683 55.7723 21.7964 56.6471 21.7964 57.7407Z" fill="#D9D9D9"/>
<path d="M43.4838 57.7407C43.4838 58.8343 44.3557 59.7091 45.4455 59.7091C46.5353 59.7091 47.4072 58.8343 47.4072 57.7407C47.4072 56.6471 46.5353 55.7723 45.4455 55.7723C44.3557 55.7723 43.4838 56.6471 43.4838 57.7407Z" fill="#D9D9D9"/>
<path d="M65.2802 57.7407C65.2802 58.8343 66.1521 59.7091 67.2419 59.7091C68.3317 59.7091 69.2036 58.8343 69.2036 57.7407C69.2036 56.6471 68.3317 55.7723 67.2419 55.7723C66.1521 55.7723 65.2802 56.6471 65.2802 57.7407Z" fill="#D9D9D9"/>
<path d="M86.9677 57.7407C86.9677 58.8343 87.8395 59.7091 88.9294 59.7091C90.0192 59.7091 90.891 58.8343 90.891 57.7407C90.891 56.6471 90.0192 55.7723 88.9294 55.7723C87.8395 55.7723 86.9677 56.6471 86.9677 57.7407Z" fill="#D9D9D9"/>
<path d="M0 76.3315C0 77.425 0.871856 78.2999 1.96168 78.2999C3.0515 78.2999 3.92335 77.425 3.92335 76.3315C3.92335 75.2379 3.0515 74.363 1.96168 74.363C0.871856 74.363 0 75.2379 0 76.3315Z" fill="#D9D9D9"/>
<path d="M21.7964 76.3315C21.7964 77.425 22.6683 78.2999 23.7581 78.2999C24.8479 78.2999 25.7198 77.425 25.7198 76.3315C25.7198 75.2379 24.8479 74.363 23.7581 74.363C22.6683 74.363 21.7964 75.2379 21.7964 76.3315Z" fill="#D9D9D9"/>
<path d="M43.4838 76.3315C43.4838 77.425 44.3557 78.2999 45.4455 78.2999C46.5353 78.2999 47.4072 77.425 47.4072 76.3315C47.4072 75.2379 46.5353 74.363 45.4455 74.363C44.3557 74.363 43.4838 75.2379 43.4838 76.3315Z" fill="#D9D9D9"/>
<path d="M67.2419 78.2999C68.3253 78.2999 69.2036 77.4186 69.2036 76.3315C69.2036 75.2443 68.3253 74.363 67.2419 74.363C66.1585 74.363 65.2802 75.2443 65.2802 76.3315C65.2802 77.4186 66.1585 78.2999 67.2419 78.2999Z" fill="#D9D9D9"/>
<path d="M88.9294 78.2999C90.0128 78.2999 90.891 77.4186 90.891 76.3315C90.891 75.2443 90.0128 74.363 88.9294 74.363C87.846 74.363 86.9677 75.2443 86.9677 76.3315C86.9677 77.4186 87.846 78.2999 88.9294 78.2999Z" fill="#D9D9D9"/>
<path d="M0 94.9222C0 96.0157 0.871856 96.8906 1.96168 96.8906C3.0515 96.8906 3.92335 96.0157 3.92335 94.9222C3.92335 93.8286 3.0515 92.9537 1.96168 92.9537C0.871856 92.9537 0 93.8286 0 94.9222Z" fill="#D9D9D9"/>
<path d="M21.7964 94.9222C21.7964 96.0157 22.6683 96.8906 23.7581 96.8906C24.8479 96.8906 25.7198 96.0157 25.7198 94.9222C25.7198 93.8286 24.8479 92.9537 23.7581 92.9537C22.6683 92.9537 21.7964 93.8286 21.7964 94.9222Z" fill="#D9D9D9"/>
<path d="M43.4838 94.9222C43.4838 96.0157 44.3557 96.8906 45.4455 96.8906C46.5353 96.8906 47.4072 96.0157 47.4072 94.9222C47.4072 93.8286 46.5353 92.9537 45.4455 92.9537C44.3557 92.9537 43.4838 93.8286 43.4838 94.9222Z" fill="#D9D9D9"/>
<path d="M65.2802 94.9222C65.2802 96.0157 66.1521 96.8906 67.2419 96.8906C68.3317 96.8906 69.2036 96.0157 69.2036 94.9222C69.2036 93.8286 68.3317 92.9537 67.2419 92.9537C66.1521 92.9537 65.2802 93.8286 65.2802 94.9222Z" fill="#D9D9D9"/>
<path d="M86.9677 94.9222C86.9677 96.0157 87.8395 96.8906 88.9294 96.8906C90.0192 96.8906 90.891 96.0157 90.891 94.9222C90.891 93.8286 90.0192 92.9537 88.9294 92.9537C87.8395 92.9537 86.9677 93.8286 86.9677 94.9222Z" fill="#D9D9D9"/>
</svg>
