<svg width="40" height="33" viewBox="0 0 40 33" fill="none" xmlns="http://www.w3.org/2000/svg">
<path d="M17.4359 17.2948L17.5 0H27.0513V17.3584L17.4359 17.2948Z" fill="url(#paint0_linear)"/>
<path d="M26.1539 0.953796H18.3333V16.3411H26.1539V0.953796ZM20.0641 15.4509C20.0641 14.9422 19.6795 14.5607 19.1667 14.5607C19.1026 14.5607 19.1026 14.5607 19.0385 14.5607V2.67056C19.1026 2.67056 19.1026 2.67056 19.1667 2.67056C19.6795 2.67056 20.0641 2.28906 20.0641 1.78039C20.0641 1.7168 20.0641 1.7168 20.0641 1.65322H24.359C24.359 1.7168 24.359 1.7168 24.359 1.78039C24.359 2.28906 24.7436 2.67056 25.2564 2.67056C25.3205 2.67056 25.3205 2.67056 25.3846 2.67056V14.5607C25.3205 14.5607 25.3205 14.5607 25.2564 14.5607C24.7436 14.5607 24.359 14.9422 24.359 15.4509C24.359 15.5145 24.359 15.5145 24.359 15.5781H20.0641C20.0641 15.5781 20.0641 15.5145 20.0641 15.4509Z" fill="#81BC00"/>
<path d="M21.6667 9.09252C21.7308 9.02893 21.7949 8.90177 21.859 8.7746H20.8975C20.8975 8.96535 20.9616 9.02893 21.0257 9.1561C21.0898 9.21968 21.218 9.28327 21.3462 9.28327C21.4744 9.21968 21.5385 9.21968 21.6667 9.09252Z" fill="#81BC00"/>
<path d="M23.2051 8.20233C23.0769 8.20233 23.0128 8.26592 22.9487 8.3295C22.8846 8.39308 22.8205 8.52025 22.7564 8.64742H23.6538C23.6538 8.45667 23.5897 8.3295 23.5256 8.26592C23.4615 8.26592 23.3333 8.20233 23.2051 8.20233Z" fill="#81BC00"/>
<path d="M25.1282 8.71102C25.1282 7.18501 23.8462 5.91333 22.3077 5.91333C20.7051 5.91333 19.4872 7.18501 19.4872 8.71102C19.4872 10.237 20.7692 11.5087 22.3077 11.5087C23.8462 11.5723 25.0641 10.3006 25.1282 8.71102ZM20.641 9.72836C20.4487 9.53761 20.3205 9.34685 20.2564 9.02894H19.7436V8.45668H20.2564C20.2564 8.26593 20.2564 8.07518 20.3205 7.88443C20.3846 7.75726 20.3846 7.63009 20.4487 7.50293L21.0897 7.69368C21.0256 7.75726 21.0256 7.88443 20.9615 7.94801C20.8974 8.07518 20.8974 8.20235 20.8974 8.3931H22.0513C22.1154 8.26593 22.1795 8.13876 22.2436 8.07518C22.3077 7.94801 22.3718 7.88443 22.5 7.75726C22.5641 7.69368 22.6923 7.56651 22.8205 7.56651C22.9487 7.50292 23.0769 7.50293 23.2692 7.50293C23.5897 7.50293 23.8462 7.56651 24.0385 7.75726C24.2308 7.94801 24.359 8.13876 24.359 8.45668H24.8718V9.02894H24.359C24.359 9.21969 24.2949 9.34685 24.2949 9.47402C24.2949 9.60119 24.2308 9.72836 24.1667 9.79194L23.5256 9.60119C23.5256 9.53761 23.5897 9.47402 23.5897 9.34685C23.5897 9.28327 23.6538 9.1561 23.6538 9.02894H22.6282C22.5641 9.1561 22.5 9.28327 22.4359 9.34685C22.3718 9.47402 22.3077 9.53761 22.1795 9.66477C22.1154 9.72836 21.9872 9.85553 21.859 9.85553C21.7308 9.91911 21.6026 9.91911 21.4103 9.91911C21.0897 9.98269 20.8333 9.85553 20.641 9.72836Z" fill="#81BC00"/>
<path d="M32.5 7.43934C30.5769 6.48558 28.2051 7.31217 27.3077 9.21969C26.3461 11.1908 27.1795 13.5434 29.1667 14.4336C31.0897 15.3873 33.4615 14.5607 34.359 12.6532C35.2564 10.7457 34.4231 8.3931 32.5 7.43934Z" fill="url(#paint1_linear)"/>
<path d="M34.2949 12.7168C33.3334 14.6879 31.0257 15.4509 29.1026 14.4972C27.1795 13.5434 26.3462 11.1908 27.2436 9.28328C28.2052 7.37577 30.5129 6.54918 32.4359 7.50294C34.4231 8.39311 35.2564 10.7457 34.2949 12.7168Z" fill="#FFB82B"/>
<path d="M29.1667 14.3064C27.2436 13.3527 26.4103 11.0636 27.3077 9.15613L27.2436 9.21971C26.2821 11.1908 27.1154 13.5434 29.1026 14.4336C31.0256 15.3873 33.3974 14.5608 34.2949 12.6532C34.2949 12.6532 34.2949 12.5897 34.359 12.5897C33.3974 14.4972 31.0897 15.2602 29.1667 14.3064Z" fill="#F5D5A4"/>
<path d="M32.3718 7.63011C34.2949 8.58386 35.0641 10.8093 34.2308 12.7804L34.2949 12.7168C35.2564 10.7457 34.4231 8.4567 32.4359 7.50294C30.5128 6.54918 28.141 7.37577 27.2436 9.28328C27.2436 9.34687 27.2436 9.34687 27.1795 9.41045C28.141 7.50294 30.4487 6.73993 32.3718 7.63011Z" fill="#FFB82B"/>
<path d="M33.5897 12.3353C32.8205 13.8614 31.0256 14.4972 29.423 13.7342C27.8846 12.9712 27.2436 11.1273 27.9487 9.60124C28.7179 8.07523 30.5128 7.43939 32.1153 8.2024C33.6538 8.96541 34.2948 10.8093 33.5897 12.3353Z" fill="url(#paint2_linear)"/>
<path d="M29.4872 13.607C27.9487 12.844 27.3077 11.0636 28.0128 9.5376C28.0128 9.5376 28.0128 9.60118 27.9487 9.60118C27.1795 11.1272 27.8846 12.9711 29.4231 13.7341C30.9616 14.4971 32.8205 13.8613 33.5898 12.3353V12.2717C32.8205 13.7341 31.0257 14.37 29.4872 13.607Z" fill="#F5D5A4"/>
<path d="M29.7436 13.0347C28.9744 12.6532 28.5257 11.8902 28.4615 11.0636C28.4615 10.6821 28.5256 10.3006 28.718 9.91908C29.2949 8.77457 30.5769 8.2659 31.7308 8.77457C32.8846 9.34682 33.3333 10.6821 32.7564 11.8902C32.2436 13.0983 30.8974 13.6069 29.7436 13.0347Z" fill="#F5D5A4"/>
<path d="M32.6923 11.8902C32.1795 12.9711 30.8974 13.4162 29.8077 12.8439C28.7179 12.3353 28.2692 11 28.782 9.98268C29.2948 8.90175 30.5769 8.45666 31.6666 9.02892C32.7564 9.53759 33.2051 10.8728 32.6923 11.8902Z" fill="#FFD336"/>
<path d="M32.6923 12.0174C32.1795 12.9076 31.0257 13.2255 29.9359 12.7168C28.9103 12.2081 28.3975 11.0636 28.7821 10.1099C28.3334 11.1908 28.7821 12.3989 29.8077 12.9076C30.8975 13.4162 32.1154 13.0347 32.6923 12.0174Z" fill="#F5D5A4"/>
<path d="M31.6667 9.15615C32.6923 9.66482 33.141 10.9365 32.6923 11.9538C32.6923 11.9538 32.6923 11.8902 32.7564 11.8902C33.2692 10.8093 32.8205 9.53765 31.7308 9.02898C30.641 8.52031 29.359 8.9654 28.8462 9.98274V10.0463C29.359 9.09256 30.5769 8.64748 31.6667 9.15615Z" fill="#FFB82B"/>
<path d="M30 12.1446C29.8718 12.081 29.8077 12.0174 29.7436 11.9538C29.6795 11.8902 29.6154 11.8266 29.6154 11.7631L29.9359 11.4451C29.9359 11.5087 30 11.5087 30.0641 11.5723C30.1282 11.6359 30.1923 11.6995 30.2564 11.6995L30.6411 10.9365C30.577 10.8729 30.577 10.8093 30.5129 10.7457C30.4487 10.6821 30.4487 10.6186 30.4487 10.4914C30.4487 10.4278 30.4487 10.3006 30.4487 10.2371C30.4487 10.1735 30.5129 10.0463 30.5129 9.91913C30.577 9.72838 30.7052 9.60121 30.8334 9.53763C30.9616 9.47405 31.1539 9.47405 31.2821 9.47405L31.4103 9.15613L31.7308 9.34688L31.6026 9.6648C31.6667 9.72838 31.7308 9.72838 31.7949 9.79197C31.859 9.85555 31.9231 9.91913 31.9231 9.91913L31.6026 10.2371C31.6026 10.1735 31.5385 10.1735 31.4744 10.1099C31.4744 10.2371 31.4103 10.1735 31.3462 10.1735L31.0257 10.8729C31.0898 10.9365 31.0898 11.0001 31.1539 11.0636C31.218 11.1272 31.218 11.1908 31.218 11.318C31.218 11.3816 31.218 11.5087 31.218 11.5723C31.218 11.6359 31.218 11.7631 31.1539 11.8902C31.0257 12.081 30.9616 12.2082 30.7693 12.2717C30.6411 12.3353 30.4488 12.3353 30.2564 12.3353L30.1282 12.6532L29.8077 12.4625L30 12.1446ZM31.1539 10.0463C31.0898 10.0463 30.9616 10.0463 30.9616 10.0463C30.8975 10.0463 30.8334 10.1099 30.8334 10.1735C30.7693 10.2371 30.7693 10.3006 30.8334 10.3642C30.8334 10.4278 30.8975 10.4914 30.8975 10.555L31.1539 10.0463ZM30.3846 11.8902C30.4488 11.8902 30.5129 11.8902 30.577 11.8902C30.6411 11.8266 30.7052 11.8266 30.7052 11.6995C30.7693 11.6359 30.7693 11.5723 30.7052 11.4451C30.7052 11.3816 30.6411 11.318 30.6411 11.2544L30.3846 11.8902Z" fill="url(#paint3_linear)"/>
<path d="M31.2821 11.5723C31.2821 11.5087 31.2821 11.3815 31.2821 11.318C31.2821 11.2544 31.218 11.1272 31.218 11.0636C31.1539 11 31.1539 10.9365 31.0898 10.8729L31.4103 10.1735C31.4744 10.237 31.5385 10.237 31.5385 10.3006C31.6026 10.3642 31.6026 10.3642 31.6667 10.4278L31.9872 10.1099C31.9231 10.0463 31.9231 9.9827 31.859 9.9827C31.7949 9.91912 31.7308 9.85553 31.6667 9.85553L31.7949 9.53761L31.4744 9.34686L31.3462 9.66478C31.1539 9.6012 31.0257 9.66478 30.8975 9.72837C30.7692 9.79195 30.641 9.91912 30.5769 10.1099C30.5128 10.237 30.5128 10.3006 30.5128 10.4278C30.5128 10.4914 30.5128 10.6185 30.5128 10.6821C30.5128 10.7457 30.5769 10.8093 30.5769 10.9365C30.641 11 30.641 11.0636 30.7051 11.1272L30.3205 11.8902C30.2564 11.8266 30.1923 11.763 30.1282 11.763C30.0641 11.6995 30.0641 11.6359 30 11.6359L29.6795 11.9538C29.7436 12.0174 29.7436 12.081 29.8077 12.1446C29.8718 12.2081 30 12.2717 30.0641 12.3353L29.9359 12.6532L30.2564 12.844L30.3846 12.5261C30.5769 12.5896 30.7051 12.5261 30.8975 12.4625C31.0257 12.3989 31.1539 12.2717 31.2821 12.081C31.218 11.6995 31.2821 11.6359 31.2821 11.5723ZM30.8333 12.081C30.7051 12.1446 30.5769 12.1446 30.3846 12.1446H30.3205L30.1923 12.4625L30 12.3989L30.1282 12.081L30.0641 12.0174C29.9359 11.9538 29.8718 11.8902 29.8077 11.8266L29.7436 11.763L29.8077 11.6995L29.8718 11.763C29.9359 11.8266 30 11.8902 30.0641 11.8902L30.1282 11.9538L30.641 10.8729C30.641 10.8729 30.5128 10.6821 30.5128 10.6185C30.4487 10.555 30.4487 10.4914 30.4487 10.4278C30.4487 10.3642 30.4487 10.3006 30.4487 10.237C30.4487 10.1735 30.4487 10.1099 30.5128 10.0463C30.5769 9.91912 30.641 9.85553 30.7692 9.79195C30.8975 9.72837 31.0257 9.72837 31.1539 9.79195H31.218L31.3462 9.47403L31.5385 9.53761L31.4103 9.85553L31.4744 9.91912C31.5385 9.9827 31.6026 9.9827 31.6667 10.0463C31.6667 10.0463 31.7308 10.0463 31.7308 10.1099L31.6667 10.1735L31.6026 10.1099C31.5385 10.0463 31.5385 10.0463 31.4744 9.9827L31.4103 9.91912L30.8975 10.9365L30.9616 11C31.0257 11.0636 31.0257 11.1272 31.0898 11.1908C31.1539 11.2544 31.1539 11.318 31.1539 11.3815C31.1539 11.4451 31.1539 11.5087 31.1539 11.5723C31.1539 11.6359 31.1539 11.6995 31.0898 11.763C31.0257 11.9538 30.9616 12.0174 30.8333 12.081Z" fill="#F5D5A4"/>
<path d="M15.5128 20.4104L5 6.61274L12.6282 0.890198L23.141 14.6879L15.5128 20.4104Z" fill="url(#paint4_linear)"/>
<path d="M12.5641 2.16187L6.28204 6.86707L15.641 19.1387L21.9231 14.4335L12.5641 2.16187ZM16.4744 17.3584C16.1538 16.9769 15.641 16.9133 15.2564 17.1676C15.1923 17.1676 15.1923 17.2312 15.1923 17.2312L7.94871 7.69366C8.01281 7.69366 8.01281 7.63007 8.07692 7.63007C8.46153 7.31215 8.52563 6.80348 8.26922 6.42198C8.26922 6.3584 8.20512 6.3584 8.20512 6.3584L11.6026 3.81504C11.6026 3.87863 11.6667 3.87863 11.6667 3.94221C11.9872 4.32371 12.5 4.3873 12.8846 4.13296C12.9487 4.13296 12.9487 4.06938 12.9487 4.06938L20.1923 13.6069C20.1282 13.6069 20.1282 13.6705 20.0641 13.6705C19.6795 13.9885 19.6154 14.4971 19.8718 14.8786C19.8718 14.9422 19.9359 14.9422 19.9359 14.9422L16.4744 17.5491C16.5385 17.4856 16.5385 17.422 16.4744 17.3584Z" fill="#81BC00"/>
<path d="M13.8462 11.3815C13.8462 11.2543 13.8462 11.1272 13.782 11L13.0128 11.5723C13.141 11.6994 13.2692 11.763 13.3333 11.763C13.4615 11.763 13.5897 11.763 13.6538 11.6358C13.782 11.5723 13.8462 11.5087 13.8462 11.3815Z" fill="#81BC00"/>
<path d="M14.5513 9.72836C14.4872 9.79195 14.4231 9.85553 14.4231 9.9827C14.4231 10.1099 14.4231 10.237 14.4231 10.3642L15.1282 9.79195C15 9.66478 14.9359 9.6012 14.8077 9.6012C14.7436 9.6012 14.6795 9.66478 14.5513 9.72836Z" fill="#81BC00"/>
<path d="M16.3462 9.02893C15.3846 7.75725 13.5898 7.5665 12.3718 8.45667C11.0898 9.41043 10.8333 11.1908 11.7949 12.3989C12.7564 13.6705 14.5513 13.9249 15.7692 12.9711C17.0513 12.0174 17.3077 10.237 16.3462 9.02893ZM13.3974 12.4625C13.141 12.4625 12.8846 12.3353 12.6923 12.1445L12.3077 12.4625L11.9872 12.0174L12.3718 11.6994C12.2436 11.5087 12.1795 11.3815 12.1154 11.1908C12.0513 11.0636 11.9872 10.9364 11.9872 10.8093L12.6282 10.6185C12.6282 10.6821 12.6923 10.8093 12.6923 10.9364C12.7564 11.0636 12.8205 11.1908 12.8846 11.3179L13.7821 10.6185C13.7821 10.4914 13.718 10.3642 13.718 10.237C13.718 10.1099 13.718 9.98269 13.718 9.85552C13.718 9.72835 13.7821 9.60118 13.8462 9.47401C13.9103 9.34685 14.0385 9.21968 14.1667 9.1561C14.4231 8.96534 14.6795 8.90176 14.9359 8.90176C15.1923 8.90176 15.3846 9.02893 15.641 9.21968L16.0257 8.90176L16.3462 9.34685L15.9616 9.66477C16.0257 9.79193 16.0898 9.9191 16.1539 10.0463C16.218 10.1734 16.218 10.3006 16.2821 10.3642L15.641 10.5549C15.641 10.4914 15.5769 10.4278 15.5769 10.3006C15.5128 10.237 15.5128 10.1099 15.4487 9.98269L14.6154 10.6185C14.6154 10.7457 14.6795 10.8729 14.6795 11C14.6795 11.1272 14.6795 11.2544 14.6795 11.3815C14.6795 11.5087 14.6154 11.6359 14.5513 11.763C14.4872 11.8902 14.4231 12.0174 14.2308 12.081C13.9103 12.3989 13.6539 12.4625 13.3974 12.4625Z" fill="#81BC00"/>
<path d="M16.2821 24.9248L0 18.6936L3.39744 9.85547L19.7436 16.0231L16.2821 24.9248Z" fill="url(#paint5_linear)"/>
<path d="M4.0385 11L1.21799 18.2486L15.7052 23.7168L18.5257 16.4682L4.0385 11ZM15.5129 21.8092C15.0641 21.6185 14.5513 21.8728 14.359 22.3179C14.359 22.3815 14.359 22.3815 14.2949 22.4451L3.14106 18.185C3.14106 18.1214 3.20517 18.1214 3.20517 18.0578C3.39747 17.6127 3.14106 17.104 2.69235 16.9133C2.62824 16.9133 2.62824 16.9133 2.56414 16.8497L4.1026 12.8439C4.1667 12.8439 4.1667 12.9075 4.23081 12.9075C4.67953 13.0983 5.19235 12.8439 5.38465 12.3988C5.38465 12.3353 5.38465 12.3353 5.44876 12.2717L16.6026 16.5318C16.6026 16.5954 16.5385 16.5954 16.5385 16.659C16.3462 17.104 16.6026 17.6127 17.0513 17.8035C17.1154 17.8035 17.1154 17.8035 17.1795 17.8671L15.6411 21.8728C15.577 21.8092 15.577 21.8092 15.5129 21.8092Z" fill="#81BC00"/>
<path d="M10.0641 18.0577C9.99997 17.9306 9.93587 17.867 9.80766 17.7398L9.48715 18.63C9.61536 18.6936 9.80766 18.6936 9.87177 18.63C9.99997 18.5664 10.0641 18.5028 10.1282 18.3756C10.1282 18.3121 10.1282 18.1849 10.0641 18.0577Z" fill="#81BC00"/>
<path d="M9.8077 16.2774C9.74359 16.4046 9.8077 16.4682 9.8077 16.5954C9.8718 16.7225 9.9359 16.7861 10.0641 16.9133L10.3846 16.0867C10.1923 16.0231 10.0641 16.0231 10 16.0867C9.8718 16.0867 9.8077 16.2139 9.8077 16.2774Z" fill="#81BC00"/>
<path d="M10.9615 14.7514C9.48716 14.1791 7.82049 14.9421 7.30767 16.4046C6.73075 17.867 7.49998 19.5202 8.97434 20.0289C10.4487 20.6011 12.1154 19.8381 12.6282 18.3757C13.141 16.9132 12.3718 15.3237 10.9615 14.7514ZM10.2564 19.2658C9.99998 19.393 9.74357 19.393 9.48716 19.3294L9.29485 19.8381L8.78203 19.6473L8.97434 19.2023C8.78203 19.1387 8.58972 19.0115 8.46152 18.9479C8.33331 18.8843 8.20511 18.7572 8.14101 18.6936L8.58972 18.1849C8.65383 18.2485 8.71793 18.3121 8.78203 18.3757C8.91024 18.4393 8.97434 18.5028 9.16665 18.63L9.55126 17.6127C9.48716 17.5491 9.35895 17.4219 9.29485 17.3583C9.23075 17.2312 9.16665 17.1676 9.10254 17.0404C9.03844 16.9132 9.03844 16.7861 9.03844 16.6589C9.03844 16.5317 9.03844 16.4046 9.10254 16.2138C9.23075 15.8959 9.35895 15.7052 9.61537 15.6416C9.80767 15.5144 10.0641 15.5144 10.3846 15.578L10.5769 15.1329L11.0897 15.3237L10.8974 15.6416C11.0256 15.7052 11.1538 15.7687 11.282 15.8323C11.4102 15.8959 11.4743 15.9595 11.5384 16.0867L11.1538 16.5317C11.0897 16.4682 11.0256 16.4046 10.9615 16.341C10.8974 16.2774 10.7692 16.2138 10.7051 16.1502L10.3205 17.1676C10.3846 17.2312 10.5128 17.3583 10.5769 17.4855C10.641 17.6127 10.7051 17.6763 10.7692 17.8034C10.8333 17.9306 10.8333 18.0578 10.8333 18.1849C10.8333 18.3121 10.8333 18.4393 10.7692 18.63C10.641 18.8843 10.5128 19.1387 10.2564 19.2658Z" fill="#81BC00"/>
<path d="M6.73078 19.9017C4.87181 21.1734 4.42309 23.7168 5.76924 25.4971C7.05129 27.341 9.61539 27.7861 11.4744 26.4509C13.3333 25.1792 13.7821 22.6358 12.4359 20.8555C11.1539 19.0751 8.58975 18.6301 6.73078 19.9017Z" fill="url(#paint6_linear)"/>
<path d="M12.4372 20.8555C13.7192 22.6994 13.3346 25.1792 11.4756 26.4509C9.61665 27.7861 7.05255 27.341 5.7705 25.4971C4.48845 23.6532 4.87306 21.1734 6.73204 19.9017C8.59101 18.6301 11.1551 19.0751 12.4372 20.8555Z" fill="#FFB82B"/>
<path d="M11.3461 26.3237C9.55126 27.5954 7.05126 27.1503 5.70511 25.4335C5.70511 25.4335 5.70511 25.4971 5.76921 25.4971C7.05126 27.3411 9.61536 27.7861 11.4743 26.4509C13.3333 25.1792 13.782 22.6359 12.4359 20.8555L12.3718 20.7919C13.5897 22.6359 13.141 25.052 11.3461 26.3237Z" fill="#F5D5A4"/>
<path d="M6.85899 20.094C8.65386 18.8223 11.1539 19.2674 12.5 20.9842C12.5 20.9842 12.5 20.9206 12.4359 20.9206C11.1539 19.0767 8.58975 18.6316 6.73078 19.9669C4.87181 21.2385 4.42309 23.7819 5.76924 25.5622C5.76924 25.6258 5.83334 25.6258 5.83334 25.6894C4.6154 23.7819 5.06411 21.3657 6.85899 20.094Z" fill="#FFB82B"/>
<path d="M11.7308 21.3641C12.7564 22.8266 12.4359 24.7977 10.9615 25.815C9.48718 26.8323 7.43589 26.4508 6.41025 25.052C5.38461 23.5896 5.70512 21.6185 7.17948 20.6011C8.65384 19.5838 10.7051 19.9017 11.7308 21.3641Z" fill="url(#paint7_linear)"/>
<path d="M10.8975 25.6878C9.4872 26.7052 7.50002 26.3872 6.41028 24.9884C6.41028 24.9884 6.41028 25.052 6.47438 25.052C7.50002 26.5144 9.5513 26.8323 11.0257 25.815C12.5 24.7976 12.8205 22.8265 11.7949 21.3641L11.7308 21.3005C12.6923 22.763 12.3077 24.6705 10.8975 25.6878Z" fill="#F5D5A4"/>
<path d="M10.5128 25.1792C9.80771 25.6879 8.84617 25.7514 8.07694 25.3064C7.69232 25.1156 7.37181 24.8613 7.1795 24.5434C6.41027 23.4624 6.60258 22 7.62822 21.3006C8.71796 20.5376 10.1923 20.7919 11.0257 21.9364C11.7949 22.9538 11.6026 24.4162 10.5128 25.1792Z" fill="#F5D5A4"/>
<path d="M10.9615 21.9364C11.6667 22.9538 11.4102 24.3526 10.4487 25.052C9.42306 25.7515 8.01281 25.4971 7.30768 24.4798C6.60255 23.4625 6.85896 22.0636 7.8205 21.3642C8.78204 20.6648 10.1923 20.9191 10.9615 21.9364Z" fill="#FFD336"/>
<path d="M11.0257 22C11.0257 22 10.9616 22 11.0257 22C11.5385 22.8902 11.218 24.1618 10.2564 24.7977C9.29489 25.4971 8.01284 25.3699 7.30771 24.5434C8.07694 25.4335 9.42309 25.6879 10.3846 24.9884C11.4103 24.3526 11.6667 23.0173 11.0257 22Z" fill="#F5D5A4"/>
<path d="M7.88465 21.4913C8.91029 20.7919 10.2564 21.0463 10.9616 21.9364C10.9616 21.9364 10.9616 21.8728 10.8975 21.8728C10.1923 20.8555 8.78208 20.6012 7.75644 21.3642C6.7308 22.0636 6.47439 23.4624 7.24362 24.4798L7.30772 24.5434C6.6667 23.526 6.85901 22.1908 7.88465 21.4913Z" fill="#FFB82B"/>
<path d="M8.91026 21.9364L8.58974 21.4913C7.82051 22.0636 7.5641 22.763 7.88461 23.4624L7.6282 23.6532L7.75641 23.8439L7.94872 23.7168L8.01282 23.7803C8.01282 23.8439 8.07692 23.8439 8.14102 23.9075L7.94872 24.0347L8.20513 24.3526L8.46154 24.1618C9.03846 24.5434 9.74359 24.4798 10.4487 23.9711L10.0641 23.526C9.67949 23.8439 9.35897 23.9075 9.03846 23.7168L9.67949 23.2081L9.42308 22.8902L8.65385 23.3988C8.58974 23.3353 8.58974 23.3353 8.52564 23.2717L8.46154 23.2081L9.23077 22.6358L9.10256 22.4451L8.39744 22.9538C8.26923 22.6358 8.39743 22.3179 8.91026 21.9364Z" fill="url(#paint8_linear)"/>
<path d="M8.91026 21.9364L8.58974 21.4913C7.82051 22.0636 7.5641 22.763 7.88461 23.4624L7.6282 23.6532L7.75641 23.8439L7.94872 23.7168L8.01282 23.7803C8.01282 23.8439 8.07692 23.8439 8.14102 23.9075L7.94872 24.0347L8.20513 24.3526L8.46154 24.1618C9.03846 24.5434 9.74359 24.4798 10.4487 23.9711L10.0641 23.526C9.67949 23.8439 9.35897 23.9075 9.03846 23.7168L9.67949 23.2081L9.42308 22.8902L8.65385 23.3988C8.58974 23.3353 8.58974 23.3353 8.52564 23.2717L8.46154 23.2081L9.23077 22.6358L9.10256 22.4451L8.39744 22.9538C8.26923 22.6358 8.39743 22.3179 8.91026 21.9364ZM8.33333 23.0809L8.39744 23.2081C8.39744 23.2081 8.52564 23.3353 8.52564 23.3988C8.52564 23.4624 8.58974 23.4624 8.58974 23.526L8.65385 23.5896L8.78205 23.526L9.42308 23.0809L9.48718 23.2081L8.71795 23.7168L8.91026 23.8439C9.23077 24.0347 9.55128 23.9711 9.9359 23.7168L10.1282 23.9711C9.48718 24.3526 8.91026 24.4162 8.46154 24.0347L8.39744 23.9711L8.20513 24.1618L8.14102 24.0347L8.39744 23.8439L8.33333 23.7168C8.26923 23.6532 8.26923 23.6532 8.26923 23.5896L8.07692 23.526H8.01282L8.07692 23.4624L8.01282 23.3353C7.6282 22.5723 8.07692 22 8.52564 21.6185L8.71795 21.8728C8.26923 22.2543 8.14102 22.6358 8.33333 23.0809Z" fill="#F5D5A4"/>
<path d="M40 31.5376C40 32.3641 39.3589 33 38.5256 33H12.7564C11.923 33 11.282 32.3641 11.282 31.5376V15.0058C11.282 14.1792 11.923 13.5433 12.7564 13.5433H38.5256C39.3589 13.5433 40 14.1792 40 15.0058V31.5376Z" fill="url(#paint9_linear)"/>
<path d="M16.5384 20.0289C16.4743 20.0925 16.3461 20.1561 16.1538 20.1561C16.0256 20.1561 15.8333 20.2197 15.7051 20.2197C15.5128 20.2197 15.3205 20.2197 15.1923 20.1561C15 20.0925 14.8718 20.0289 14.7435 19.9017C14.6153 19.7746 14.4871 19.5838 14.423 19.3931C14.3589 19.2023 14.2948 18.948 14.2948 18.6301C14.2948 18.3121 14.3589 18.0578 14.423 17.8671C14.4871 17.6763 14.6153 17.4856 14.7435 17.3584C14.8718 17.2312 15 17.1676 15.1923 17.1041C15.3846 17.0405 15.5128 17.0405 15.7051 17.0405C15.8974 17.0405 16.0256 17.0405 16.1538 17.1041C16.282 17.1041 16.4102 17.1676 16.4743 17.1676L16.3461 17.6763C16.282 17.6127 16.2179 17.6127 16.0897 17.6127C16.0256 17.6127 15.8974 17.6127 15.7692 17.6127C15.5128 17.6127 15.3205 17.6763 15.1923 17.8671C15.0641 18.0578 14.9359 18.3121 14.9359 18.6936C14.9359 18.8844 14.9359 19.0116 15 19.1387C15.0641 19.2659 15.0641 19.3931 15.1923 19.4567C15.2564 19.5202 15.3846 19.6474 15.4487 19.6474C15.5769 19.711 15.7051 19.711 15.8333 19.711C15.9615 19.711 16.0897 19.711 16.1538 19.6474C16.2179 19.6474 16.3461 19.5838 16.4102 19.5202L16.5384 20.0289Z" fill="url(#paint10_linear)"/>
<path d="M18.6538 18.8844H17.5V20.1561H16.8589V17.0405H17.5V18.3121H18.6538V17.0405H19.2948V20.1561H18.6538V18.8844Z" fill="url(#paint11_linear)"/>
<path d="M19.8076 17.0405H21.6666V17.5491H20.4486V18.2486H21.6025V18.7572H20.4486V19.5202H21.7307V20.0289H19.8717V17.0405H19.8076Z" fill="url(#paint12_linear)"/>
<path d="M24.2307 20.0289C24.1666 20.0925 24.0384 20.1561 23.8461 20.1561C23.7179 20.1561 23.5256 20.2197 23.3974 20.2197C23.2051 20.2197 23.0128 20.2197 22.8846 20.1561C22.6923 20.0925 22.564 20.0289 22.4358 19.9017C22.3076 19.7746 22.1794 19.5838 22.1153 19.3931C22.0512 19.2023 21.9871 18.948 21.9871 18.6301C21.9871 18.3121 22.0512 18.0578 22.1153 17.8671C22.1794 17.6763 22.3076 17.4856 22.4358 17.3584C22.564 17.2312 22.6923 17.1676 22.8846 17.1041C23.0769 17.0405 23.2051 17.0405 23.3974 17.0405C23.5897 17.0405 23.7179 17.0405 23.8461 17.1041C23.9743 17.1041 24.0384 17.1676 24.1666 17.1676L24.0384 17.6763C23.9743 17.6127 23.9102 17.6127 23.782 17.6127C23.7179 17.6127 23.5897 17.6127 23.4615 17.6127C23.2051 17.6127 23.0128 17.6763 22.8846 17.8671C22.7564 18.0578 22.6281 18.3121 22.6281 18.6936C22.6281 18.8844 22.6281 19.0116 22.6923 19.1387C22.7564 19.2659 22.7564 19.3931 22.8846 19.4567C22.9487 19.5202 23.0769 19.6474 23.141 19.6474C23.2692 19.711 23.3974 19.711 23.5256 19.711C23.6538 19.711 23.782 19.711 23.8461 19.6474C23.9102 19.6474 24.0384 19.5838 24.1025 19.5202L24.2307 20.0289Z" fill="url(#paint13_linear)"/>
<path d="M25.3846 18.8208H25.2564V20.1561H24.6153V17.0405H25.2564V18.4393L25.3846 18.3757L26.2179 17.0405H26.923L26.0256 18.3121L25.7692 18.5029L26.0256 18.6936L27.0512 20.1561H26.282L25.3846 18.8208Z" fill="url(#paint14_linear)"/>
<path d="M27.1795 21.9999H14.1025V22.8265H27.1795V21.9999Z" fill="url(#paint15_linear)"/>
<path d="M37.5641 21.9999H29.423V22.8265H37.5641V21.9999Z" fill="url(#paint16_linear)"/>
<path d="M27.5 27.2139H14.1025V28.0405H27.5V27.2139Z" fill="url(#paint17_linear)"/>
<path d="M27.5 29.1849H14.1025V30.0115H27.5V29.1849Z" fill="url(#paint18_linear)"/>
<path d="M31.0256 23.7803H14.1025V24.6069H31.0256V23.7803Z" fill="url(#paint19_linear)"/>
<path d="M37.5641 23.7803H32.4359V24.6069H37.5641V23.7803Z" fill="url(#paint20_linear)"/>
<path d="M27.5 27.2139H14.1025V28.0405H27.5V27.2139Z" fill="url(#paint21_linear)"/>
<path d="M37.5641 23.7803H32.4359V24.6069H37.5641V23.7803Z" fill="url(#paint22_linear)"/>
<path d="M36.7307 26.2601H30.3205H29.4871V27.0867V29.1849V30.0115H30.3205H36.7307H37.564V29.1849V27.0867V26.2601H36.7307ZM36.7307 29.1849H30.3205V27.0867H36.7307V29.1849Z" fill="url(#paint23_linear)"/>
<path d="M36.7307 26.2601H30.3205H29.4871V27.0867V29.1849V30.0115H30.3205H36.7307H37.564V29.1849V27.0867V26.2601H36.7307ZM36.7307 29.1849H30.3205V27.0867H36.7307V29.1849Z" fill="url(#paint24_linear)"/>
<path d="M23.8473 9.28457C22.373 9.72965 21.6037 11.3193 22.0524 12.7817C22.5653 14.2441 24.1678 15.0707 25.6422 14.562C27.1165 14.1169 27.9499 12.5273 27.4371 11.0649C26.9242 9.60249 25.3217 8.83948 23.8473 9.28457Z" fill="url(#paint25_linear)"/>
<path d="M27.436 11.0656C27.9488 12.5281 27.1154 14.1177 25.6411 14.5628C24.1667 15.0714 22.5642 14.2448 22.0513 12.7824C21.5385 11.32 22.3718 9.73039 23.8462 9.2853C25.3206 8.84021 26.9231 9.60322 27.436 11.0656Z" fill="#FFB82B"/>
<path d="M25.577 14.4336C24.1026 14.8787 22.5642 14.1157 22.0513 12.7168V12.7804C22.5642 14.2428 24.1667 15.0694 25.6411 14.5608C27.1154 14.1157 27.9488 12.5261 27.4359 11.0636V11.0001C27.8206 12.4625 27.0513 13.9885 25.577 14.4336Z" fill="#F5D5A4"/>
<path d="M23.9114 9.41043C25.3858 8.96534 26.9242 9.72835 27.4371 11.1272V11.0636C26.9242 9.60118 25.3217 8.77459 23.8473 9.28326C22.373 9.72835 21.6037 11.3179 22.0524 12.7804C22.0524 12.7804 22.0524 12.844 22.1165 12.844C21.6678 11.4451 22.4371 9.9191 23.9114 9.41043Z" fill="#FFB82B"/>
<path d="M26.859 11.2543C27.2436 12.3988 26.6026 13.6705 25.4488 14.052C24.2949 14.4335 23.0129 13.7977 22.6283 12.6532C22.2437 11.5087 22.8847 10.237 24.0385 9.85548C25.1924 9.47398 26.4744 10.1098 26.859 11.2543Z" fill="url(#paint26_linear)"/>
<path d="M25.4488 13.9249C24.295 14.3064 23.077 13.6706 22.6283 12.5896V12.6532C23.0129 13.7977 24.295 14.4336 25.4488 14.0521C26.6027 13.6706 27.2437 12.4625 26.8591 11.2544C26.8591 11.2544 26.8591 11.2544 26.8591 11.1908C27.1796 12.3353 26.6027 13.5434 25.4488 13.9249Z" fill="#F5D5A4"/>
<path d="M25.2565 13.5434C24.6795 13.7341 24.0385 13.607 23.6539 13.1619C23.4616 12.9711 23.2693 12.7168 23.2052 12.4625C22.8847 11.5723 23.3334 10.6821 24.1667 10.4278C25.0641 10.1735 25.9616 10.6185 26.2821 11.5087C26.6026 12.3353 26.1539 13.2255 25.2565 13.5434Z" fill="#F5D5A4"/>
<path d="M26.218 11.4451C26.4744 12.2717 26.0257 13.0983 25.2565 13.3526C24.4231 13.6069 23.5898 13.1619 23.2693 12.3989C23.0129 11.5723 23.4616 10.7457 24.2308 10.4913C25.0641 10.237 25.9616 10.6821 26.218 11.4451Z" fill="#FFD336"/>
<path d="M26.218 11.5087C26.4103 12.2082 25.9616 12.9712 25.1923 13.2255C24.4231 13.4798 23.5898 13.1619 23.3334 12.4625C23.6539 13.2255 24.4872 13.607 25.2565 13.3527C26.0257 13.1619 26.4744 12.3353 26.218 11.5087Z" fill="#F5D5A4"/>
<path d="M24.2949 10.6185C25.0642 10.3641 25.9616 10.7456 26.218 11.5722V11.5086C25.9616 10.6821 25.0642 10.237 24.2308 10.5549C23.3975 10.8092 22.9488 11.6994 23.2693 12.4624V12.526C23.077 11.6994 23.5257 10.8728 24.2949 10.6185Z" fill="#FFB82B"/>
<path d="M24.8718 11.0636L24.7436 10.6821C24.1026 10.8728 23.7821 11.3179 23.9103 11.8266L23.718 11.9537L23.7821 12.1445L23.9744 12.0809V12.1445C23.9744 12.2081 23.9744 12.2081 24.0385 12.2717L23.8462 12.3352L23.9103 12.5896L24.1667 12.526C24.4231 12.9075 24.9359 12.9711 25.5129 12.7803L25.3847 12.3988C25.0641 12.526 24.8077 12.4624 24.6795 12.3352L25.1923 12.1445L25.1282 11.8902L24.4872 12.0809C24.4872 12.0173 24.4872 12.0173 24.4231 11.9537V11.8902L25.0641 11.6994L25 11.5087L24.359 11.6994C24.2949 11.3815 24.4872 11.1907 24.8718 11.0636Z" fill="url(#paint27_linear)"/>
<path d="M24.8718 11.0636L24.7436 10.6821C24.1026 10.8728 23.7821 11.3179 23.9103 11.8266L23.718 11.9537L23.7821 12.1445L23.9744 12.0809V12.1445C23.9744 12.2081 23.9744 12.2081 24.0385 12.2717L23.8462 12.3352L23.9103 12.5896L24.1667 12.526C24.4231 12.9075 24.9359 12.9711 25.5129 12.7803L25.3847 12.3988C25.0641 12.526 24.8077 12.4624 24.6795 12.3352L25.1923 12.1445L25.1282 11.8902L24.4872 12.0809C24.4872 12.0173 24.4872 12.0173 24.4231 11.9537V11.8902L25.0641 11.6994L25 11.5087L24.359 11.6994C24.2949 11.3815 24.4872 11.1907 24.8718 11.0636ZM24.2949 11.6994V11.8266L24.359 11.9537C24.359 12.0173 24.359 12.0173 24.4231 12.0173L24.4872 12.0809H24.5513L25.0641 11.8902V11.9537L24.4872 12.1445L24.6154 12.2717C24.8077 12.4624 25 12.4624 25.3205 12.3988L25.3847 12.5896C24.8718 12.7167 24.4872 12.6532 24.2308 12.3352L24.1667 12.2717L23.9744 12.3352V12.2717L24.1667 12.2081L24.1026 12.1445C24.1026 12.1445 24.1026 12.0809 24.0385 12.0173L23.9744 11.8902H23.9103H23.9744V11.8266C23.9103 11.2543 24.2949 10.9364 24.6795 10.8092L24.7436 11C24.359 11.1907 24.2308 11.3815 24.2949 11.6994Z" fill="#F5D5A4"/>
<defs>
<linearGradient id="paint0_linear" x1="22.2507" y1="17.005" x2="22.2511" y2="0.722875" gradientUnits="userSpaceOnUse">
<stop stop-color="#5EA814"/>
<stop offset="0.351" stop-color="#62A914"/>
<stop offset="0.6685" stop-color="#6DAD12"/>
<stop offset="0.9721" stop-color="#7FB410"/>
<stop offset="1" stop-color="#81B510"/>
</linearGradient>
<linearGradient id="paint1_linear" x1="27.2202" y1="9.29378" x2="34.3047" y2="12.6753" gradientUnits="userSpaceOnUse">
<stop stop-color="#DD3F18"/>
<stop offset="0.4157" stop-color="#E74A1B"/>
<stop offset="1" stop-color="#FD6120"/>
</linearGradient>
<linearGradient id="paint2_linear" x1="29.4402" y1="13.7542" x2="32.0684" y2="8.15764" gradientUnits="userSpaceOnUse">
<stop stop-color="#FF7B00"/>
<stop offset="0.0241918" stop-color="#FF7D01"/>
<stop offset="0.6742" stop-color="#FFAB0F"/>
<stop offset="1" stop-color="#FFBD14"/>
</linearGradient>
<linearGradient id="paint3_linear" x1="30.0174" y1="12.5483" x2="31.5126" y2="9.36438" gradientUnits="userSpaceOnUse">
<stop stop-color="#FF7B00"/>
<stop offset="0.0241918" stop-color="#FF7D01"/>
<stop offset="0.6742" stop-color="#FFAB0F"/>
<stop offset="1" stop-color="#FFBD14"/>
</linearGradient>
<linearGradient id="paint4_linear" x1="19.1333" y1="17.3098" x2="9.34268" y2="4.23969" gradientUnits="userSpaceOnUse">
<stop stop-color="#5EA814"/>
<stop offset="0.351" stop-color="#62A914"/>
<stop offset="0.6685" stop-color="#6DAD12"/>
<stop offset="0.9721" stop-color="#7FB410"/>
<stop offset="1" stop-color="#81B510"/>
</linearGradient>
<linearGradient id="paint5_linear" x1="17.7236" y1="20.3344" x2="2.41174" y2="14.4626" gradientUnits="userSpaceOnUse">
<stop stop-color="#5EA814"/>
<stop offset="0.351" stop-color="#62A914"/>
<stop offset="0.6685" stop-color="#6DAD12"/>
<stop offset="0.9721" stop-color="#7FB410"/>
<stop offset="1" stop-color="#81B510"/>
</linearGradient>
<linearGradient id="paint6_linear" x1="5.78018" y1="25.5612" x2="12.3661" y2="20.7783" gradientUnits="userSpaceOnUse">
<stop stop-color="#DD3F18"/>
<stop offset="0.4157" stop-color="#E74A1B"/>
<stop offset="1" stop-color="#FD6120"/>
</linearGradient>
<linearGradient id="paint7_linear" x1="10.981" y1="25.7977" x2="7.24456" y2="20.5685" gradientUnits="userSpaceOnUse">
<stop stop-color="#FF7B00"/>
<stop offset="0.0241918" stop-color="#FF7D01"/>
<stop offset="0.6742" stop-color="#FFAB0F"/>
<stop offset="1" stop-color="#FFBD14"/>
</linearGradient>
<linearGradient id="paint8_linear" x1="7.70814" y1="22.8118" x2="10.5444" y2="23.2766" gradientUnits="userSpaceOnUse">
<stop stop-color="#FFBD14"/>
<stop offset="0.0523943" stop-color="#FFB612"/>
<stop offset="0.2728" stop-color="#FF9C0A"/>
<stop offset="0.5004" stop-color="#FF8A04"/>
<stop offset="0.7377" stop-color="#FF7F01"/>
<stop offset="1" stop-color="#FF7B00"/>
</linearGradient>
<linearGradient id="paint9_linear" x1="25.6378" y1="33.03" x2="25.6378" y2="13.5419" gradientUnits="userSpaceOnUse">
<stop stop-color="#CDEFFA"/>
<stop offset="0.3056" stop-color="#D2F0FA"/>
<stop offset="0.6461" stop-color="#DFF3FA"/>
<stop offset="1" stop-color="#F5F9FA"/>
</linearGradient>
<linearGradient id="paint10_linear" x1="15.4162" y1="20.7884" x2="15.4162" y2="1.31747" gradientUnits="userSpaceOnUse">
<stop stop-color="#062A54"/>
<stop offset="0.2719" stop-color="#072C58"/>
<stop offset="0.5179" stop-color="#083263"/>
<stop offset="0.7539" stop-color="#0B3C75"/>
<stop offset="0.9825" stop-color="#104B8F"/>
<stop offset="1" stop-color="#104C91"/>
</linearGradient>
<linearGradient id="paint11_linear" x1="18.0764" y1="24.0538" x2="18.0764" y2="6.5354" gradientUnits="userSpaceOnUse">
<stop stop-color="#062A54"/>
<stop offset="0.2719" stop-color="#072C58"/>
<stop offset="0.5179" stop-color="#083263"/>
<stop offset="0.7539" stop-color="#0B3C75"/>
<stop offset="0.9825" stop-color="#104B8F"/>
<stop offset="1" stop-color="#104C91"/>
</linearGradient>
<linearGradient id="paint12_linear" x1="20.7268" y1="29.8635" x2="20.7268" y2="7.75692" gradientUnits="userSpaceOnUse">
<stop stop-color="#062A54"/>
<stop offset="0.2719" stop-color="#072C58"/>
<stop offset="0.5179" stop-color="#083263"/>
<stop offset="0.7539" stop-color="#0B3C75"/>
<stop offset="0.9825" stop-color="#104B8F"/>
<stop offset="1" stop-color="#104C91"/>
</linearGradient>
<linearGradient id="paint13_linear" x1="23.1194" y1="32.005" x2="23.1194" y2="12.534" gradientUnits="userSpaceOnUse">
<stop stop-color="#062A54"/>
<stop offset="0.2719" stop-color="#072C58"/>
<stop offset="0.5179" stop-color="#083263"/>
<stop offset="0.7539" stop-color="#0B3C75"/>
<stop offset="0.9825" stop-color="#104B8F"/>
<stop offset="1" stop-color="#104C91"/>
</linearGradient>
<linearGradient id="paint14_linear" x1="25.8222" y1="33.6602" x2="25.8222" y2="16.7491" gradientUnits="userSpaceOnUse">
<stop stop-color="#062A54"/>
<stop offset="0.2719" stop-color="#072C58"/>
<stop offset="0.5179" stop-color="#083263"/>
<stop offset="0.7539" stop-color="#0B3C75"/>
<stop offset="0.9825" stop-color="#104B8F"/>
<stop offset="1" stop-color="#104C91"/>
</linearGradient>
<linearGradient id="paint15_linear" x1="20.607" y1="22.864" x2="20.607" y2="22.0208" gradientUnits="userSpaceOnUse">
<stop stop-color="#B0CCD6"/>
<stop offset="0.0437067" stop-color="#B4D0D9"/>
<stop offset="0.2378" stop-color="#C1DBE3"/>
<stop offset="0.4888" stop-color="#C9E1E9"/>
<stop offset="1" stop-color="#CBE3EB"/>
</linearGradient>
<linearGradient id="paint16_linear" x1="33.5007" y1="22.8634" x2="33.5007" y2="22.0208" gradientUnits="userSpaceOnUse">
<stop stop-color="#B0CCD6"/>
<stop offset="0.0437067" stop-color="#B4D0D9"/>
<stop offset="0.2378" stop-color="#C1DBE3"/>
<stop offset="0.4888" stop-color="#C9E1E9"/>
<stop offset="1" stop-color="#CBE3EB"/>
</linearGradient>
<linearGradient id="paint17_linear" x1="20.7672" y1="28.06" x2="20.7672" y2="27.2169" gradientUnits="userSpaceOnUse">
<stop stop-color="#B0CCD6"/>
<stop offset="0.0437067" stop-color="#B4D0D9"/>
<stop offset="0.2378" stop-color="#C1DBE3"/>
<stop offset="0.4888" stop-color="#C9E1E9"/>
<stop offset="1" stop-color="#CBE3EB"/>
</linearGradient>
<linearGradient id="paint18_linear" x1="20.7672" y1="30.0253" x2="20.7672" y2="29.1821" gradientUnits="userSpaceOnUse">
<stop stop-color="#B0CCD6"/>
<stop offset="0.0437067" stop-color="#B4D0D9"/>
<stop offset="0.2378" stop-color="#C1DBE3"/>
<stop offset="0.4888" stop-color="#C9E1E9"/>
<stop offset="1" stop-color="#CBE3EB"/>
</linearGradient>
<linearGradient id="paint19_linear" x1="22.5423" y1="24.6213" x2="22.5423" y2="23.7781" gradientUnits="userSpaceOnUse">
<stop stop-color="#B0CCD6"/>
<stop offset="0.0437067" stop-color="#B4D0D9"/>
<stop offset="0.2378" stop-color="#C1DBE3"/>
<stop offset="0.4888" stop-color="#C9E1E9"/>
<stop offset="1" stop-color="#CBE3EB"/>
</linearGradient>
<linearGradient id="paint20_linear" x1="34.9875" y1="24.6213" x2="34.9875" y2="23.7781" gradientUnits="userSpaceOnUse">
<stop stop-color="#B0CCD6"/>
<stop offset="0.0437067" stop-color="#B4D0D9"/>
<stop offset="0.2378" stop-color="#C1DBE3"/>
<stop offset="0.4888" stop-color="#C9E1E9"/>
<stop offset="1" stop-color="#CBE3EB"/>
</linearGradient>
<linearGradient id="paint21_linear" x1="20.7672" y1="28.06" x2="20.7672" y2="27.2169" gradientUnits="userSpaceOnUse">
<stop stop-color="#B0CCD6"/>
<stop offset="0.0437067" stop-color="#B4D0D9"/>
<stop offset="0.2378" stop-color="#C1DBE3"/>
<stop offset="0.4888" stop-color="#C9E1E9"/>
<stop offset="1" stop-color="#CBE3EB"/>
</linearGradient>
<linearGradient id="paint22_linear" x1="34.9875" y1="24.6213" x2="34.9875" y2="23.7781" gradientUnits="userSpaceOnUse">
<stop stop-color="#B0CCD6"/>
<stop offset="0.0437067" stop-color="#B4D0D9"/>
<stop offset="0.2378" stop-color="#C1DBE3"/>
<stop offset="0.4888" stop-color="#C9E1E9"/>
<stop offset="1" stop-color="#CBE3EB"/>
</linearGradient>
<linearGradient id="paint23_linear" x1="33.5007" y1="30.0253" x2="33.5007" y2="26.2339" gradientUnits="userSpaceOnUse">
<stop stop-color="#B0CCD6"/>
<stop offset="0.0437067" stop-color="#B4D0D9"/>
<stop offset="0.2378" stop-color="#C1DBE3"/>
<stop offset="0.4888" stop-color="#C9E1E9"/>
<stop offset="1" stop-color="#CBE3EB"/>
</linearGradient>
<linearGradient id="paint24_linear" x1="33.5007" y1="30.0253" x2="33.5007" y2="26.2339" gradientUnits="userSpaceOnUse">
<stop stop-color="#B0CCD6"/>
<stop offset="0.0437067" stop-color="#B4D0D9"/>
<stop offset="0.2378" stop-color="#C1DBE3"/>
<stop offset="0.4888" stop-color="#C9E1E9"/>
<stop offset="1" stop-color="#CBE3EB"/>
</linearGradient>
<linearGradient id="paint25_linear" x1="22.0901" y1="12.8394" x2="27.4047" y2="11.0045" gradientUnits="userSpaceOnUse">
<stop stop-color="#DD3F18"/>
<stop offset="0.4157" stop-color="#E74A1B"/>
<stop offset="1" stop-color="#FD6120"/>
</linearGradient>
<linearGradient id="paint26_linear" x1="25.4726" y1="14.0253" x2="24.0505" y2="9.83881" gradientUnits="userSpaceOnUse">
<stop stop-color="#FF7B00"/>
<stop offset="0.0241918" stop-color="#FF7D01"/>
<stop offset="0.6742" stop-color="#FFAB0F"/>
<stop offset="1" stop-color="#FFBD14"/>
</linearGradient>
<linearGradient id="paint27_linear" x1="23.9164" y1="11.4067" x2="25.6892" y2="12.2821" gradientUnits="userSpaceOnUse">
<stop stop-color="#FFBD14"/>
<stop offset="0.0523943" stop-color="#FFB612"/>
<stop offset="0.2728" stop-color="#FF9C0A"/>
<stop offset="0.5004" stop-color="#FF8A04"/>
<stop offset="0.7377" stop-color="#FF7F01"/>
<stop offset="1" stop-color="#FF7B00"/>
</linearGradient>
</defs>
</svg>
