<svg width="18" height="14" viewBox="0 0 18 14" fill="none" xmlns="http://www.w3.org/2000/svg">
<path d="M15.8026 0.150818H2.20112C0.986965 0.150818 0 1.13778 0 2.35194V11.648C0 12.8622 0.986965 13.8491 2.20112 13.8491H15.7989C17.013 13.8491 18 12.8622 18 11.648V2.35566C18.0037 1.14151 17.0168 0.150818 15.8026 0.150818ZM16.9981 11.648C16.9981 12.3072 16.4618 12.8436 15.8026 12.8436H2.20112C1.5419 12.8436 1.00559 12.3072 1.00559 11.648V2.35566C1.00559 1.69644 1.5419 1.16013 2.20112 1.16013H15.7989C16.4581 1.16013 16.9944 1.69644 16.9944 2.35566V11.648H16.9981Z" fill="url(#paint0_linear)"/>
<path d="M11.3517 6.88456L15.7539 2.9367C15.9588 2.75048 15.9774 2.43391 15.7912 2.22534C15.6049 2.0205 15.2884 2.00188 15.0798 2.1881L9.00904 7.63689L7.82469 6.57916C7.82096 6.57543 7.81724 6.57171 7.81724 6.56799C7.79117 6.54191 7.7651 6.51957 7.7353 6.49722L2.91593 2.18437C2.70737 1.99815 2.39079 2.01677 2.20457 2.22534C2.01836 2.43391 2.03698 2.75048 2.24554 2.9367L6.69992 6.91808L2.26417 11.0708C2.06305 11.2607 2.05187 11.5773 2.24182 11.7821C2.34238 11.8864 2.47646 11.9423 2.61053 11.9423C2.73344 11.9423 2.85634 11.8976 2.95318 11.8082L7.45597 7.59592L8.67757 8.68717C8.77441 8.77283 8.89359 8.8138 9.01277 8.8138C9.13195 8.8138 9.25485 8.7691 9.34796 8.68344L10.6031 7.55867L15.0798 11.8119C15.1766 11.905 15.3033 11.9497 15.4262 11.9497C15.5603 11.9497 15.6906 11.8976 15.7912 11.7933C15.9811 11.5922 15.9737 11.2719 15.7725 11.082L11.3517 6.88456Z" fill="url(#paint1_linear)"/>
<defs>
<linearGradient id="paint0_linear" x1="0" y1="6.9477" x2="18" y2="6.9477" gradientUnits="userSpaceOnUse">
<stop stop-color="#3E9D4A"/>
<stop offset="1" stop-color="#7CCB44"/>
</linearGradient>
<linearGradient id="paint1_linear" x1="2.07617" y1="6.96509" x2="15.9287" y2="6.96509" gradientUnits="userSpaceOnUse">
<stop stop-color="#3E9D4A"/>
<stop offset="1" stop-color="#7CCB44"/>
</linearGradient>
</defs>
</svg>
