<svg width="18" height="18" viewBox="0 0 18 18" fill="none" xmlns="http://www.w3.org/2000/svg">
<path d="M15.364 11.636C15.3375 11.6095 15.3109 11.5832 15.2841 11.5571C14.11 10.4113 13.7534 7.88243 14.0917 6.27707C14.1647 5.93043 14.2031 5.57119 14.2031 5.20312C14.2031 2.33413 11.869 0 9 0C6.131 0 3.79688 2.33413 3.79688 5.20312C3.79688 5.57117 3.8353 5.93041 3.90834 6.27703C4.24663 7.88241 3.88999 10.4113 2.71585 11.5572C2.68912 11.5833 2.66252 11.6096 2.63605 11.636C1.10283 13.1693 0.1909 15.1583 0.026831 17.2975C-0.00286429 17.6847 0.3148 18 0.703125 18C1.09145 18 1.40283 17.6842 1.43847 17.2975C1.79409 13.4383 5.04961 10.4062 9 10.4062C12.9504 10.4062 16.2059 13.4383 16.5615 17.2975C16.5972 17.6842 16.9086 18 17.2969 18C17.6852 18 18.0029 17.6847 17.9732 17.2975C17.8091 15.1583 16.8972 13.1693 15.364 11.636ZM9 9C6.90641 9 5.20312 7.29675 5.20312 5.20312C5.20312 3.1095 6.90641 1.40625 9 1.40625C11.0936 1.40625 12.7969 3.1095 12.7969 5.20312C12.7969 7.29675 11.0936 9 9 9Z" fill="url(#paint0_linear)"/>
<defs>
<linearGradient id="paint0_linear" x1="0" y1="8.9313" x2="18" y2="8.9313" gradientUnits="userSpaceOnUse">
<stop stop-color="#3E9D4A"/>
<stop offset="1" stop-color="#7CCB44"/>
</linearGradient>
</defs>
</svg>
