<svg width="45" height="30" viewBox="0 0 45 30" fill="none" xmlns="http://www.w3.org/2000/svg">
<path d="M38.0769 18C37.0879 19.2381 35.7033 20.1905 34.1208 20.7619" stroke="white" stroke-width="1.5" stroke-miterlimit="10" stroke-linecap="round" stroke-linejoin="round"/>
<path d="M20.6702 6.09524L20.1757 5.71428C18.6922 4.7619 17.0109 4.19047 15.3296 4.09524" stroke="white" stroke-width="1.5" stroke-miterlimit="10" stroke-linecap="round" stroke-linejoin="round"/>
<path d="M33.231 21.1429C33.8244 21.1429 34.3189 20.8571 34.6156 20.381V20.2857C35.209 19.4286 35.0112 18.2857 34.1211 17.8095L29.9673 14" stroke="white" stroke-width="1.5" stroke-miterlimit="10" stroke-linecap="round" stroke-linejoin="round"/>
<path d="M6.0332 17.4286C6.52771 18.381 7.22002 19.3333 8.11013 20.0952" stroke="white" stroke-width="1.5" stroke-miterlimit="10" stroke-linecap="round" stroke-linejoin="round"/>
<path d="M24.2308 15.8095L32.7363 21.3333C33.6264 21.9048 33.8242 23.0476 33.2308 23.8095V23.9048C32.6373 24.7619 31.4505 24.9524 30.6593 24.3809L22.0549 18.8571" stroke="white" stroke-width="1.5" stroke-miterlimit="10" stroke-linecap="round" stroke-linejoin="round"/>
<path d="M21.9559 18.8571L29.8679 24C30.7581 24.5714 30.9559 25.7143 30.3624 26.4762V26.5714C29.769 27.4286 28.5822 27.619 27.791 27.0476L20.769 22.4762" stroke="white" stroke-width="1.5" stroke-miterlimit="10" stroke-linecap="round" stroke-linejoin="round"/>
<path d="M21.7583 27.619L23.2418 28.5714C24.132 29.1429 25.3188 28.9524 25.8133 28.0952V28C26.4067 27.1429 26.2089 26 25.3188 25.5238L20.6704 22.4762" stroke="white" stroke-width="1.5" stroke-miterlimit="10" stroke-linecap="round" stroke-linejoin="round"/>
<path d="M31.6481 3.04762C30.0657 2.85714 28.3844 3.04762 26.7031 3.71429L25.1207 4.28571L15.824 7.90476C16.6152 9.80953 18.8899 10.7619 20.8679 10L23.9339 8.85714L25.7141 11.619C27.1976 14 30.4613 14.6667 32.835 13.2381" stroke="white" stroke-width="1.5" stroke-miterlimit="10" stroke-linecap="round" stroke-linejoin="round"/>
<path d="M11.4725 22L14.0439 18.5714C14.6373 17.7143 14.4395 16.5714 13.6483 16C12.7582 15.4286 11.5714 15.619 10.978 16.381L8.40656 19.8095C7.81315 20.6667 8.01095 21.8095 8.80216 22.3809C9.59337 22.9524 10.7802 22.8571 11.4725 22Z" stroke="white" stroke-width="1.5" stroke-miterlimit="10" stroke-linecap="round" stroke-linejoin="round"/>
<path d="M14.5384 24.1905L18.1977 19.3333C18.7912 18.4762 18.5933 17.3333 17.8021 16.7619C16.912 16.1905 15.7252 16.3809 15.1318 17.1429L11.4725 22C10.8791 22.8571 11.0769 24 11.8681 24.5714C12.7582 25.1429 13.945 24.9524 14.5384 24.1905Z" stroke="white" stroke-width="1.5" stroke-miterlimit="10" stroke-linecap="round" stroke-linejoin="round"/>
<path d="M17.7032 26.3809L20.2746 22.9524C20.868 22.0952 20.6702 20.9524 19.879 20.3809C18.9889 19.8095 17.8021 20 17.2087 20.7619L14.6373 24.1905C14.0439 25.0476 14.2417 26.1905 15.0329 26.7619C15.8241 27.3333 17.0109 27.1429 17.7032 26.3809Z" stroke="white" stroke-width="1.5" stroke-miterlimit="10" stroke-linecap="round" stroke-linejoin="round"/>
<path d="M20.7696 28.5714L22.352 26.4762C22.9454 25.619 22.7476 24.4762 21.9564 23.9048C21.0663 23.3333 19.8795 23.5238 19.2861 24.2857L17.7037 26.3809C17.1103 27.2381 17.3081 28.3809 18.0993 28.9524C18.9894 29.5238 20.1762 29.3333 20.7696 28.5714Z" stroke="white" stroke-width="1.5" stroke-miterlimit="10" stroke-linecap="round" stroke-linejoin="round"/>
<path d="M10.6814 0.761902L15.4286 3.90476L5.73632 17.8095L0.79126 14.0952" stroke="white" stroke-width="1.5" stroke-miterlimit="10" stroke-linecap="round" stroke-linejoin="round"/>
<path d="M37.3847 0.761902L31.7473 2.7619L38.1759 18.2857L44.3078 16" stroke="white" stroke-width="1.5" stroke-miterlimit="10" stroke-linecap="round" stroke-linejoin="round"/>
</svg>
