<svg width="14" height="18" viewBox="0 0 14 18" fill="none" xmlns="http://www.w3.org/2000/svg">
<path d="M11.8125 18H1.6875C0.7575 18 0 17.2432 0 16.3125V8.4375C0 7.50675 0.7575 6.75 1.6875 6.75H11.8125C12.7425 6.75 13.5 7.50675 13.5 8.4375V16.3125C13.5 17.2432 12.7425 18 11.8125 18ZM1.6875 7.875C1.37775 7.875 1.125 8.127 1.125 8.4375V16.3125C1.125 16.623 1.37775 16.875 1.6875 16.875H11.8125C12.1222 16.875 12.375 16.623 12.375 16.3125V8.4375C12.375 8.127 12.1222 7.875 11.8125 7.875H1.6875Z" fill="white"/>
<path d="M10.6875 7.875C10.377 7.875 10.125 7.623 10.125 7.3125V4.5C10.125 2.63925 8.61075 1.125 6.75 1.125C4.88925 1.125 3.375 2.63925 3.375 4.5V7.3125C3.375 7.623 3.123 7.875 2.8125 7.875C2.502 7.875 2.25 7.623 2.25 7.3125V4.5C2.25 2.01825 4.26825 0 6.75 0C9.23175 0 11.25 2.01825 11.25 4.5V7.3125C11.25 7.623 10.998 7.875 10.6875 7.875Z" fill="white"/>
<path d="M6.75 12.75C5.92275 12.75 5.25 12.0772 5.25 11.25C5.25 10.4227 5.92275 9.75 6.75 9.75C7.57725 9.75 8.25 10.4227 8.25 11.25C8.25 12.0772 7.57725 12.75 6.75 12.75ZM6.75 10.875C6.54375 10.875 6.375 11.043 6.375 11.25C6.375 11.457 6.54375 11.625 6.75 11.625C6.95625 11.625 7.125 11.457 7.125 11.25C7.125 11.043 6.95625 10.875 6.75 10.875Z" fill="white"/>
<path d="M6.75 15C6.4395 15 6.1875 14.748 6.1875 14.4375V12.375C6.1875 12.0645 6.4395 11.8125 6.75 11.8125C7.0605 11.8125 7.3125 12.0645 7.3125 12.375V14.4375C7.3125 14.748 7.0605 15 6.75 15Z" fill="white"/>
</svg>
