<svg width="94" height="100" viewBox="0 0 94 100" fill="none" xmlns="http://www.w3.org/2000/svg">
<path d="M0 2.02931C0 3.15671 0.900599 4.05862 2.02635 4.05862C3.1521 4.05862 4.05269 3.15671 4.05269 2.02931C4.05269 0.901916 3.1521 0 2.02635 0C0.900599 0 0 0.901916 0 2.02931Z" fill="#D9D9D9"/>
<path d="M22.515 2.02931C22.515 3.15671 23.4156 4.05862 24.5413 4.05862C25.667 4.05862 26.5676 3.15671 26.5676 2.02931C26.5676 0.901916 25.667 0 24.5413 0C23.4156 0 22.515 0.901916 22.515 2.02931Z" fill="#D9D9D9"/>
<path d="M44.9173 2.02931C44.9173 3.15671 45.8179 4.05862 46.9436 4.05862C48.0694 4.05862 48.97 3.15671 48.97 2.02931C48.97 0.901916 48.0694 0 46.9436 0C45.8179 0 44.9173 0.901916 44.9173 2.02931Z" fill="#D9D9D9"/>
<path d="M67.4323 2.02931C67.4323 3.15671 68.3329 4.05862 69.4587 4.05862C70.5844 4.05862 71.485 3.15671 71.485 2.02931C71.485 0.901916 70.5844 0 69.4587 0C68.3329 0 67.4323 0.901916 67.4323 2.02931Z" fill="#D9D9D9"/>
<path d="M89.8347 2.02931C89.8347 3.15671 90.7353 4.05862 91.8611 4.05862C92.9868 4.05862 93.8874 3.15671 93.8874 2.02931C93.8874 0.901916 92.9868 0 91.8611 0C90.7353 0 89.8347 0.901916 89.8347 2.02931Z" fill="#D9D9D9"/>
<path d="M0 21.1951C0 22.3225 0.900599 23.2244 2.02635 23.2244C3.1521 23.2244 4.05269 22.3225 4.05269 21.1951C4.05269 20.0677 3.1521 19.1658 2.02635 19.1658C0.900599 19.1658 0 20.0677 0 21.1951Z" fill="#D9D9D9"/>
<path d="M22.515 21.1951C22.515 22.3225 23.4156 23.2244 24.5413 23.2244C25.667 23.2244 26.5676 22.3225 26.5676 21.1951C26.5676 20.0677 25.667 19.1658 24.5413 19.1658C23.4156 19.1658 22.515 20.0677 22.515 21.1951Z" fill="#D9D9D9"/>
<path d="M44.9173 21.1951C44.9173 22.3225 45.8179 23.2244 46.9436 23.2244C48.0694 23.2244 48.97 22.3225 48.97 21.1951C48.97 20.0677 48.0694 19.1658 46.9436 19.1658C45.8179 19.1658 44.9173 20.0677 44.9173 21.1951Z" fill="#D9D9D9"/>
<path d="M67.4323 21.1951C67.4323 22.3225 68.3329 23.2244 69.4587 23.2244C70.5844 23.2244 71.485 22.3225 71.485 21.1951C71.485 20.0677 70.5844 19.1658 69.4587 19.1658C68.3329 19.1658 67.4323 20.0677 67.4323 21.1951Z" fill="#D9D9D9"/>
<path d="M89.8347 21.1951C89.8347 22.3225 90.7353 23.2244 91.8611 23.2244C92.9868 23.2244 93.8874 22.3225 93.8874 21.1951C93.8874 20.0677 92.9868 19.1658 91.8611 19.1658C90.7353 19.1658 89.8347 20.0677 89.8347 21.1951Z" fill="#D9D9D9"/>
<path d="M0 40.3607C0 41.4881 0.900599 42.39 2.02635 42.39C3.1521 42.39 4.05269 41.4881 4.05269 40.3607C4.05269 39.2333 3.1521 38.3314 2.02635 38.3314C0.900599 38.3314 0 39.2333 0 40.3607Z" fill="#D9D9D9"/>
<path d="M22.515 40.3607C22.515 41.4881 23.4156 42.39 24.5413 42.39C25.667 42.39 26.5676 41.4881 26.5676 40.3607C26.5676 39.2333 25.667 38.3314 24.5413 38.3314C23.4156 38.3314 22.515 39.2333 22.515 40.3607Z" fill="#D9D9D9"/>
<path d="M44.9173 40.3607C44.9173 41.4881 45.8179 42.39 46.9436 42.39C48.0694 42.39 48.97 41.4881 48.97 40.3607C48.97 39.2333 48.0694 38.3314 46.9436 38.3314C45.8179 38.3314 44.9173 39.2333 44.9173 40.3607Z" fill="#D9D9D9"/>
<path d="M67.4323 40.3607C67.4323 41.4881 68.3329 42.39 69.4587 42.39C70.5844 42.39 71.485 41.4881 71.485 40.3607C71.485 39.2333 70.5844 38.3314 69.4587 38.3314C68.3329 38.3314 67.4323 39.2333 67.4323 40.3607Z" fill="#D9D9D9"/>
<path d="M89.8347 40.3607C89.8347 41.4881 90.7353 42.39 91.8611 42.39C92.9868 42.39 93.8874 41.4881 93.8874 40.3607C93.8874 39.2333 92.9868 38.3314 91.8611 38.3314C90.7353 38.3314 89.8347 39.2333 89.8347 40.3607Z" fill="#D9D9D9"/>
<path d="M0 59.5265C0 60.6539 0.900599 61.5558 2.02635 61.5558C3.1521 61.5558 4.05269 60.6539 4.05269 59.5265C4.05269 58.3991 3.1521 57.4972 2.02635 57.4972C0.900599 57.4972 0 58.3991 0 59.5265Z" fill="#D9D9D9"/>
<path d="M22.515 59.5265C22.515 60.6539 23.4156 61.5558 24.5413 61.5558C25.667 61.5558 26.5676 60.6539 26.5676 59.5265C26.5676 58.3991 25.667 57.4972 24.5413 57.4972C23.4156 57.4972 22.515 58.3991 22.515 59.5265Z" fill="#D9D9D9"/>
<path d="M44.9173 59.5265C44.9173 60.6539 45.8179 61.5558 46.9436 61.5558C48.0694 61.5558 48.97 60.6539 48.97 59.5265C48.97 58.3991 48.0694 57.4972 46.9436 57.4972C45.8179 57.4972 44.9173 58.3991 44.9173 59.5265Z" fill="#D9D9D9"/>
<path d="M67.4323 59.5265C67.4323 60.6539 68.3329 61.5558 69.4587 61.5558C70.5844 61.5558 71.485 60.6539 71.485 59.5265C71.485 58.3991 70.5844 57.4972 69.4587 57.4972C68.3329 57.4972 67.4323 58.3991 67.4323 59.5265Z" fill="#D9D9D9"/>
<path d="M89.8347 59.5265C89.8347 60.6539 90.7353 61.5558 91.8611 61.5558C92.9868 61.5558 93.8874 60.6539 93.8874 59.5265C93.8874 58.3991 92.9868 57.4972 91.8611 57.4972C90.7353 57.4972 89.8347 58.3991 89.8347 59.5265Z" fill="#D9D9D9"/>
<path d="M0 78.6923C0 79.8197 0.900599 80.7216 2.02635 80.7216C3.1521 80.7216 4.05269 79.8197 4.05269 78.6923C4.05269 77.5649 3.1521 76.663 2.02635 76.663C0.900599 76.663 0 77.5649 0 78.6923Z" fill="#D9D9D9"/>
<path d="M22.515 78.6923C22.515 79.8197 23.4156 80.7216 24.5413 80.7216C25.667 80.7216 26.5676 79.8197 26.5676 78.6923C26.5676 77.5649 25.667 76.663 24.5413 76.663C23.4156 76.663 22.515 77.5649 22.515 78.6923Z" fill="#D9D9D9"/>
<path d="M44.9173 78.6923C44.9173 79.8197 45.8179 80.7216 46.9436 80.7216C48.0694 80.7216 48.97 79.8197 48.97 78.6923C48.97 77.5649 48.0694 76.663 46.9436 76.663C45.8179 76.663 44.9173 77.5649 44.9173 78.6923Z" fill="#D9D9D9"/>
<path d="M69.4587 80.7216C70.5778 80.7216 71.485 79.813 71.485 78.6923C71.485 77.5715 70.5778 76.663 69.4587 76.663C68.3395 76.663 67.4323 77.5715 67.4323 78.6923C67.4323 79.813 68.3395 80.7216 69.4587 80.7216Z" fill="#D9D9D9"/>
<path d="M91.8611 80.7216C92.9802 80.7216 93.8874 79.813 93.8874 78.6923C93.8874 77.5715 92.9802 76.663 91.8611 76.663C90.742 76.663 89.8347 77.5715 89.8347 78.6923C89.8347 79.813 90.742 80.7216 91.8611 80.7216Z" fill="#D9D9D9"/>
<path d="M0 97.8579C0 98.9853 0.900599 99.8872 2.02635 99.8872C3.1521 99.8872 4.05269 98.9853 4.05269 97.8579C4.05269 96.7305 3.1521 95.8286 2.02635 95.8286C0.900599 95.8286 0 96.7305 0 97.8579Z" fill="#D9D9D9"/>
<path d="M22.515 97.8579C22.515 98.9853 23.4156 99.8872 24.5413 99.8872C25.667 99.8872 26.5676 98.9853 26.5676 97.8579C26.5676 96.7305 25.667 95.8286 24.5413 95.8286C23.4156 95.8286 22.515 96.7305 22.515 97.8579Z" fill="#D9D9D9"/>
<path d="M44.9173 97.8579C44.9173 98.9853 45.8179 99.8872 46.9436 99.8872C48.0694 99.8872 48.97 98.9853 48.97 97.8579C48.97 96.7305 48.0694 95.8286 46.9436 95.8286C45.8179 95.8286 44.9173 96.7305 44.9173 97.8579Z" fill="#D9D9D9"/>
<path d="M67.4323 97.8579C67.4323 98.9853 68.3329 99.8872 69.4587 99.8872C70.5844 99.8872 71.485 98.9853 71.485 97.8579C71.485 96.7305 70.5844 95.8286 69.4587 95.8286C68.3329 95.8286 67.4323 96.7305 67.4323 97.8579Z" fill="#D9D9D9"/>
<path d="M89.8347 97.8579C89.8347 98.9853 90.7353 99.8872 91.8611 99.8872C92.9868 99.8872 93.8874 98.9853 93.8874 97.8579C93.8874 96.7305 92.9868 95.8286 91.8611 95.8286C90.7353 95.8286 89.8347 96.7305 89.8347 97.8579Z" fill="#D9D9D9"/>
</svg>
