<svg width="25" height="25" viewBox="0 0 25 25" fill="none" xmlns="http://www.w3.org/2000/svg">
<path d="M23.5352 14.27V2.24609C23.5352 1.84155 23.2073 1.51367 22.8027 1.51367H19.0918V0.732422C19.0918 0.327873 18.7639 0 18.3594 0C17.9548 0 17.627 0.327873 17.627 0.732422V1.51367H14.6973V0.732422C14.6973 0.327873 14.3694 0 13.9648 0C13.5603 0 13.2324 0.327873 13.2324 0.732422V1.51367H10.3027V0.732422C10.3027 0.327873 9.97486 0 9.57031 0C9.16576 0 8.83789 0.327873 8.83789 0.732422V1.51367H5.9082V0.732422C5.9082 0.327873 5.58033 0 5.17578 0C4.77123 0 4.44336 0.327873 4.44336 0.732422V1.51367H0.732422C0.327873 1.51367 0 1.84155 0 2.24609V21.3379C0 21.7424 0.327873 22.0703 0.732422 22.0703H12.9299C14.114 23.8356 16.1276 25 18.4082 25C22.0428 25 25 22.0428 25 18.4082C25 16.8423 24.4507 15.4022 23.5352 14.27ZM4.44336 2.97852V3.71094C4.44336 4.11549 4.77123 4.44336 5.17578 4.44336C5.58033 4.44336 5.9082 4.11549 5.9082 3.71094V2.97852H8.83789V3.71094C8.83789 4.11549 9.16576 4.44336 9.57031 4.44336C9.97486 4.44336 10.3027 4.11549 10.3027 3.71094V2.97852H13.2324V3.71094C13.2324 4.11549 13.5603 4.44336 13.9648 4.44336C14.3694 4.44336 14.6973 4.11549 14.6973 3.71094V2.97852H17.627V3.71094C17.627 4.11549 17.9548 4.44336 18.3594 4.44336C18.7639 4.44336 19.0918 4.11549 19.0918 3.71094V2.97852H22.0703V5.9082H1.46484V2.97852H4.44336ZM1.46484 20.6055V7.37305H22.0703V12.9299C21.0222 12.2271 19.7622 11.8164 18.4082 11.8164C16.0938 11.8164 14.0545 13.0156 12.878 14.8249C12.779 14.7749 12.6675 14.7461 12.5488 14.7461H11.084C10.6794 14.7461 10.3516 15.074 10.3516 15.4785C10.3516 15.8831 10.6794 16.2109 11.084 16.2109H12.1935C12.0281 16.6775 11.9137 17.168 11.8574 17.6758H11.084C10.6794 17.6758 10.3516 18.0037 10.3516 18.4082C10.3516 18.8128 10.6794 19.1406 11.084 19.1406H11.8574C11.9137 19.6484 12.0279 20.1389 12.1935 20.6055H1.46484ZM18.4082 23.5352C15.5811 23.5352 13.2812 21.2353 13.2812 18.4082C13.2812 15.5811 15.5811 13.2812 18.4082 13.2812C21.2353 13.2812 23.5352 15.5811 23.5352 18.4082C23.5352 21.2353 21.2353 23.5352 18.4082 23.5352Z" fill="#BDBDBD"/>
<path d="M21.3379 17.6758H19.1406V15.4785C19.1406 15.074 18.8128 14.7461 18.4082 14.7461C18.0037 14.7461 17.6758 15.074 17.6758 15.4785V18.4082C17.6758 18.8128 18.0037 19.1406 18.4082 19.1406H21.3379C21.7424 19.1406 22.0703 18.8128 22.0703 18.4082C22.0703 18.0037 21.7424 17.6758 21.3379 17.6758Z" fill="#BDBDBD"/>
<path d="M6.64062 8.88672H5.17578C4.77123 8.88672 4.44336 9.21459 4.44336 9.61914C4.44336 10.0237 4.77123 10.3516 5.17578 10.3516H6.64062C7.04517 10.3516 7.37305 10.0237 7.37305 9.61914C7.37305 9.21459 7.04517 8.88672 6.64062 8.88672Z" fill="#BDBDBD"/>
<path d="M6.64062 11.8164H5.17578C4.77123 11.8164 4.44336 12.1443 4.44336 12.5488C4.44336 12.9534 4.77123 13.2812 5.17578 13.2812H6.64062C7.04517 13.2812 7.37305 12.9534 7.37305 12.5488C7.37305 12.1443 7.04517 11.8164 6.64062 11.8164Z" fill="#BDBDBD"/>
<path d="M6.64062 14.7461H5.17578C4.77123 14.7461 4.44336 15.074 4.44336 15.4785C4.44336 15.8831 4.77123 16.2109 5.17578 16.2109H6.64062C7.04517 16.2109 7.37305 15.8831 7.37305 15.4785C7.37305 15.074 7.04517 14.7461 6.64062 14.7461Z" fill="#BDBDBD"/>
<path d="M11.084 10.3516H12.5488C12.9534 10.3516 13.2812 10.0237 13.2812 9.61914C13.2812 9.21459 12.9534 8.88672 12.5488 8.88672H11.084C10.6794 8.88672 10.3516 9.21459 10.3516 9.61914C10.3516 10.0237 10.6794 10.3516 11.084 10.3516Z" fill="#BDBDBD"/>
<path d="M11.084 13.2812H12.5488C12.9534 13.2812 13.2812 12.9534 13.2812 12.5488C13.2812 12.1443 12.9534 11.8164 12.5488 11.8164H11.084C10.6794 11.8164 10.3516 12.1443 10.3516 12.5488C10.3516 12.9534 10.6794 13.2812 11.084 13.2812Z" fill="#BDBDBD"/>
<path d="M6.64062 17.6758H5.17578C4.77123 17.6758 4.44336 18.0037 4.44336 18.4082C4.44336 18.8128 4.77123 19.1406 5.17578 19.1406H6.64062C7.04517 19.1406 7.37305 18.8128 7.37305 18.4082C7.37305 18.0037 7.04517 17.6758 6.64062 17.6758Z" fill="#BDBDBD"/>
<path d="M16.9434 10.3516H18.4082C18.8128 10.3516 19.1406 10.0237 19.1406 9.61914C19.1406 9.21459 18.8128 8.88672 18.4082 8.88672H16.9434C16.5388 8.88672 16.2109 9.21459 16.2109 9.61914C16.2109 10.0237 16.5388 10.3516 16.9434 10.3516Z" fill="#BDBDBD"/>
</svg>
