<svg width="18" height="18" viewBox="0 0 18 18" fill="none" xmlns="http://www.w3.org/2000/svg">
<path d="M17.5173 13.2285L14.6785 10.3998C14.0343 9.75398 12.9884 9.75274 12.3426 10.397C12.3417 10.398 12.3408 10.3988 12.3398 10.3998L10.7133 12.0263C10.5903 12.1496 10.3964 12.1667 10.2537 12.0667C9.36347 11.4446 8.53013 10.7447 7.76344 9.97548C7.07679 9.29037 6.44513 8.55233 5.87426 7.76807C5.77078 7.62718 5.78582 7.43184 5.9096 7.30842L7.57651 5.64151C8.22007 4.9967 8.22007 3.95263 7.57651 3.30783L4.73772 0.469042C4.08357 -0.156347 3.05317 -0.156347 2.39901 0.469042L1.49991 1.36815C0.142048 2.71073 -0.342695 4.70428 0.247178 6.52043C0.687347 7.84916 1.30954 9.11048 2.09594 10.2684C2.8039 11.33 3.61611 12.3182 4.52054 13.2184C5.50382 14.2087 6.59299 15.0878 7.76848 15.84C9.06069 16.6832 10.4795 17.3142 11.9711 17.7089C12.3546 17.8035 12.7481 17.8509 13.143 17.8504C14.4968 17.8421 15.792 17.2971 16.7445 16.335L17.5174 15.5621C18.1609 14.9174 18.1609 13.8733 17.5173 13.2285ZM16.802 14.8732C16.8014 14.8739 16.8007 14.8746 16.8 14.8752L16.805 14.8601L16.0322 15.6329C15.0392 16.6385 13.593 17.0522 12.2185 16.724C10.8336 16.3533 9.51714 15.7633 8.31893 14.9763C7.20572 14.2648 6.17408 13.4331 5.24271 12.4961C4.38575 11.6454 3.61587 10.7113 2.94437 9.70781C2.20989 8.62799 1.62854 7.45167 1.21684 6.21232C0.744884 4.75637 1.13598 3.15878 2.22711 2.08546L3.12621 1.18636C3.37619 0.935257 3.78239 0.934369 4.03343 1.18435C4.03408 1.185 4.03479 1.18565 4.03544 1.18636L6.87423 4.02515C7.12533 4.27512 7.12622 4.68132 6.87624 4.93236C6.87559 4.93301 6.87494 4.93366 6.87423 4.93437L5.20731 6.60129C4.72902 7.07437 4.66888 7.82614 5.0659 8.36925C5.66879 9.19667 6.33597 9.97525 7.06116 10.6979C7.8697 11.5099 8.74868 12.2486 9.68779 12.9053C10.2304 13.2838 10.9661 13.22 11.4355 12.7538L13.0468 11.1172C13.2968 10.8661 13.703 10.8652 13.9541 11.1152C13.9547 11.1158 13.9554 11.1165 13.9561 11.1172L16.7999 13.9661C17.0511 14.216 17.052 14.6221 16.802 14.8732Z" fill="white"/>
</svg>
