<svg width="60" height="65" viewBox="0 0 60 65" fill="none" xmlns="http://www.w3.org/2000/svg">
<g clip-path="url(#clip0)">
<path d="M32.2927 5.23279H0V16.4369H32.2927V5.23279Z" fill="url(#paint0_linear)"/>
<g style="mix-blend-mode:multiply">
<g style="mix-blend-mode:multiply">
<path d="M29.3523 9.49286H2.93011V12.1768H29.3523V9.49286Z" fill="#6791A1"/>
</g>
</g>
<path d="M26.4634 0H6.05557C5.21522 0 4.53398 0.596788 4.53398 1.33296V27.3348C4.53398 28.0709 5.21522 28.6677 6.05557 28.6677H26.4634C27.3037 28.6677 27.985 28.0709 27.985 27.3348V1.33296C27.985 0.596788 27.3037 0 26.4634 0Z" fill="url(#paint1_linear)"/>
<g style="mix-blend-mode:screen" opacity="0.5">
<path d="M27.9747 27.3348V1.33296C27.9747 0.980995 27.8158 0.643308 27.5327 0.393586C27.2496 0.143864 26.8652 0.00237817 26.4634 0L25.7951 0C26.1987 0 26.5857 0.140437 26.8711 0.390416C27.1564 0.640395 27.3167 0.97944 27.3167 1.33296V27.3348C27.3167 27.6883 27.1564 28.0273 26.8711 28.2773C26.5857 28.5273 26.1987 28.6677 25.7951 28.6677H26.4634C26.6627 28.6677 26.8601 28.6332 27.0441 28.5661C27.2282 28.499 27.3952 28.4007 27.5357 28.2768C27.6762 28.1529 27.7873 28.0059 27.8626 27.8442C27.938 27.6825 27.9761 27.5094 27.9747 27.3348Z" fill="#45778A"/>
</g>
<g opacity="0.5">
<path opacity="0.5" d="M10.1679 13.933C8.19715 13.933 6.27063 14.4451 4.63212 15.4045C2.9936 16.3639 1.71672 17.7274 0.962998 19.3226C0.209277 20.9179 0.0125919 22.6731 0.397824 24.3663C0.783055 26.0595 1.73289 27.6145 3.12718 28.8347C4.52146 30.0549 6.29753 30.8853 8.23071 31.2211C10.1639 31.5568 12.1673 31.3827 13.9875 30.7208C15.8077 30.0588 17.3629 28.9388 18.4563 27.5024C19.5497 26.0661 20.1323 24.3778 20.1302 22.6513C20.1275 20.3383 19.0767 18.1208 17.2087 16.486C15.3407 14.8513 12.8083 13.933 10.1679 13.933Z" fill="url(#paint2_linear)"/>
<g style="mix-blend-mode:multiply" opacity="0.5">
<path d="M17.3334 28.6946C15.4697 30.3296 12.9409 31.2491 10.3033 31.2508C7.66572 31.2525 5.13539 30.3363 3.26897 28.7036C1.40255 27.0709 0.352918 24.8556 0.35099 22.545C0.349062 20.2344 1.39499 18.0177 3.25869 16.3827L3.13532 16.4908C1.26889 18.1258 0.220348 20.3434 0.220348 22.6557C0.220348 24.968 1.26889 27.1856 3.13532 28.8207C5.00174 30.4557 7.53315 31.3743 10.1727 31.3743C12.8122 31.3743 15.3436 30.4557 17.21 28.8207L17.3334 28.6946Z" fill="#C0DDE4"/>
</g>
<g style="mix-blend-mode:screen" opacity="0.5">
<path d="M17.0254 16.644C18.8541 18.2873 19.8776 20.4914 19.8776 22.7864C19.8776 25.0814 18.8541 27.2855 17.0254 28.9288L17.1693 28.8208C18.8745 27.1629 19.789 24.9954 19.7246 22.7645C19.6603 20.5337 18.6218 18.4094 16.8232 16.8291C15.0246 15.2489 12.6028 14.333 10.0564 14.27C7.51011 14.2071 5.03318 15.0019 3.13573 16.4909C3.09187 16.5276 3.05067 16.5667 3.01236 16.6079C4.89308 15.0134 7.40997 14.125 10.0272 14.1317C12.6445 14.1384 15.1554 15.0398 17.0254 16.644Z" fill="#45778A"/>
</g>
<path opacity="0.5" d="M18.8348 26.1187H18.9068V26.1637C18.9116 26.1737 18.9141 26.1844 18.9141 26.1952C18.9141 26.206 18.9116 26.2168 18.9068 26.2267V26.2988H18.8554V26.2448C18.8527 26.2298 18.8527 26.2146 18.8554 26.1997C18.8534 26.1787 18.8534 26.1577 18.8554 26.1367C18.8554 26.1367 18.8554 26.1367 18.8554 26.0826L18.8348 26.1187Z" fill="url(#paint3_linear)"/>
<path opacity="0.5" d="M18.7114 26.2449V26.2899C18.7164 26.3107 18.7164 26.3322 18.7114 26.353H18.7628C18.7628 26.398 18.7628 26.407 18.7628 26.407V26.353V26.2089C18.7828 26.2027 18.8046 26.2027 18.8245 26.2089L18.7114 26.2449Z" fill="url(#paint4_linear)"/>
<path opacity="0.5" d="M18.5059 26.5061V26.461H18.4031V26.5151H18.4648V26.452V26.407C18.4589 26.4252 18.4597 26.4446 18.467 26.4623C18.4744 26.4801 18.488 26.4954 18.5059 26.5061Z" fill="url(#paint5_linear)"/>
<path opacity="0.5" d="M18.5058 27.4699V27.4159V27.3708L18.3722 27.551L18.3105 27.641L18.5058 27.4699Z" fill="url(#paint6_linear)"/>
<path opacity="0.5" d="M18.7629 27.0195V26.9744H18.8143C18.7942 27.0123 18.7701 27.0485 18.7423 27.0825L18.7629 27.0195Z" fill="url(#paint7_linear)"/>
<path opacity="0.5" d="M17.4777 21.1924C17.4811 21.2133 17.4811 21.2346 17.4777 21.2555V21.2104H17.4263V21.1654L17.4777 21.1924Z" fill="url(#paint8_linear)"/>
<path opacity="0.5" d="M19.0301 18.7155C18.9986 18.6694 18.9711 18.6212 18.9479 18.5714V18.5264H18.8656V18.5804V18.5174H18.9273L19.0301 18.7155Z" fill="url(#paint9_linear)"/>
<path opacity="0.5" d="M16.5627 20.769H16.4496H16.3982H16.3468H16.2748H16.2234H15.9356V20.8231H15.8842V20.7781V20.688H15.9767V20.733H16.0281H16.4496H16.501C16.501 20.733 16.501 20.7961 16.501 20.8321V20.8861H16.573H16.501L16.5627 20.769Z" fill="url(#paint10_linear)"/>
<path opacity="0.5" d="M15.9562 20.796H15.8945V20.85H15.987H16.1309H16.1926H16.1412H15.9664L15.9562 20.796ZM16.0281 21.0301C16.0281 21.0301 16.0281 21.0391 16.0281 21.0301V21.0301Z" fill="url(#paint11_linear)"/>
<path opacity="0.5" d="M17.7142 16.9641L17.6996 16.9502H17.6628H17.5291H17.4777V16.9051V16.8691C17.4744 16.8542 17.4744 16.839 17.4777 16.8241C17.4802 16.8092 17.4802 16.794 17.4777 16.7791C17.4817 16.7939 17.4817 16.8093 17.4777 16.8241C17.4993 16.8615 17.5165 16.9007 17.5291 16.9412V16.9502H17.6628H17.6996H17.7142V16.9641L17.7656 17.0132H17.7142V16.9641Z" fill="url(#paint12_linear)"/>
<path opacity="0.5" d="M7.19675 15.7073H7.37153H7.46406H7.39209H7.28928H7.19675H6.95001H6.72382H6.6313H6.52848H6.3023H6.07612H5.94247H6.00415H6.16865C6.21376 15.6839 6.26214 15.6657 6.31258 15.6533H6.40511H6.53877H6.60045H6.66214H6.71354H6.85748H6.98085H7.04254H7.09394H7.19675V15.7073Z" fill="url(#paint13_linear)"/>
</g>
<g style="mix-blend-mode:multiply">
<path d="M5.54152 27.3348V1.33296C5.54422 0.980169 5.70539 0.642493 5.99016 0.393024C6.27493 0.143555 6.66039 0.00235991 7.06311 0L6.03501 0C5.63503 0.00473547 5.25327 0.14726 4.97235 0.396728C4.69143 0.646196 4.53395 0.982539 4.53398 1.33296V27.3348C4.53263 27.5094 4.57072 27.6825 4.64606 27.8442C4.7214 28.0059 4.83251 28.1529 4.97298 28.2768C5.11346 28.4007 5.28052 28.499 5.46455 28.5661C5.64859 28.6332 5.84596 28.6677 6.04529 28.6677H7.07339C6.87271 28.6689 6.67374 28.6353 6.48795 28.5689C6.30215 28.5024 6.1332 28.4044 5.99081 28.2805C5.84843 28.1566 5.73543 28.0093 5.65832 27.847C5.58121 27.6846 5.54152 27.5106 5.54152 27.3348Z" fill="#C0DDE4"/>
</g>
<g opacity="0.8">
<path opacity="0.8" d="M12.9028 1.7113L14.63 2.35977L14.7739 2.47685V2.32374V1.58521H15.0001V2.70201H14.9179L12.9336 1.95447L12.9028 1.7113Z" fill="white"/>
<path opacity="0.8" d="M13.0666 3.44056C13.0549 3.49412 13.0549 3.54913 13.0666 3.60268C13.085 3.6534 13.1167 3.69966 13.1591 3.73778C13.1967 3.77271 13.2423 3.80033 13.2928 3.81884C13.3501 3.83221 13.4103 3.83221 13.4676 3.81884C13.5249 3.82178 13.5822 3.81363 13.6356 3.79495C13.6889 3.77627 13.7368 3.74752 13.776 3.71076C13.8428 3.62309 13.8753 3.51878 13.8685 3.41354V3.26043H13.9611L14.6191 3.6297L14.7424 3.74679V3.57566V3.0713H14.9686V3.97195H14.8761L14.177 3.60268L14.0844 3.51262V3.60268C14.0961 3.66531 14.0961 3.72919 14.0844 3.79182C14.0582 3.85093 14.0159 3.90351 13.9611 3.94493C13.9138 3.99295 13.8538 4.03006 13.7863 4.05301C13.7079 4.06311 13.6282 4.06311 13.5498 4.05301C13.4503 4.05526 13.3517 4.03674 13.262 3.99897C13.1797 3.97277 13.1081 3.92575 13.0563 3.86387C12.9974 3.80762 12.955 3.7396 12.933 3.66573C12.9001 3.59096 12.8827 3.51167 12.8816 3.43156C12.8756 3.3596 12.8756 3.28736 12.8816 3.2154C12.8939 3.16028 12.9111 3.10608 12.933 3.05328L13.1489 3.10732C13.1222 3.15317 13.1015 3.20151 13.0872 3.25143C13.0742 3.31384 13.0673 3.37712 13.0666 3.44056Z" fill="white"/>
<path opacity="0.8" d="M13.5299 5.60221V5.29599H12.9028V5.09784H13.5299V4.29626H13.6327L15.0001 5.19692V5.33201H13.7458V5.63824L13.5299 5.60221ZM14.3935 5.09784H14.6403L14.4346 5.00778L13.8692 4.63851L13.715 4.50341V4.68354V5.06182L14.3935 5.09784Z" fill="white"/>
<path opacity="0.8" d="M13.0669 6.20559C13.0615 6.31506 13.1059 6.42192 13.1902 6.50281C13.2327 6.54386 13.2854 6.57579 13.3442 6.59609C13.4031 6.6164 13.4665 6.62454 13.5295 6.61989C13.5909 6.62382 13.6526 6.6153 13.7096 6.595C13.7667 6.57469 13.8176 6.54315 13.8585 6.50281C13.9305 6.41012 13.9665 6.2996 13.9613 6.18758V5.97142H14.9894V6.78201H14.7632V6.16957H14.1772V6.30466C14.1831 6.45315 14.1243 6.59804 14.0127 6.70996C13.9533 6.76066 13.8822 6.79973 13.8042 6.82458C13.7262 6.84942 13.6431 6.85947 13.5604 6.85406C13.4617 6.8692 13.3608 6.8692 13.2622 6.85406C13.1824 6.81956 13.1094 6.77394 13.0463 6.71896C12.9895 6.66142 12.9474 6.59385 12.9229 6.52082C12.891 6.4427 12.8737 6.36059 12.8715 6.27765C12.865 6.21172 12.865 6.14543 12.8715 6.0795C12.8657 6.02859 12.8657 5.9773 12.8715 5.92639L13.0669 5.98043C13.061 6.02532 13.061 6.07064 13.0669 6.11553C13.065 6.14553 13.065 6.17559 13.0669 6.20559Z" fill="white"/>
<path opacity="0.8" d="M13.3654 8.37619C13.4804 8.37275 13.5931 8.40461 13.6841 8.46626C13.7892 8.53463 13.8739 8.62424 13.9309 8.72745L14.0234 8.61036L14.1365 8.51129C14.1788 8.48152 14.2279 8.46003 14.2804 8.44825C14.3381 8.43806 14.3975 8.43806 14.4552 8.44825C14.5229 8.43473 14.5932 8.43473 14.6608 8.44825C14.7264 8.46499 14.784 8.49971 14.8253 8.54732C14.873 8.59048 14.9082 8.64297 14.9281 8.70043C14.9445 8.77177 14.9445 8.84524 14.9281 8.91658C14.9388 8.9823 14.9388 9.04901 14.9281 9.11473C14.9038 9.16768 14.869 9.21646 14.8253 9.25883C14.7844 9.29668 14.7355 9.32727 14.6814 9.3489C14.6206 9.36154 14.5572 9.36154 14.4963 9.3489C14.3922 9.35283 14.2888 9.33098 14.1982 9.28585C14.0954 9.22741 14.0079 9.1507 13.9412 9.06069L13.8486 9.18678C13.8128 9.22718 13.7714 9.26349 13.7253 9.29486L13.5813 9.36691C13.5202 9.37713 13.4574 9.37713 13.3963 9.36691C13.3178 9.3763 13.2383 9.3763 13.1598 9.36691C13.0954 9.33921 13.0364 9.30273 12.985 9.25883C12.9324 9.20885 12.8905 9.15086 12.8617 9.08771C12.85 9.00999 12.85 8.93126 12.8617 8.85354C12.8501 8.78184 12.8501 8.70908 12.8617 8.63738C12.8908 8.57911 12.9288 8.52457 12.9748 8.47526C13.02 8.43144 13.0763 8.39751 13.1392 8.37619C13.2137 8.36117 13.291 8.36117 13.3654 8.37619ZM13.3654 9.23181C13.4197 9.24128 13.4756 9.24128 13.5299 9.23181C13.572 9.20986 13.6101 9.18254 13.643 9.15075C13.6829 9.11575 13.7174 9.0764 13.7458 9.03367C13.7772 8.99058 13.8047 8.94541 13.8281 8.89857C13.7811 8.80485 13.702 8.72618 13.6019 8.67341C13.532 8.63217 13.4497 8.61021 13.3654 8.61036C13.3214 8.60181 13.2758 8.60181 13.2318 8.61036C13.1886 8.62262 13.1497 8.64432 13.1187 8.67341C13.0503 8.74001 13.0135 8.82701 13.0159 8.91658C13.0109 8.9585 13.0109 9.00076 13.0159 9.04268C13.0337 9.07885 13.058 9.1123 13.0878 9.14175C13.1144 9.17318 13.1498 9.19801 13.1907 9.2138L13.3654 9.23181ZM14.3935 8.61937C14.3428 8.609 14.29 8.609 14.2393 8.61937L14.1262 8.70043C14.0905 8.73304 14.0594 8.76933 14.0337 8.80851L13.9514 8.9436C14.0113 9.00551 14.0805 9.06004 14.1571 9.10572C14.2225 9.14792 14.302 9.17008 14.3832 9.16877C14.4254 9.17062 14.4676 9.16432 14.5066 9.15031C14.5457 9.1363 14.5808 9.11493 14.6094 9.08771C14.662 9.03189 14.691 8.96193 14.6917 8.88957C14.6974 8.84768 14.6974 8.80536 14.6917 8.76347C14.6737 8.73008 14.6494 8.69962 14.6197 8.67341L14.5272 8.61036L14.3935 8.61937Z" fill="white"/>
<path opacity="0.8" d="M14.3934 9.7451C14.4787 9.73568 14.5651 9.73568 14.6504 9.7451C14.7288 9.7702 14.8018 9.80675 14.8663 9.85318C14.9254 9.90034 14.9712 9.95893 15 10.0243C15.0395 10.1036 15.0571 10.1901 15.0514 10.2765C15.0566 10.3527 15.0418 10.4289 15.0079 10.4992C14.974 10.5695 14.922 10.632 14.856 10.6818C14.7025 10.7905 14.5082 10.8452 14.3111 10.8349C14.0984 10.8564 13.8831 10.8473 13.6737 10.8079C13.5214 10.7718 13.3784 10.7107 13.2522 10.6277C13.1423 10.5516 13.0513 10.4566 12.9849 10.3485C12.9209 10.2418 12.8792 10.1259 12.8615 10.0063H13.0568C13.0713 10.1001 13.1025 10.1912 13.1494 10.2765C13.197 10.3569 13.2636 10.4275 13.3447 10.4836C13.4186 10.5419 13.5017 10.5904 13.5915 10.6277C13.6915 10.6601 13.7947 10.6842 13.8999 10.6998C13.8465 10.6573 13.8044 10.605 13.7765 10.5467C13.7634 10.4721 13.7634 10.3961 13.7765 10.3215C13.7658 10.2558 13.7658 10.1891 13.7765 10.1234C13.8081 10.0634 13.8459 10.0061 13.8896 9.95225C14.0137 9.85414 14.1748 9.79962 14.342 9.79914L14.3934 9.7451ZM14.3934 9.96126C14.3369 9.95776 14.2802 9.96478 14.227 9.98185C14.1739 9.99893 14.1255 10.0257 14.0849 10.0603C14.0475 10.0934 14.0181 10.1328 13.9987 10.1762C13.9793 10.2196 13.9701 10.2659 13.9719 10.3125C13.9543 10.3837 13.9543 10.4574 13.9719 10.5287C13.9956 10.584 14.0388 10.6313 14.0952 10.6638H14.2289H14.4345C14.4972 10.6491 14.5564 10.6247 14.6093 10.5917C14.6602 10.5654 14.7026 10.5282 14.7326 10.4836C14.7479 10.4274 14.7479 10.3688 14.7326 10.3125C14.7356 10.2672 14.7269 10.2218 14.7074 10.1798C14.6878 10.1377 14.6578 10.1 14.6196 10.0693C14.5581 10.0144 14.4793 9.97681 14.3934 9.96126Z" fill="white"/>
<path opacity="0.8" d="M13.9307 11.1321C14.2091 11.1169 14.4868 11.1699 14.7326 11.2852C14.8178 11.3314 14.8875 11.3966 14.9345 11.4742C14.9814 11.5517 15.004 11.6388 15 11.7265C15.0095 11.8161 14.9894 11.9063 14.942 11.9861C14.8946 12.066 14.8219 12.1322 14.7326 12.1768C14.4856 12.2886 14.2081 12.3384 13.9307 12.3209C13.6525 12.3343 13.3754 12.2814 13.1288 12.1678C13.0443 12.1209 12.9753 12.0556 12.9284 11.9782C12.8815 11.9008 12.8585 11.8141 12.8615 11.7265C12.8552 11.6352 12.8789 11.5442 12.93 11.4643C12.981 11.3845 13.0572 11.3192 13.1494 11.2762C13.3902 11.1672 13.6602 11.1174 13.9307 11.1321ZM13.9307 11.3482H13.5812C13.4895 11.3642 13.3999 11.3884 13.3139 11.4203C13.2443 11.4443 13.1837 11.4848 13.1391 11.5374C13.1146 11.5602 13.0957 11.5871 13.0833 11.6165C13.0709 11.6459 13.0654 11.6772 13.0671 11.7085C13.0651 11.7689 13.0835 11.8286 13.1201 11.8799C13.1567 11.9312 13.2098 11.9718 13.2727 11.9967C13.4819 12.0686 13.7065 12.0994 13.9307 12.0868H14.2803C14.3756 12.0764 14.4689 12.0553 14.5579 12.0237C14.626 11.9976 14.686 11.9574 14.7326 11.9066C14.7743 11.8537 14.7958 11.7907 14.7943 11.7265C14.7951 11.6663 14.7761 11.6071 14.7397 11.556C14.7032 11.505 14.6508 11.4641 14.5887 11.4383C14.3796 11.3664 14.1549 11.3356 13.9307 11.3482Z" fill="white"/>
<path opacity="0.8" d="M13.0666 13.0414C13.0568 13.0951 13.0568 13.1498 13.0666 13.2035C13.0876 13.2506 13.119 13.2934 13.1591 13.3296L13.2928 13.4197C13.3506 13.429 13.4098 13.429 13.4676 13.4197C13.5249 13.4226 13.5823 13.4145 13.6356 13.3958C13.6889 13.3771 13.7368 13.3484 13.776 13.3116C13.8428 13.2239 13.8753 13.1196 13.8685 13.0144V12.8253H13.9611L14.6191 13.1945L14.7424 13.3206V13.1495V12.6361H14.9686V13.5368H14.8761L14.177 13.1315L14.0844 13.0414V13.1315C14.0942 13.1942 14.0942 13.2579 14.0844 13.3206C14.0528 13.3771 14.0112 13.4287 13.9611 13.4737C13.9129 13.5188 13.8529 13.5528 13.7863 13.5728C13.7083 13.5871 13.6278 13.5871 13.5498 13.5728C13.4515 13.5734 13.354 13.5581 13.262 13.5278C13.1837 13.4954 13.1137 13.4495 13.0563 13.3927C13.0016 13.3339 12.9597 13.2667 12.933 13.1945C12.9011 13.1164 12.8837 13.0343 12.8816 12.9514C12.8756 12.8824 12.8756 12.8132 12.8816 12.7442C12.8912 12.6886 12.9085 12.6341 12.933 12.5821L13.1489 12.6361C13.1204 12.6781 13.0996 12.7237 13.0872 12.7712C13.0679 12.8602 13.061 12.951 13.0666 13.0414Z" fill="white"/>
<path opacity="0.8" d="M14.4956 16.1308C14.3864 16.1304 14.2783 16.112 14.1769 16.0768C14.0619 16.0462 13.9515 16.0039 13.8479 15.9507C13.7336 15.894 13.6237 15.8308 13.5189 15.7615L13.2208 15.5634L13.0974 15.4373V15.5994V16.2119H12.8815V15.1401H12.9637L13.1282 15.2752L13.3544 15.4373L13.6114 15.6174L13.8993 15.7615C13.9876 15.8078 14.0805 15.847 14.1769 15.8786C14.262 15.8909 14.3488 15.8909 14.4339 15.8786C14.5234 15.8815 14.6111 15.8559 14.6807 15.8066C14.7134 15.7788 14.7386 15.7449 14.7546 15.7076C14.7706 15.6702 14.777 15.6302 14.7732 15.5904C14.7879 15.525 14.7879 15.4577 14.7732 15.3923C14.7435 15.339 14.7091 15.2878 14.6704 15.2391L14.8349 15.1491C14.8952 15.2128 14.9406 15.2862 14.9685 15.3652C15.0071 15.4511 15.0246 15.5432 15.0199 15.6354C15.0157 15.7587 14.9692 15.878 14.8863 15.9777L14.7218 16.0677C14.6514 16.1006 14.5747 16.122 14.4956 16.1308Z" fill="white"/>
<path opacity="0.8" d="M14.4956 17.5448C14.3864 17.5444 14.2783 17.5261 14.1769 17.4908C14.0634 17.4532 13.9534 17.4081 13.8479 17.3557C13.7337 17.3022 13.6238 17.242 13.5189 17.1756L13.2208 16.9774L13.0974 16.8513V17.0134V17.5809H12.8815V16.5451H12.9637C12.9637 16.5451 13.0665 16.6262 13.1282 16.6892L13.3544 16.8513L13.6114 17.0225C13.7036 17.0787 13.7998 17.1299 13.8993 17.1756C13.9878 17.2191 14.0807 17.2552 14.1769 17.2836C14.262 17.2956 14.3488 17.2956 14.4339 17.2836C14.5234 17.2866 14.6111 17.261 14.6807 17.2116C14.7131 17.1817 14.738 17.1463 14.7539 17.1075C14.7699 17.0688 14.7764 17.0275 14.7732 16.9864C14.7879 16.924 14.7879 16.8597 14.7732 16.7973C14.7433 16.7412 14.709 16.687 14.6704 16.6352L14.8349 16.5541C14.8995 16.6152 14.9454 16.6895 14.9685 16.7703C15.0063 16.8532 15.0238 16.9422 15.0199 17.0315C15.0364 17.0967 15.0364 17.1643 15.0199 17.2296C15.0016 17.283 14.97 17.3322 14.9274 17.3737C14.879 17.412 14.8234 17.4424 14.7629 17.4638C14.6814 17.5072 14.5903 17.5348 14.4956 17.5448Z" fill="white"/>
<path opacity="0.8" d="M13.1187 18.076V18.4363H14.5477H14.7225L14.5786 18.3372L14.3935 18.076L14.4963 18.013L15.0001 18.5804V18.6795H13.1187V19.0307H12.9028V18.1301L13.1187 18.076Z" fill="white"/>
<path opacity="0.8" d="M12.9028 19.49L14.63 20.1385L14.7739 20.2556V20.1025V19.364H15.0001V20.4447H14.9179L12.9336 19.6972L12.9028 19.49Z" fill="white"/>
<path opacity="0.8" d="M13.5299 22.9667V22.6605H12.9028V22.4623H13.5299V21.6608H13.6327L15.0001 22.5614V22.6965H13.7458V23.0027L13.5299 22.9667ZM14.3832 22.4623H14.63L14.4244 22.3723L13.8589 22.003L13.715 21.8859V22.0661V22.4443L14.3832 22.4623Z" fill="white"/>
<path opacity="0.8" d="M12.9028 23.309L14.63 23.9574L14.7739 24.0655V23.9214V23.1829H15.0001V24.2636H14.9179L12.9336 23.5161L12.9028 23.309Z" fill="white"/>
<path opacity="0.8" d="M13.1187 24.7141V25.0743H14.5477H14.7225L14.5786 24.9662L14.3935 24.7141L14.5375 24.615L15.0412 25.1824V25.2725H13.1187V25.6327H12.9028V24.7321L13.1187 24.7141Z" fill="white"/>
<path opacity="0.8" d="M13.0666 26.4521C13.0568 26.5058 13.0568 26.5606 13.0666 26.6143C13.0876 26.6613 13.119 26.7042 13.1591 26.7404C13.1967 26.7753 13.2423 26.8029 13.2928 26.8214C13.3501 26.8348 13.4103 26.8348 13.4676 26.8214C13.5249 26.8244 13.5823 26.8162 13.6356 26.7975C13.6889 26.7788 13.7368 26.7501 13.776 26.7133C13.8428 26.6257 13.8753 26.5214 13.8685 26.4161V26.227H13.9611L14.6191 26.5962L14.7424 26.7223V26.5512V26.1189H14.9686V27.0196H14.8761L14.177 26.6143L14.0844 26.5242V26.6053C14.0951 26.671 14.0951 26.7377 14.0844 26.8034C14.0528 26.8598 14.0112 26.9115 13.9611 26.9565C13.9063 27.0019 13.8417 27.0373 13.771 27.0605C13.7004 27.0837 13.6252 27.0943 13.5498 27.0916C13.4515 27.0922 13.354 27.0769 13.262 27.0466C13.1837 27.0142 13.1137 26.9683 13.0563 26.9115C13.0016 26.8527 12.9597 26.7855 12.933 26.7133C12.9011 26.6352 12.8837 26.5531 12.8816 26.4702C12.8756 26.4012 12.8756 26.332 12.8816 26.263C12.8912 26.2074 12.9085 26.1529 12.933 26.1009L13.1489 26.1549C13.1204 26.1969 13.0996 26.2425 13.0872 26.29C13.0759 26.3436 13.069 26.3977 13.0666 26.4521Z" fill="white"/>
</g>
<g opacity="0.8">
<path opacity="0.8" d="M10.8053 1.98147V2.17961H9.25285C9.13272 2.18551 9.01365 2.15707 8.91357 2.09855C8.8727 2.0588 8.84305 2.0112 8.82698 1.95958C8.81091 1.90797 8.80887 1.85377 8.82104 1.80134C8.82104 1.80134 8.82104 1.80134 8.82104 1.73829C8.82104 1.67525 8.82104 1.73829 8.82104 1.68425C8.82104 1.63021 8.82104 1.68425 8.82104 1.63922H9.01638C9.0066 1.6899 9.0066 1.74165 9.01638 1.79233C9.01127 1.81964 9.01656 1.84766 9.03142 1.87207C9.04628 1.89648 9.0699 1.91594 9.09863 1.92743C9.17275 1.94461 9.25069 1.94461 9.32481 1.92743L10.8053 1.98147Z" fill="white"/>
<path opacity="0.8" d="M9.81839 2.55788C10.0881 2.53919 10.3569 2.60284 10.5792 2.73801C10.6643 2.80042 10.7318 2.87924 10.7764 2.96829C10.821 3.05735 10.8415 3.15424 10.8362 3.25138C10.8404 3.35992 10.8157 3.46782 10.7642 3.56661C10.7158 3.65167 10.6454 3.72567 10.5586 3.78277C10.4639 3.84433 10.3552 3.88733 10.2399 3.90886C10.0999 3.92376 9.95838 3.92376 9.81839 3.90886C9.55572 3.92199 9.29546 3.85866 9.07815 3.72873C8.99033 3.66584 8.92044 3.58588 8.87404 3.49521C8.82764 3.40453 8.80601 3.30563 8.81085 3.20635C8.81082 3.10105 8.83531 2.99686 8.88281 2.90013C8.93383 2.8216 9.00405 2.75394 9.08843 2.70198C9.18239 2.63746 9.29108 2.59139 9.40714 2.56689C9.54334 2.54971 9.68138 2.54669 9.81839 2.55788ZM9.81839 2.77404C9.71929 2.76473 9.61934 2.76473 9.52024 2.77404C9.42451 2.79587 9.334 2.83247 9.25293 2.88212C9.18249 2.92124 9.12281 2.97352 9.07815 3.03523C9.02842 3.09869 9.0032 3.17444 9.00619 3.25138C9.01066 3.3233 9.03557 3.39311 9.07866 3.45445C9.12175 3.51579 9.18165 3.56673 9.25293 3.60264C9.43242 3.69684 9.64045 3.74083 9.84923 3.72873C9.95174 3.73848 10.0551 3.73848 10.1577 3.72873C10.2423 3.70098 10.3193 3.65803 10.3838 3.60264C10.4566 3.56607 10.5169 3.51323 10.5586 3.44953C10.6113 3.38732 10.6368 3.31064 10.6306 3.23337C10.6326 3.16538 10.6159 3.09796 10.5819 3.03682C10.5479 2.97567 10.4976 2.92261 10.4352 2.88212C10.2476 2.79051 10.0318 2.75272 9.81839 2.77404Z" fill="white"/>
<path opacity="0.8" d="M9.74551 5.32288V4.50329H8.84078V4.29614H10.8045V4.50329H9.95113V5.32288H10.8045V5.52103H8.84078V5.32288H9.74551Z" fill="white"/>
<path opacity="0.8" d="M10.1265 6.25062L10.4041 6.11552H10.1265H8.84136V5.9444H10.8359V6.05248L9.53018 6.87207L9.2526 6.99816H9.5199H10.7947V7.20531H8.82079V7.0612L10.1265 6.25062Z" fill="white"/>
<path opacity="0.8" d="M9.34464 9.00642C9.37886 9.0083 9.41313 9.00363 9.44509 8.99274C9.47704 8.98186 9.50591 8.96501 9.5297 8.94338C9.58766 8.9025 9.6335 8.84998 9.66335 8.79027L9.77644 8.59213C9.80793 8.52349 9.84575 8.45723 9.88953 8.39398C9.93792 8.33187 10.001 8.27964 10.0746 8.24087C10.1495 8.19476 10.2402 8.17251 10.3316 8.17783C10.4018 8.175 10.4719 8.18655 10.5361 8.21156C10.6004 8.23658 10.6571 8.27437 10.7017 8.32193C10.8016 8.43461 10.8493 8.5761 10.8354 8.71822C10.8465 8.80802 10.8465 8.89861 10.8354 8.98841C10.83 9.05452 10.809 9.11894 10.7737 9.17755L10.5681 9.1145C10.5949 9.06245 10.6156 9.00813 10.6298 8.95239C10.6416 8.86864 10.6416 8.78394 10.6298 8.7002C10.6363 8.61593 10.607 8.53252 10.5475 8.46603C10.5232 8.44135 10.4933 8.4214 10.4596 8.40744C10.426 8.39348 10.3894 8.38583 10.3522 8.38498C10.2852 8.38357 10.2197 8.40268 10.1671 8.43901C10.12 8.48615 10.0787 8.53747 10.0437 8.59213C9.99994 8.65848 9.96212 8.72774 9.93066 8.79928C9.89225 8.86836 9.84755 8.93462 9.797 8.99742C9.74673 9.055 9.68796 9.10649 9.62223 9.15053C9.54357 9.18826 9.45484 9.20692 9.3652 9.20457C9.2907 9.21898 9.21352 9.21898 9.13902 9.20457C9.07043 9.17907 9.01031 9.13879 8.96424 9.08748C8.91258 9.03503 8.87405 8.97366 8.85115 8.90735C8.83975 8.8266 8.83975 8.74493 8.85115 8.66418C8.83858 8.5624 8.83858 8.45973 8.85115 8.35796C8.86079 8.27213 8.88149 8.18753 8.91284 8.10577L9.11846 8.17783C9.09031 8.23255 9.0696 8.28999 9.05677 8.34895C9.04042 8.42938 9.04042 8.5117 9.05677 8.59213C9.05113 8.64304 9.05113 8.69432 9.05677 8.74524C9.06442 8.78855 9.08579 8.82912 9.11846 8.86232C9.1256 8.89408 9.14152 8.92382 9.16482 8.94894C9.18812 8.97406 9.21809 8.9938 9.25211 9.00642C9.28259 9.01228 9.31416 9.01228 9.34464 9.00642Z" fill="white"/>
<path opacity="0.8" d="M10.1567 10.8528H10.4549L10.1876 10.8078L9.30342 10.3665V10.2674L10.1876 9.79907L10.4549 9.70901H10.1567H8.84078V9.51086H10.8045V9.66397L9.77635 10.1954L9.56045 10.2854L9.78663 10.3665L10.8147 10.8708V11.033H8.84078V10.8258L10.1567 10.8528Z" fill="white"/>
<path opacity="0.8" d="M10.8045 11.5194V11.7085H8.84078V11.5013L10.8045 11.5194Z" fill="white"/>
<path opacity="0.8" d="M10.5988 13.2938V12.7624H8.84078V12.5552H10.5988V12.0239H10.8045V13.2938H10.5988Z" fill="white"/>
<path opacity="0.8" d="M10.5988 14.6988V14.1674H8.84078V13.9602H10.5988V13.4288H10.8045V14.6988H10.5988Z" fill="white"/>
</g>
<g style="mix-blend-mode:multiply">
<g style="mix-blend-mode:multiply">
<path d="M23.2969 13.8701V14.0232H21.8164V13.8701H23.2969Z" fill="#DBAF12"/>
</g>
<g style="mix-blend-mode:multiply">
<path d="M22.7828 14.6085L22.9987 14.5095H22.7828H21.8163V14.4104H23.3277V14.4915L22.2995 15.1219L22.0939 15.212H22.2995H23.266V15.3111H21.7855V15.23L22.7828 14.6085Z" fill="#DBAF12"/>
</g>
<g style="mix-blend-mode:multiply">
<path d="M23.1426 16.473V16.0677H21.8164V15.9146H23.1426V15.5093H23.2969V16.473H23.1426Z" fill="#DBAF12"/>
</g>
<g style="mix-blend-mode:multiply">
<path d="M23.2967 16.662V17.3736H23.1425V16.8152H22.6182V17.3285H22.4537V16.8152H21.9294V17.3826H21.7752V16.662H23.2967Z" fill="#DBAF12"/>
</g>
<g style="mix-blend-mode:multiply">
<path d="M23.2865 17.6619C23.292 17.7158 23.292 17.7701 23.2865 17.824C23.2913 17.881 23.2913 17.9382 23.2865 17.9951C23.2915 18.0491 23.2915 18.1033 23.2865 18.1572C23.2709 18.2054 23.2466 18.251 23.2145 18.2923C23.1838 18.3341 23.1413 18.3683 23.0911 18.3914C23.0265 18.4017 22.9604 18.4017 22.8958 18.3914C22.7902 18.3949 22.6871 18.3627 22.6079 18.3013C22.5388 18.2454 22.4889 18.1737 22.464 18.0942L22.392 18.1843L21.806 18.5085V18.3284L22.4434 17.9681V17.779H21.7752V17.6259L23.2865 17.6619ZM23.1631 17.9951V17.8961C23.167 17.8812 23.167 17.8658 23.1631 17.851H22.6182V18.0131C22.6173 18.0885 22.6464 18.1617 22.7005 18.2203C22.7265 18.2479 22.7597 18.2696 22.7972 18.2837C22.8348 18.2978 22.8756 18.3038 22.9164 18.3013C22.9521 18.3034 22.988 18.2988 23.0216 18.2879C23.0553 18.2771 23.086 18.2602 23.1117 18.2383C23.1393 18.2067 23.1582 18.17 23.1672 18.1309C23.1761 18.0919 23.1747 18.0516 23.1631 18.0131V17.9951Z" fill="#DBAF12"/>
</g>
<g style="mix-blend-mode:multiply">
<path d="M22.7828 19.0037L22.9987 18.9047H22.7828H21.8163V18.7606H23.3277V18.8416L22.2995 19.4721L22.0939 19.5621H22.2995H23.266V19.7062H21.7855V19.6252L22.7828 19.0037Z" fill="#DBAF12"/>
</g>
<g style="mix-blend-mode:multiply">
<path d="M22.2276 20.643V20.1656L21.8164 20.0395V19.8864L23.3277 20.3728V20.4448L21.8164 20.9402V20.7781L22.2276 20.643ZM22.3818 20.2197V20.5979L22.8342 20.4538L23.0604 20.4088L22.8239 20.3638L22.3818 20.2197Z" fill="#DBAF12"/>
</g>
<g style="mix-blend-mode:multiply">
<path d="M23.1426 21.8319V21.4266H21.8164V21.2735H23.1426V20.8682H23.2969V21.8319H23.1426Z" fill="#DBAF12"/>
</g>
<g style="mix-blend-mode:multiply">
<path d="M23.2969 22.066V22.2192H21.8164V22.066H23.2969Z" fill="#DBAF12"/>
</g>
<g style="mix-blend-mode:multiply">
<path d="M22.5566 22.5164C22.7601 22.5065 22.9618 22.5539 23.1323 22.6515C23.1969 22.7003 23.2481 22.7614 23.2819 22.83C23.3157 22.8986 23.3314 22.9731 23.3277 23.0478C23.3303 23.1292 23.309 23.2098 23.266 23.2819C23.2334 23.3502 23.1801 23.4094 23.1118 23.4531C23.0421 23.4989 22.9611 23.5298 22.8753 23.5431C22.7697 23.5568 22.6623 23.5568 22.5566 23.5431C22.353 23.5543 22.1508 23.5068 21.9809 23.408C21.9151 23.3601 21.8631 23.2992 21.8292 23.2303C21.7952 23.1615 21.7803 23.0866 21.7855 23.0117C21.7681 22.9344 21.7681 22.8549 21.7855 22.7776C21.8227 22.7091 21.8793 22.6502 21.95 22.6064C22.0213 22.561 22.1014 22.5274 22.1865 22.5074C22.3098 22.4972 22.4341 22.5002 22.5566 22.5164ZM22.5566 22.6785H22.3201C22.251 22.6931 22.1851 22.7174 22.1248 22.7506C22.0709 22.7766 22.0251 22.8137 21.9912 22.8586C21.9584 22.9112 21.9408 22.9699 21.9398 23.0298C21.9393 23.0822 21.9531 23.1341 21.9799 23.181C22.0067 23.228 22.0458 23.2687 22.094 23.2999C22.3049 23.3995 22.5511 23.4253 22.7828 23.372C22.8551 23.362 22.9248 23.3407 22.9884 23.309C23.0404 23.277 23.0856 23.2374 23.1221 23.1919C23.1387 23.1388 23.1387 23.0828 23.1221 23.0298C23.1263 22.9777 23.1154 22.9256 23.0902 22.8783C23.065 22.831 23.0264 22.7901 22.9781 22.7596C22.8487 22.6993 22.7029 22.6713 22.5566 22.6785Z" fill="#DBAF12"/>
</g>
<g style="mix-blend-mode:multiply">
<path d="M22.7828 24.0745L22.9987 23.9754H22.7828H21.8163V23.8313H23.3277V23.9124L22.2995 24.5428L22.0939 24.6329H22.2995H23.266V24.777H21.7855V24.6959L22.7828 24.0745Z" fill="#DBAF12"/>
</g>
<g style="mix-blend-mode:multiply">
<path d="M22.2276 25.7137V25.2184L21.8164 25.0923V24.9482L23.3277 25.4435V25.5156L21.8164 26.0109V25.8488L22.2276 25.7137ZM22.3818 25.2904V25.6687L22.8342 25.5246L23.0604 25.4796L22.8239 25.4255L22.3818 25.2904Z" fill="#DBAF12"/>
</g>
<g style="mix-blend-mode:multiply">
<path d="M21.8164 26.9566V26.1821H23.2969V26.3442H21.9706V26.9566H21.8164Z" fill="#DBAF12"/>
</g>
<g style="mix-blend-mode:multiply">
<path d="M20.4079 23.3449H20.3051C20.2717 23.3545 20.2356 23.3545 20.2023 23.3449C20.1649 23.3282 20.1331 23.3034 20.1097 23.2729C20.1057 23.2369 20.1057 23.2007 20.1097 23.1648C20.1141 23.2007 20.1141 23.2369 20.1097 23.2729C20.0969 23.3065 20.0758 23.3372 20.048 23.3629L19.9349 23.426H19.7807C19.7165 23.4394 19.6496 23.4394 19.5854 23.426C19.5334 23.3941 19.4882 23.3544 19.4517 23.3089C19.4123 23.2635 19.3843 23.2113 19.3695 23.1558C19.3589 23.0961 19.3589 23.0353 19.3695 22.9756V22.8135C19.3644 22.7837 19.3644 22.7533 19.3695 22.7235C19.3695 22.7235 19.3695 22.6604 19.3695 22.6424H20.8397C20.8397 22.6874 20.8397 22.7415 20.8397 22.7955C20.845 22.8645 20.845 22.9337 20.8397 23.0027C20.8441 23.0506 20.8441 23.0988 20.8397 23.1468C20.8353 23.1948 20.8176 23.2411 20.7883 23.2819C20.7629 23.3237 20.7279 23.3605 20.6855 23.3899C20.5899 23.3989 20.4934 23.3833 20.4079 23.3449ZM20.0892 22.8135C20.0847 22.8374 20.0847 22.8617 20.0892 22.8856V22.9576C20.0874 22.9876 20.0874 23.0177 20.0892 23.0477L20.1508 23.1107C20.1694 23.1336 20.1941 23.1522 20.2228 23.1648H20.3256C20.3626 23.174 20.4018 23.174 20.4387 23.1648C20.4676 23.1486 20.4922 23.1271 20.5107 23.1017C20.5164 23.0719 20.5164 23.0415 20.5107 23.0117C20.5107 23.0117 20.5107 22.9486 20.5107 22.9126C20.5162 22.8737 20.5162 22.8344 20.5107 22.7955V22.7235H19.9966L20.0892 22.8135ZM19.4003 22.9126C19.3952 22.9515 19.3952 22.9908 19.4003 23.0297C19.4112 23.0649 19.4285 23.0984 19.4517 23.1287C19.4741 23.1543 19.5021 23.1758 19.534 23.1918C19.5746 23.1999 19.6168 23.1999 19.6574 23.1918C19.7046 23.2021 19.754 23.2021 19.8013 23.1918L19.8835 23.1107C19.8894 23.0719 19.8894 23.0325 19.8835 22.9936C19.8886 22.9547 19.8886 22.9155 19.8835 22.8766V22.7144H19.3489V22.8766L19.4003 22.9126Z" fill="#DBAF12"/>
</g>
<g style="mix-blend-mode:multiply">
<path d="M19.6668 24.2637V23.7863L19.2556 23.6602V23.4981L20.7669 23.9935V24.0655L19.2556 24.5609V24.3988L19.6668 24.2637ZM19.8313 23.8404V24.2186L20.2734 24.0745L20.4996 24.0295L20.2734 23.9845L19.8313 23.8404Z" fill="#DBAF12"/>
</g>
<g style="mix-blend-mode:multiply">
<path d="M20.2328 24.9661L20.4487 24.867H20.2328H19.2561V24.7139H20.7674V24.804L19.7393 25.4254L19.5337 25.5245H19.7393H20.7058V25.6686H19.2356V25.5876L20.2328 24.9661Z" fill="#DBAF12"/>
</g>
<g style="mix-blend-mode:multiply">
<path d="M19.9452 26.236V26.1189H19.2564V25.9658H20.7471V26.1189H20.0583V26.1999L20.7163 26.6412V26.8124L20.0789 26.3801L20.0069 26.299L19.9246 26.3981L19.2255 26.8754V26.6773L19.9452 26.236Z" fill="#DBAF12"/>
</g>
</g>
<g style="mix-blend-mode:multiply">
<g style="mix-blend-mode:multiply">
<path d="M9.32497 20.5258V19.7512H10.8054V19.9133H9.47919V20.5258H9.32497Z" fill="#DBAF12"/>
</g>
<g style="mix-blend-mode:multiply">
<path d="M9.73621 21.2013V20.7149L9.32497 20.5888V20.4357L10.8363 20.9311V20.9941L9.32497 21.4985V21.3274L9.73621 21.2013ZM9.89043 20.769V21.1472L10.3428 21.0031L10.569 20.9581L10.3325 20.9131L9.89043 20.769Z" fill="#DBAF12"/>
</g>
<g style="mix-blend-mode:multiply">
<path d="M9.69504 22.2551C9.75065 22.2551 9.80477 22.2393 9.84926 22.2101C9.88485 22.1741 9.91587 22.1349 9.94179 22.093C9.97529 22.0447 10.0029 21.9933 10.024 21.9399L10.1166 21.7868L10.2502 21.6697C10.3176 21.654 10.3885 21.654 10.4558 21.6697C10.5084 21.6683 10.5607 21.6772 10.6087 21.6959C10.6568 21.7147 10.6994 21.7426 10.7334 21.7778C10.8039 21.8643 10.84 21.9687 10.8362 22.075C10.8422 22.1469 10.8422 22.2192 10.8362 22.2911C10.8436 22.339 10.8436 22.3874 10.8362 22.4352L10.682 22.3812C10.6875 22.3393 10.6875 22.297 10.682 22.2551C10.6926 22.1954 10.6926 22.1347 10.682 22.075C10.6867 22.0415 10.6837 22.0074 10.6731 21.9749C10.6625 21.9424 10.6446 21.9122 10.6203 21.8859C10.6028 21.867 10.5809 21.8516 10.5561 21.8407C10.5313 21.8299 10.5041 21.8238 10.4764 21.8228C10.4509 21.8221 10.4255 21.8266 10.4023 21.836C10.3791 21.8454 10.3587 21.8594 10.3427 21.8768C10.2981 21.9079 10.2628 21.9481 10.2399 21.9939C10.2065 22.0391 10.1789 22.0875 10.1577 22.138C10.1293 22.1919 10.0948 22.2432 10.0549 22.2911C10.0185 22.3367 9.97322 22.3763 9.92122 22.4082C9.86373 22.442 9.79492 22.4579 9.72589 22.4533C9.66811 22.4626 9.60888 22.4626 9.55111 22.4533C9.49813 22.4343 9.45197 22.4032 9.41745 22.3632C9.38192 22.3223 9.35415 22.2767 9.33521 22.2281C9.32368 22.1655 9.32368 22.1016 9.33521 22.039C9.3289 21.961 9.3289 21.8828 9.33521 21.8048C9.33881 21.7404 9.35265 21.6767 9.37633 21.6157L9.53055 21.6697C9.52418 21.7115 9.52418 21.7539 9.53055 21.7958C9.51977 21.8555 9.51977 21.9162 9.53055 21.9759C9.52485 22.0148 9.52485 22.0541 9.53055 22.093C9.52475 22.1258 9.52475 22.1592 9.53055 22.1921C9.55329 22.2173 9.58118 22.2387 9.61279 22.2551H9.69504Z" fill="#DBAF12"/>
</g>
<g style="mix-blend-mode:multiply">
<path d="M10.6512 23.498V23.0927H9.32497V22.9396H10.6512V22.5163H10.8054V23.48L10.6512 23.498Z" fill="#DBAF12"/>
</g>
<g style="mix-blend-mode:multiply">
<path d="M10.8051 24.1104C10.8101 24.1373 10.8101 24.1646 10.8051 24.1915C10.8051 24.1915 10.8051 24.2545 10.8051 24.2815V24.4617C10.8234 24.551 10.8234 24.6425 10.8051 24.7319C10.7709 24.8044 10.7181 24.8691 10.6509 24.921C10.5814 24.976 10.4961 25.0134 10.4041 25.0291C10.3083 25.0586 10.2076 25.0739 10.106 25.0741C10.0103 25.0835 9.91378 25.0835 9.81813 25.0741C9.73017 25.0491 9.647 25.0127 9.57138 24.966C9.49675 24.9124 9.43699 24.8447 9.3966 24.7679C9.35252 24.6768 9.33147 24.5785 9.33492 24.4797V24.3176C9.33492 24.3176 9.33492 24.2455 9.33492 24.2185V24.1554L10.8051 24.1104ZM10.6714 24.4617V24.3176C10.6675 24.3027 10.6675 24.2873 10.6714 24.2725H9.46857V24.4166C9.46771 24.494 9.48522 24.5707 9.51998 24.6418C9.55304 24.6947 9.59861 24.7407 9.65363 24.7769C9.71602 24.8146 9.78568 24.842 9.85925 24.858H10.0854C10.1536 24.8668 10.2229 24.8668 10.2911 24.858C10.3602 24.8433 10.4262 24.819 10.4864 24.7859C10.5414 24.7497 10.587 24.7037 10.62 24.6508C10.6553 24.5926 10.673 24.5275 10.6714 24.4617Z" fill="#DBAF12"/>
</g>
<g style="mix-blend-mode:multiply">
<path d="M9.73621 25.9026V25.4253L9.32497 25.2992V25.1461L10.8363 25.6324V25.7045L9.32497 26.1998V26.0377L9.73621 25.9026ZM9.89043 25.4793V25.8576L10.3428 25.7135L10.569 25.6684L10.3325 25.6234L9.89043 25.4793Z" fill="#DBAF12"/>
</g>
<g style="mix-blend-mode:multiply">
<path d="M9.91099 26.5332L10.8054 26.1009V26.281L10.1577 26.5872H10.0241H10.1577L10.8054 26.8845V27.0466L9.91099 26.6143H9.32497V26.4612L9.91099 26.5332Z" fill="#DBAF12"/>
</g>
</g>
<g opacity="0.8">
<path opacity="0.8" d="M7.76213 22.3902C7.96197 22.3762 8.16209 22.4138 8.33787 22.4982C8.39724 22.5338 8.44581 22.5815 8.47938 22.6372C8.51295 22.6929 8.53049 22.755 8.53049 22.818C8.53049 22.881 8.51295 22.943 8.47938 22.9987C8.44581 23.0545 8.39724 23.1022 8.33787 23.1377C8.15716 23.2192 7.95472 23.2565 7.75185 23.2458C7.55788 23.2535 7.3654 23.2129 7.19667 23.1287C7.13479 23.0964 7.08399 23.05 7.04961 22.9946C7.01524 22.9391 6.99856 22.8765 7.00133 22.8135C7.00313 22.7536 7.02194 22.6951 7.05604 22.6432C7.09015 22.5913 7.13848 22.5477 7.19667 22.5163C7.36837 22.4295 7.56401 22.3859 7.76213 22.3902ZM7.76213 22.5433C7.68025 22.5336 7.59726 22.5336 7.51539 22.5433C7.44828 22.5506 7.38258 22.5658 7.32005 22.5883C7.26777 22.6083 7.22189 22.6392 7.18639 22.6784C7.16974 22.716 7.16974 22.7578 7.18639 22.7955C7.18399 22.8386 7.19642 22.8815 7.22208 22.9184C7.24773 22.9553 7.28544 22.9846 7.33033 23.0026C7.48087 23.0535 7.64226 23.075 7.80325 23.0657H8.05L8.25562 23.0206C8.3031 22.998 8.34502 22.9674 8.37899 22.9306C8.41231 22.895 8.43048 22.8504 8.43039 22.8045C8.42485 22.7565 8.40188 22.7114 8.36486 22.6757C8.32785 22.64 8.27874 22.6157 8.22477 22.6063C8.07976 22.5475 7.92195 22.5168 7.76213 22.5163V22.5433Z" fill="white"/>
<path opacity="0.8" d="M7.02192 23.525L8.2248 23.9933L8.32761 24.0744V23.9663V23.4169H8.4921V24.1915H8.45098L7.02192 23.6601V23.525Z" fill="white"/>
<path opacity="0.8" d="M8.53324 24.948L8.47156 25.0651L6.72379 24.3896V24.2725L8.53324 24.948Z" fill="white"/>
<path opacity="0.8" d="M7.1967 25.2183V25.4795H8.2248H8.34817L8.2248 25.4074L8.0603 25.2183L8.2248 25.1282L8.58463 25.5335V25.6056H7.1967V25.8578H7.02192V25.2183H7.1967Z" fill="white"/>
<path opacity="0.8" d="M7.46409 26.9295C7.4028 26.9381 7.34033 26.9381 7.27904 26.9295L7.1351 26.8575C7.09189 26.8216 7.05699 26.7788 7.03229 26.7314C6.984 26.6212 6.984 26.4993 7.03229 26.3891C7.0606 26.3436 7.09512 26.3012 7.1351 26.263C7.17397 26.2058 7.22659 26.1566 7.28932 26.1189C7.36433 26.1096 7.44048 26.1096 7.5155 26.1189C7.64479 26.0996 7.77689 26.0996 7.90618 26.1189C8.01983 26.1417 8.12559 26.1881 8.21461 26.254C8.30119 26.3028 8.37481 26.3673 8.43051 26.4432C8.48416 26.5201 8.51916 26.606 8.53332 26.6953H8.39967C8.38307 26.6262 8.35538 26.5595 8.31742 26.4972C8.28764 26.4778 8.25675 26.4598 8.22489 26.4432C8.16409 26.3969 8.0945 26.3603 8.01927 26.3351C7.9508 26.3077 7.87802 26.2895 7.80337 26.281C7.84755 26.305 7.88317 26.3393 7.90618 26.3801C7.94014 26.4322 7.95787 26.4912 7.95758 26.5512C7.96146 26.6535 7.92106 26.7532 7.84449 26.8304C7.79306 26.8701 7.73241 26.8995 7.66673 26.9166C7.60105 26.9337 7.53191 26.9381 7.46409 26.9295ZM7.46409 26.7764C7.54594 26.7817 7.62696 26.7591 7.69028 26.7133C7.71632 26.6878 7.73613 26.6578 7.7485 26.6253C7.76088 26.5928 7.76555 26.5584 7.76224 26.5242C7.78341 26.4718 7.78341 26.4145 7.76224 26.3621C7.73234 26.3253 7.69378 26.2946 7.64915 26.272H7.37157C7.33079 26.2846 7.2926 26.3028 7.25847 26.3261C7.22333 26.3462 7.19494 26.3742 7.17623 26.4071C7.16574 26.4456 7.16574 26.4857 7.17623 26.5242C7.16566 26.5566 7.16566 26.5909 7.17623 26.6233L7.23791 26.6953C7.26567 26.7215 7.30132 26.7402 7.34072 26.7494L7.46409 26.7764Z" fill="white"/>
</g>
<path style="mix-blend-mode:screen" opacity="0.7" d="M27.9747 20.6249V1.33296C27.9747 0.980995 27.8158 0.643308 27.5327 0.393586C27.2495 0.143864 26.8652 0.00237817 26.4634 0L6.04529 0C5.64352 0.00237817 5.25914 0.143864 4.976 0.393586C4.69287 0.643308 4.53397 0.980995 4.53398 1.33296V9.90716L27.9747 20.6249Z" fill="url(#paint14_linear)"/>
<path d="M22.4435 3.07117H18.9686C18.2702 3.07117 17.704 3.56715 17.704 4.17897V7.70051C17.704 8.31234 18.2702 8.80831 18.9686 8.80831H22.4435C23.1419 8.80831 23.7081 8.31234 23.7081 7.70051V4.17897C23.7081 3.56715 23.1419 3.07117 22.4435 3.07117Z" fill="url(#paint15_linear)"/>
<g style="mix-blend-mode:multiply">
<path d="M23.7081 7.70051V4.17897C23.7081 3.88516 23.5749 3.60339 23.3377 3.39563C23.1006 3.18788 22.7789 3.07117 22.4435 3.07117H18.9686C18.6332 3.07117 18.3115 3.18788 18.0744 3.39563C17.8372 3.60339 17.704 3.88516 17.704 4.17897V7.70051C17.704 7.99432 17.8372 8.27609 18.0744 8.48385C18.3115 8.6916 18.6332 8.80831 18.9686 8.80831H22.4435C22.7789 8.80831 23.1006 8.6916 23.3377 8.48385C23.5749 8.27609 23.7081 7.99432 23.7081 7.70051ZM18.9686 8.60116C18.6959 8.60116 18.4344 8.50628 18.2416 8.33737C18.0488 8.16847 17.9405 7.93938 17.9405 7.70051V4.17897C17.9405 3.9401 18.0488 3.71102 18.2416 3.54211C18.4344 3.37321 18.6959 3.27832 18.9686 3.27832H22.4435C22.7162 3.27832 22.9777 3.37321 23.1705 3.54211C23.3633 3.71102 23.4716 3.9401 23.4716 4.17897V7.70051C23.4716 7.93938 23.3633 8.16847 23.1705 8.33737C22.9777 8.50628 22.7162 8.60116 22.4435 8.60116H18.9686Z" fill="#A9C8EB"/>
</g>
<g style="mix-blend-mode:multiply">
<path d="M22.7211 8.7813L22.937 8.71825V6.0163H23.7081V5.84517H22.937V3.14322L22.7211 3.08017V4.16095H21.5902V3.07117H21.3743V4.17897H20.2126V3.07117H19.9864V4.17897H18.8452V3.08017H18.619V5.78213H17.704V5.98027H18.619V8.68222H18.8452V7.72753H19.9864V8.80831H20.2126V7.72753H21.3538V8.80831H21.5902V7.72753H22.7211V8.7813ZM21.3538 4.37711V5.84517H20.2126V4.37711H21.3538ZM18.8452 7.5384V4.37711H19.9864V7.5384H18.8452ZM20.2126 7.5384V6.04332H21.3538V7.5384H20.2126ZM21.5697 7.5384V4.37711H22.7211V7.5384H21.5697Z" fill="#A9C8EB"/>
</g>
<path d="M60 52.8232H27.7176V64.0273H60V52.8232Z" fill="url(#paint16_linear)"/>
<g style="mix-blend-mode:multiply">
<g style="mix-blend-mode:multiply">
<path d="M57.07 57.0833H30.6478V59.7672H57.07V57.0833Z" fill="#6791A1"/>
</g>
</g>
<path d="M53.4094 34.0288L34.061 34.1535L34.3062 65.0091L53.6545 64.8844L53.4094 34.0288Z" fill="url(#paint17_linear)"/>
<g style="mix-blend-mode:multiply">
<path d="M36.0761 63.2798L51.8985 63.1807L51.6724 35.7559L35.8499 35.855L36.0761 63.2798ZM48.3208 61.8658L39.6025 61.9198C39.6075 61.8418 39.6075 61.7637 39.6025 61.6857C39.6011 61.4799 39.5535 61.2763 39.4624 61.0866C39.3712 60.897 39.2383 60.7249 39.0712 60.5802C38.9042 60.4355 38.7062 60.321 38.4886 60.2434C38.2711 60.1657 38.0382 60.1264 37.8033 60.1275H37.5463L37.3715 38.9262H37.6285C37.8638 38.9262 38.0968 38.8853 38.3139 38.8059C38.5311 38.7265 38.7281 38.6101 38.8935 38.4635C39.0589 38.3169 39.1895 38.143 39.2777 37.9519C39.3658 37.7608 39.4098 37.5562 39.4071 37.3501C39.4122 37.2751 39.4122 37.1999 39.4071 37.1249L48.1254 37.0709C48.1201 37.1459 48.1201 37.2211 48.1254 37.296C48.1268 37.5018 48.1744 37.7054 48.2655 37.8951C48.3567 38.0847 48.4896 38.2568 48.6566 38.4015C48.8237 38.5462 49.0217 38.6607 49.2392 38.7383C49.4568 38.816 49.6897 38.8553 49.9246 38.8542C50.0102 38.8591 50.096 38.8591 50.1816 38.8542L50.377 60.0735H50.1097C49.6378 60.0758 49.1859 60.2405 48.8513 60.5319C48.5167 60.8234 48.3261 61.2183 48.3208 61.6316C48.3157 61.7096 48.3157 61.7878 48.3208 61.8658Z" fill="#299FBB"/>
</g>
<g style="mix-blend-mode:multiply">
<g style="mix-blend-mode:multiply">
<path d="M45.1027 50.2834C44.9355 50.0976 44.794 49.895 44.6812 49.68H46.6449C46.6427 49.9214 46.5361 50.1531 46.3467 50.3285C46.2587 50.4007 46.1553 50.457 46.0424 50.4941C45.9295 50.5312 45.8093 50.5483 45.6888 50.5446C45.5746 50.5443 45.4621 50.5205 45.3603 50.4751C45.2585 50.4297 45.1703 50.3641 45.1027 50.2834Z" fill="#299FBB"/>
</g>
<g style="mix-blend-mode:multiply">
<path d="M41.895 48.7162C42.0025 48.7144 42.1091 48.7336 42.2069 48.7726C42.3048 48.8116 42.3914 48.8692 42.4605 48.9414C42.6266 49.1149 42.7681 49.3054 42.882 49.5088H41.052C41.0393 49.2744 41.1316 49.045 41.309 48.8693C41.4765 48.7574 41.6849 48.7029 41.895 48.7162Z" fill="#299FBB"/>
</g>
<g style="mix-blend-mode:multiply">
<path d="M43.9102 54.6516C45.0473 54.6462 46.157 54.3455 47.0989 53.7874C48.0408 53.2294 48.7725 52.4391 49.2016 51.5166C49.6306 50.5941 49.7376 49.5808 49.509 48.605C49.2804 47.6292 48.7265 46.7347 47.9175 46.0348C47.1084 45.3348 46.0805 44.8609 44.9638 44.6729C43.8472 44.4849 42.6919 44.5913 41.6443 44.9787C40.5968 45.366 39.7039 46.0169 39.0787 46.849C38.4535 47.6811 38.1241 48.6569 38.1323 49.653C38.1458 50.986 38.7612 52.26 39.8439 53.1967C40.9266 54.1333 42.3886 54.6564 43.9102 54.6516ZM45.5346 51.8056C45.2382 51.8126 44.9436 51.7635 44.671 51.6614C44.434 51.5664 44.2182 51.4353 44.0336 51.2742C43.8503 51.1091 43.6914 50.9245 43.5606 50.7248C43.427 50.5176 43.3036 50.3105 43.2008 50.1123H41.124C41.1526 50.307 41.1973 50.4997 41.2577 50.6887C41.3297 50.8599 41.3914 51.004 41.4428 51.1121L40.209 51.4723C40.1268 51.2922 40.0445 51.094 39.9726 50.8779C39.9017 50.6298 39.857 50.3766 39.8389 50.1213H38.8622V49.1216H39.8903C39.9621 48.6631 40.1999 48.2369 40.5689 47.9057C40.7717 47.7457 41.0089 47.6227 41.2667 47.5438C41.5244 47.465 41.7974 47.4318 42.0699 47.4464C42.3719 47.4402 42.6723 47.4861 42.9541 47.5815C43.197 47.6678 43.4174 47.7965 43.6018 47.9598C43.7869 48.1145 43.943 48.2938 44.0644 48.4912C44.1981 48.6893 44.3112 48.8874 44.4242 49.0946H46.6964C46.6762 48.8376 46.621 48.5836 46.5319 48.338C46.4782 48.1645 46.3987 47.998 46.2954 47.8427L47.5702 47.4464C47.6935 47.6546 47.7868 47.8755 47.8478 48.1039C47.9276 48.4269 47.9758 48.7554 47.9918 49.0856H48.9582V50.0763H47.9301C47.8484 50.5565 47.5882 50.9997 47.1898 51.3372C46.7303 51.6786 46.1353 51.847 45.5346 51.8056Z" fill="#299FBB"/>
</g>
</g>
<path d="M59.527 31.5949C59.5246 29.0248 58.9046 26.4839 57.7073 24.1375C56.3912 21.8374 54.6548 19.7413 52.5667 17.932C50.6913 16.3348 48.5401 15.0066 46.1925 13.9962L46.8505 11.4293L37.3303 14.0412L44.6606 19.9585L45.2775 17.5537C47.0862 18.2129 48.7816 19.0889 50.3152 20.1566C52.3399 21.5959 54.0952 23.3038 55.5174 25.2183C56.9368 27.186 57.8718 29.3916 58.2624 31.694C58.7248 34.0733 58.8388 36.4946 58.6017 38.8992C59.2548 36.5075 59.5656 34.0539 59.527 31.5949Z" fill="url(#paint18_linear)"/>
<g style="mix-blend-mode:multiply">
<g style="mix-blend-mode:multiply">
<path d="M46.2645 13.6269L46.83 11.4293H46.7786L46.2234 13.5999L46.2645 13.6269Z" fill="#9FCBD6"/>
</g>
<g style="mix-blend-mode:multiply">
<path d="M59.3317 35.2335C59.1907 36.3467 58.9674 37.4509 58.6634 38.5389C58.9032 36.1346 58.7927 33.7134 58.3344 31.3336C57.9435 29.0341 57.0086 26.8315 55.5894 24.867C54.1625 22.9554 52.4039 21.2507 50.3769 19.8143C48.843 18.7493 47.1475 17.8764 45.3392 17.2204L44.7223 19.6162L37.721 13.9781L37.3303 14.0862L44.6606 20.0034L45.2775 17.5987C47.0862 18.2579 48.7816 19.1338 50.3152 20.2016C52.3359 21.6272 54.0909 23.3197 55.5174 25.2182C56.9368 27.1859 57.8718 29.3915 58.2624 31.6939C58.7248 34.0732 58.8388 36.4945 58.6017 38.8991C58.9372 37.6927 59.1811 36.4681 59.3317 35.2335Z" fill="#9FCBD6"/>
</g>
</g>
<g style="mix-blend-mode:screen">
<g style="mix-blend-mode:screen">
<path d="M46.2029 14.5365C48.5553 15.5406 50.7104 16.8661 52.5874 18.4634C54.6725 20.2783 56.4085 22.3769 57.7279 24.6779C58.6174 26.3865 59.1768 28.2126 59.3832 30.0818C59.2253 28.0171 58.6437 25.9943 57.6663 24.1104C56.3502 21.8104 54.6138 19.7142 52.5257 17.905C50.7075 16.3503 48.627 15.0502 46.3571 14.0502L46.2029 14.5365Z" fill="#284080"/>
</g>
<g style="mix-blend-mode:screen">
<path d="M58.7355 38.4038C58.8189 36.9017 58.7708 35.3962 58.5915 33.9005C58.7558 35.5847 58.7558 37.278 58.5915 38.9622L58.7355 38.4038Z" fill="#284080"/>
</g>
<g style="mix-blend-mode:screen">
<path d="M46.6552 12.0328L46.8095 11.4293L37.2892 14.0412L37.8033 14.4555L46.6552 12.0328Z" fill="#284080"/>
</g>
</g>
<path d="M25.8671 50.1034L18.4442 44.2671L17.8582 46.7169C15.9912 46.1739 14.1983 45.452 12.5121 44.5643C10.3147 43.3964 8.30872 41.9724 6.54907 40.3313C4.78153 38.6503 3.38693 36.6956 2.43666 34.5671C1.43538 32.3805 0.825057 30.0717 0.627203 27.7222C0.417342 30.1239 0.635864 32.5396 1.27491 34.8823C1.89998 37.3062 3.0367 39.6063 4.62652 41.6642C6.30568 43.6905 8.31868 45.4874 10.5998 46.9961C12.5768 48.2955 14.7236 49.384 16.9946 50.2384L16.3674 52.8233L25.8671 50.1034Z" fill="url(#paint19_linear)"/>
<g style="mix-blend-mode:multiply">
<g style="mix-blend-mode:multiply">
<path d="M16.4906 52.4268L16.3878 52.8231L25.8669 50.1031L25.5276 49.8329L16.4906 52.4268Z" fill="#9FCBD6"/>
</g>
<g style="mix-blend-mode:multiply">
<path d="M17.0664 49.8509C14.7937 48.9994 12.6466 47.9108 10.6716 46.6086C8.38809 45.1023 6.37471 43.3051 4.69836 41.2767C3.11288 39.22 1.97646 36.9236 1.34675 34.5038C0.773984 32.3474 0.549041 30.1312 0.678484 27.9201C0.672855 27.8421 0.672855 27.7639 0.678484 27.6859C0.468623 30.0876 0.687144 32.5033 1.32619 34.8461C1.95126 37.2699 3.08799 39.5701 4.6778 41.628C6.35696 43.6543 8.36996 45.4511 10.6511 46.9599C12.6181 48.2531 14.7545 49.3355 17.015 50.1842L17.0664 49.8509Z" fill="#9FCBD6"/>
</g>
</g>
<g style="mix-blend-mode:screen">
<g style="mix-blend-mode:screen">
<path d="M0.699156 28.2626C0.902774 30.6172 1.51286 32.9312 2.50862 35.1255C3.45926 37.2565 4.85374 39.2141 6.62102 40.8987C8.37699 42.5396 10.3796 43.9637 12.5737 45.1318C14.2621 46.0158 16.0545 46.7375 17.9199 47.2843L18.5059 44.8075L25.4147 50.2114L25.8774 50.0854L18.4545 44.2491L17.8685 46.6989C16.0014 46.1559 14.2085 45.434 12.5223 44.5463C10.325 43.3784 8.31899 41.9544 6.55933 40.3133C4.7918 38.6323 3.3972 36.6776 2.44693 34.5491C1.44565 32.3625 0.835325 30.0537 0.63747 27.7042C0.520909 29.0118 0.538112 30.326 0.688875 31.631C0.595671 30.5096 0.599108 29.3836 0.699156 28.2626Z" fill="#284080"/>
</g>
</g>
</g>
<defs>
<linearGradient id="paint0_linear" x1="16.1412" y1="16.4279" x2="16.1412" y2="5.23279" gradientUnits="userSpaceOnUse">
<stop stop-color="#CDEFFA"/>
<stop offset="0.31" stop-color="#D2F0FA"/>
<stop offset="0.65" stop-color="#DFF3FA"/>
<stop offset="1" stop-color="#F5F9FA"/>
</linearGradient>
<linearGradient id="paint1_linear" x1="16.2543" y1="28.6677" x2="16.2543" y2="0" gradientUnits="userSpaceOnUse">
<stop stop-color="#FF7B00"/>
<stop offset="0.05" stop-color="#FF8503"/>
<stop offset="0.21" stop-color="#FF9E0A"/>
<stop offset="0.38" stop-color="#FFAF10"/>
<stop offset="0.56" stop-color="#FFBA13"/>
<stop offset="0.77" stop-color="#FFBD14"/>
</linearGradient>
<linearGradient id="paint2_linear" x1="15.2365" y1="15.0859" x2="7.04887" y2="31.03" gradientUnits="userSpaceOnUse">
<stop stop-color="#FF7B00"/>
<stop offset="0.02" stop-color="#FF7D01"/>
<stop offset="0.67" stop-color="#FFAB0F"/>
<stop offset="1" stop-color="#FFBD14"/>
</linearGradient>
<linearGradient id="paint3_linear" x1="9.08997" y1="38.7903" x2="10.7244" y2="39.3901" gradientUnits="userSpaceOnUse">
<stop stop-color="#FAF5EB"/>
<stop offset="0.89" stop-color="#FAF6CD"/>
</linearGradient>
<linearGradient id="paint4_linear" x1="4.7866" y1="38.0953" x2="6.8802" y2="39.2639" gradientUnits="userSpaceOnUse">
<stop stop-color="#FAF5EB"/>
<stop offset="0.89" stop-color="#FAF6CD"/>
</linearGradient>
<linearGradient id="paint5_linear" x1="5.70811" y1="32.7142" x2="7.09945" y2="34.0378" gradientUnits="userSpaceOnUse">
<stop stop-color="#FAF5EB"/>
<stop offset="0.89" stop-color="#FAF6CD"/>
</linearGradient>
<linearGradient id="paint6_linear" x1="-5.69866" y1="43.1071" x2="-2.5402" y2="45.3905" gradientUnits="userSpaceOnUse">
<stop stop-color="#FAF5EB"/>
<stop offset="0.89" stop-color="#FAF6CD"/>
</linearGradient>
<linearGradient id="paint7_linear" x1="9.88161" y1="33.2461" x2="11.146" y2="34.0881" gradientUnits="userSpaceOnUse">
<stop stop-color="#FAF5EB"/>
<stop offset="0.89" stop-color="#FAF6CD"/>
</linearGradient>
<linearGradient id="paint8_linear" x1="10.6158" y1="26.7556" x2="11.6432" y2="27.3709" gradientUnits="userSpaceOnUse">
<stop stop-color="#FAF5EB"/>
<stop offset="0.89" stop-color="#FAF6CD"/>
</linearGradient>
<linearGradient id="paint9_linear" x1="-2.01191" y1="30.9748" x2="0.285919" y2="32.8807" gradientUnits="userSpaceOnUse">
<stop stop-color="#FAF5EB"/>
<stop offset="0.89" stop-color="#FAF6CD"/>
</linearGradient>
<linearGradient id="paint10_linear" x1="-72.279" y1="33.1376" x2="-70.5999" y2="38.9712" gradientUnits="userSpaceOnUse">
<stop stop-color="#FAF5EB"/>
<stop offset="0.89" stop-color="#FAF6CD"/>
</linearGradient>
<linearGradient id="paint11_linear" x1="-22.0866" y1="35.8151" x2="-18.8085" y2="39.9158" gradientUnits="userSpaceOnUse">
<stop stop-color="#FAF5EB"/>
<stop offset="0.89" stop-color="#FAF6CD"/>
</linearGradient>
<linearGradient id="paint12_linear" x1="-20.3887" y1="41.6233" x2="-14.5618" y2="46.2024" gradientUnits="userSpaceOnUse">
<stop stop-color="#FAF5EB"/>
<stop offset="0.89" stop-color="#FAF6CD"/>
</linearGradient>
<linearGradient id="paint13_linear" x1="-197.129" y1="19.5215" x2="-197.069" y2="21.2249" gradientUnits="userSpaceOnUse">
<stop stop-color="#FAF5EB"/>
<stop offset="0.89" stop-color="#FAF6CD"/>
</linearGradient>
<linearGradient id="paint14_linear" x1="28.1186" y1="10.3305" x2="2.49317" y2="9.57952" gradientUnits="userSpaceOnUse">
<stop stop-color="#306173"/>
<stop offset="0.01" stop-color="#2E5C6D"/>
<stop offset="0.1" stop-color="#20404C"/>
<stop offset="0.19" stop-color="#142930"/>
<stop offset="0.28" stop-color="#0B171B"/>
<stop offset="0.39" stop-color="#050A0C"/>
<stop offset="0.52" stop-color="#010203"/>
<stop offset="0.7"/>
</linearGradient>
<linearGradient id="paint15_linear" x1="17.704" y1="5.94424" x2="23.7081" y2="5.94424" gradientUnits="userSpaceOnUse">
<stop stop-color="#CDEFFA"/>
<stop offset="0.35" stop-color="#E7F5FA"/>
<stop offset="0.58" stop-color="#FAFAFA"/>
</linearGradient>
<linearGradient id="paint16_linear" x1="43.8588" y1="52.8322" x2="43.8588" y2="64.0273" gradientUnits="userSpaceOnUse">
<stop stop-color="#F5F9FA"/>
<stop offset="0.35" stop-color="#DFF3FA"/>
<stop offset="0.69" stop-color="#D2F0FA"/>
<stop offset="1" stop-color="#CDEFFA"/>
</linearGradient>
<linearGradient id="paint17_linear" x1="43.8626" y1="34.6037" x2="43.8609" y2="63.7137" gradientUnits="userSpaceOnUse">
<stop stop-color="#81B510"/>
<stop offset="0.03" stop-color="#7FB410"/>
<stop offset="0.33" stop-color="#6DAD12"/>
<stop offset="0.65" stop-color="#62A914"/>
<stop offset="1" stop-color="#5EA814"/>
</linearGradient>
<linearGradient id="paint18_linear" x1="48.4132" y1="38.9172" x2="48.4132" y2="11.4293" gradientUnits="userSpaceOnUse">
<stop stop-color="#062A54"/>
<stop offset="0.27" stop-color="#072C58"/>
<stop offset="0.52" stop-color="#083263"/>
<stop offset="0.75" stop-color="#0B3C75"/>
<stop offset="0.98" stop-color="#104B8F"/>
<stop offset="1" stop-color="#104C91"/>
</linearGradient>
<linearGradient id="paint19_linear" x1="326.128" y1="1499.9" x2="326.128" y2="800.336" gradientUnits="userSpaceOnUse">
<stop stop-color="#062A54"/>
<stop offset="0.27" stop-color="#072C58"/>
<stop offset="0.52" stop-color="#083263"/>
<stop offset="0.75" stop-color="#0B3C75"/>
<stop offset="0.98" stop-color="#104B8F"/>
<stop offset="1" stop-color="#104C91"/>
</linearGradient>
<clipPath id="clip0">
<rect width="60" height="65" fill="white"/>
</clipPath>
</defs>
</svg>
