<svg width="219" height="218" viewBox="0 0 219 218" fill="none" xmlns="http://www.w3.org/2000/svg">
<mask id="path-1-inside-1" fill="white">
<path d="M218.311 180.311C206.472 192.151 192.416 201.542 176.947 207.95C161.478 214.357 144.898 217.655 128.155 217.655C111.411 217.655 94.8318 214.357 79.3628 207.95C63.8937 201.542 49.8383 192.151 37.9988 180.311C26.1593 168.472 16.7677 154.416 10.3603 138.947C3.95279 123.478 0.654905 106.899 0.654907 90.1553C0.654909 73.4117 3.9528 56.8321 10.3603 41.3631C16.7678 25.8941 26.1593 11.8386 37.9988 -0.000854492L74.0612 36.0616C66.9576 43.1653 61.3226 51.5986 57.4781 60.88C53.6336 70.1614 51.6549 80.1091 51.6549 90.1553C51.6549 100.201 53.6336 110.149 57.4781 119.431C61.3226 128.712 66.9576 137.145 74.0612 144.249C81.1649 151.353 89.5982 156.988 98.8796 160.832C108.161 164.677 118.109 166.655 128.155 166.655C138.201 166.655 148.149 164.677 157.43 160.832C166.712 156.988 175.145 151.353 182.249 144.249L218.311 180.311Z"/>
</mask>
<path d="M218.311 180.311C206.472 192.151 192.416 201.542 176.947 207.95C161.478 214.357 144.898 217.655 128.155 217.655C111.411 217.655 94.8318 214.357 79.3628 207.95C63.8937 201.542 49.8383 192.151 37.9988 180.311C26.1593 168.472 16.7677 154.416 10.3603 138.947C3.95279 123.478 0.654905 106.899 0.654907 90.1553C0.654909 73.4117 3.9528 56.8321 10.3603 41.3631C16.7678 25.8941 26.1593 11.8386 37.9988 -0.000854492L74.0612 36.0616C66.9576 43.1653 61.3226 51.5986 57.4781 60.88C53.6336 70.1614 51.6549 80.1091 51.6549 90.1553C51.6549 100.201 53.6336 110.149 57.4781 119.431C61.3226 128.712 66.9576 137.145 74.0612 144.249C81.1649 151.353 89.5982 156.988 98.8796 160.832C108.161 164.677 118.109 166.655 128.155 166.655C138.201 166.655 148.149 164.677 157.43 160.832C166.712 156.988 175.145 151.353 182.249 144.249L218.311 180.311Z" stroke="#E2E2E2" stroke-opacity="0.8" stroke-width="4" mask="url(#path-1-inside-1)"/>
</svg>
