<svg width="60" height="100" viewBox="0 0 60 100" fill="none" xmlns="http://www.w3.org/2000/svg">
<path d="M10.9174 2.02931C10.9174 3.15671 11.818 4.05862 12.9437 4.05862C14.0695 4.05862 14.9701 3.15671 14.9701 2.02931C14.9701 0.901916 14.0695 0 12.9437 0C11.818 0 10.9174 0.901916 10.9174 2.02931Z" fill="#D9D9D9"/>
<path d="M33.4324 2.02931C33.4324 3.15671 34.333 4.05862 35.4587 4.05862C36.5845 4.05862 37.4851 3.15671 37.4851 2.02931C37.4851 0.901916 36.5845 0 35.4587 0C34.333 0 33.4324 0.901916 33.4324 2.02931Z" fill="#D9D9D9"/>
<path d="M55.8347 2.02931C55.8347 3.15671 56.7353 4.05862 57.8611 4.05862C58.9868 4.05862 59.8874 3.15671 59.8874 2.02931C59.8874 0.901916 58.9868 0 57.8611 0C56.7353 0 55.8347 0.901916 55.8347 2.02931Z" fill="#D9D9D9"/>
<path d="M10.9174 21.1951C10.9174 22.3225 11.818 23.2244 12.9437 23.2244C14.0695 23.2244 14.9701 22.3225 14.9701 21.1951C14.9701 20.0677 14.0695 19.1658 12.9437 19.1658C11.818 19.1658 10.9174 20.0677 10.9174 21.1951Z" fill="#D9D9D9"/>
<path d="M33.4324 21.1951C33.4324 22.3225 34.333 23.2244 35.4587 23.2244C36.5845 23.2244 37.4851 22.3225 37.4851 21.1951C37.4851 20.0677 36.5845 19.1658 35.4587 19.1658C34.333 19.1658 33.4324 20.0677 33.4324 21.1951Z" fill="#D9D9D9"/>
<path d="M55.8347 21.1951C55.8347 22.3225 56.7353 23.2244 57.8611 23.2244C58.9868 23.2244 59.8874 22.3225 59.8874 21.1951C59.8874 20.0677 58.9868 19.1658 57.8611 19.1658C56.7353 19.1658 55.8347 20.0677 55.8347 21.1951Z" fill="#D9D9D9"/>
<path d="M10.9174 40.3607C10.9174 41.4881 11.818 42.39 12.9437 42.39C14.0695 42.39 14.9701 41.4881 14.9701 40.3607C14.9701 39.2333 14.0695 38.3314 12.9437 38.3314C11.818 38.3314 10.9174 39.2333 10.9174 40.3607Z" fill="#D9D9D9"/>
<path d="M33.4324 40.3607C33.4324 41.4881 34.333 42.39 35.4587 42.39C36.5845 42.39 37.4851 41.4881 37.4851 40.3607C37.4851 39.2333 36.5845 38.3314 35.4587 38.3314C34.333 38.3314 33.4324 39.2333 33.4324 40.3607Z" fill="#D9D9D9"/>
<path d="M55.8347 40.3607C55.8347 41.4881 56.7353 42.39 57.8611 42.39C58.9868 42.39 59.8874 41.4881 59.8874 40.3607C59.8874 39.2333 58.9868 38.3314 57.8611 38.3314C56.7353 38.3314 55.8347 39.2333 55.8347 40.3607Z" fill="#D9D9D9"/>
<path d="M10.9174 59.5265C10.9174 60.6539 11.818 61.5558 12.9437 61.5558C14.0695 61.5558 14.9701 60.6539 14.9701 59.5265C14.9701 58.3991 14.0695 57.4972 12.9437 57.4972C11.818 57.4972 10.9174 58.3991 10.9174 59.5265Z" fill="#D9D9D9"/>
<path d="M33.4324 59.5265C33.4324 60.6539 34.333 61.5558 35.4587 61.5558C36.5845 61.5558 37.4851 60.6539 37.4851 59.5265C37.4851 58.3991 36.5845 57.4972 35.4587 57.4972C34.333 57.4972 33.4324 58.3991 33.4324 59.5265Z" fill="#D9D9D9"/>
<path d="M55.8347 59.5265C55.8347 60.6539 56.7353 61.5558 57.8611 61.5558C58.9868 61.5558 59.8874 60.6539 59.8874 59.5265C59.8874 58.3991 58.9868 57.4972 57.8611 57.4972C56.7353 57.4972 55.8347 58.3991 55.8347 59.5265Z" fill="#D9D9D9"/>
<path d="M10.9174 78.6923C10.9174 79.8197 11.818 80.7216 12.9437 80.7216C14.0695 80.7216 14.9701 79.8197 14.9701 78.6923C14.9701 77.5649 14.0695 76.663 12.9437 76.663C11.818 76.663 10.9174 77.5649 10.9174 78.6923Z" fill="#D9D9D9"/>
<path d="M35.4587 80.7216C36.5778 80.7216 37.4851 79.813 37.4851 78.6923C37.4851 77.5715 36.5778 76.663 35.4587 76.663C34.3396 76.663 33.4324 77.5715 33.4324 78.6923C33.4324 79.813 34.3396 80.7216 35.4587 80.7216Z" fill="#D9D9D9"/>
<path d="M57.8611 80.7216C58.9802 80.7216 59.8874 79.813 59.8874 78.6923C59.8874 77.5715 58.9802 76.663 57.8611 76.663C56.7419 76.663 55.8347 77.5715 55.8347 78.6923C55.8347 79.813 56.7419 80.7216 57.8611 80.7216Z" fill="#D9D9D9"/>
<path d="M10.9174 97.8579C10.9174 98.9853 11.818 99.8872 12.9437 99.8872C14.0695 99.8872 14.9701 98.9853 14.9701 97.8579C14.9701 96.7305 14.0695 95.8286 12.9437 95.8286C11.818 95.8286 10.9174 96.7305 10.9174 97.8579Z" fill="#D9D9D9"/>
<path d="M33.4324 97.8579C33.4324 98.9853 34.333 99.8872 35.4587 99.8872C36.5845 99.8872 37.4851 98.9853 37.4851 97.8579C37.4851 96.7305 36.5845 95.8286 35.4587 95.8286C34.333 95.8286 33.4324 96.7305 33.4324 97.8579Z" fill="#D9D9D9"/>
<path d="M55.8347 97.8579C55.8347 98.9853 56.7353 99.8872 57.8611 99.8872C58.9868 99.8872 59.8874 98.9853 59.8874 97.8579C59.8874 96.7305 58.9868 95.8286 57.8611 95.8286C56.7353 95.8286 55.8347 96.7305 55.8347 97.8579Z" fill="#D9D9D9"/>
</svg>
