<svg width="164" height="311" viewBox="0 0 164 311" fill="none" xmlns="http://www.w3.org/2000/svg">
<g clip-path="url(#clip0)">
<path d="M186.172 41.2978C184.947 40.9675 183.722 40.6372 182.497 40.3069L97.2892 257.756C98.4117 258.347 99.5342 258.938 100.657 259.53L186.172 41.2978Z" fill="#EEEEEE" fill-opacity="0.5"/>
<path d="M140.648 38.0269C139.218 38.2182 137.789 38.4095 136.438 38.7825L62.3107 227.62C63.0469 228.812 63.9646 229.925 64.8824 231.038L140.648 38.0269Z" fill="#EEEEEE" fill-opacity="0.5"/>
<path d="M171.688 38.3212C170.36 38.2517 169.135 37.9213 167.808 37.8518L84.8524 249.563C85.8725 250.415 86.8134 251.085 88.0152 251.858L171.688 38.3212Z" fill="#EEEEEE" fill-opacity="0.5"/>
<path d="M156.487 37.1704C155.159 37.1009 153.911 37.213 152.402 37.2227L73.03 239.805C74.0502 240.657 74.8887 241.588 75.988 242.622L156.487 37.1704Z" fill="#EEEEEE" fill-opacity="0.5"/>
<path d="M123.786 41.4915C122.254 41.9437 120.721 42.3958 119.189 42.848L52.4338 212.906C53.2492 214.28 54.0645 215.654 54.8799 217.027L123.786 41.4915Z" fill="#EEEEEE" fill-opacity="0.5"/>
<path d="M198.114 45.3838C197.592 45.179 197.071 44.9742 196.288 44.6671L110.182 264.021C110.703 264.226 111.225 264.431 112.008 264.738C112.529 264.943 113.051 265.148 113.833 265.455L199.94 46.1005C199.157 45.7933 198.636 45.5886 198.114 45.3838Z" fill="#EEEEEE" fill-opacity="0.5"/>
<path d="M105.695 48.0864C104.06 48.7994 102.323 49.7732 100.689 50.4862L44.0694 194.723C44.7824 196.357 45.3137 198.071 46.1059 199.887L105.695 48.0864Z" fill="#EEEEEE" fill-opacity="0.5"/>
<path d="M39.3004 177.348L85.374 59.9768C83.4324 61.4723 81.4908 62.9677 79.6284 64.6448L38.2645 170.018C38.4887 172.514 38.8946 174.931 39.3004 177.348Z" fill="#EEEEEE" fill-opacity="0.5"/>
<path d="M266.052 115.399C265.521 113.685 264.729 111.869 264.016 110.235L204.427 262.035C206.062 261.322 207.798 260.349 209.433 259.636L266.052 115.399Z" fill="#EEEEEE" fill-opacity="0.5"/>
<path d="M257.688 97.2152C256.872 95.8416 256.057 94.4679 255.242 93.0943L186.336 268.63C187.868 268.178 189.4 267.726 190.932 267.273L257.688 97.2152Z" fill="#EEEEEE" fill-opacity="0.5"/>
<path d="M65.9774 77.9491C58.4218 88.3784 52.0447 100.023 46.9486 112.622C42.034 125.141 38.7868 138.014 37.3094 150.98L65.9774 77.9491Z" fill="#EEEEEE" fill-opacity="0.5"/>
<path d="M225.451 60.4794C224.431 59.6275 223.49 58.9571 222.288 58.1843L138.434 271.8C139.761 271.87 140.986 272.2 142.313 272.27L225.451 60.4794Z" fill="#EEEEEE" fill-opacity="0.5"/>
<path d="M212.832 52.3654C211.71 51.7742 210.587 51.1831 209.465 50.5919L123.87 268.642C125.095 268.972 126.32 269.303 127.545 269.633L212.832 52.3654Z" fill="#EEEEEE" fill-opacity="0.5"/>
<path d="M247.811 82.5014C246.893 81.3886 245.975 80.2758 245.057 79.163L169.292 272.174C170.722 271.983 172.151 271.791 173.581 271.6L247.811 82.5014Z" fill="#EEEEEE" fill-opacity="0.5"/>
<path d="M237.091 70.3165C236.071 69.4645 235.233 68.5333 234.133 67.4998L153.635 272.951C154.962 273.021 156.21 272.908 157.719 272.899L237.091 70.3165Z" fill="#EEEEEE" fill-opacity="0.5"/>
<g clip-path="url(#clip1)">
<path d="M186.172 41.2978C184.947 40.9675 183.722 40.6372 182.497 40.3069L97.2892 257.756C98.4117 258.347 99.5342 258.938 100.657 259.53L186.172 41.2978Z" fill="#EEEEEE" fill-opacity="0.5"/>
<path d="M140.648 38.0269C139.218 38.2182 137.789 38.4095 136.438 38.7825L62.3107 227.62C63.0469 228.812 63.9646 229.925 64.8824 231.038L140.648 38.0269Z" fill="#EEEEEE" fill-opacity="0.5"/>
<path d="M171.688 38.3212C170.36 38.2517 169.135 37.9213 167.808 37.8518L84.8524 249.563C85.8725 250.415 86.8134 251.085 88.0152 251.858L171.688 38.3212Z" fill="#EEEEEE" fill-opacity="0.5"/>
<path d="M156.487 37.1704C155.159 37.1009 153.911 37.213 152.402 37.2227L73.03 239.805C74.0502 240.657 74.8887 241.588 75.988 242.622L156.487 37.1704Z" fill="#EEEEEE" fill-opacity="0.5"/>
<path d="M123.786 41.4915C122.254 41.9437 120.721 42.3958 119.189 42.848L52.4338 212.906C53.2492 214.28 54.0645 215.654 54.8799 217.027L123.786 41.4915Z" fill="#EEEEEE" fill-opacity="0.5"/>
<path d="M198.114 45.3838C197.592 45.179 197.071 44.9742 196.288 44.6671L110.182 264.021C110.703 264.226 111.225 264.431 112.008 264.738C112.529 264.943 113.051 265.148 113.833 265.455L199.94 46.1005C199.157 45.7933 198.636 45.5886 198.114 45.3838Z" fill="#EEEEEE" fill-opacity="0.5"/>
<path d="M105.695 48.0864C104.06 48.7994 102.323 49.7732 100.689 50.4862L44.0694 194.723C44.7824 196.357 45.3137 198.071 46.1059 199.887L105.695 48.0864Z" fill="#EEEEEE" fill-opacity="0.5"/>
<path d="M39.3004 177.348L85.374 59.9768C83.4324 61.4723 81.4908 62.9677 79.6284 64.6448L38.2645 170.018C38.4887 172.514 38.8946 174.931 39.3004 177.348Z" fill="#EEEEEE" fill-opacity="0.5"/>
<path d="M266.052 115.399C265.521 113.685 264.729 111.869 264.016 110.235L204.427 262.035C206.062 261.322 207.798 260.349 209.433 259.636L266.052 115.399Z" fill="#EEEEEE" fill-opacity="0.5"/>
<path d="M257.688 97.2152C256.872 95.8416 256.057 94.4679 255.242 93.0943L186.336 268.63C187.868 268.178 189.4 267.726 190.932 267.273L257.688 97.2152Z" fill="#EEEEEE" fill-opacity="0.5"/>
<path d="M65.9774 77.9491C58.4218 88.3784 52.0447 100.023 46.9486 112.622C42.034 125.141 38.7868 138.014 37.3094 150.98L65.9774 77.9491Z" fill="#EEEEEE" fill-opacity="0.5"/>
<path d="M225.451 60.4794C224.431 59.6275 223.49 58.9571 222.288 58.1843L138.434 271.8C139.761 271.87 140.986 272.2 142.313 272.27L225.451 60.4794Z" fill="#EEEEEE" fill-opacity="0.5"/>
<path d="M212.832 52.3654C211.71 51.7742 210.587 51.1831 209.465 50.5919L123.87 268.642C125.095 268.972 126.32 269.303 127.545 269.633L212.832 52.3654Z" fill="#EEEEEE" fill-opacity="0.5"/>
<path d="M247.811 82.5014C246.893 81.3886 245.975 80.2758 245.057 79.163L169.292 272.174C170.722 271.983 172.151 271.791 173.581 271.6L247.811 82.5014Z" fill="#EEEEEE" fill-opacity="0.5"/>
<path d="M237.091 70.3165C236.071 69.4645 235.233 68.5333 234.133 67.4998L153.635 272.951C154.962 273.021 156.21 272.908 157.719 272.899L237.091 70.3165Z" fill="#EEEEEE" fill-opacity="0.5"/>
</g>
</g>
<defs>
<clipPath id="clip0">
<rect width="235.579" height="235.579" fill="white" transform="translate(0 94.1924) rotate(-23.5677)"/>
</clipPath>
<clipPath id="clip1">
<rect width="235.579" height="235.579" fill="white" transform="translate(0 94.1924) rotate(-23.5677)"/>
</clipPath>
</defs>
</svg>
