<svg width="280" height="280" viewBox="0 0 280 280" fill="none" xmlns="http://www.w3.org/2000/svg">
<g clip-path="url(#clip0)">
<path d="M245.255 193.638C245.827 192.506 246.398 191.373 246.97 190.24L51.2897 62.7497C50.4835 63.7292 49.6772 64.7087 48.8709 65.6882L245.255 193.638Z" fill="#EDEDED"/>
<path d="M257.68 149.72C257.782 148.281 257.885 146.843 257.793 145.445L87.8865 34.601C86.5701 35.0804 85.2945 35.7537 84.0188 36.427L257.68 149.72Z" fill="#EDEDED"/>
<path d="M251.104 180.057C251.441 178.771 252.013 177.638 252.35 176.353L61.8324 52.2303C60.7915 53.0567 59.9444 53.8423 58.9442 54.8626L251.104 180.057Z" fill="#EDEDED"/>
<path d="M255.31 165.404C255.647 164.118 255.79 162.873 256.087 161.394L73.783 42.6298C72.742 43.4562 71.6602 44.0887 70.4254 44.9559L255.31 165.404Z" fill="#EDEDED"/>
<path d="M257.703 132.506C257.571 130.914 257.438 129.322 257.306 127.73L104.296 27.9096C102.786 28.4298 101.276 28.95 99.7652 29.4702L257.703 132.506Z" fill="#EDEDED"/>
<path d="M238.835 204.505C239.141 204.035 239.447 203.566 239.907 202.862L42.5427 74.1058C42.2365 74.5752 41.9303 75.0445 41.471 75.7485C41.1648 76.2179 40.8586 76.6872 40.3993 77.3913L237.763 206.147C238.222 205.443 238.529 204.974 238.835 204.505Z" fill="#EDEDED"/>
<path d="M254.91 113.454C254.543 111.709 253.941 109.811 253.574 108.066L123.797 23.402C122.052 23.7691 120.266 23.9423 118.327 24.3502L254.91 113.454Z" fill="#EDEDED"/>
<path d="M141.777 22.2514L247.382 91.1459C246.311 88.9417 245.24 86.7374 243.975 84.5739L149.165 22.7219C146.675 22.4358 144.226 22.3436 141.777 22.2514Z" fill="#EDEDED"/>
<path d="M156.509 256.851C158.295 256.678 160.234 256.27 161.979 255.903L25.3963 166.799C25.7634 168.544 26.3652 170.443 26.7323 172.188L156.509 256.851Z" fill="#EDEDED"/>
<path d="M176.01 252.344C177.52 251.824 179.031 251.303 180.541 250.783L22.6031 147.748C22.7356 149.339 22.868 150.931 23.0004 152.523L176.01 252.344Z" fill="#EDEDED"/>
<path d="M233.712 68.5109C225.029 58.9992 214.918 50.3955 203.613 42.8528C192.348 35.5041 180.4 29.7165 168.002 25.6432L233.712 68.5109Z" fill="#EDEDED"/>
<path d="M131.141 257.531C133.59 257.623 136.039 257.716 138.488 257.808L33.1179 189.066C34.189 191.271 35.2602 193.475 36.3313 195.679L131.141 257.531Z" fill="#EDEDED"/>
<path d="M218.515 228.217C219.556 227.39 220.403 226.605 221.403 225.584L29.2019 100.196C28.8649 101.482 28.2933 102.615 27.9564 103.9L218.515 228.217Z" fill="#EDEDED"/>
<path d="M229.016 217.504C229.823 216.524 230.629 215.545 231.435 214.565L35.2449 86.5745C34.6733 87.7071 34.1017 88.8397 33.5301 89.9723L229.016 217.504Z" fill="#EDEDED"/>
<path d="M192.42 245.652C193.695 244.979 194.971 244.305 196.247 243.632L22.5853 130.339C22.483 131.778 22.3808 133.216 22.2785 134.655L192.42 245.652Z" fill="#EDEDED"/>
<path d="M206.523 237.623C207.564 236.797 208.646 236.165 209.881 235.297L24.9958 114.849C24.6589 116.135 24.5158 117.38 24.2197 118.859L206.523 237.623Z" fill="#EDEDED"/>
<g clip-path="url(#clip1)">
<path d="M245.255 193.638C245.827 192.506 246.398 191.373 246.97 190.24L51.2897 62.7497C50.4835 63.7292 49.6772 64.7087 48.8709 65.6882L245.255 193.638Z" fill="#EDEDED"/>
<path d="M257.68 149.72C257.782 148.281 257.885 146.843 257.793 145.445L87.8865 34.601C86.5701 35.0804 85.2945 35.7537 84.0188 36.427L257.68 149.72Z" fill="#EDEDED"/>
<path d="M251.104 180.057C251.441 178.771 252.013 177.638 252.35 176.353L61.8324 52.2303C60.7915 53.0567 59.9444 53.8423 58.9442 54.8626L251.104 180.057Z" fill="#EDEDED"/>
<path d="M255.31 165.404C255.647 164.118 255.79 162.873 256.087 161.394L73.783 42.6298C72.742 43.4562 71.6602 44.0887 70.4254 44.9559L255.31 165.404Z" fill="#EDEDED"/>
<path d="M257.703 132.506C257.571 130.914 257.438 129.322 257.306 127.73L104.296 27.9096C102.786 28.4298 101.276 28.95 99.7652 29.4702L257.703 132.506Z" fill="#EDEDED"/>
<path d="M238.835 204.505C239.141 204.035 239.447 203.566 239.907 202.862L42.5427 74.1058C42.2365 74.5752 41.9303 75.0445 41.471 75.7485C41.1648 76.2179 40.8586 76.6872 40.3993 77.3913L237.763 206.147C238.222 205.443 238.529 204.974 238.835 204.505Z" fill="#EDEDED"/>
<path d="M254.91 113.454C254.543 111.709 253.941 109.811 253.574 108.066L123.797 23.402C122.052 23.7691 120.266 23.9423 118.327 24.3502L254.91 113.454Z" fill="#EDEDED"/>
<path d="M141.777 22.2514L247.382 91.1459C246.311 88.9417 245.24 86.7374 243.975 84.5739L149.165 22.7219C146.675 22.4358 144.226 22.3436 141.777 22.2514Z" fill="#EDEDED"/>
<path d="M156.509 256.851C158.295 256.678 160.234 256.27 161.979 255.903L25.3963 166.799C25.7634 168.544 26.3652 170.443 26.7323 172.188L156.509 256.851Z" fill="#EDEDED"/>
<path d="M176.01 252.344C177.52 251.824 179.031 251.303 180.541 250.783L22.6031 147.748C22.7356 149.339 22.868 150.931 23.0004 152.523L176.01 252.344Z" fill="#EDEDED"/>
<path d="M233.712 68.5109C225.029 58.9992 214.918 50.3955 203.613 42.8528C192.348 35.5041 180.4 29.7165 168.002 25.6432L233.712 68.5109Z" fill="#EDEDED"/>
<path d="M131.141 257.531C133.59 257.623 136.039 257.716 138.488 257.808L33.1179 189.066C34.189 191.271 35.2602 193.475 36.3313 195.679L131.141 257.531Z" fill="#EDEDED"/>
<path d="M218.515 228.217C219.556 227.39 220.403 226.605 221.403 225.584L29.2019 100.196C28.8649 101.482 28.2933 102.615 27.9564 103.9L218.515 228.217Z" fill="#EDEDED"/>
<path d="M229.016 217.504C229.823 216.524 230.629 215.545 231.435 214.565L35.2449 86.5745C34.6733 87.7071 34.1017 88.8397 33.5301 89.9723L229.016 217.504Z" fill="#EDEDED"/>
<path d="M192.42 245.652C193.695 244.979 194.971 244.305 196.247 243.632L22.5853 130.339C22.483 131.778 22.3808 133.216 22.2785 134.655L192.42 245.652Z" fill="#EDEDED"/>
<path d="M206.523 237.623C207.564 236.797 208.646 236.165 209.881 235.297L24.9958 114.849C24.6589 116.135 24.5158 117.38 24.2197 118.859L206.523 237.623Z" fill="#EDEDED"/>
</g>
</g>
<defs>
<clipPath id="clip0">
<rect width="235.579" height="235.579" fill="white" transform="translate(231.17 0.61084) rotate(78.1196)"/>
</clipPath>
<clipPath id="clip1">
<rect width="235.579" height="235.579" fill="white" transform="translate(231.17 0.61084) rotate(78.1196)"/>
</clipPath>
</defs>
</svg>
