<svg width="35" height="146" viewBox="0 0 35 146" fill="none" xmlns="http://www.w3.org/2000/svg">
<path d="M35 1.98254L0 37.1018L0 35.1193L35 0V1.98254Z" fill="#D1D1D1"/>
<path d="M35 20.1085L0 55.2278L0 53.2453L35 18.126V20.1085Z" fill="#D1D1D1"/>
<path d="M35 38.2347L0 73.354L0 71.3715L35 36.2522V38.2347Z" fill="#D1D1D1"/>
<path d="M35 56.5023L0 91.48L0 89.4975L35 54.3782V56.5023Z" fill="#D1D1D1"/>
<path d="M35 74.6283L0 109.606L0 107.623L35 72.6458V74.6283Z" fill="#D1D1D1"/>
<path d="M35 92.7548L0 127.732L0 125.75L35 90.7722V92.7548Z" fill="#D1D1D1"/>
<path d="M35 110.88L0 146L0 143.876L35 108.898V110.88Z" fill="#D1D1D1"/>
</svg>
