<svg width="25" height="30" viewBox="0 0 25 30" fill="none" xmlns="http://www.w3.org/2000/svg">
<path d="M9.55227 24.7595L6.5672 26.4304L3.58212 24.7595L0.597046 26.4304V13.519V0.607605L3.50749 2.20254L6.49257 0.607605L9.47764 2.20254L12.4627 0.607605L15.4478 2.20254L18.5075 0.607605V13.519" stroke="white" stroke-width="1.5" stroke-miterlimit="10" stroke-linecap="round" stroke-linejoin="round"/>
<path d="M7.31348 7.44305H14.7762" stroke="white" stroke-width="1.5" stroke-miterlimit="10" stroke-linecap="round" stroke-linejoin="round"/>
<path d="M3.58215 15.038H12.5374" stroke="white" stroke-width="1.5" stroke-miterlimit="10" stroke-linecap="round" stroke-linejoin="round"/>
<path d="M3.58215 18.0759H8.80603" stroke="white" stroke-width="1.5" stroke-miterlimit="10" stroke-linecap="round" stroke-linejoin="round"/>
<path d="M7.31348 10.481H12.5374" stroke="white" stroke-width="1.5" stroke-miterlimit="10" stroke-linecap="round" stroke-linejoin="round"/>
<path d="M5.07469 7.44305H3.58215" stroke="white" stroke-width="1.5" stroke-miterlimit="10" stroke-linecap="round" stroke-linejoin="round"/>
<path d="M5.07469 10.481H3.58215" stroke="white" stroke-width="1.5" stroke-miterlimit="10" stroke-linecap="round" stroke-linejoin="round"/>
<path d="M17.7611 29.4684C21.4705 29.4684 24.4775 26.408 24.4775 22.6329C24.4775 18.8578 21.4705 15.7975 17.7611 15.7975C14.0517 15.7975 11.0447 18.8578 11.0447 22.6329C11.0447 26.408 14.0517 29.4684 17.7611 29.4684Z" stroke="white" stroke-width="1.5" stroke-miterlimit="10" stroke-linecap="round" stroke-linejoin="round"/>
<path d="M15.5225 25.6709H18.5075C19.3284 25.6709 20.0001 24.9874 20.0001 24.1519C20.0001 23.3165 19.3284 22.6329 18.5075 22.6329H17.015C16.1941 22.6329 15.5225 21.9494 15.5225 21.114C15.5225 20.2785 16.1941 19.595 17.015 19.595H20.0001" stroke="white" stroke-width="1.5" stroke-miterlimit="10" stroke-linecap="round" stroke-linejoin="round"/>
<path d="M17.7612 18.0759V19.5949" stroke="white" stroke-width="1.5" stroke-miterlimit="10" stroke-linecap="round" stroke-linejoin="round"/>
<path d="M17.7612 25.6709V27.1899" stroke="white" stroke-width="1.5" stroke-miterlimit="10" stroke-linecap="round" stroke-linejoin="round"/>
</svg>
