<svg width="55" height="60" viewBox="0 0 55 60" fill="none" xmlns="http://www.w3.org/2000/svg">
<path d="M47.4001 42.9025C47.1086 41.8044 46.8067 40.61 46.5048 39.2808C44.6621 31.2859 42.986 31.1414 42.101 30.6983C41.2161 30.2552 31.6903 25.728 31.6903 25.728L27.526 27.8086V42.9025H47.4001Z" fill="url(#paint0_linear)"/>
<path d="M27.5052 42.9025V27.8086L23.3409 25.728C23.3409 25.728 13.815 30.2456 12.9301 30.6983C12.0452 31.1511 10.3691 31.2859 8.52637 39.2808C8.21404 40.61 7.92254 41.8044 7.63104 42.9025H27.5052Z" fill="url(#paint1_linear)"/>
<path d="M23.6428 21.0563L27.4635 20.5747L31.2947 21.0563C31.2947 21.0563 31.0136 24.2543 31.6903 25.728C31.6903 25.728 29.6081 27.9531 27.4635 27.8086C25.3085 27.9531 23.2368 25.728 23.2368 25.728C23.9447 24.2543 23.6428 21.0563 23.6428 21.0563Z" fill="#F4C297"/>
<path d="M19.2391 13.2348H19.4057C19.3328 12.7147 19.2599 12.2042 19.1975 11.7129C18.8435 9.20852 18.0419 1.92645 27.5053 1.92645C36.9686 1.92645 36.1566 9.25668 35.8339 11.7611C35.7714 12.2523 35.6985 12.7243 35.6361 13.283H35.7922C37.2289 12.3198 37.3538 14.8627 36.75 15.7489C36.3765 16.2309 36.0948 16.7684 35.9171 17.3382C35.6985 17.9258 35.3237 18.0029 35.0218 17.9354C35.0218 18.2918 34.9489 18.5904 34.9281 18.8409C34.7928 20.1894 31.274 22.8961 30.4827 23.7438C29.6915 24.5914 28.4943 24.2254 28.0987 24.2157H27.5053H26.9014C26.5058 24.2157 25.2669 24.5432 24.5174 23.7438C23.7678 22.9443 20.2073 20.1894 20.072 18.8409C20.072 18.5904 20.0199 18.2918 19.9783 17.9354C19.6764 18.0029 19.3016 17.9354 19.083 17.3382C18.9133 16.7631 18.6387 16.2191 18.2709 15.7296C17.6983 14.8146 17.8024 12.2427 19.2391 13.2348Z" fill="url(#paint2_linear)"/>
<path d="M19.5618 12.3969C19.5618 12.84 20.4259 16.3461 20.6028 17.4635C20.8855 18.8991 21.7446 20.1826 23.0077 21.0564C23.8389 21.6003 24.7651 22.0076 25.7458 22.2604C26.931 22.482 28.1522 22.482 29.3375 22.2604C30.3181 22.0076 31.2444 21.6003 32.0755 21.0564C33.3402 20.1855 34.1969 18.9001 34.47 17.4635C34.6157 16.3461 35.511 12.84 35.511 12.3969C35.511 12.1079 35.6672 12.2139 35.7609 12.551C35.8546 12.8881 35.6984 13.0037 35.6776 13.2349C35.6776 13.2349 35.1779 17.9355 35.0946 17.9066C35.0946 18.263 35.0217 18.5616 35.0009 18.812C34.977 18.9417 34.935 19.068 34.876 19.1877C34.699 19.4478 34.4283 19.8716 34.0744 20.3725C32.9396 21.6632 31.1073 23.137 30.5555 23.7149C29.8059 24.5144 28.5671 24.1965 28.1715 24.1869H27.578H26.9742C26.5786 24.1869 25.3397 24.5144 24.5902 23.7149C24.0384 23.137 22.2061 21.6632 21.0713 20.3725C20.7174 19.8716 20.4467 19.4092 20.2593 19.1877C20.2033 19.0677 20.1648 18.9414 20.1448 18.812C20.1448 18.5616 20.0927 18.263 20.0511 17.9066C19.9678 17.9066 19.4785 13.2349 19.4785 13.2349C19.4785 13.0037 19.416 12.7822 19.3848 12.551C19.3536 12.3198 19.5618 12.1079 19.5618 12.3969Z" fill="#582D11"/>
<path d="M24.9858 19.8909C25.7114 19.3292 26.5776 18.945 27.5052 18.7735C28.4293 18.9462 29.2919 19.3303 30.0142 19.8909C31.0553 20.777 30.0142 22.376 30.0142 22.376L29.7748 22.0967C30.92 19.9583 27.5052 19.8331 27.5052 19.8331C27.5052 19.8331 24.0801 19.9583 25.2253 22.0967L24.9858 22.376C24.9858 22.376 23.9448 20.777 24.9858 19.8909Z" fill="#582D11"/>
<path d="M26.7245 22.2604C26.9393 22.0856 27.2196 21.9957 27.5053 22.0099C27.6436 22.0028 27.782 22.0213 27.9125 22.0643C28.043 22.1073 28.1629 22.1739 28.2652 22.2604C28.5984 22.559 29.3063 22.3374 29.3063 22.3374L27.8905 23.4162L27.5053 23.0598L27.1097 23.4162L25.6938 22.3374C25.6938 22.3374 26.4017 22.559 26.7245 22.2604Z" fill="#582D11"/>
<path d="M20.759 0C20.759 0 20.3738 0.963236 28.4421 0.963236H28.9835C36.6979 1.27147 36.271 8.07192 36.271 8.07192C36.2461 9.79766 36.0192 11.5158 35.5943 13.1963L35.3965 12.3969C35.3227 11.774 35.1761 11.1603 34.9593 10.5667L34.8968 10.4126C34.7881 10.121 34.663 9.83485 34.522 9.55531C32.4399 5.70236 27.4635 6.94493 27.4635 6.94493C27.4635 6.94493 22.4872 5.69273 20.3946 9.56494C20.2539 9.83472 20.1288 10.1112 20.0198 10.3933L19.9574 10.5763C19.7463 11.1681 19.5998 11.778 19.5201 12.3969L19.364 13.2349C19.1349 12.1657 18.9059 11.0965 18.7705 10.0177C18.2729 6.56793 18.969 3.06099 20.759 0V0Z" fill="#582D11"/>
<path d="M27.5052 27.8086L30.4827 30.9488L33.3144 26.4986L31.6904 25.728C30.4324 26.6353 29.0173 27.3388 27.5052 27.8086Z" fill="url(#paint3_linear)"/>
<path d="M27.5052 27.8086L24.5173 30.9488L21.6856 26.4986L23.2993 25.728C24.5643 26.6361 25.9864 27.3396 27.5052 27.8086Z" fill="url(#paint4_linear)"/>
<path d="M28.0154 30.9488L28.9732 29.3595L27.4948 27.8087L26.0269 29.3595L26.9847 30.9488L25.6938 38.7318L27.4948 41.3903L29.3063 38.7318L28.0154 30.9488Z" fill="url(#paint5_linear)"/>
<path d="M40.5187 44.5979C40.402 44.6093 40.2868 44.6319 40.1751 44.6653H40.0502C37.5725 45.4166 27.5573 50.1365 27.5573 50.1365V41.0435L35.6673 27.5582H35.9692C38.3324 28.7141 41.5285 30.2746 42.3093 30.6887C43.2037 31.3039 43.9455 32.0888 44.4852 32.9909C45.1827 33.9541 46.0676 35.2256 47.3794 36.9594C49.6414 40.058 51.7096 43.2741 53.5738 46.5918C53.5738 46.5918 56.9052 51.0034 53.5738 53.0551C51.769 54.1064 49.8909 55.046 47.952 55.8677C44.5893 57.3222 41.1329 58.6515 40.6644 58.7575L40.3729 57.12L39.8316 54.0665L39.2486 50.7626L39.8316 50.6566C40.2584 50.5699 40.8727 50.4544 41.4765 50.2906C42.8403 49.9631 44.2874 49.4815 44.1312 48.9999C43.8397 48.1619 41.6431 44.5979 40.5187 44.5979Z" fill="url(#paint6_linear)"/>
<path d="M14.4919 44.5979C14.6054 44.6086 14.7172 44.6312 14.8251 44.6653H14.9604C17.4278 45.4166 27.5054 50.1365 27.5054 50.1365V41.0435L19.385 27.5582H19.0831C16.7198 28.7141 13.5237 30.2746 12.7429 30.6887C11.8486 31.3039 11.1068 32.0888 10.5671 32.9909C9.86957 33.9541 8.98466 35.2256 7.6729 36.9594C5.41085 40.058 3.34266 43.2741 1.4785 46.5918C1.4785 46.5918 -1.85294 51.0034 1.4785 53.0551C3.26649 54.1045 5.12708 55.0441 7.04826 55.8677C10.4109 57.3222 13.8673 58.6515 14.3358 58.7575L14.6273 57.12L15.1686 54.0665L15.7621 50.753L15.1686 50.647C14.7522 50.5603 14.1276 50.4447 13.5237 50.281C12.1599 49.9535 10.7128 49.4719 10.869 48.9902C11.1605 48.1619 13.378 44.5979 14.4919 44.5979Z" fill="url(#paint7_linear)"/>
<path d="M41.2994 58.8441C41.2994 59.1507 41.1678 59.4447 40.9335 59.6614C40.6992 59.8782 40.3815 60 40.0501 60H15.0643C14.732 60 14.4132 59.8785 14.1772 59.662C13.9413 59.4455 13.8074 59.1515 13.8046 58.8441C13.8046 58.535 13.9373 58.2385 14.1736 58.02C14.4098 57.8014 14.7302 57.6786 15.0643 57.6786H40.0501C40.3824 57.6811 40.7002 57.805 40.9342 58.0233C41.1681 58.2417 41.2994 58.5367 41.2994 58.8441Z" fill="url(#paint8_linear)"/>
<path d="M40.1022 41.1495H14.9602C14.299 41.1495 13.763 41.6454 13.763 42.2572V56.9755C13.763 57.5872 14.299 58.0832 14.9602 58.0832H40.1022C40.7634 58.0832 41.2994 57.5872 41.2994 56.9755V42.2572C41.2994 41.6454 40.7634 41.1495 40.1022 41.1495Z" fill="url(#paint9_linear)"/>
<path d="M28.6087 51.4368C29.1397 50.5988 29.5457 50.3965 29.5665 49.5103C29.5717 49.4784 29.5717 49.446 29.5665 49.414C29.4762 48.9732 29.2224 48.5754 28.8489 48.2892C28.4755 48.003 28.0057 47.8464 27.5208 47.8464C27.0359 47.8464 26.5662 48.003 26.1927 48.2892C25.8192 48.5754 25.5654 48.9732 25.4751 49.414V49.5103C25.4751 50.3773 25.9123 50.5795 26.4433 51.4368C26.5426 51.5955 26.5997 51.7738 26.6099 51.957H26.4017V52.4386H26.6203C26.6203 52.4386 26.6203 52.4964 26.6203 52.5349C26.6229 52.6033 26.6525 52.6684 26.7036 52.7179C26.6777 52.7401 26.657 52.7669 26.6427 52.7967C26.6284 52.8265 26.6207 52.8587 26.6203 52.8913C26.6199 52.9255 26.6272 52.9593 26.6415 52.9908C26.6558 53.0222 26.6769 53.0507 26.7036 53.0743C26.6793 53.0936 26.6594 53.1171 26.6451 53.1436C26.6308 53.1701 26.6223 53.1989 26.6203 53.2284C26.6203 53.344 26.7244 53.4403 26.891 53.4692C26.9511 53.5786 27.0427 53.6704 27.1557 53.7345C27.2687 53.7986 27.3987 53.8325 27.5312 53.8325C27.6638 53.8325 27.7938 53.7986 27.9068 53.7345C28.0198 53.6704 28.1114 53.5786 28.1715 53.4692C28.3381 53.4692 28.4526 53.344 28.4526 53.2284C28.4446 53.1676 28.4109 53.1122 28.3589 53.0743C28.3874 53.0515 28.4105 53.0235 28.4266 52.992C28.4427 52.9605 28.4516 52.9262 28.4526 52.8913C28.4502 52.8581 28.4407 52.8257 28.4246 52.7959C28.4085 52.7661 28.3862 52.7396 28.3589 52.7179C28.4122 52.6689 28.4453 52.6041 28.4526 52.5349C28.4584 52.503 28.4584 52.4705 28.4526 52.4386H28.6712V51.957H28.463C28.4716 51.776 28.5212 51.5988 28.6087 51.4368Z" fill="white"/>
<path d="M27.7655 47.0734C27.7745 47.1384 27.7555 47.2041 27.7127 47.2563C27.6698 47.3085 27.6066 47.3432 27.5365 47.3527C27.5008 47.3491 27.4663 47.339 27.4349 47.323C27.4036 47.307 27.3759 47.2854 27.3536 47.2594C27.3314 47.2334 27.3149 47.2036 27.3052 47.1716C27.2955 47.1397 27.2927 47.1063 27.297 47.0734V46.1101C27.2927 46.0772 27.2955 46.0438 27.3052 46.0119C27.3149 45.98 27.3314 45.9502 27.3536 45.9242C27.3759 45.8982 27.4036 45.8765 27.4349 45.8605C27.4663 45.8445 27.5008 45.8344 27.5365 45.8308C27.6066 45.8404 27.6698 45.875 27.7127 45.9272C27.7555 45.9794 27.7745 46.0451 27.7655 46.1101V47.0734Z" fill="white"/>
<path d="M26.36 47.1986C26.4026 47.2528 26.421 47.3201 26.4113 47.3865C26.4016 47.4529 26.3646 47.5132 26.308 47.555C26.2038 47.6128 26.0477 47.555 25.954 47.4201L25.4543 46.611C25.4117 46.5569 25.3933 46.4896 25.403 46.4232C25.4127 46.3568 25.4497 46.2964 25.5063 46.2546C25.5741 46.2322 25.6486 46.2347 25.7144 46.2616C25.7803 46.2884 25.8325 46.3377 25.8603 46.3991L26.36 47.1986Z" fill="white"/>
<path d="M25.2356 48.0366C25.2684 48.0493 25.2982 48.0678 25.3233 48.0911C25.3484 48.1144 25.3683 48.142 25.3818 48.1724C25.3954 48.2028 25.4023 48.2354 25.4022 48.2683C25.4021 48.3012 25.3951 48.3337 25.3814 48.3641C25.3571 48.3874 25.328 48.4059 25.2958 48.4186C25.2636 48.4313 25.229 48.4378 25.194 48.4378C25.159 48.4378 25.1244 48.4313 25.0922 48.4186C25.06 48.4059 25.0309 48.3874 25.0066 48.3641L24.1321 47.9017C24.0684 47.8762 24.0177 47.8289 23.9906 47.7698C23.9634 47.7106 23.9619 47.644 23.9863 47.5839C24.0368 47.5391 24.1039 47.5142 24.1737 47.5142C24.2436 47.5142 24.3107 47.5391 24.3611 47.5839L25.2356 48.0366Z" fill="white"/>
<path d="M24.6942 49.2503C24.7645 49.242 24.8355 49.2596 24.892 49.2992C24.9484 49.3388 24.9858 49.3973 24.9962 49.4622C24.9858 49.5271 24.9484 49.5856 24.892 49.6252C24.8355 49.6648 24.7645 49.6824 24.6942 49.6741H23.6532C23.4762 49.6741 23.3513 49.5778 23.3513 49.4622C23.3513 49.3466 23.4762 49.2503 23.6532 49.2503H24.6942Z" fill="white"/>
<path d="M24.8817 50.5506C24.9321 50.5059 24.9993 50.4809 25.0691 50.4809C25.139 50.4809 25.2061 50.5059 25.2565 50.5506C25.3294 50.6566 25.2565 50.8011 25.1108 50.8781L24.2362 51.3405C24.1847 51.3831 24.118 51.4067 24.0489 51.4067C23.9797 51.4067 23.913 51.3831 23.8615 51.3405C23.8478 51.3101 23.8407 51.2776 23.8406 51.2447C23.8406 51.2118 23.8475 51.1792 23.861 51.1488C23.8746 51.1184 23.8944 51.0907 23.9195 51.0674C23.9446 51.0441 23.9744 51.0256 24.0072 51.013L24.8817 50.5506Z" fill="white"/>
<path d="M25.5897 51.5428C25.6204 51.492 25.6715 51.4544 25.7318 51.4382C25.7922 51.422 25.8571 51.4284 25.9124 51.4561C25.9655 51.4861 26.0039 51.534 26.0194 51.5898C26.035 51.6455 26.0265 51.7046 25.9957 51.7547L25.5793 52.4193C25.5651 52.4454 25.5453 52.4685 25.5211 52.4872C25.4968 52.5059 25.4687 52.5197 25.4384 52.5279C25.4081 52.536 25.3763 52.5383 25.345 52.5345C25.3137 52.5307 25.2836 52.521 25.2565 52.506C25.23 52.4912 25.2071 52.4717 25.189 52.4485C25.1708 52.4253 25.158 52.399 25.1512 52.3711C25.1444 52.3432 25.1438 52.3143 25.1493 52.2862C25.1549 52.258 25.1666 52.2312 25.1837 52.2074L25.5897 51.5428Z" fill="white"/>
<path d="M28.7024 47.1986C28.6598 47.2528 28.6415 47.3201 28.6512 47.3865C28.6609 47.4529 28.6979 47.5132 28.7545 47.555C28.8586 47.6128 29.0148 47.555 29.1085 47.4201L29.6082 46.611C29.655 46.5618 29.6809 46.4984 29.6809 46.4328C29.6809 46.3672 29.655 46.3039 29.6082 46.2546C29.5404 46.2322 29.4659 46.2347 29.4 46.2616C29.3342 46.2884 29.282 46.3377 29.2542 46.3991L28.7024 47.1986Z" fill="white"/>
<path d="M29.8269 48.0366C29.794 48.0493 29.7642 48.0678 29.7392 48.0911C29.7141 48.1144 29.6942 48.142 29.6807 48.1724C29.6671 48.2028 29.6602 48.2354 29.6603 48.2683C29.6604 48.3012 29.6674 48.3337 29.6811 48.3641C29.7054 48.3874 29.7345 48.4059 29.7667 48.4186C29.7989 48.4313 29.8335 48.4378 29.8685 48.4378C29.9035 48.4378 29.9381 48.4313 29.9703 48.4186C30.0025 48.4059 30.0316 48.3874 30.0559 48.3641L30.9304 47.9017C30.9941 47.8762 31.0448 47.8289 31.0719 47.7698C31.0991 47.7106 31.1006 47.644 31.0761 47.5839C31.0257 47.5391 30.9586 47.5142 30.8887 47.5142C30.8189 47.5142 30.7518 47.5391 30.7014 47.5839L29.8269 48.0366Z" fill="white"/>
<path d="M30.3681 49.2503C30.2978 49.242 30.2269 49.2596 30.1704 49.2992C30.114 49.3388 30.0766 49.3973 30.0662 49.4622C30.0766 49.5271 30.114 49.5856 30.1704 49.6252C30.2269 49.6648 30.2978 49.6824 30.3681 49.6741H31.4092C31.4795 49.6824 31.5505 49.6648 31.6069 49.6252C31.6634 49.5856 31.7008 49.5271 31.7111 49.4622C31.7008 49.3973 31.6634 49.3388 31.6069 49.2992C31.5505 49.2596 31.4795 49.242 31.4092 49.2503H30.3681Z" fill="white"/>
<path d="M30.1912 50.5506C30.1408 50.5059 30.0737 50.4809 30.0038 50.4809C29.934 50.4809 29.8668 50.5059 29.8164 50.5506C29.8027 50.581 29.7957 50.6135 29.7956 50.6464C29.7955 50.6793 29.8024 50.7119 29.816 50.7423C29.8295 50.7727 29.8494 50.8004 29.8745 50.8237C29.8996 50.847 29.9294 50.8655 29.9622 50.8781L30.8367 51.3405C30.8882 51.3831 30.9549 51.4067 31.0241 51.4067C31.0932 51.4067 31.1599 51.3831 31.2114 51.3405C31.2251 51.3101 31.2322 51.2776 31.2323 51.2447C31.2323 51.2118 31.2254 51.1792 31.2119 51.1488C31.1983 51.1184 31.1785 51.0907 31.1534 51.0674C31.1283 51.0441 31.0985 51.0256 31.0657 51.013L30.1912 50.5506Z" fill="white"/>
<path d="M29.4728 51.5428C29.4421 51.492 29.391 51.4544 29.3306 51.4382C29.2703 51.422 29.2054 51.4284 29.1501 51.4561C29.097 51.4861 29.0586 51.534 29.0431 51.5898C29.0275 51.6455 29.036 51.7046 29.0668 51.7547L29.4832 52.4193C29.4984 52.4457 29.5192 52.469 29.5444 52.4878C29.5696 52.5065 29.5986 52.5204 29.6298 52.5285C29.6609 52.5366 29.6935 52.5388 29.7256 52.5349C29.7576 52.5311 29.7885 52.5212 29.8164 52.506C29.8677 52.4745 29.9039 52.4258 29.9175 52.3702C29.9311 52.3146 29.921 52.2563 29.8892 52.2074L29.4728 51.5428Z" fill="white"/>
<defs>
<linearGradient id="paint0_linear" x1="37.4474" y1="42.9025" x2="37.4474" y2="25.728" gradientUnits="userSpaceOnUse">
<stop stop-color="#9DDEF2"/>
<stop offset="0.19" stop-color="#A2DFF2"/>
<stop offset="0.41" stop-color="#B0E4F4"/>
<stop offset="0.64" stop-color="#C8EBF6"/>
<stop offset="0.89" stop-color="#E9F5F9"/>
<stop offset="1" stop-color="#FAFAFA"/>
</linearGradient>
<linearGradient id="paint1_linear" x1="342.709" y1="790.681" x2="342.709" y2="484.459" gradientUnits="userSpaceOnUse">
<stop stop-color="#9DDEF2"/>
<stop offset="0.19" stop-color="#A2DFF2"/>
<stop offset="0.41" stop-color="#B0E4F4"/>
<stop offset="0.64" stop-color="#C8EBF6"/>
<stop offset="0.89" stop-color="#E9F5F9"/>
<stop offset="1" stop-color="#FAFAFA"/>
</linearGradient>
<linearGradient id="paint2_linear" x1="27.4948" y1="24.2543" x2="27.4948" y2="1.87829" gradientUnits="userSpaceOnUse">
<stop offset="0.02" stop-color="#F7BB7C"/>
<stop offset="1" stop-color="#FFD1A1"/>
</linearGradient>
<linearGradient id="paint3_linear" x1="197.192" y1="193.471" x2="197.192" y2="165.174" gradientUnits="userSpaceOnUse">
<stop stop-color="#9DDEF2"/>
<stop offset="0.19" stop-color="#A2DFF2"/>
<stop offset="0.41" stop-color="#B0E4F4"/>
<stop offset="0.64" stop-color="#C8EBF6"/>
<stop offset="0.89" stop-color="#E9F5F9"/>
<stop offset="1" stop-color="#FAFAFA"/>
</linearGradient>
<linearGradient id="paint4_linear" x1="159.145" y1="193.471" x2="159.145" y2="165.174" gradientUnits="userSpaceOnUse">
<stop stop-color="#9DDEF2"/>
<stop offset="0.19" stop-color="#A2DFF2"/>
<stop offset="0.41" stop-color="#B0E4F4"/>
<stop offset="0.64" stop-color="#C8EBF6"/>
<stop offset="0.89" stop-color="#E9F5F9"/>
<stop offset="1" stop-color="#FAFAFA"/>
</linearGradient>
<linearGradient id="paint5_linear" x1="27.5053" y1="41.3903" x2="27.5053" y2="27.8087" gradientUnits="userSpaceOnUse">
<stop stop-color="#5EA814"/>
<stop offset="0.35" stop-color="#62A914"/>
<stop offset="0.67" stop-color="#6DAD12"/>
<stop offset="0.97" stop-color="#7FB410"/>
<stop offset="1" stop-color="#81B510"/>
</linearGradient>
<linearGradient id="paint6_linear" x1="41.2474" y1="58.7864" x2="41.2474" y2="27.5679" gradientUnits="userSpaceOnUse">
<stop stop-color="#062A54"/>
<stop offset="0.27" stop-color="#072C58"/>
<stop offset="0.52" stop-color="#083263"/>
<stop offset="0.75" stop-color="#0B3C75"/>
<stop offset="0.98" stop-color="#104B8F"/>
<stop offset="1" stop-color="#104C91"/>
</linearGradient>
<linearGradient id="paint7_linear" x1="363.372" y1="1931.65" x2="363.372" y2="920.48" gradientUnits="userSpaceOnUse">
<stop stop-color="#062A54"/>
<stop offset="0.27" stop-color="#072C58"/>
<stop offset="0.52" stop-color="#083263"/>
<stop offset="0.75" stop-color="#0B3C75"/>
<stop offset="0.98" stop-color="#104B8F"/>
<stop offset="1" stop-color="#104C91"/>
</linearGradient>
<linearGradient id="paint8_linear" x1="13.763" y1="58.8441" x2="41.2994" y2="58.8441" gradientUnits="userSpaceOnUse">
<stop stop-color="#FF7B00"/>
<stop offset="0.02" stop-color="#FF7D01"/>
<stop offset="0.67" stop-color="#FFAB0F"/>
<stop offset="1" stop-color="#FFBD14"/>
</linearGradient>
<linearGradient id="paint9_linear" x1="27.5364" y1="58.0832" x2="27.5364" y2="41.1495" gradientUnits="userSpaceOnUse">
<stop stop-color="#9DDEF2"/>
<stop offset="0.17" stop-color="#A4E0F3"/>
<stop offset="0.43" stop-color="#B8E6F4"/>
<stop offset="0.73" stop-color="#D8F0F7"/>
<stop offset="1" stop-color="#FAFAFA"/>
</linearGradient>
</defs>
</svg>
