<svg width="60" height="60" viewBox="0 0 60 60" fill="none" xmlns="http://www.w3.org/2000/svg">
<path d="M54.7657 42.8729C53.9546 42.3123 52.8731 42.5761 51.7484 43.2467C49.2934 42.3562 43.5616 48.3694 43.5616 48.3694C41.5609 47.8747 37.2999 48.5123 37.2999 48.5123C36.2833 47.8088 33.3526 47.7208 30.4867 47.8198L29.1997 47.6549L28.9726 47.8967L27.5991 47.9847L26.5177 47.8418L26.2906 48.0946C24.8738 48.2265 23.7924 48.3694 23.7924 48.3694L15.8652 57.0209L20.2559 56.7131C24.0627 57.1858 33.2336 58.3181 35.3965 58.6479C36.3565 58.7923 37.3353 58.7362 38.2732 58.483C39.7721 58.6732 41.2911 58.3605 42.5991 57.5926C42.5991 57.5926 45.5624 55.8997 48.6662 54.2947C50.8193 52.9909 52.6857 51.2509 54.1492 49.1829C54.1492 49.1829 59.4484 44.258 57.5018 42.752C57.0832 42.5005 56.6018 42.378 56.1161 42.3995C55.6303 42.421 55.1612 42.5854 54.7657 42.8729Z" fill="#E6AB6E"/>
<path d="M8.26242 16.7754C10.7174 17.6548 16.4383 11.6306 16.4383 11.6306C18.4391 12.1363 22.7109 11.4987 22.7109 11.4987C23.7166 12.2023 26.6474 12.2902 29.5133 12.1803L30.7895 12.3452L31.0058 12.1143L32.3792 12.0154L33.4607 12.1583L33.6878 11.9055C35.1694 11.7735 36.1968 11.6526 36.1968 11.6526L44.1132 3.01209C44.1132 3.01209 42.2206 3.155 39.7873 3.3089C35.9805 2.84719 26.8096 1.70392 24.6467 1.37413C23.6827 1.22734 22.6991 1.28726 21.7592 1.55001C20.2614 1.3557 18.7423 1.66454 17.4333 2.42946C17.4333 2.42946 14.4701 4.12239 11.3662 5.72737C9.19862 7.03817 7.3238 8.79414 5.86155 10.8831C5.86155 10.8831 0.55153 15.797 2.49818 17.303C2.92168 17.5483 3.40542 17.6652 3.8922 17.6399C4.37899 17.6146 4.84846 17.4481 5.24511 17.1601C6.05622 17.7208 7.12687 17.4459 8.26242 16.7754Z" fill="#E6AB6E"/>
<path d="M17.6064 7.24447C16.0149 7.21971 14.4345 7.51661 12.9569 8.11791C11.4793 8.71921 10.1339 9.61294 8.99897 10.7472C7.86401 11.8814 6.96206 13.2336 6.34549 14.7251C5.72893 16.2167 5.41005 17.8179 5.40737 19.4358C5.39526 22.7258 6.65426 25.8892 8.91345 28.2453C11.1726 30.6014 14.2515 31.9618 17.4874 32.0338C19.0842 32.0674 20.6716 31.777 22.1568 31.1797C23.6419 30.5824 24.995 29.6901 26.1369 28.5549C27.2788 27.4198 28.1866 26.0646 28.8072 24.5687C29.4278 23.0727 29.7487 21.466 29.7513 19.8425C29.7519 16.5446 28.4804 13.378 26.2096 11.0226C23.9389 8.66711 20.8501 7.31066 17.6064 7.24447Z" fill="url(#paint0_linear)"/>
<g style="mix-blend-mode:screen">
<g style="mix-blend-mode:screen">
<path d="M29.7513 19.8425C29.7487 21.466 29.4278 23.0727 28.8072 24.5687C28.1866 26.0646 27.2788 27.4198 26.1369 28.5549C24.995 29.6901 23.6419 30.5824 22.1568 31.1797C20.6716 31.777 19.0842 32.0674 17.4874 32.0338C14.2515 31.9618 11.1726 30.6014 8.91345 28.2453C6.65426 25.8892 5.39526 22.7258 5.40737 19.4358C5.41005 17.8179 5.72893 16.2167 6.34549 14.7251C6.96206 13.2336 7.86401 11.8814 8.99897 10.7472C10.1339 9.61294 11.4793 8.71921 12.9569 8.11791C14.4345 7.51661 16.0149 7.21971 17.6064 7.24447C20.8501 7.31066 23.9389 8.66711 26.2096 11.0226C28.4804 13.378 29.7519 16.5446 29.7513 19.8425Z" fill="#FFB82B"/>
</g>
</g>
<g style="mix-blend-mode:multiply">
<path d="M17.4874 31.4291C14.3034 31.359 11.2691 30.0412 9.01815 27.7511C6.76719 25.461 5.47356 22.3755 5.40737 19.1389C5.40737 19.2488 5.40737 19.3368 5.40737 19.4357C5.39526 22.7258 6.65426 25.8892 8.91345 28.2453C11.1726 30.6014 14.2515 31.9617 17.4874 32.0338C19.0842 32.0674 20.6716 31.777 22.1568 31.1797C23.6419 30.5824 24.995 29.69 26.1369 28.5549C27.2788 27.4198 28.1866 26.0646 28.8072 24.5686C29.4278 23.0727 29.7487 21.466 29.7513 19.8425C29.7513 19.7325 29.7513 19.6336 29.7513 19.5237C29.6747 22.7544 28.3405 25.8223 26.0413 28.0543C23.7422 30.2862 20.6659 31.4999 17.4874 31.4291Z" fill="#F5D5A4"/>
</g>
<g style="mix-blend-mode:screen">
<path d="M17.6063 7.95902C20.7806 8.02263 23.8091 9.3253 26.0641 11.597C28.3191 13.8688 29.6278 16.9354 29.7188 20.1613C29.7188 20.0514 29.7188 19.9524 29.7188 19.8425C29.7196 16.5502 28.4526 13.3884 26.1888 11.0339C23.925 8.67936 20.8444 7.31917 17.6063 7.24447C16.0149 7.21971 14.4345 7.51661 12.9569 8.11791C11.4793 8.71921 10.1339 9.61294 8.99895 10.7472C7.86398 11.8814 6.96203 13.2336 6.34547 14.7251C5.72891 16.2167 5.41003 17.8179 5.40735 19.4358C5.40735 19.5677 5.40735 19.6996 5.40735 19.8315C5.49517 16.6192 6.82499 13.5715 9.10852 11.349C11.3921 9.12663 14.4453 7.90861 17.6063 7.95902Z" fill="#FFB82B"/>
</g>
<path d="M27.2098 19.7875C27.2087 21.0757 26.9545 22.3507 26.4621 23.5376C25.9697 24.7246 25.2491 25.7997 24.3425 26.6997C23.4358 27.5998 22.3615 28.3068 21.1825 28.7791C20.0035 29.2514 18.7435 29.4797 17.4766 29.4504C14.9062 29.4043 12.4566 28.3331 10.656 26.4679C8.8555 24.6027 7.84824 22.0929 7.85148 19.4797C7.85259 18.1915 8.1068 16.9165 8.59918 15.7296C9.09156 14.5426 9.8122 13.4675 10.7188 12.5675C11.6254 11.6674 12.6998 10.9605 13.8788 10.4881C15.0578 10.0158 16.3178 9.78755 17.5847 9.81683C20.156 9.86015 22.6072 10.9304 24.4084 12.7962C26.2095 14.662 27.2158 17.1735 27.2098 19.7875Z" fill="url(#paint1_linear)"/>
<g style="mix-blend-mode:multiply">
<path d="M17.509 28.9666C14.978 28.9298 12.5608 27.8921 10.7699 26.0738C8.97903 24.2555 7.95549 21.7995 7.91637 19.2268C7.91118 19.3147 7.91118 19.4028 7.91637 19.4906C7.91313 22.1038 8.92039 24.6136 10.7209 26.4788C12.5215 28.344 14.9711 29.4152 17.5415 29.4613C18.8084 29.4906 20.0684 29.2624 21.2474 28.79C22.4264 28.3177 23.5007 27.6107 24.4074 26.7107C25.314 25.8106 26.0346 24.7356 26.527 23.5486C27.0194 22.3616 27.2736 21.0866 27.2747 19.7984C27.2747 19.7105 27.2747 19.6336 27.2747 19.5566C27.2425 20.8266 26.9642 22.0777 26.4557 23.2383C25.9473 24.3989 25.2187 25.4462 24.3116 26.3202C23.4046 27.1942 22.3369 27.8779 21.1696 28.332C20.0023 28.7861 18.7584 29.0017 17.509 28.9666Z" fill="#F5D5A4"/>
</g>
<g style="mix-blend-mode:multiply">
<path d="M17.5198 27.0429C16.2369 27.0148 14.9859 26.6314 13.9016 25.934C12.8172 25.2367 11.9406 24.2517 11.3662 23.0854C10.8037 21.9779 10.5142 20.748 10.5227 19.5016C10.5012 18.5588 10.664 17.6211 11.0018 16.7427C11.3396 15.8644 11.8456 15.063 12.4905 14.385C13.1354 13.707 13.9063 13.1659 14.7585 12.7931C15.6107 12.4203 16.5272 12.2232 17.4549 12.2133C18.4143 12.2259 19.3616 12.4329 20.2414 12.8223C21.1211 13.2117 21.9155 13.7756 22.5782 14.4809C23.2409 15.1862 23.7585 16.0189 24.1006 16.9301C24.4428 17.8413 24.6027 18.8127 24.571 19.7875C24.5882 20.7284 24.4218 21.6636 24.0813 22.5388C23.7409 23.414 23.2332 24.212 22.5877 24.8866C21.9421 25.5613 21.1714 26.0992 20.3201 26.4693C19.4688 26.8394 18.5538 27.0343 17.628 27.0429H17.5198Z" fill="#F5D5A4"/>
</g>
<path d="M24.279 19.7875C24.2778 20.6822 24.101 21.5677 23.759 22.3921C23.417 23.2165 22.9166 23.9633 22.2872 24.5888C21.6578 25.2143 20.9119 25.7058 20.0934 26.0347C19.2748 26.3636 18.3999 26.5232 17.5198 26.5042C15.7241 26.4696 14.0139 25.7178 12.7591 24.4115C11.5044 23.1052 10.8059 21.3493 10.8147 19.5236C10.8189 18.6303 10.9977 17.7466 11.3409 16.9242C11.684 16.1017 12.1847 15.3568 12.8136 14.7328C13.4426 14.1088 14.1874 13.6182 15.0046 13.2894C15.8218 12.9607 16.6952 12.8004 17.5739 12.8179C19.3687 12.8497 21.0789 13.599 22.334 14.9036C23.589 16.2081 24.2878 17.9628 24.279 19.7875Z" fill="#FFD336"/>
<g style="mix-blend-mode:multiply">
<path d="M24.2358 20.0953C24.0505 21.7415 23.2503 23.2525 22.0005 24.3163C20.7507 25.3801 19.1467 25.9154 17.5198 25.8117C15.8721 25.8764 14.262 25.301 13.0166 24.2025C11.7712 23.104 10.9839 21.5647 10.8147 19.8974C10.8915 21.6519 11.6232 23.3107 12.8608 24.5361C14.0985 25.7615 15.7491 26.4614 17.4766 26.4932C19.2028 26.5382 20.8776 25.8934 22.1414 24.6972C23.4051 23.501 24.1571 21.8488 24.2358 20.0953Z" fill="#F5D5A4"/>
</g>
<g style="mix-blend-mode:screen">
<path d="M17.5739 13.3346C19.3127 13.3723 20.9719 14.0823 22.2136 15.32C23.4554 16.5577 24.1863 18.23 24.2574 19.9964C24.2574 19.9194 24.2574 19.8315 24.2574 19.7545C24.2577 17.9356 23.5551 16.1893 22.3009 14.8919C21.0468 13.5944 19.3415 12.8496 17.5523 12.8179C16.6754 12.8034 15.8043 12.9658 14.9896 13.2959C14.1749 13.626 13.4327 14.1171 12.806 14.7408C12.1794 15.3645 11.6807 16.1084 11.3389 16.9294C10.9971 17.7504 10.8189 18.6322 10.8147 19.5237C10.8147 19.6226 10.8147 19.7106 10.8147 19.8095C10.8768 18.0434 11.6212 16.3733 12.8864 15.1613C14.1517 13.9493 15.8359 13.293 17.5739 13.3346Z" fill="#FFB82B"/>
</g>
<path d="M16.925 24.1847C16.5892 24.1601 16.2562 24.105 15.9301 24.0198C15.6949 23.9661 15.4713 23.8693 15.2704 23.7339L15.6813 22.3928C15.8284 22.5133 15.9975 22.603 16.1788 22.6566C16.4211 22.7382 16.6713 22.7934 16.925 22.8215V20.1172C16.7114 19.9908 16.5056 19.8513 16.3086 19.6995C16.1045 19.5427 15.9194 19.3619 15.757 19.1608C15.597 18.9428 15.4695 18.7021 15.3785 18.4463C15.2671 18.1406 15.2156 17.8157 15.2271 17.4899C15.2018 16.941 15.3663 16.4004 15.6922 15.9619C16.0163 15.5811 16.4591 15.325 16.9467 15.2363V14.137H18.1038V15.2363C18.357 15.2555 18.6073 15.3034 18.85 15.3792C19.0661 15.4398 19.2761 15.5207 19.4773 15.6211L19.0663 16.9073C18.9353 16.822 18.7934 16.7554 18.6446 16.7094C18.469 16.65 18.2877 16.6095 18.1038 16.5885V19.0289C18.3222 19.1654 18.5317 19.316 18.7311 19.4796C18.9498 19.6267 19.1403 19.8129 19.2934 20.0293C19.4665 20.238 19.602 20.4762 19.6936 20.7328C19.8081 21.0303 19.8633 21.3479 19.8558 21.6673C19.8803 22.2603 19.709 22.8446 19.3692 23.3272C19.0507 23.7473 18.5937 24.0362 18.0822 24.1407V25.295H16.925V24.1847ZM17.4766 16.4895C17.3581 16.4908 17.2416 16.5203 17.1364 16.5757C17.0313 16.6311 16.9403 16.7107 16.871 16.8083C16.7577 16.9684 16.6971 17.1608 16.6979 17.358C16.6956 17.5996 16.7716 17.8353 16.9142 18.0286C17.0831 18.2132 17.2677 18.3825 17.4658 18.5342L17.4766 16.4895ZM17.5847 22.7885C17.7028 22.7718 17.8163 22.7311 17.9185 22.6687C18.0207 22.6064 18.1095 22.5238 18.1795 22.4258C18.3156 22.2179 18.3837 21.9717 18.3742 21.7222C18.3814 21.4731 18.3051 21.2289 18.1579 21.0297C18.005 20.8222 17.814 20.6468 17.5955 20.513L17.5847 22.7885Z" fill="url(#paint2_linear)"/>
<g style="mix-blend-mode:multiply">
<path d="M19.6936 20.6559C19.602 20.3993 19.4665 20.1611 19.2934 19.9524C19.1403 19.736 18.9497 19.5498 18.7311 19.4027C18.5316 19.2391 18.3221 19.0885 18.1038 18.952V16.5116C18.2877 16.5326 18.469 16.5731 18.6445 16.6325C18.7934 16.6785 18.9353 16.7451 19.0663 16.8304L19.4665 15.5442C19.2653 15.4438 19.0553 15.3629 18.8392 15.3023C18.5965 15.2265 18.3462 15.1786 18.093 15.1594V14.0601H16.9358V15.1594C16.4483 15.2481 16.0054 15.5042 15.6813 15.885C15.3555 16.3235 15.191 16.8641 15.2163 17.413C15.2048 17.7388 15.2563 18.0637 15.3677 18.3694C15.4587 18.6252 15.5862 18.8659 15.7462 19.0839C15.9085 19.285 16.0937 19.4658 16.2978 19.6226C16.4947 19.7744 16.7006 19.9139 16.9142 20.0403V22.7446C16.6604 22.7165 16.4103 22.6613 16.168 22.5797C15.9866 22.5261 15.8175 22.4364 15.6705 22.3159L15.2595 23.657C15.4605 23.7924 15.6841 23.8892 15.9192 23.9429C16.2454 24.0281 16.5784 24.0832 16.9142 24.1078V25.2071H18.0714V24.0638C18.5828 23.9593 19.0399 23.6703 19.3583 23.2503C19.6982 22.7677 19.8695 22.1834 19.845 21.5903C19.8559 21.2718 19.8044 20.9542 19.6936 20.6559ZM19.2069 22.7666C18.9204 23.1409 18.5086 23.3952 18.0497 23.4812L17.7902 23.5471V24.6464H17.217V23.5471H16.9358C16.6114 23.529 16.2893 23.4811 15.9733 23.4042L15.7246 23.3163L15.8111 23.0304C15.9144 23.0886 16.0231 23.1365 16.1355 23.1733C16.3893 23.2558 16.6499 23.3147 16.9142 23.3492H17.2278V19.6556L16.4492 19.1279C16.2558 18.9823 16.0814 18.8124 15.9301 18.6222C15.8016 18.4579 15.7028 18.2719 15.6381 18.0726C15.562 17.8693 15.5288 17.6521 15.5407 17.435C15.5182 17.0581 15.6338 16.6861 15.8652 16.3906C16.1479 16.0643 16.5276 15.8405 16.9466 15.753L17.2062 15.6981V14.5988H17.7794V15.6981H18.0606C18.3029 15.7192 18.5422 15.7671 18.7743 15.841L18.969 15.896L18.9041 16.1268L18.6554 16.0389C18.4706 15.9809 18.2829 15.9332 18.093 15.896L17.7794 15.841V19.3478L17.9849 19.4687C18.1984 19.5938 18.401 19.7372 18.5905 19.8974C18.7806 20.0306 18.9486 20.1939 19.088 20.3811C19.2263 20.5582 19.3392 20.7544 19.4232 20.9637C19.4914 21.1538 19.5244 21.3551 19.5205 21.5574C19.5603 21.9855 19.4492 22.4141 19.2069 22.7666Z" fill="#F5D5A4"/>
</g>
<path d="M47.8337 11.3228C46.4545 12.3175 45.009 13.2138 43.5078 14.0051C40.3824 15.4012 37.6246 18.3364 32.6931 17.1272C28.8614 16.027 24.9301 15.3235 20.9591 15.0275C19.4992 15.0275 14.8056 15.3903 15.1408 12.2572C15.4328 9.36607 20.2995 10.2345 21.4026 10.1466C22.5057 10.0586 28.5078 9.89373 28.5078 9.89373C28.5078 9.89373 20.6131 8.49762 18.3852 7.03554C15.519 8.10113 12.5758 8.93912 9.58207 9.54196C9.58207 9.54196 3.24466 18.5453 0.454461 16.4896C-1.53544 15.0495 3.61236 9.99267 3.61236 9.99267C5.01549 7.88054 6.83469 6.08749 8.95482 4.72701C12.0046 2.99011 14.9245 1.22023 14.9245 1.22023C16.2758 0.354179 17.884 -2.92957e-05 19.4667 0.219861C22.0839 0.560645 36.9865 1.86882 36.9865 1.86882C38.7621 1.87773 40.5351 1.7306 42.2857 1.42909C43.358 1.07989 44.4058 0.65753 45.422 0.164895L47.8337 11.3228Z" fill="url(#paint3_linear)"/>
<path d="M40.6417 -0.021986V16.7974H44.1132V-0.021986H40.6417Z" fill="url(#paint4_linear)"/>
<path d="M44.2695 0.0139086L44.2233 16.8332L51.1988 16.853L51.245 0.033709L44.2695 0.0139086Z" fill="url(#paint5_linear)"/>
<path d="M41.5393 27.7025C39.9432 27.6733 38.3574 27.9672 36.8741 28.5669C35.3908 29.1666 34.0397 30.0603 32.8994 31.1959C31.7591 32.3314 30.8524 33.6862 30.2321 35.1813C29.6118 36.6765 29.2903 38.2821 29.2862 39.9047C29.2744 43.206 30.5423 46.3792 32.8154 48.7371C35.0885 51.095 38.1839 52.4479 41.4312 52.5028C43.028 52.5349 44.6151 52.2431 46.0997 51.6444C47.5844 51.0458 48.9366 50.1522 50.0775 49.0161C51.2184 47.8799 52.125 46.524 52.7443 45.0275C53.3636 43.531 53.6831 41.924 53.6842 40.3005C53.6877 37.0018 52.417 33.8335 50.1457 31.4775C47.8744 29.1214 44.7839 27.7659 41.5393 27.7025Z" fill="url(#paint6_linear)"/>
<g style="mix-blend-mode:screen">
<g style="mix-blend-mode:screen">
<path d="M53.6842 40.3005C53.6831 41.924 53.3636 43.531 52.7443 45.0275C52.125 46.524 51.2184 47.8799 50.0775 49.0161C48.9366 50.1522 47.5844 51.0458 46.0997 51.6444C44.6151 52.2431 43.028 52.5349 41.4312 52.5028C38.1839 52.4479 35.0885 51.095 32.8154 48.7371C30.5423 46.3792 29.2744 43.206 29.2862 39.9047C29.2903 38.2821 29.6118 36.6765 30.2321 35.1813C30.8524 33.6862 31.7591 32.3314 32.8994 31.1959C34.0397 30.0603 35.3908 29.1666 36.8741 28.5669C38.3574 27.9672 39.9432 27.6733 41.5393 27.7025C44.7839 27.7659 47.8744 29.1214 50.1457 31.4775C52.417 33.8335 53.6877 37.0018 53.6842 40.3005Z" fill="#FFB82B"/>
</g>
</g>
<g style="mix-blend-mode:multiply">
<path d="M41.4312 51.8872C38.2359 51.828 35.1876 50.5122 32.9269 48.2162C30.6661 45.9202 29.3689 42.8228 29.3079 39.575C29.3079 39.6739 29.3079 39.7728 29.3079 39.8718C29.2874 43.175 30.5485 46.3533 32.8179 48.7177C35.0873 51.0821 38.182 52.4421 41.4312 52.5028C43.028 52.5349 44.6151 52.2431 46.0997 51.6444C47.5843 51.0458 48.9366 50.1522 50.0775 49.0161C51.2184 47.8799 52.125 46.5239 52.7443 45.0275C53.3635 43.531 53.6831 41.924 53.6842 40.3005C53.6842 40.2016 53.6842 40.0916 53.6842 39.9817C53.6491 41.5814 53.3043 43.1583 52.6694 44.6225C52.0346 46.0866 51.1221 47.4093 49.9843 48.5149C48.8464 49.6205 47.5053 50.4874 46.0378 51.066C44.5702 51.6446 43.0048 51.9237 41.4312 51.8872Z" fill="#F5D5A4"/>
</g>
<g style="mix-blend-mode:screen">
<path d="M41.5393 28.417C44.7218 28.4839 47.7565 29.7951 50.0124 32.0779C52.2683 34.3607 53.5718 37.4396 53.6518 40.6743C53.6518 40.5643 53.6518 40.4544 53.6518 40.3445C53.6667 37.0438 52.4056 33.8691 50.14 31.5045C47.8744 29.1399 44.7858 27.7745 41.5393 27.7025C39.9432 27.6733 38.3574 27.9672 36.8741 28.5669C35.3908 29.1666 34.0397 30.0603 32.8994 31.1959C31.7591 32.3314 30.8524 33.6862 30.2321 35.1813C29.6118 36.6765 29.2903 38.2821 29.2863 39.9047C29.2863 40.0367 29.2863 40.1686 29.2863 40.3005C29.3741 37.0775 30.711 34.0203 33.006 31.7946C35.3009 29.5689 38.368 28.3549 41.5393 28.417Z" fill="#FFB82B"/>
</g>
<path d="M51.1428 40.2565C51.1431 41.5456 50.89 42.8218 50.3982 44.01C49.9065 45.1983 49.1861 46.2747 48.2793 47.1759C47.3725 48.0771 46.2977 48.7851 45.118 49.2581C43.9382 49.7311 42.6774 49.9597 41.4095 49.9304C38.8373 49.8842 36.3861 48.8115 34.5852 46.9439C32.7844 45.0764 31.7784 42.5638 31.7845 39.9487C31.787 38.6614 32.0423 37.3877 32.5353 36.202C33.0283 35.0163 33.7492 33.9425 34.6557 33.0436C35.5621 32.1447 36.636 31.4388 37.8143 30.9671C38.9926 30.4954 40.2516 30.2676 41.5177 30.2968C44.0916 30.3258 46.5494 31.3901 48.3532 33.2566C50.1571 35.1232 51.1601 37.6401 51.1428 40.2565Z" fill="url(#paint7_linear)"/>
<g style="mix-blend-mode:multiply">
<path d="M41.442 49.4687C38.9128 49.4319 36.4971 48.3958 34.7066 46.5798C32.916 44.7638 31.8912 42.3106 31.8493 39.7399C31.8434 39.824 31.8434 39.9085 31.8493 39.9927C31.8432 42.6078 32.8492 45.1204 34.6501 46.988C36.4509 48.8555 38.9021 49.9282 41.4744 49.9744C42.7423 50.0037 44.0031 49.7751 45.1829 49.3021C46.3626 48.8291 47.4374 48.1211 48.3442 47.2199C49.2509 46.3187 49.9714 45.2423 50.4631 44.054C50.9548 42.8658 51.208 41.5896 51.2077 40.3005C51.2077 40.2236 51.2077 40.1466 51.2077 40.0697C51.1754 41.3392 50.8971 42.5898 50.3885 43.7498C49.8799 44.9098 49.1512 45.9563 48.2439 46.8295C47.3367 47.7026 46.2689 48.3852 45.1017 48.8381C43.9345 49.291 42.6908 49.5053 41.442 49.4687Z" fill="#F5D5A4"/>
</g>
<g style="mix-blend-mode:multiply">
<path d="M41.4528 47.5119C40.1727 47.4835 38.9242 47.1025 37.8404 46.4094C36.7567 45.7163 35.8784 44.7371 35.2992 43.5764C34.7349 42.4656 34.4454 41.2318 34.4557 39.9817C34.4356 39.0389 34.5999 38.1014 34.939 37.2236C35.2781 36.3458 35.7853 35.5452 36.4312 34.8683C37.077 34.1913 37.8487 33.6514 38.7015 33.2799C39.5542 32.9085 40.471 32.7128 41.3987 32.7043C42.353 32.7185 43.2951 32.9248 44.1705 33.3113C45.0459 33.6978 45.8373 34.2567 46.4989 34.9559C47.1606 35.655 47.6794 36.4805 48.0254 37.3847C48.3714 38.2888 48.5377 39.2537 48.5148 40.2235C48.5363 41.1682 48.3728 42.1077 48.0336 42.9875C47.6945 43.8673 47.1865 44.6697 46.5394 45.348C45.8922 46.0263 45.1188 46.5669 44.264 46.9384C43.4093 47.3099 42.4905 47.5049 41.5609 47.5119H41.4528Z" fill="#F5D5A4"/>
</g>
<path d="M48.212 40.2126C48.2107 41.1078 48.034 41.9938 47.6921 42.8188C47.3502 43.6438 46.85 44.3913 46.2208 45.0177C45.5915 45.644 44.8458 46.1366 44.0271 46.4667C43.2085 46.7968 42.3333 46.9578 41.4528 46.9403C39.6628 46.9085 37.9569 46.1619 36.7042 44.8617C35.4515 43.5616 34.7525 41.8125 34.7585 39.9927C34.7598 39.0989 34.9362 38.2143 35.2776 37.3907C35.6189 36.567 36.1183 35.8207 36.7465 35.1954C37.3748 34.57 38.1193 34.0782 38.9367 33.7487C39.754 33.4191 40.6278 33.2584 41.5069 33.276C43.296 33.3077 45.0014 34.0525 46.2555 35.3499C47.5097 36.6473 48.2123 38.3936 48.212 40.2126Z" fill="#FFD336"/>
<g style="mix-blend-mode:multiply">
<path d="M48.1795 40.5643C47.9891 42.2095 47.1856 43.7179 45.9343 44.7791C44.683 45.8404 43.0792 46.3739 41.4528 46.2697C39.8174 46.3237 38.2224 45.7478 36.9871 44.6572C35.7517 43.5666 34.9673 42.0419 34.7909 40.3884C34.8702 42.1421 35.6027 43.7994 36.8398 45.0242C38.077 46.2491 39.7261 46.9498 41.4528 46.9843C43.1755 47.0147 44.842 46.361 46.0982 45.1622C47.3543 43.9634 48.101 42.3139 48.1795 40.5643Z" fill="#F5D5A4"/>
</g>
<g style="mix-blend-mode:screen">
<path d="M41.5069 33.7926C43.2482 33.8278 44.9104 34.5385 46.153 35.7791C47.3956 37.0197 48.1244 38.6963 48.1903 40.4654C48.1903 40.3775 48.1903 40.3005 48.1903 40.2126C48.1906 38.3936 47.488 36.6473 46.2339 35.3499C44.9797 34.0525 43.2744 33.3077 41.4852 33.276C40.6061 33.2584 39.7324 33.4191 38.915 33.7487C38.0977 34.0782 37.3532 34.57 36.7249 35.1954C36.0966 35.8207 35.5973 36.567 35.2559 37.3907C34.9146 38.2143 34.7381 39.0989 34.7368 39.9927C34.7368 40.0916 34.7368 40.1686 34.7368 40.2675C34.799 38.4995 35.5448 36.8277 36.8124 35.6154C38.08 34.4031 39.7669 33.7481 41.5069 33.7926Z" fill="#FFB82B"/>
</g>
<path d="M43.2588 36.6398V34.8919C40.3605 34.8919 38.4896 36.1341 38.0678 38.5966H37.2026V39.3771H38.0029C38.0029 39.487 38.0029 39.5969 38.0029 39.7179C38.0029 39.8388 38.0029 40.0476 38.0029 40.2015H37.2026V41.4218H38.2841C38.9221 43.4225 40.7606 44.4998 43.3129 44.4998V42.7409C41.7989 42.7409 40.9012 42.3232 40.4686 41.4218H42.9452V40.2015H40.1334C40.1334 40.0476 40.1334 39.8937 40.1334 39.7179V39.3771H42.9344V38.5966H40.1983C40.4686 37.2004 41.3663 36.6398 43.2588 36.6398Z" fill="url(#paint8_linear)"/>
<g style="mix-blend-mode:multiply">
<path d="M43.2588 36.6398V34.8919C40.3605 34.8919 38.4896 36.1341 38.0678 38.5966H37.2026V39.3771H38.0029C38.0029 39.487 38.0029 39.5969 38.0029 39.7179C38.0029 39.8388 38.0029 40.0476 38.0029 40.2015H37.2026V41.4218H38.2841C38.9221 43.4225 40.7606 44.4998 43.3129 44.4998V42.7409C41.7989 42.7409 40.9012 42.3232 40.4686 41.4218H42.9452V40.2015H40.1334C40.1334 40.0476 40.1334 39.8937 40.1334 39.7179V39.3771H42.9344V38.5966H40.1983C40.4686 37.2004 41.3663 36.6398 43.2588 36.6398ZM39.7981 38.4756L39.7008 38.9593C39.7008 38.9593 39.7008 39.542 39.7008 39.6739C39.7008 39.8058 39.7008 39.9707 39.7008 40.1136V40.4984L40.0793 40.5753H42.5018V40.9711H39.7765L40.0685 41.5647C40.3409 42.0674 40.7498 42.4798 41.2464 42.7527C41.7431 43.0256 42.3066 43.1475 42.8695 43.1037V44.0271C40.7066 43.9172 39.1817 42.9278 38.641 41.2459L38.5436 40.9711H37.6136V40.6742H38.4571V40.2235C38.4571 40.0806 38.4571 39.9267 38.4571 39.7728V39.1132L38.2408 39.0583H38.4463L38.5112 38.7175C38.9546 36.1341 41.0526 35.4196 42.8371 35.3646V36.277C41.0202 36.277 40.0901 37.0136 39.7981 38.4756Z" fill="#F5D5A4"/>
</g>
<path d="M12.1773 48.6772C13.556 47.6848 15.0015 46.7922 16.5032 46.0059C19.6287 44.5987 22.3756 41.6746 27.3179 42.8838C31.1546 43.9761 35.0891 44.6758 39.0627 44.9725C40.5119 44.9725 45.2055 44.6097 44.881 47.7537C44.5782 50.6339 39.7116 49.7765 38.6193 49.8534C37.527 49.9304 31.4816 50.1173 31.4816 50.1173C31.4816 50.1173 39.3655 51.5134 41.615 52.9754C44.4784 51.9098 47.4177 51.0682 50.4073 50.458C50.4073 50.458 56.7123 41.4657 59.5241 43.5104C61.514 44.9615 56.3771 50.0073 56.3771 50.0073C54.9691 52.1183 53.151 53.9141 51.0346 55.284C47.974 57.0209 45.0649 58.7908 45.0649 58.7908C43.7232 59.6402 42.1331 59.9899 40.5659 59.7801C37.8947 59.4503 23.0029 58.1312 23.0029 58.1312C21.2275 58.1277 19.4549 58.2747 17.7037 58.5709C16.6252 58.9222 15.5703 59.3445 14.5458 59.8351L12.1773 48.6772Z" fill="url(#paint9_linear)"/>
<path d="M15.7856 43.1659L15.7394 59.9852L19.2109 59.9951L19.2571 43.1758L15.7856 43.1659Z" fill="url(#paint10_linear)"/>
<path d="M8.81717 43.139L8.77097 59.9583L15.7464 59.9781L15.7926 43.1588L8.81717 43.139Z" fill="url(#paint11_linear)"/>
<defs>
<linearGradient id="paint0_linear" x1="5.34249" y1="19.6446" x2="29.7513" y2="19.6446" gradientUnits="userSpaceOnUse">
<stop stop-color="#DD3F18"/>
<stop offset="0.42" stop-color="#E74A1B"/>
<stop offset="1" stop-color="#FD6120"/>
</linearGradient>
<linearGradient id="paint1_linear" x1="17.5523" y1="29.4614" x2="17.5523" y2="9.82782" gradientUnits="userSpaceOnUse">
<stop stop-color="#FF7B00"/>
<stop offset="0.02" stop-color="#FF7D01"/>
<stop offset="0.67" stop-color="#FFAB0F"/>
<stop offset="1" stop-color="#FFBD14"/>
</linearGradient>
<linearGradient id="paint2_linear" x1="-1812.52" y1="270.1" x2="-1812.52" y2="156.735" gradientUnits="userSpaceOnUse">
<stop stop-color="#FF7B00"/>
<stop offset="0.02" stop-color="#FF7D01"/>
<stop offset="0.67" stop-color="#FFAB0F"/>
<stop offset="1" stop-color="#FFBD14"/>
</linearGradient>
<linearGradient id="paint3_linear" x1="23.9116" y1="17.413" x2="23.9116" y2="0.164896" gradientUnits="userSpaceOnUse">
<stop offset="0.02" stop-color="#F7BB7C"/>
<stop offset="1" stop-color="#FFD1A1"/>
</linearGradient>
<linearGradient id="paint4_linear" x1="42.3965" y1="16.8086" x2="42.3487" y2="-0.0217029" gradientUnits="userSpaceOnUse">
<stop stop-color="#CDEFFA"/>
<stop offset="1" stop-color="#FAFAFA"/>
</linearGradient>
<linearGradient id="paint5_linear" x1="47.7301" y1="16.8505" x2="47.7301" y2="0.0091831" gradientUnits="userSpaceOnUse">
<stop stop-color="#062A54"/>
<stop offset="0.27" stop-color="#072C58"/>
<stop offset="0.52" stop-color="#083263"/>
<stop offset="0.75" stop-color="#0B3C75"/>
<stop offset="0.98" stop-color="#104B8F"/>
<stop offset="1" stop-color="#104C91"/>
</linearGradient>
<linearGradient id="paint6_linear" x1="689.986" y1="932.574" x2="1240.41" y2="932.574" gradientUnits="userSpaceOnUse">
<stop stop-color="#DD3F18"/>
<stop offset="0.42" stop-color="#E74A1B"/>
<stop offset="1" stop-color="#FD6120"/>
</linearGradient>
<linearGradient id="paint7_linear" x1="-8032.81" y1="922.278" x2="-8032.81" y2="571.533" gradientUnits="userSpaceOnUse">
<stop stop-color="#FF7B00"/>
<stop offset="0.02" stop-color="#FF7D01"/>
<stop offset="0.67" stop-color="#FFAB0F"/>
<stop offset="1" stop-color="#FFBD14"/>
</linearGradient>
<linearGradient id="paint8_linear" x1="38.8032" y1="36.6948" x2="44.9804" y2="42.7718" gradientUnits="userSpaceOnUse">
<stop stop-color="#FFBD14"/>
<stop offset="0.05" stop-color="#FFB612"/>
<stop offset="0.27" stop-color="#FF9C0A"/>
<stop offset="0.5" stop-color="#FF8A04"/>
<stop offset="0.74" stop-color="#FF7F01"/>
<stop offset="1" stop-color="#FF7B00"/>
</linearGradient>
<linearGradient id="paint9_linear" x1="1607.43" y1="981.082" x2="1607.43" y2="710.727" gradientUnits="userSpaceOnUse">
<stop offset="0.02" stop-color="#F7BB7C"/>
<stop offset="1" stop-color="#FFD1A1"/>
</linearGradient>
<linearGradient id="paint10_linear" x1="277.119" y1="242.416" x2="277.119" y2="188.426" gradientUnits="userSpaceOnUse">
<stop stop-color="#CDEFFA"/>
<stop offset="1" stop-color="#FAFAFA"/>
</linearGradient>
<linearGradient id="paint11_linear" x1="191.972" y1="435.017" x2="191.972" y2="326.319" gradientUnits="userSpaceOnUse">
<stop stop-color="#062A54"/>
<stop offset="0.27" stop-color="#072C58"/>
<stop offset="0.52" stop-color="#083263"/>
<stop offset="0.75" stop-color="#0B3C75"/>
<stop offset="0.98" stop-color="#104B8F"/>
<stop offset="1" stop-color="#104C91"/>
</linearGradient>
</defs>
</svg>
