<svg width="65" height="48" viewBox="0 0 65 48" fill="none" xmlns="http://www.w3.org/2000/svg">
<path d="M2.39001 43C2.38189 43.704 2.65112 44.3829 3.13951 44.89C3.6279 45.3971 4.29621 45.6917 5.00001 45.71H59.3C60.0003 45.6865 60.6635 45.3897 61.1477 44.8832C61.6318 44.3766 61.8983 43.7006 61.89 43V2.76C61.9116 2.05081 61.651 1.36201 61.1655 0.844626C60.68 0.327241 60.0091 0.0234991 59.3 0L5.00001 0C4.64717 0.00905836 4.29959 0.0877266 3.97723 0.231488C3.65487 0.375249 3.36409 0.581271 3.12157 0.837724C2.87906 1.09418 2.68959 1.39601 2.56405 1.72589C2.43851 2.05577 2.37936 2.4072 2.39001 2.76V43Z" fill="url(#paint0_linear)"/>
<g style="mix-blend-mode:screen">
<path d="M59.3 0H5.00001C4.64717 0.00905836 4.29959 0.0877266 3.97723 0.231488C3.65487 0.375249 3.36409 0.581271 3.12157 0.837724C2.87906 1.09418 2.68959 1.39601 2.56405 1.72589C2.43851 2.05577 2.37936 2.4072 2.39001 2.76V42.59V3.33C2.37936 2.9772 2.43851 2.62577 2.56405 2.29589C2.68959 1.96601 2.87906 1.66418 3.12157 1.40772C3.36409 1.15127 3.65487 0.945249 3.97723 0.801488C4.29959 0.657727 4.64717 0.579058 5.00001 0.57H59.3C60.0074 0.593515 60.6767 0.895871 61.1619 1.41108C61.6472 1.92629 61.9089 2.61252 61.89 3.32V2.76C61.9116 2.05081 61.651 1.36201 61.1655 0.844626C60.68 0.327241 60.0091 0.0234991 59.3 0V0Z" fill="#004C69"/>
</g>
<path d="M59.3 39.09C59.57 39.09 59.71 38.92 59.71 38.85V4.37C59.71 4.3 59.57 4.13 59.3 4.13H4.99997C4.72997 4.13 4.58997 4.3 4.58997 4.37V38.85C4.58997 38.92 4.72997 39.09 4.99997 39.09H59.3Z" fill="url(#paint1_linear)"/>
<path d="M2.39001 43C2.38189 43.704 2.65112 44.3829 3.13951 44.89C3.6279 45.3971 4.29621 45.6917 5.00001 45.71H59.3C60.0003 45.6865 60.6635 45.3897 61.1477 44.8832C61.6318 44.3766 61.8983 43.7006 61.89 43V2.76C61.9116 2.05081 61.651 1.36201 61.1655 0.844626C60.68 0.327241 60.0091 0.0234991 59.3 0L5.00001 0C4.64717 0.00905836 4.29959 0.0877266 3.97723 0.231488C3.65487 0.375249 3.36409 0.581271 3.12157 0.837724C2.87906 1.09418 2.68959 1.39601 2.56405 1.72589C2.43851 2.05577 2.37936 2.4072 2.39001 2.76V43Z" fill="url(#paint2_linear)"/>
<path d="M59.3 39.09C59.57 39.09 59.71 38.92 59.71 38.85V4.37C59.71 4.3 59.57 4.13 59.3 4.13H4.99997C4.72997 4.13 4.58997 4.3 4.58997 4.37V38.85C4.58997 38.92 4.72997 39.09 4.99997 39.09H59.3Z" fill="url(#paint3_linear)"/>
<path style="mix-blend-mode:screen" d="M59.3 39.09C59.57 39.09 59.71 38.92 59.71 38.85V4.37C59.71 4.3 59.57 4.13 59.3 4.13H4.99997C4.72997 4.13 4.58997 4.3 4.58997 4.37V38.85C4.58997 38.92 4.72997 39.09 4.99997 39.09H59.3Z" fill="url(#paint4_linear)"/>
<path d="M0 45C0.0612315 45.7184 0.403149 46.3837 0.951624 46.8516C1.5001 47.3196 2.21093 47.5526 2.93 47.5H61.35C62.0685 47.5499 62.7779 47.3161 63.3258 46.8486C63.8736 46.3811 64.2163 45.7174 64.28 45C64.2187 44.2808 63.8772 43.6145 63.329 43.1449C62.7809 42.6754 62.0701 42.4401 61.35 42.49H2.93C2.20933 42.4375 1.4971 42.6718 0.948347 43.1419C0.399593 43.612 0.0587447 44.2798 0 45H0Z" fill="url(#paint5_linear)"/>
<g style="mix-blend-mode:screen">
<path d="M2.92999 43.21H61.35C62.0033 43.1725 62.6491 43.3651 63.1752 43.7542C63.7013 44.1433 64.0745 44.7044 64.23 45.34C64.2402 45.2235 64.2402 45.1064 64.23 44.99C64.1687 44.2708 63.8272 43.6045 63.279 43.1349C62.7309 42.6654 62.0201 42.4301 61.3 42.48H2.92999C2.20772 42.4276 1.49408 42.6632 0.945044 43.1354C0.39601 43.6076 0.056237 44.278 -9.25269e-06 45C-0.00984392 45.1198 -0.00984392 45.2402 -9.25222e-06 45.36C0.156485 44.7137 0.536342 44.1434 1.07247 43.75C1.6086 43.3566 2.26651 43.1654 2.92999 43.21Z" fill="#92D3EB"/>
</g>
<path style="mix-blend-mode:multiply" d="M61.35 46.51H2.93C2.29773 46.5413 1.67295 46.3619 1.15358 46C0.634203 45.638 0.249587 45.114 0.0600036 44.51C0.0198452 44.6702 -0.0003083 44.8348 3.5645e-06 45C0.061235 45.7184 0.403152 46.3837 0.951628 46.8517C1.5001 47.3197 2.21093 47.5526 2.93 47.5H61.35C62.0685 47.55 62.7779 47.3161 63.3258 46.8486C63.8736 46.3811 64.2163 45.7174 64.28 45C64.2803 44.8348 64.2602 44.6702 64.22 44.51C64.0304 45.114 63.6458 45.638 63.1264 46C62.6071 46.3619 61.9823 46.5413 61.35 46.51Z" fill="url(#paint6_linear)"/>
<path d="M59.3 4.13H4.99997C4.72997 4.13 4.58997 4.3 4.58997 4.37V8.31001H59.71V4.37C59.71 4.3 59.57 4.13 59.3 4.13Z" fill="url(#paint7_linear)"/>
<path d="M8.12001 6.04999C8.13308 6.1714 8.12045 6.2942 8.08294 6.4104C8.04543 6.5266 7.98388 6.63361 7.90229 6.72445C7.8207 6.8153 7.72089 6.88796 7.60938 6.93769C7.49786 6.98743 7.37712 7.01313 7.25501 7.01313C7.1329 7.01313 7.01216 6.98743 6.90064 6.93769C6.78912 6.88796 6.68932 6.8153 6.60773 6.72445C6.52614 6.63361 6.46459 6.5266 6.42708 6.4104C6.38957 6.2942 6.37694 6.1714 6.39001 6.04999C6.37694 5.92859 6.38957 5.80579 6.42708 5.68959C6.46459 5.57338 6.52614 5.46638 6.60773 5.37553C6.68932 5.28468 6.78912 5.21203 6.90064 5.16229C7.01216 5.11256 7.1329 5.08685 7.25501 5.08685C7.37712 5.08685 7.49786 5.11256 7.60938 5.16229C7.72089 5.21203 7.8207 5.28468 7.90229 5.37553C7.98388 5.46638 8.04543 5.57338 8.08294 5.68959C8.12045 5.80579 8.13308 5.92859 8.12001 6.04999Z" fill="url(#paint8_linear)"/>
<path d="M10.35 6.04999C10.3631 6.1714 10.3504 6.2942 10.3129 6.4104C10.2754 6.5266 10.2139 6.63361 10.1323 6.72445C10.0507 6.8153 9.95088 6.88796 9.83936 6.93769C9.72784 6.98743 9.6071 7.01313 9.48499 7.01313C9.36288 7.01313 9.24214 6.98743 9.13062 6.93769C9.01911 6.88796 8.91931 6.8153 8.83772 6.72445C8.75612 6.63361 8.69457 6.5266 8.65706 6.4104C8.61955 6.2942 8.60692 6.1714 8.61999 6.04999C8.60692 5.92859 8.61955 5.80579 8.65706 5.68959C8.69457 5.57338 8.75612 5.46638 8.83772 5.37553C8.91931 5.28468 9.01911 5.21203 9.13062 5.16229C9.24214 5.11256 9.36288 5.08685 9.48499 5.08685C9.6071 5.08685 9.72784 5.11256 9.83936 5.16229C9.95088 5.21203 10.0507 5.28468 10.1323 5.37553C10.2139 5.46638 10.2754 5.57338 10.3129 5.68959C10.3504 5.80579 10.3631 5.92859 10.35 6.04999Z" fill="url(#paint9_linear)"/>
<path d="M12.58 6.04997C12.576 6.22114 12.5217 6.38733 12.4237 6.52775C12.3258 6.66816 12.1886 6.77656 12.0293 6.83935C11.87 6.90214 11.6957 6.91654 11.5283 6.88075C11.3609 6.84495 11.2078 6.76056 11.0881 6.63813C10.9684 6.5157 10.8875 6.36068 10.8555 6.19248C10.8235 6.02429 10.8419 5.85039 10.9083 5.69258C10.9747 5.53477 11.0862 5.40006 11.2288 5.30532C11.3714 5.21058 11.5388 5.16002 11.71 5.15997C11.8259 5.15994 11.9407 5.18309 12.0476 5.22806C12.1545 5.27302 12.2513 5.3389 12.3323 5.42182C12.4134 5.50474 12.4771 5.60302 12.5196 5.71089C12.5621 5.81877 12.5826 5.93405 12.58 6.04997Z" fill="url(#paint10_linear)"/>
<g style="mix-blend-mode:screen">
<path d="M6.53997 6.23C6.53865 6.11491 6.56017 6.0007 6.6033 5.89399C6.64643 5.78728 6.71031 5.69019 6.79123 5.60834C6.87214 5.52649 6.9685 5.46151 7.07471 5.41717C7.18092 5.37282 7.29487 5.34999 7.40997 5.35C7.51808 5.34485 7.62611 5.36169 7.72753 5.39951C7.82894 5.43732 7.92162 5.49533 7.99997 5.57C7.92812 5.44747 7.82604 5.34544 7.70347 5.27365C7.58091 5.20187 7.44198 5.16273 7.29997 5.16C7.11739 5.15376 6.9374 5.20449 6.78496 5.30516C6.63251 5.40583 6.51518 5.55145 6.44923 5.72181C6.38329 5.89218 6.37199 6.07884 6.41692 6.25591C6.46185 6.43299 6.56078 6.59169 6.69997 6.71C6.60132 6.56885 6.54574 6.40211 6.53997 6.23Z" fill="#AB4700"/>
</g>
<g style="mix-blend-mode:screen">
<path d="M8.76999 6.22997C8.76867 6.11488 8.79019 6.00068 8.83332 5.89397C8.87645 5.78726 8.94033 5.69017 9.02125 5.60832C9.10217 5.52647 9.19852 5.46149 9.30473 5.41714C9.41094 5.3728 9.5249 5.34997 9.63999 5.34997C9.84472 5.35023 10.0416 5.42897 10.19 5.56997C10.1181 5.44745 10.0161 5.34541 9.89349 5.27363C9.77093 5.20184 9.632 5.16271 9.48999 5.15997C9.37443 5.16128 9.26025 5.18534 9.15398 5.23077C9.04772 5.27621 8.95144 5.34213 8.87065 5.42477C8.78986 5.50742 8.72614 5.60517 8.68314 5.71244C8.64013 5.81971 8.61867 5.93441 8.61999 6.04997C8.61946 6.17609 8.64701 6.30075 8.70062 6.4149C8.75424 6.52906 8.83259 6.62985 8.92999 6.70997C8.83134 6.56882 8.77576 6.40208 8.76999 6.22997Z" fill="#004C69"/>
</g>
<g style="mix-blend-mode:screen">
<path d="M11 6.22997C10.9987 6.11488 11.0202 6.00068 11.0633 5.89397C11.1064 5.78726 11.1703 5.69017 11.2512 5.60832C11.3321 5.52647 11.4285 5.46149 11.5347 5.41714C11.6409 5.3728 11.7549 5.34997 11.87 5.34997C12.0747 5.35023 12.2715 5.42897 12.42 5.56997C12.3451 5.44793 12.241 5.34652 12.117 5.27492C11.993 5.20332 11.8531 5.16381 11.71 5.15997C11.4783 5.16522 11.2581 5.26162 11.0971 5.42825C10.9361 5.59488 10.8473 5.81828 10.85 6.04997C10.8494 6.17609 10.877 6.30075 10.9306 6.4149C10.9842 6.52906 11.0626 6.62985 11.16 6.70997C11.0613 6.56882 11.0057 6.40208 11 6.22997Z" fill="#92D3EB"/>
</g>
<g style="mix-blend-mode:multiply">
<path d="M59.3 4.13H4.99997C4.72997 4.13 4.58997 4.3 4.58997 4.37V38.85C4.58997 38.92 4.72997 39.09 4.99997 39.09H59.3C59.57 39.09 59.71 38.92 59.71 38.85V4.37C59.71 4.3 59.57 4.13 59.3 4.13ZM59.22 38.58H5.05997V4.64H59.22V38.58Z" fill="#9FCBD6"/>
</g>
<path d="M25.73 22.69C25.7222 23.6135 25.5317 24.5264 25.1695 25.3759C24.8074 26.2255 24.2807 26.995 23.6198 27.6401C22.9588 28.2852 22.1768 28.7932 21.3187 29.1347C20.4606 29.4762 19.5434 29.6445 18.62 29.63C16.7446 29.5906 14.9598 28.8159 13.6504 27.4728C12.3409 26.1297 11.6117 24.3258 11.62 22.45C11.6278 21.5282 11.8177 20.617 12.1786 19.7687C12.5395 18.9205 13.0644 18.1519 13.7232 17.507C14.382 16.8622 15.1616 16.3538 16.0174 16.0111C16.8732 15.6684 17.7882 15.4981 18.71 15.51C20.5856 15.5543 22.3695 16.33 23.6811 17.6715C24.9926 19.0129 25.7279 20.8139 25.73 22.69Z" fill="#FFD336"/>
<g style="mix-blend-mode:multiply">
<path d="M25.69 23.05C25.47 26.4 22.4 29.05 18.62 28.95C14.84 28.85 11.83 26.22 11.62 22.87C11.7109 24.6766 12.4841 26.3814 13.7835 27.6399C15.0828 28.8984 16.8114 29.6168 18.62 29.65C20.4255 29.686 22.174 29.0167 23.4941 27.7844C24.8141 26.5521 25.6019 24.8537 25.69 23.05Z" fill="#F5D5A4"/>
</g>
<g style="mix-blend-mode:screen">
<path d="M18.68 16.05C20.5045 16.0919 22.2444 16.8279 23.545 18.1081C24.8457 19.3884 25.6092 21.1164 25.68 22.94C25.68 22.85 25.68 22.77 25.68 22.69C25.678 20.8173 24.9455 19.0192 23.6382 17.6783C22.3309 16.3374 20.5521 15.5595 18.68 15.51C17.7582 15.4981 16.8432 15.6684 15.9874 16.0111C15.1316 16.3538 14.352 16.8622 13.6932 17.507C13.0344 18.1519 12.5095 18.9205 12.1486 19.7687C11.7876 20.617 11.5978 21.5282 11.59 22.45C11.5851 22.5466 11.5851 22.6434 11.59 22.74C11.6553 20.9168 12.4358 19.1927 13.7627 17.9406C15.0896 16.6886 16.8561 16.0094 18.68 16.05Z" fill="#FFB82B"/>
</g>
<path d="M18 27.21C17.6617 27.166 17.3274 27.0958 17 27C16.7554 26.9427 16.5221 26.8447 16.31 26.71L16.74 25.32C16.8963 25.4454 17.0767 25.5373 17.27 25.59C17.5235 25.6755 17.7847 25.7358 18.05 25.77L18 23C17.78 22.87 17.57 22.71 17.35 22.56C17.145 22.3959 16.9603 22.2079 16.8 22C16.6258 21.7777 16.4906 21.5275 16.4 21.26C16.2824 20.9402 16.2281 20.6005 16.24 20.26C16.2116 19.695 16.3853 19.1385 16.73 18.69C17.0659 18.3266 17.5123 18.084 18 18V16.79H19.22V17.91C19.4875 17.935 19.752 17.9852 20.01 18.06C20.2344 18.1173 20.4522 18.1977 20.66 18.3L20.23 19.63C20.0898 19.5498 19.9425 19.4829 19.79 19.43C19.62 19.38 19.43 19.34 19.22 19.3V21.83C19.4508 21.9673 19.6713 22.121 19.88 22.29C20.1052 22.4481 20.3042 22.6404 20.47 22.86C20.6469 23.0801 20.7886 23.3264 20.89 23.59C21.0131 23.9086 21.0709 24.2486 21.06 24.59C21.0855 25.204 20.9061 25.8091 20.55 26.31C20.2097 26.7346 19.7325 27.028 19.2 27.14V28.34H17.99L18 27.21ZM18.58 19.3C18.4548 19.3003 18.3315 19.3304 18.2202 19.3878C18.1089 19.4452 18.0129 19.5282 17.94 19.63C17.8268 19.7983 17.7675 19.9971 17.77 20.2C17.7611 20.4516 17.8387 20.6987 17.99 20.9C18.1661 21.088 18.3567 21.2619 18.56 21.42L18.58 19.3ZM18.7 25.81C18.8219 25.7943 18.9391 25.7533 19.0442 25.6896C19.1492 25.6258 19.2398 25.5408 19.31 25.44C19.4579 25.2261 19.5316 24.9697 19.52 24.71C19.5296 24.4552 19.452 24.2047 19.3 24C19.1324 23.7934 18.9333 23.6145 18.71 23.47L18.7 25.81Z" fill="url(#paint11_linear)"/>
<g style="mix-blend-mode:multiply">
<path d="M20.91 23.62C20.8086 23.3564 20.6669 23.1102 20.49 22.89C20.3242 22.6704 20.1252 22.4781 19.9 22.32C19.6913 22.151 19.4707 21.9973 19.24 21.86V19.33C19.45 19.33 19.64 19.41 19.81 19.46C19.9625 19.5129 20.1098 19.5799 20.25 19.66L20.68 18.33C20.4722 18.2278 20.2544 18.1473 20.03 18.09C19.772 18.0153 19.5075 17.965 19.24 17.94V16.82H18.02V18C17.51 18.0917 17.0473 18.3566 16.71 18.75C16.3653 19.1985 16.1916 19.7551 16.22 20.32C16.208 20.6606 16.2624 21.0002 16.38 21.32C16.4706 21.5875 16.6058 21.8377 16.78 22.06C16.9471 22.2656 17.1385 22.4503 17.35 22.61C17.57 22.76 17.78 22.92 18 23.05V25.85C17.7347 25.8158 17.4734 25.7555 17.22 25.67C17.0267 25.6173 16.8463 25.5254 16.69 25.4L16.26 26.79C16.4927 26.9022 16.7431 26.9732 17 27C17.3448 27.0849 17.696 27.1417 18.05 27.17V28.28H19.26V27.08C19.7925 26.968 20.2697 26.6746 20.61 26.25C20.9661 25.7491 21.1455 25.144 21.12 24.53C21.1066 24.2163 21.0354 23.9078 20.91 23.62ZM20.4 25.81C20.0917 26.1891 19.6598 26.4475 19.18 26.54L18.91 26.61V27.74H18.32V26.64H18.02C17.6826 26.6221 17.3478 26.5719 17.02 26.49C16.9296 26.4721 16.8421 26.4418 16.76 26.4L16.85 26.11C16.9592 26.1662 17.0729 26.213 17.19 26.25C17.4566 26.3374 17.7313 26.3977 18.01 26.43H18.33V22.57L17.51 22C17.3065 21.8528 17.1247 21.6778 16.97 21.48C16.8322 21.3109 16.7271 21.1176 16.66 20.91C16.5772 20.7002 16.5397 20.4753 16.55 20.25C16.5284 19.8621 16.6533 19.4802 16.9 19.18C17.2032 18.826 17.6206 18.589 18.08 18.51L18.35 18.46V17.39H19V18.5H19.3C19.5545 18.5178 19.8062 18.5648 20.05 18.64L20.26 18.71L20.18 18.95L19.93 18.85C19.75 18.8 19.55 18.75 19.33 18.71L19 18.68V22.31L19.22 22.43C19.4462 22.5571 19.6604 22.7043 19.86 22.87C20.0566 23.0107 20.2317 23.1791 20.38 23.37C20.5256 23.5553 20.6435 23.7608 20.73 23.98C20.8011 24.1718 20.8351 24.3755 20.83 24.58C20.8344 25.0276 20.6823 25.4627 20.4 25.81Z" fill="#F5D5A4"/>
</g>
<path d="M54.27 22.69C54.2622 23.6127 54.0721 24.5247 53.7105 25.3736C53.349 26.2225 52.8231 26.9916 52.1633 27.6365C51.5035 28.2815 50.7226 28.7897 49.8657 29.1318C49.0087 29.4739 48.0926 29.6432 47.17 29.63C45.2955 29.5881 43.5121 28.8126 42.2032 27.47C40.8943 26.1274 40.1643 24.325 40.17 22.45C40.1778 21.5273 40.368 20.6153 40.7295 19.7664C41.0911 18.9175 41.6169 18.1484 42.2767 17.5034C42.9366 16.8585 43.7174 16.3503 44.5744 16.0082C45.4313 15.6661 46.3474 15.4968 47.27 15.51C49.1429 15.557 50.9233 16.3341 52.2311 17.6756C53.5389 19.017 54.2706 20.8165 54.27 22.69Z" fill="#FFD336"/>
<g style="mix-blend-mode:multiply">
<path d="M54.23 23C54.01 26.35 50.94 29 47.17 28.9C43.4 28.8 40.37 26.17 40.17 22.82C40.2609 24.6266 41.0341 26.3314 42.3335 27.5899C43.6328 28.8484 45.3614 29.5668 47.17 29.6C48.9745 29.6359 50.7219 28.9663 52.0403 27.7338C53.3588 26.5012 54.1444 24.8029 54.23 23Z" fill="#F5D5A4"/>
</g>
<g style="mix-blend-mode:screen">
<path d="M47.23 16.05C49.0545 16.0919 50.7944 16.8279 52.095 18.1082C53.3957 19.3884 54.1592 21.1164 54.23 22.94C54.23 22.85 54.23 22.77 54.23 22.69C54.2306 20.8165 53.4989 19.017 52.1911 17.6756C50.8832 16.3341 49.1029 15.557 47.23 15.51C46.3074 15.4968 45.3913 15.6661 44.5343 16.0082C43.6774 16.3503 42.8966 16.8585 42.2367 17.5034C41.5769 18.1484 41.0511 18.9175 40.6895 19.7664C40.328 20.6153 40.1378 21.5273 40.13 22.45C40.13 22.55 40.13 22.64 40.13 22.74C40.2105 20.9203 40.997 19.2036 42.3227 17.9545C43.6484 16.7054 45.4088 16.0222 47.23 16.05Z" fill="#FFB82B"/>
</g>
<path d="M49.09 19V17.18C46.04 17.18 44.09 18.47 43.63 21.01H42.7V21.82H43.55C43.55 21.93 43.55 22.05 43.55 22.17C43.55 22.29 43.55 22.51 43.55 22.67H42.7V23.93H43.8C44.48 26 46.4 27.11 49.09 27.11V25.3C47.5 25.3 46.56 24.87 46.09 23.93H48.69V22.67H45.78C45.78 22.51 45.78 22.35 45.78 22.17V21.82H48.7V21H45.85C46.14 19.57 47.08 19 49.09 19Z" fill="url(#paint12_linear)"/>
<g style="mix-blend-mode:multiply">
<path d="M49.09 19V17.18C46.04 17.18 44.09 18.47 43.63 21.01H42.7V21.82H43.55C43.55 21.93 43.55 22.05 43.55 22.17C43.55 22.29 43.55 22.51 43.55 22.67H42.7V23.93H43.8C44.48 26 46.4 27.11 49.09 27.11V25.3C47.5 25.3 46.56 24.87 46.09 23.93H48.69V22.67H45.78C45.78 22.51 45.78 22.35 45.78 22.17V21.82H48.7V21H45.85C46.14 19.57 47.08 19 49.09 19ZM45.43 20.93L45.33 21.44C45.33 21.44 45.33 22.04 45.33 22.17C45.33 22.3 45.33 22.48 45.33 22.63V23.02L45.73 23.1H48.22V23.51H45.41L45.72 24.12C46.006 24.639 46.4352 25.0649 46.9565 25.3468C47.4777 25.6287 48.0691 25.7548 48.66 25.71V26.71C46.35 26.6 44.78 25.59 44.21 23.84L44.11 23.55H43.11V23.1H44V22.64C44 22.49 44 22.33 44 22.17V21.49H43.78H44L44.06 21.14C44.53 18.46 46.74 17.75 48.67 17.67V18.67C46.71 18.66 45.74 19.38 45.43 20.93Z" fill="#F5D5A4"/>
</g>
<path d="M34.36 21.34L36.44 18.87L34.36 16.39V17.76H29.79V19.97H34.36V21.34Z" fill="url(#paint13_linear)"/>
<path style="mix-blend-mode:multiply" d="M34.03 19.65H29.79V19.98H34.03V19.65Z" fill="url(#paint14_linear)"/>
<path style="mix-blend-mode:multiply" d="M34.36 16.39V16.45L36.11 18.54L34.36 20.62V21.34L36.44 18.87L34.36 16.39Z" fill="url(#paint15_linear)"/>
<path d="M30.8 28.41L28.72 25.94L30.8 23.46V24.83H35.37V27.04H30.8V28.41Z" fill="url(#paint16_linear)"/>
<path style="mix-blend-mode:multiply" d="M35.37 26.72H31.13V27.05H35.37V26.72Z" fill="url(#paint17_linear)"/>
<path style="mix-blend-mode:multiply" d="M30.8 23.46V23.52L29.05 25.61L30.8 27.69V28.41L28.72 25.94L30.8 23.46Z" fill="url(#paint18_linear)"/>
<path style="mix-blend-mode:screen" opacity="0.7" d="M2.39001 2.76V42.48H18.75L51.78 0H5.00001C4.64717 0.00905836 4.29959 0.0877266 3.97723 0.231488C3.65487 0.375249 3.36409 0.581271 3.12157 0.837724C2.87906 1.09418 2.68959 1.39601 2.56405 1.72589C2.43851 2.05577 2.37936 2.4072 2.39001 2.76Z" fill="url(#paint19_linear)"/>
<path d="M49.59 35.54L49.16 27.75L56.95 28.18L54.91 30.22L58.13 33.43L54.84 36.72L51.63 33.5L49.59 35.54Z" fill="white"/>
<path d="M52.256 33.1502L51.7679 33.6379L54.8499 36.722L55.3379 36.2343L52.256 33.1502Z" fill="url(#paint20_linear)"/>
<path d="M56.95 28.18L56.85 28.28L50.3 27.91L50.66 34.47L49.59 35.54L49.16 27.75L56.95 28.18Z" fill="url(#paint21_linear)"/>
<defs>
<linearGradient id="paint0_linear" x1="6.62002" y1="-2.67" x2="57.66" y2="48.37" gradientUnits="userSpaceOnUse">
<stop stop-color="#104C91"/>
<stop offset="0.35" stop-color="#0D427F"/>
<stop offset="1" stop-color="#062A54"/>
</linearGradient>
<linearGradient id="paint1_linear" x1="4.56997" y1="21.61" x2="59.71" y2="21.61" gradientUnits="userSpaceOnUse">
<stop stop-color="#FAFAFA"/>
<stop offset="1" stop-color="#CDEFFA"/>
</linearGradient>
<linearGradient id="paint2_linear" x1="6.62002" y1="-2.67" x2="57.66" y2="48.37" gradientUnits="userSpaceOnUse">
<stop stop-color="#104C91"/>
<stop offset="0.35" stop-color="#0D427F"/>
<stop offset="1" stop-color="#062A54"/>
</linearGradient>
<linearGradient id="paint3_linear" x1="32.14" y1="39.09" x2="32.14" y2="4.13" gradientUnits="userSpaceOnUse">
<stop stop-color="#062A54"/>
<stop offset="0.65" stop-color="#0D427F"/>
<stop offset="1" stop-color="#104C91"/>
</linearGradient>
<linearGradient id="paint4_linear" x1="32.14" y1="39.09" x2="32.14" y2="4.13" gradientUnits="userSpaceOnUse">
<stop stop-color="#093D7A"/>
<stop offset="0.26" stop-color="#0A3F7E"/>
<stop offset="0.5" stop-color="#0C4589"/>
<stop offset="0.72" stop-color="#0F509B"/>
<stop offset="0.94" stop-color="#145EB5"/>
<stop offset="1" stop-color="#1563BD"/>
</linearGradient>
<linearGradient id="paint5_linear" x1="1003.41" y1="185.431" x2="1029.22" y2="515.637" gradientUnits="userSpaceOnUse">
<stop stop-color="#FAFAFA"/>
<stop offset="1" stop-color="#CDEFFA"/>
</linearGradient>
<linearGradient id="paint6_linear" x1="15.73" y1="28.82" x2="48.55" y2="61.64" gradientUnits="userSpaceOnUse">
<stop stop-color="#B0CCD6"/>
<stop offset="0.04" stop-color="#B4D0D9"/>
<stop offset="0.24" stop-color="#C1DBE3"/>
<stop offset="0.49" stop-color="#C9E1E9"/>
<stop offset="1" stop-color="#CBE3EB"/>
</linearGradient>
<linearGradient id="paint7_linear" x1="17.36" y1="-8.47" x2="46.92" y2="21.1" gradientUnits="userSpaceOnUse">
<stop stop-color="#81B510"/>
<stop offset="0.03" stop-color="#7FB410"/>
<stop offset="0.33" stop-color="#6DAD12"/>
<stop offset="0.65" stop-color="#62A914"/>
<stop offset="1" stop-color="#5EA814"/>
</linearGradient>
<linearGradient id="paint8_linear" x1="6.39001" y1="6.04999" x2="8.12001" y2="6.04999" gradientUnits="userSpaceOnUse">
<stop stop-color="#FFBD14"/>
<stop offset="0.05" stop-color="#FFB612"/>
<stop offset="0.27" stop-color="#FF9C0A"/>
<stop offset="0.5" stop-color="#FF8A04"/>
<stop offset="0.74" stop-color="#FF7F01"/>
<stop offset="1" stop-color="#FF7B00"/>
</linearGradient>
<linearGradient id="paint9_linear" x1="9.48999" y1="6.92999" x2="9.48999" y2="5.15999" gradientUnits="userSpaceOnUse">
<stop stop-color="#062A54"/>
<stop offset="0.27" stop-color="#072C58"/>
<stop offset="0.52" stop-color="#083263"/>
<stop offset="0.75" stop-color="#0B3C75"/>
<stop offset="0.98" stop-color="#104B8F"/>
<stop offset="1" stop-color="#104C91"/>
</linearGradient>
<linearGradient id="paint10_linear" x1="29.7192" y1="15.687" x2="32.7294" y2="15.687" gradientUnits="userSpaceOnUse">
<stop stop-color="#FAFAFA"/>
<stop offset="1" stop-color="#CDEFFA"/>
</linearGradient>
<linearGradient id="paint11_linear" x1="18.66" y1="28.34" x2="18.66" y2="16.79" gradientUnits="userSpaceOnUse">
<stop stop-color="#FF7B00"/>
<stop offset="0.02" stop-color="#FF7D01"/>
<stop offset="0.67" stop-color="#FFAB0F"/>
<stop offset="1" stop-color="#FFBD14"/>
</linearGradient>
<linearGradient id="paint12_linear" x1="326.288" y1="206.347" x2="384.001" y2="243.427" gradientUnits="userSpaceOnUse">
<stop stop-color="#FFBD14"/>
<stop offset="0.05" stop-color="#FFB612"/>
<stop offset="0.27" stop-color="#FF9C0A"/>
<stop offset="0.5" stop-color="#FF8A04"/>
<stop offset="0.74" stop-color="#FF7F01"/>
<stop offset="1" stop-color="#FF7B00"/>
</linearGradient>
<linearGradient id="paint13_linear" x1="249.971" y1="122.023" x2="249.971" y2="97.5205" gradientUnits="userSpaceOnUse">
<stop stop-color="#FAFAFA"/>
<stop offset="1" stop-color="#CDEFFA"/>
</linearGradient>
<linearGradient id="paint14_linear" x1="156.1" y1="26.1873" x2="174.077" y2="26.1873" gradientUnits="userSpaceOnUse">
<stop stop-color="#B0CCD6"/>
<stop offset="0.04" stop-color="#B4D0D9"/>
<stop offset="0.24" stop-color="#C1DBE3"/>
<stop offset="0.49" stop-color="#C9E1E9"/>
<stop offset="1" stop-color="#CBE3EB"/>
</linearGradient>
<linearGradient id="paint15_linear" x1="105.829" y1="109.797" x2="110.155" y2="109.797" gradientUnits="userSpaceOnUse">
<stop stop-color="#B0CCD6"/>
<stop offset="0.04" stop-color="#B4D0D9"/>
<stop offset="0.24" stop-color="#C1DBE3"/>
<stop offset="0.49" stop-color="#C9E1E9"/>
<stop offset="1" stop-color="#CBE3EB"/>
</linearGradient>
<linearGradient id="paint16_linear" x1="-1890.78" y1="164.09" x2="-1890.78" y2="139.587" gradientUnits="userSpaceOnUse">
<stop stop-color="#FAFAFA"/>
<stop offset="1" stop-color="#CDEFFA"/>
</linearGradient>
<linearGradient id="paint17_linear" x1="163.121" y1="35.5904" x2="181.099" y2="35.5904" gradientUnits="userSpaceOnUse">
<stop stop-color="#B0CCD6"/>
<stop offset="0.04" stop-color="#B4D0D9"/>
<stop offset="0.24" stop-color="#C1DBE3"/>
<stop offset="0.49" stop-color="#C9E1E9"/>
<stop offset="1" stop-color="#CBE3EB"/>
</linearGradient>
<linearGradient id="paint18_linear" x1="88.4576" y1="151.863" x2="92.784" y2="151.863" gradientUnits="userSpaceOnUse">
<stop stop-color="#B0CCD6"/>
<stop offset="0.04" stop-color="#B4D0D9"/>
<stop offset="0.24" stop-color="#C1DBE3"/>
<stop offset="0.49" stop-color="#C9E1E9"/>
<stop offset="1" stop-color="#CBE3EB"/>
</linearGradient>
<linearGradient id="paint19_linear" x1="27.13" y1="-0.33" x2="25.92" y2="46.36" gradientUnits="userSpaceOnUse">
<stop stop-color="#306173"/>
<stop offset="0.07" stop-color="#2B5768"/>
<stop offset="0.36" stop-color="#19323B"/>
<stop offset="0.63" stop-color="#0B171B"/>
<stop offset="0.85" stop-color="#030607"/>
<stop offset="1"/>
</linearGradient>
<linearGradient id="paint20_linear" x1="68.1614" y1="83.6106" x2="70.2887" y2="85.7379" gradientUnits="userSpaceOnUse">
<stop stop-color="#FAFAFA"/>
<stop offset="1" stop-color="#CDEFFA"/>
</linearGradient>
<linearGradient id="paint21_linear" x1="154.411" y1="128.559" x2="186.47" y2="160.618" gradientUnits="userSpaceOnUse">
<stop stop-color="#FAFAFA"/>
<stop offset="1" stop-color="#CDEFFA"/>
</linearGradient>
</defs>
</svg>
