<svg width="123" height="131" viewBox="0 0 123 131" fill="none" xmlns="http://www.w3.org/2000/svg">
<path d="M0 2.6584C0 4.13529 1.17844 5.3168 2.6515 5.3168C4.12455 5.3168 5.30299 4.13529 5.30299 2.6584C5.30299 1.18151 4.12455 0 2.6515 0C1.17844 0 0 1.18151 0 2.6584Z" fill="#D9D9D9"/>
<path d="M29.4611 2.6584C29.4611 4.13529 30.6395 5.3168 32.1126 5.3168C33.5856 5.3168 34.7641 4.13529 34.7641 2.6584C34.7641 1.18151 33.5856 0 32.1126 0C30.6395 0 29.4611 1.18151 29.4611 2.6584Z" fill="#D9D9D9"/>
<path d="M58.7748 2.6584C58.7748 4.13529 59.9532 5.3168 61.4263 5.3168C62.8993 5.3168 64.0778 4.13529 64.0778 2.6584C64.0778 1.18151 62.8993 0 61.4263 0C59.9532 0 58.7748 1.18151 58.7748 2.6584Z" fill="#D9D9D9"/>
<path d="M88.2358 2.6584C88.2358 4.13529 89.4143 5.3168 90.8873 5.3168C92.3604 5.3168 93.5388 4.13529 93.5388 2.6584C93.5388 1.18151 92.3604 0 90.8873 0C89.4143 0 88.2358 1.18151 88.2358 2.6584Z" fill="#D9D9D9"/>
<path d="M117.55 2.6584C117.55 4.13529 118.728 5.3168 120.201 5.3168C121.674 5.3168 122.853 4.13529 122.853 2.6584C122.853 1.18151 121.674 0 120.201 0C118.728 0 117.55 1.18151 117.55 2.6584Z" fill="#D9D9D9"/>
<path d="M0 27.7655C0 29.2423 1.17844 30.4239 2.6515 30.4239C4.12455 30.4239 5.30299 29.2423 5.30299 27.7655C5.30299 26.2886 4.12455 25.1071 2.6515 25.1071C1.17844 25.1071 0 26.2886 0 27.7655Z" fill="#D9D9D9"/>
<path d="M29.4611 27.7655C29.4611 29.2423 30.6395 30.4239 32.1126 30.4239C33.5856 30.4239 34.7641 29.2423 34.7641 27.7655C34.7641 26.2886 33.5856 25.1071 32.1126 25.1071C30.6395 25.1071 29.4611 26.2886 29.4611 27.7655Z" fill="#D9D9D9"/>
<path d="M58.7748 27.7655C58.7748 29.2423 59.9532 30.4239 61.4263 30.4239C62.8993 30.4239 64.0778 29.2423 64.0778 27.7655C64.0778 26.2886 62.8993 25.1071 61.4263 25.1071C59.9532 25.1071 58.7748 26.2886 58.7748 27.7655Z" fill="#D9D9D9"/>
<path d="M88.2358 27.7655C88.2358 29.2423 89.4143 30.4239 90.8873 30.4239C92.3604 30.4239 93.5388 29.2423 93.5388 27.7655C93.5388 26.2886 92.3604 25.1071 90.8873 25.1071C89.4143 25.1071 88.2358 26.2886 88.2358 27.7655Z" fill="#D9D9D9"/>
<path d="M117.55 27.7655C117.55 29.2423 118.728 30.4239 120.201 30.4239C121.674 30.4239 122.853 29.2423 122.853 27.7655C122.853 26.2886 121.674 25.1071 120.201 25.1071C118.728 25.1071 117.55 26.2886 117.55 27.7655Z" fill="#D9D9D9"/>
<path d="M0 52.8726C0 54.3495 1.17844 55.531 2.6515 55.531C4.12455 55.531 5.30299 54.3495 5.30299 52.8726C5.30299 51.3957 4.12455 50.2142 2.6515 50.2142C1.17844 50.2142 0 51.3957 0 52.8726Z" fill="#D9D9D9"/>
<path d="M29.4611 52.8726C29.4611 54.3495 30.6395 55.531 32.1126 55.531C33.5856 55.531 34.7641 54.3495 34.7641 52.8726C34.7641 51.3957 33.5856 50.2142 32.1126 50.2142C30.6395 50.2142 29.4611 51.3957 29.4611 52.8726Z" fill="#D9D9D9"/>
<path d="M58.7748 52.8726C58.7748 54.3495 59.9532 55.531 61.4263 55.531C62.8993 55.531 64.0778 54.3495 64.0778 52.8726C64.0778 51.3957 62.8993 50.2142 61.4263 50.2142C59.9532 50.2142 58.7748 51.3957 58.7748 52.8726Z" fill="#D9D9D9"/>
<path d="M88.2358 52.8726C88.2358 54.3495 89.4143 55.531 90.8873 55.531C92.3604 55.531 93.5388 54.3495 93.5388 52.8726C93.5388 51.3957 92.3604 50.2142 90.8873 50.2142C89.4143 50.2142 88.2358 51.3957 88.2358 52.8726Z" fill="#D9D9D9"/>
<path d="M117.55 52.8726C117.55 54.3495 118.728 55.531 120.201 55.531C121.674 55.531 122.853 54.3495 122.853 52.8726C122.853 51.3957 121.674 50.2142 120.201 50.2142C118.728 50.2142 117.55 51.3957 117.55 52.8726Z" fill="#D9D9D9"/>
<path d="M0 77.9797C0 79.4566 1.17844 80.6381 2.6515 80.6381C4.12455 80.6381 5.30299 79.4566 5.30299 77.9797C5.30299 76.5028 4.12455 75.3213 2.6515 75.3213C1.17844 75.3213 0 76.5028 0 77.9797Z" fill="#D9D9D9"/>
<path d="M29.4611 77.9797C29.4611 79.4566 30.6395 80.6381 32.1126 80.6381C33.5856 80.6381 34.7641 79.4566 34.7641 77.9797C34.7641 76.5028 33.5856 75.3213 32.1126 75.3213C30.6395 75.3213 29.4611 76.5028 29.4611 77.9797Z" fill="#D9D9D9"/>
<path d="M58.7748 77.9797C58.7748 79.4566 59.9532 80.6381 61.4263 80.6381C62.8993 80.6381 64.0778 79.4566 64.0778 77.9797C64.0778 76.5028 62.8993 75.3213 61.4263 75.3213C59.9532 75.3213 58.7748 76.5028 58.7748 77.9797Z" fill="#D9D9D9"/>
<path d="M88.2358 77.9797C88.2358 79.4566 89.4143 80.6381 90.8873 80.6381C92.3604 80.6381 93.5388 79.4566 93.5388 77.9797C93.5388 76.5028 92.3604 75.3213 90.8873 75.3213C89.4143 75.3213 88.2358 76.5028 88.2358 77.9797Z" fill="#D9D9D9"/>
<path d="M117.55 77.9797C117.55 79.4566 118.728 80.6381 120.201 80.6381C121.674 80.6381 122.853 79.4566 122.853 77.9797C122.853 76.5028 121.674 75.3213 120.201 75.3213C118.728 75.3213 117.55 76.5028 117.55 77.9797Z" fill="#D9D9D9"/>
<path d="M0 103.087C0 104.564 1.17844 105.745 2.6515 105.745C4.12455 105.745 5.30299 104.564 5.30299 103.087C5.30299 101.61 4.12455 100.428 2.6515 100.428C1.17844 100.428 0 101.61 0 103.087Z" fill="#D9D9D9"/>
<path d="M29.4611 103.087C29.4611 104.564 30.6395 105.745 32.1126 105.745C33.5856 105.745 34.7641 104.564 34.7641 103.087C34.7641 101.61 33.5856 100.428 32.1126 100.428C30.6395 100.428 29.4611 101.61 29.4611 103.087Z" fill="#D9D9D9"/>
<path d="M58.7748 103.087C58.7748 104.564 59.9532 105.745 61.4263 105.745C62.8993 105.745 64.0778 104.564 64.0778 103.087C64.0778 101.61 62.8993 100.428 61.4263 100.428C59.9532 100.428 58.7748 101.61 58.7748 103.087Z" fill="#D9D9D9"/>
<path d="M90.8873 105.745C92.3517 105.745 93.5388 104.555 93.5388 103.087C93.5388 101.619 92.3517 100.428 90.8873 100.428C89.423 100.428 88.2358 101.619 88.2358 103.087C88.2358 104.555 89.423 105.745 90.8873 105.745Z" fill="#D9D9D9"/>
<path d="M120.201 105.745C121.666 105.745 122.853 104.555 122.853 103.087C122.853 101.619 121.666 100.428 120.201 100.428C118.737 100.428 117.55 101.619 117.55 103.087C117.55 104.555 118.737 105.745 120.201 105.745Z" fill="#D9D9D9"/>
<path d="M0 128.194C0 129.671 1.17844 130.852 2.6515 130.852C4.12455 130.852 5.30299 129.671 5.30299 128.194C5.30299 126.717 4.12455 125.536 2.6515 125.536C1.17844 125.536 0 126.717 0 128.194Z" fill="#D9D9D9"/>
<path d="M29.4611 128.194C29.4611 129.671 30.6395 130.852 32.1126 130.852C33.5856 130.852 34.7641 129.671 34.7641 128.194C34.7641 126.717 33.5856 125.536 32.1126 125.536C30.6395 125.536 29.4611 126.717 29.4611 128.194Z" fill="#D9D9D9"/>
<path d="M58.7748 128.194C58.7748 129.671 59.9532 130.852 61.4263 130.852C62.8993 130.852 64.0778 129.671 64.0778 128.194C64.0778 126.717 62.8993 125.536 61.4263 125.536C59.9532 125.536 58.7748 126.717 58.7748 128.194Z" fill="#D9D9D9"/>
<path d="M88.2358 128.194C88.2358 129.671 89.4143 130.852 90.8873 130.852C92.3604 130.852 93.5388 129.671 93.5388 128.194C93.5388 126.717 92.3604 125.536 90.8873 125.536C89.4143 125.536 88.2358 126.717 88.2358 128.194Z" fill="#D9D9D9"/>
<path d="M117.55 128.194C117.55 129.671 118.728 130.852 120.201 130.852C121.674 130.852 122.853 129.671 122.853 128.194C122.853 126.717 121.674 125.536 120.201 125.536C118.728 125.536 117.55 126.717 117.55 128.194Z" fill="#D9D9D9"/>
</svg>
