<svg width="311" height="311" viewBox="0 0 311 311" fill="none" xmlns="http://www.w3.org/2000/svg">
<g clip-path="url(#clip0)">
<path d="M186.374 41.4995C185.149 41.1692 183.924 40.8389 182.699 40.5085L97.4908 257.958C98.6134 258.549 99.7359 259.14 100.858 259.731L186.374 41.4995Z" fill="#EEEEEE"/>
<path d="M140.85 38.2286C139.42 38.4199 137.99 38.6113 136.64 38.9842L62.5124 227.822C63.2485 229.014 64.1663 230.127 65.084 231.239L140.85 38.2286Z" fill="#EEEEEE"/>
<path d="M171.889 38.5228C170.562 38.4533 169.337 38.123 168.01 38.0535L85.054 249.765C86.0742 250.617 87.0151 251.287 88.2168 252.06L171.889 38.5228Z" fill="#EEEEEE"/>
<path d="M156.688 37.3721C155.361 37.3026 154.113 37.4147 152.604 37.4245L73.2317 240.007C74.2518 240.859 75.0903 241.79 76.1897 242.823L156.688 37.3721Z" fill="#EEEEEE"/>
<path d="M123.987 41.6933C122.455 42.1454 120.923 42.5976 119.391 43.0497L52.6355 213.108C53.4508 214.482 54.2662 215.855 55.0816 217.229L123.987 41.6933Z" fill="#EEEEEE"/>
<path d="M198.316 45.5855C197.794 45.3807 197.272 45.176 196.49 44.8688L110.383 264.223C110.905 264.428 111.427 264.633 112.209 264.94C112.731 265.145 113.252 265.349 114.035 265.656L200.141 46.3022C199.359 45.995 198.837 45.7903 198.316 45.5855Z" fill="#EEEEEE"/>
<path d="M105.896 48.2881C104.262 49.0011 102.525 49.9749 100.89 50.6879L44.271 194.924C44.984 196.559 45.5154 198.273 46.3076 200.089L105.896 48.2881Z" fill="#EEEEEE"/>
<path d="M39.5021 177.55L85.5757 60.1785C83.6341 61.6739 81.6925 63.1694 79.8301 64.8464L38.4662 170.22C38.6904 172.716 39.0963 175.133 39.5021 177.55Z" fill="#EEEEEE"/>
<path d="M266.254 115.601C265.722 113.887 264.93 112.071 264.217 110.436L204.629 262.237C206.263 261.524 208 260.55 209.634 259.837L266.254 115.601Z" fill="#EEEEEE"/>
<path d="M257.889 97.4168C257.074 96.0432 256.259 94.6695 255.443 93.2959L186.538 268.831C188.07 268.379 189.602 267.927 191.134 267.475L257.889 97.4168Z" fill="#EEEEEE"/>
<path d="M66.1791 78.1507C58.6234 88.58 52.2463 100.225 47.1502 112.823C42.2357 125.343 38.9885 138.216 37.511 151.182L66.1791 78.1507Z" fill="#EEEEEE"/>
<path d="M272.059 140.305C271.653 137.888 271.247 135.471 270.841 133.054L224.87 250.165C226.811 248.669 228.753 247.174 230.695 245.678L272.059 140.305Z" fill="#EEEEEE"/>
<path d="M225.652 60.6812C224.632 59.8292 223.691 59.1588 222.49 58.3861L138.636 272.002C139.963 272.072 141.188 272.402 142.515 272.471L225.652 60.6812Z" fill="#EEEEEE"/>
<path d="M213.034 52.567C211.912 51.9759 210.789 51.3847 209.667 50.7936L124.072 268.844C125.297 269.174 126.522 269.504 127.747 269.835L213.034 52.567Z" fill="#EEEEEE"/>
<path d="M248.012 82.703C247.095 81.5902 246.177 80.4774 245.259 79.3646L169.494 272.376C170.923 272.184 172.353 271.993 173.783 271.802L248.012 82.703Z" fill="#EEEEEE"/>
<path d="M237.293 70.5181C236.273 69.6661 235.434 68.7349 234.335 67.7014L153.837 273.153C155.164 273.222 156.412 273.11 157.921 273.1L237.293 70.5181Z" fill="#EEEEEE"/>
<g clip-path="url(#clip1)">
<path d="M186.374 41.4995C185.149 41.1692 183.924 40.8389 182.699 40.5085L97.4908 257.958C98.6134 258.549 99.7359 259.14 100.858 259.731L186.374 41.4995Z" fill="#EEEEEE"/>
<path d="M140.85 38.2286C139.42 38.4199 137.99 38.6113 136.64 38.9842L62.5124 227.822C63.2485 229.014 64.1663 230.127 65.084 231.239L140.85 38.2286Z" fill="#EEEEEE"/>
<path d="M171.889 38.5228C170.562 38.4533 169.337 38.123 168.01 38.0535L85.054 249.765C86.0742 250.617 87.0151 251.287 88.2168 252.06L171.889 38.5228Z" fill="#EEEEEE"/>
<path d="M156.688 37.3721C155.361 37.3026 154.113 37.4147 152.604 37.4245L73.2317 240.007C74.2518 240.859 75.0903 241.79 76.1897 242.823L156.688 37.3721Z" fill="#EEEEEE"/>
<path d="M123.987 41.6933C122.455 42.1454 120.923 42.5976 119.391 43.0497L52.6355 213.108C53.4508 214.482 54.2662 215.855 55.0816 217.229L123.987 41.6933Z" fill="#EEEEEE"/>
<path d="M198.316 45.5855C197.794 45.3807 197.272 45.176 196.49 44.8688L110.383 264.223C110.905 264.428 111.427 264.633 112.209 264.94C112.731 265.145 113.252 265.349 114.035 265.656L200.141 46.3022C199.359 45.995 198.837 45.7903 198.316 45.5855Z" fill="#EEEEEE"/>
<path d="M105.896 48.2881C104.262 49.0011 102.525 49.9749 100.89 50.6879L44.271 194.924C44.984 196.559 45.5154 198.273 46.3076 200.089L105.896 48.2881Z" fill="#EEEEEE"/>
<path d="M39.5021 177.55L85.5757 60.1785C83.6341 61.6739 81.6925 63.1694 79.8301 64.8464L38.4662 170.22C38.6904 172.716 39.0963 175.133 39.5021 177.55Z" fill="#EEEEEE"/>
<path d="M266.254 115.601C265.722 113.887 264.93 112.071 264.217 110.436L204.629 262.237C206.263 261.524 208 260.55 209.634 259.837L266.254 115.601Z" fill="#EEEEEE"/>
<path d="M257.889 97.4168C257.074 96.0432 256.259 94.6695 255.443 93.2959L186.538 268.831C188.07 268.379 189.602 267.927 191.134 267.475L257.889 97.4168Z" fill="#EEEEEE"/>
<path d="M66.1791 78.1507C58.6234 88.58 52.2463 100.225 47.1502 112.823C42.2357 125.343 38.9885 138.216 37.511 151.182L66.1791 78.1507Z" fill="#EEEEEE"/>
<path d="M272.059 140.305C271.653 137.888 271.247 135.471 270.841 133.054L224.87 250.165C226.811 248.669 228.753 247.174 230.695 245.678L272.059 140.305Z" fill="#EEEEEE"/>
<path d="M225.652 60.6812C224.632 59.8292 223.691 59.1588 222.49 58.3861L138.636 272.002C139.963 272.072 141.188 272.402 142.515 272.471L225.652 60.6812Z" fill="#EEEEEE"/>
<path d="M213.034 52.567C211.912 51.9759 210.789 51.3847 209.667 50.7936L124.072 268.844C125.297 269.174 126.522 269.504 127.747 269.835L213.034 52.567Z" fill="#EEEEEE"/>
<path d="M248.012 82.703C247.095 81.5902 246.177 80.4774 245.259 79.3646L169.494 272.376C170.923 272.184 172.353 271.993 173.783 271.802L248.012 82.703Z" fill="#EEEEEE"/>
<path d="M237.293 70.5181C236.273 69.6661 235.434 68.7349 234.335 67.7014L153.837 273.153C155.164 273.222 156.412 273.11 157.921 273.1L237.293 70.5181Z" fill="#EEEEEE"/>
</g>
</g>
<defs>
<clipPath id="clip0">
<rect width="235.579" height="235.579" fill="white" transform="translate(0.20166 94.394) rotate(-23.5677)"/>
</clipPath>
<clipPath id="clip1">
<rect width="235.579" height="235.579" fill="white" transform="translate(0.20166 94.394) rotate(-23.5677)"/>
</clipPath>
</defs>
</svg>
